M48
;Layer_Color=9474304
;FILE_FORMAT=2:5
INCH,LZ
;TYPE=PLATED
T3F00S00C0.02800
T4F00S00C0.03200
T5F00S00C0.03937
T6F00S00C0.05906
T7F00S00C0.11811
%
T03
X02285Y00729
X02465Y0091
X0255Y00979
X02615Y01112
X02725Y01221
X02767Y01316
X02453Y01375
X03517Y01208
X03576Y00786
X02065Y0119
X01985Y01431
X01702Y01425
X01406Y01335
X01338Y01153
X0154291Y0114491
X01338Y00742
X00753Y00932
X00622Y00892
X02049Y01788
X00502Y01089
X01615Y02439
X01835Y02295
X02059Y02175
T04
X0009291Y00495
X0019291
X0029291
X0039291
X0049291
X0059291
X0069291
X0079291
X0089291
X0099291
X0109291
X0119291
X0129291
X0139291
X0149291Y0049264
X0159291Y00495
X0169291
X0179291
X0189291
Y00595
X0179291
X0169291
X0159291
X0149291
X0139291
X0129291
X0119291
X0109291
X0099291
X0089291
X0079291
X0069291
X0059291
Y01895
Y01995
X0069291
Y01895
X0079291
Y01995
X0089291
Y01895
X0099291
X0109291
Y01995
X0099291
X0119291
X0129291
Y01895
X0119291
X0139291
Y01995
X0149291
Y01895
X0159291
Y01995
X0169291
Y01895
X0179291
Y01795
Y01695
X0189291
Y01595
Y01495
Y01395
Y01295
Y01195
Y01095
Y00995
Y00895
Y00795
Y00695
X0179291
Y00795
Y00895
Y00995
Y01095
Y01195
Y01295
Y01395
Y01495
Y01595
X0189291Y01795
Y01895
Y01995
X0179291
X0049291
X0039291
X0029291
Y01895
X0019291
Y01795
Y01695
Y01595
Y01495
X0009291
Y01595
Y01695
Y01795
Y01895
Y01995
X0019291
X0039291Y01895
X0049291
X0019291Y01395
X0009291
Y01295
Y01195
X0019291
Y01095
X0009291
Y00995
X0019291
Y00895
X0009291
Y00795
X0019291
Y00695
X0009291
Y00595
X0019291
X0029291
X0039291
X0049291
X0019291Y01295
T05
X00275Y00135
Y00235
X00375
X00475
Y00135
X00375
X0076Y0014
Y0024
X0086
X0096
Y0014
X0106
X0116
Y0024
X0106
X0086Y0014
X01415Y00135
Y00235
X01515
X01615
Y00135
X01515
X0215Y001
X0225
X0235
X0245
X0258642Y00084
X0276358
Y0035172
X0258642
X0245Y004
X0235
X0225
X0215
X0303642Y0035172
X0321358
Y00084
X0303642
X0348642
X0366358
Y0035172
X0348642
X0379Y00625
Y00725
Y00825
X0216Y00815
Y00715
Y00615
Y0103
Y0113
X0226
Y0123
Y0133
X0216
Y0143
X0226
Y0172
X0216
Y0182
Y0192
X0226
Y0182
X0269Y02045
X0279
X0289
X0299
X0309
X0319
X0329
X0216Y0123
X0226Y0103
X0055Y02245
Y02345
X0045
Y02245
X0065
Y02345
X00885
X00985
X01085
Y02245
X00985
X00885
X01365
X01465
Y02345
X01365
X01565
X01665
X01765
Y02245
X01665
X01565
X0209
Y02345
X0219
Y02245
X0229
Y02345
X0239
X0249
Y02245
X0259
X0269
X0279
Y02345
X0269
X0259
X0239Y02245
X03105
X03205
X03305
Y02345
X03205
X03105
T06
X0376894Y01165
Y01365
T07
X0011811Y0011811
X038189
X0011811Y023622
X038189
M30
