M48
;Layer_Color=9474304
;FILE_FORMAT=2:5
INCH,LZ
;TYPE=PLATED
T3F00S00C0.02756
T4F00S00C0.02800
T5F00S00C0.03200
T6F00S00C0.03543
T7F00S00C0.03600
T8F00S00C0.03937
T9F00S00C0.04724
T10F00S00C0.11811
%
T03
X0379Y00625
Y00725
Y00825
T04
X02435Y0138866
X0289Y0174
X0326Y01125
X0356122Y0088622
T05
X0009291Y00495
X0019291
X0029291
X0039291
X0049291Y0049303
X0059291Y00495
X0069291
X0079291
X0089291
X0099291
X0109291
X0119291
X0129291
X0139291
X0149803Y0049264
X0159291Y00495
X0169291
X0179291
X0189291
Y00595
X0179291
Y00695
Y00795
Y00895
Y00995
X0189291
Y0109461
Y01195
Y01295
Y01395
Y01495
Y01595
X0179291
Y01695
Y01795
Y01895
Y01995
X0189291
Y01895
Y01795
Y01695
X0179291Y01495
Y01395
Y01295
Y01195
Y0109539
X0189291Y00895
Y00795
Y0070091
X0169291Y00595
X0159291
X0149291
X0139291
X0129291
X0119291
X0109291
X0099291
X0089291
X0079291
X0069291
X0059291
X0059528Y01895
X006941
X0079055
X0079291Y01995
X0089291
X0099291
X0109291
X0119291
X0129291
X0139291
X0149291
X0159291
X0169291
Y01895
X0159291
X0149291
X0139291
X0129291
X0119213
X0109291
X0099291
X0089606
X0069291Y01995
X0059291
X0049291
X0039291
Y01895
X0049252
X0029252
X0019291
Y01995
X0029291
X0009291
Y01895
Y01795
X0019291
Y01695
X0009291
Y01595
Y0149461
Y01395
Y01295
X0019291
Y01395
Y01495
Y0159421
Y01195
Y01095
Y00995
Y00895
Y00795
Y00695
Y00595
X0029291
X0039291
X0049291
X0009291
Y00695
Y00795
Y00895
Y00995
Y01095
Y01195
T06
X0269Y0208
X0279
X0289
X0299
X0309
X0319
X0329
T07
X0215Y001
X0225
X0235
X0245
Y004
X0235
X0225
X0215
T08
X00275Y00135
Y00235
X00375
X00475
Y00135
X00375
X00745
X00845
Y00235
X00745
X00945
X01045
X01145
Y00135
X01045
X00945
X01415
Y00235
X01515
X01615
Y00135
X01515
X0277142Y000864
X0294858
X0313642
X0331358
X0347642
X0365358
Y0035412
X0347642
X0331358
X0313642
X0294858
X0277142
X0216Y00615
Y00715
Y00815
Y0105
Y0115
Y0125
Y0135
Y0145
Y0188
Y0198
Y0208
X00465Y02245
Y02345
X00365
X00265
Y02245
X00365
X00565
Y02345
X00665
X00765
Y02245
X00665
X01065
X01165
Y02345
X01065
X01265
X01365
X01465
Y02245
X01365
X01265
X0209
Y02345
X0219
Y02245
X0229
Y02345
X0239
X0249
Y02245
X0259
X0269
X0279
Y02345
X0269
X0259
X0239Y02245
X03105
X03205
X03305
Y02345
X03205
X03105
T09
X0376Y01165
Y01365
T10
X0011811Y0011811
X038189
X0011811Y0236221
X038189
M30
