M48
;Layer_Color=9474304
;FILE_FORMAT=2:5
INCH,LZ
;TYPE=PLATED
T3F00S00C0.02800
T4F00S00C0.03200
T5F00S00C0.03937
T6F00S00C0.05906
T7F00S00C0.11811
%
T03
X0229Y01305
X0365358Y0088
T04
X0009291Y00495
X0019291
X0029291
X0039291
X0049291
X0059291
X0069291
X0079291
X0089291
X0099291
X0109291
X0119291
X0129291
X0139291
X0149291Y0049264
X0159291Y00495
X0169291
X0179291
X0189291
Y00595
Y00695
Y00795
Y00895
X0179291
Y00995
Y01095
Y01195
Y01295
Y01395
Y01495
Y01595
Y01695
Y01795
Y01895
Y01995
X0189291
Y01895
Y01795
Y01695
Y01595
Y01495
Y01395
Y01295
Y01195
Y01095
Y00995
X0179291Y00795
Y00695
Y00595
X0169291
X0159291
X0149291
X0139291
X0129291
X0119291
X0109291
X0099291
X0089291
X0079291
X0069291
X0059291
Y01895
X0069291
X0079291
X0089291
X0099291
Y01995
X0109291
X0119291
Y01895
X0129291
X0139291
X0149291
X0159291
X0169291
Y01995
X0159291
X0149291
X0139291
X0129291
X0109291Y01895
X0089291Y01995
X0079291
X0069291
X0059291
X0049291
Y01895
X0039291
Y01995
X0029291
X0019291
X0009291
Y01895
X0019291
Y01795
X0009291
Y01695
Y01595
Y01495
Y01395
Y01295
X0019291
Y01395
Y01495
Y01595
Y01695
X0029291Y01895
X0019291Y01195
Y01095
Y00995
Y00895
Y00795
Y00695
Y00595
X0029291
X0039291
X0049291
X0009291
Y00695
Y00795
Y00895
Y00995
Y01095
Y01195
T05
X00275Y00135
Y00235
X00375
X00475
Y00135
X00375
X00745
Y00235
X00845
X00945
Y00135
X01045
X01145
Y00235
X01045
X00845Y00135
X01415
Y00235
X01515
X01615
Y00135
X01515
X0215Y001
X0225
X0235
X0245
X0258642Y00084
X0276358
Y0035172
X0258642
X0245Y004
X0235
X0225
X0215
X0303642Y0035172
X0321358
Y00084
X0303642
X0348642
X0366358
Y0035172
X0348642
X0379Y00625
Y00725
Y00825
X0216Y00815
Y00715
Y00615
Y0105
Y0115
Y0125
Y0135
Y0145
Y0188
Y0198
Y0208
X0269
X0279
X0289
X0299
X0309
X0319
X0329
X00465Y02245
Y02345
X00365
X00265
Y02245
X00365
X00565
Y02345
X00665
X00765
Y02245
X00665
X01065
Y02345
X01165
X01265
Y02245
X01365
X01465
Y02345
X01365
X01165Y02245
X0209
Y02345
X0219
X0229
Y02245
X0239
X0249
X0259
Y02345
X0269
Y02245
X0279
Y02345
X0249
X0239
X0219Y02245
X03105
Y02345
X03205
X03305
Y02245
X03205
T06
X0376894Y01165
Y01365
T07
X0011811Y0011811
X038189
X0011811Y0236221
X038189
M30
