G04*
G04 #@! TF.GenerationSoftware,Altium Limited,Altium Designer,18.1.4 (159)*
G04*
G04 Layer_Color=32768*
%FSLAX24Y24*%
%MOIN*%
G70*
G01*
G75*
%ADD56C,0.0039*%
%ADD57C,0.0020*%
D56*
X32503Y9950D02*
X32897D01*
X32700Y9753D02*
Y10147D01*
X31617Y8350D02*
Y11550D01*
X33783Y8350D02*
Y11550D01*
X31617D02*
X33783D01*
X31617Y8350D02*
X33783D01*
D57*
X32675Y11600D02*
G03*
X32675Y11600I-138J0D01*
G01*
X26888Y2179D02*
G03*
X26888Y2179I-138J0D01*
G01*
X31388D02*
G03*
X31388Y2179I-138J0D01*
G01*
X35888D02*
G03*
X35888Y2179I-138J0D01*
G01*
X26174Y11600D02*
G03*
X26174Y11600I-138J0D01*
G01*
Y16550D02*
G03*
X26174Y16550I-138J0D01*
G01*
X32675Y16600D02*
G03*
X32675Y16600I-138J0D01*
G01*
X32341Y11600D02*
X32734D01*
X32537Y11403D02*
Y11797D01*
X26750Y1982D02*
Y2375D01*
X26553Y2179D02*
X26947D01*
X31053D02*
X31447D01*
X31250Y1982D02*
Y2375D01*
X35553Y2179D02*
X35947D01*
X35750Y1982D02*
Y2375D01*
X26036Y11403D02*
Y11797D01*
X25839Y11600D02*
X26233D01*
X26036Y16353D02*
Y16747D01*
X25839Y16550D02*
X26233D01*
X32537Y16403D02*
Y16797D01*
X32341Y16600D02*
X32734D01*
M02*
