G04*
G04 #@! TF.GenerationSoftware,Altium Limited,Altium Designer,18.1.4 (159)*
G04*
G04 Layer_Color=32896*
%FSLAX24Y24*%
%MOIN*%
G70*
G01*
G75*
%ADD10C,0.0079*%
%ADD11C,0.0100*%
%ADD12C,0.0020*%
%ADD15R,0.0050X0.0100*%
%ADD70C,0.0098*%
D10*
X34544Y13513D02*
Y19202D01*
X30174Y13513D02*
Y19202D01*
X32916Y9946D02*
Y10654D01*
X34884Y9946D02*
Y10654D01*
X32916D02*
X34884D01*
X32916Y9946D02*
X34884D01*
X23924Y13513D02*
Y19202D01*
X28294Y13513D02*
Y19202D01*
X27842Y9130D02*
Y9170D01*
X27046Y10380D02*
Y10420D01*
X25496Y10380D02*
Y10420D01*
X23804Y15830D02*
Y15870D01*
X30004Y15830D02*
Y15870D01*
X33046Y12191D02*
Y12230D01*
X32580Y10258D02*
X32620D01*
X32254Y12191D02*
Y12230D01*
D11*
X34658Y8262D02*
G03*
X34658Y8262I-50J0D01*
G01*
X31225Y1303D02*
X31225Y3103D01*
X33025Y1303D02*
Y3103D01*
X34352Y8203D02*
Y8341D01*
X32148D02*
X34352D01*
X32148Y8203D02*
Y8341D01*
X34352Y7159D02*
Y7297D01*
X32148Y7159D02*
X34352D01*
X32148D02*
Y7297D01*
X34274Y8203D02*
Y8341D01*
X34195Y8203D02*
Y8341D01*
X34116Y8203D02*
Y8341D01*
X34037Y8203D02*
Y8341D01*
Y8203D02*
X34352D01*
X34274Y7159D02*
Y7297D01*
X34195Y7159D02*
Y7297D01*
X34116Y7159D02*
Y7297D01*
X34037Y7159D02*
Y7297D01*
X34352D01*
X36550Y1303D02*
Y3103D01*
X34750Y1303D02*
X34750Y3103D01*
X27700Y1303D02*
X27700Y3103D01*
X29500Y1303D02*
Y3103D01*
X16950Y15800D02*
X16850D01*
X16750Y15900D01*
Y16400D01*
X17050D01*
X17150Y16300D01*
Y16100D01*
X17050Y16000D01*
X16750D01*
X16550D02*
X16350D01*
X16450D01*
Y16400D01*
X16550D01*
X15950Y16500D02*
Y16400D01*
X16050D01*
X15850D01*
X15950D01*
Y16100D01*
X15850Y16000D01*
X15551Y16600D02*
Y16000D01*
Y16300D01*
X15451Y16400D01*
X15251D01*
X15151Y16300D01*
Y16000D01*
X14951Y16400D02*
Y16100D01*
X14851Y16000D01*
X14551D01*
Y16400D01*
X14351Y16600D02*
Y16000D01*
X14051D01*
X13951Y16100D01*
Y16200D01*
Y16300D01*
X14051Y16400D01*
X14351D01*
X13751Y16000D02*
X13351Y16400D01*
X12751Y16600D02*
X13151D01*
Y16300D01*
X12951D01*
X13151D01*
Y16000D01*
X12551Y16400D02*
Y16000D01*
Y16200D01*
X12452Y16300D01*
X12352Y16400D01*
X12252D01*
X11652Y16000D02*
X11852D01*
X11952Y16100D01*
Y16300D01*
X11852Y16400D01*
X11652D01*
X11552Y16300D01*
Y16200D01*
X11952D01*
X11052Y16000D02*
X11252D01*
X11352Y16100D01*
Y16300D01*
X11252Y16400D01*
X11052D01*
X10952Y16300D01*
Y16200D01*
X11352D01*
X10352Y16600D02*
Y16000D01*
X10652D01*
X10752Y16100D01*
Y16300D01*
X10652Y16400D01*
X10352D01*
X10152Y16300D02*
X9752D01*
X9552Y16600D02*
Y16000D01*
X9353Y16200D01*
X9153Y16000D01*
Y16600D01*
X8953Y16400D02*
Y16100D01*
X8853Y16000D01*
X8553D01*
Y16400D01*
X8353Y16000D02*
X7953Y16400D01*
X7753Y16600D02*
Y16000D01*
Y16200D01*
X7353Y16600D01*
X7653Y16300D01*
X7353Y16000D01*
X6753Y16600D02*
X6953Y16500D01*
X7153Y16300D01*
Y16100D01*
X7053Y16000D01*
X6853D01*
X6753Y16100D01*
Y16200D01*
X6853Y16300D01*
X7153D01*
X6553Y16500D02*
X6453Y16600D01*
X6254D01*
X6154Y16500D01*
Y16100D01*
X6254Y16000D01*
X6453D01*
X6553Y16100D01*
Y16500D01*
X17150Y17250D02*
Y17850D01*
X16750Y17250D01*
Y17850D01*
X16150D02*
X16350D01*
X16250D01*
Y17350D01*
X16350Y17250D01*
X16450D01*
X16550Y17350D01*
X15950Y17850D02*
Y17350D01*
X15850Y17250D01*
X15650D01*
X15551Y17350D01*
Y17850D01*
X14951Y17750D02*
X15051Y17850D01*
X15251D01*
X15351Y17750D01*
Y17650D01*
X15251Y17550D01*
X15051D01*
X14951Y17450D01*
Y17350D01*
X15051Y17250D01*
X15251D01*
X15351Y17350D01*
X14751Y17850D02*
X14351D01*
X14551D01*
Y17250D01*
X13151D02*
X13551D01*
X13151Y17650D01*
Y17750D01*
X13251Y17850D01*
X13451D01*
X13551Y17750D01*
X12951D02*
X12851Y17850D01*
X12651D01*
X12551Y17750D01*
Y17350D01*
X12651Y17250D01*
X12851D01*
X12951Y17350D01*
Y17750D01*
X12352Y17250D02*
X12152D01*
X12252D01*
Y17850D01*
X12352Y17750D01*
X11852Y17350D02*
X11752Y17250D01*
X11552D01*
X11452Y17350D01*
Y17750D01*
X11552Y17850D01*
X11752D01*
X11852Y17750D01*
Y17650D01*
X11752Y17550D01*
X11452D01*
X10652Y17850D02*
Y17250D01*
X10352D01*
X10252Y17350D01*
Y17450D01*
X10352Y17550D01*
X10652D01*
X10352D01*
X10252Y17650D01*
Y17750D01*
X10352Y17850D01*
X10652D01*
X9752Y17250D02*
X9952D01*
X10052Y17350D01*
Y17550D01*
X9952Y17650D01*
X9752D01*
X9652Y17550D01*
Y17450D01*
X10052D01*
X9353Y17650D02*
X9153D01*
X9053Y17550D01*
Y17250D01*
X9353D01*
X9452Y17350D01*
X9353Y17450D01*
X9053D01*
X8453Y17650D02*
X8753D01*
X8853Y17550D01*
Y17350D01*
X8753Y17250D01*
X8453D01*
X8153D02*
X7953D01*
X7853Y17350D01*
Y17550D01*
X7953Y17650D01*
X8153D01*
X8253Y17550D01*
Y17350D01*
X8153Y17250D01*
X7653D02*
Y17650D01*
X7353D01*
X7253Y17550D01*
Y17250D01*
X6453Y17650D02*
X6254Y17250D01*
X6054Y17650D01*
X5854Y17750D02*
X5754Y17850D01*
X5554D01*
X5454Y17750D01*
Y17350D01*
X5554Y17250D01*
X5754D01*
X5854Y17350D01*
Y17750D01*
X5254Y17250D02*
Y17350D01*
X5154D01*
Y17250D01*
X5254D01*
X4754Y17750D02*
X4654Y17850D01*
X4454D01*
X4354Y17750D01*
Y17350D01*
X4454Y17250D01*
X4654D01*
X4754Y17350D01*
Y17750D01*
X4154Y17250D02*
Y17350D01*
X4054D01*
Y17250D01*
X4154D01*
X3654D02*
X3454D01*
X3554D01*
Y17850D01*
X3654Y17750D01*
X36500Y11000D02*
Y10500D01*
X36400Y10400D01*
X36200D01*
X36100Y10500D01*
Y11000D01*
X35900Y10900D02*
X35800Y11000D01*
X35600D01*
X35500Y10900D01*
Y10800D01*
X35600Y10700D01*
X35700D01*
X35600D01*
X35500Y10600D01*
Y10500D01*
X35600Y10400D01*
X35800D01*
X35900Y10500D01*
X34480Y20850D02*
Y20350D01*
X34380Y20250D01*
X34180D01*
X34080Y20350D01*
Y20850D01*
X33480Y20250D02*
X33880D01*
X33480Y20650D01*
Y20750D01*
X33580Y20850D01*
X33780D01*
X33880Y20750D01*
X33100Y20526D02*
Y20250D01*
X32916D01*
X32824D02*
Y20526D01*
X32733Y20434D01*
X32641Y20526D01*
Y20250D01*
X32365D02*
X32549D01*
X32365Y20434D01*
Y20480D01*
X32411Y20526D01*
X32503D01*
X32549Y20480D01*
X32273Y20296D02*
X32228Y20250D01*
X32136D01*
X32090Y20296D01*
Y20480D01*
X32136Y20526D01*
X32228D01*
X32273Y20480D01*
Y20434D01*
X32228Y20388D01*
X32090D01*
X31998Y20480D02*
X31952Y20526D01*
X31860D01*
X31814Y20480D01*
Y20434D01*
X31860Y20388D01*
X31906D01*
X31860D01*
X31814Y20342D01*
Y20296D01*
X31860Y20250D01*
X31952D01*
X31998Y20296D01*
X31722Y20526D02*
X31539D01*
Y20480D01*
X31722Y20296D01*
Y20250D01*
X31447Y20388D02*
X31263D01*
X31171Y20480D02*
X31126Y20526D01*
X31034D01*
X30988Y20480D01*
Y20434D01*
X31034Y20388D01*
X31080D01*
X31034D01*
X30988Y20342D01*
Y20296D01*
X31034Y20250D01*
X31126D01*
X31171Y20296D01*
X30896Y20250D02*
Y20296D01*
X30850D01*
Y20250D01*
X30896D01*
X30666Y20480D02*
X30620Y20526D01*
X30529D01*
X30483Y20480D01*
Y20434D01*
X30529Y20388D01*
X30575D01*
X30529D01*
X30483Y20342D01*
Y20296D01*
X30529Y20250D01*
X30620D01*
X30666Y20296D01*
X30391Y20526D02*
Y20342D01*
X30299Y20250D01*
X30207Y20342D01*
Y20526D01*
X28230Y20850D02*
Y20350D01*
X28130Y20250D01*
X27930D01*
X27830Y20350D01*
Y20850D01*
X27630Y20250D02*
X27430D01*
X27530D01*
Y20850D01*
X27630Y20750D01*
X26900Y20526D02*
Y20250D01*
X26716D01*
X26625D02*
Y20526D01*
X26533Y20434D01*
X26441Y20526D01*
Y20250D01*
X26165D02*
X26349D01*
X26165Y20434D01*
Y20480D01*
X26211Y20526D01*
X26303D01*
X26349Y20480D01*
X26073Y20296D02*
X26028Y20250D01*
X25936D01*
X25890Y20296D01*
Y20480D01*
X25936Y20526D01*
X26028D01*
X26073Y20480D01*
Y20434D01*
X26028Y20388D01*
X25890D01*
X25660Y20250D02*
Y20526D01*
X25798Y20388D01*
X25614D01*
X25522Y20480D02*
X25477Y20526D01*
X25385D01*
X25339Y20480D01*
Y20296D01*
X25385Y20250D01*
X25477D01*
X25522Y20296D01*
Y20480D01*
X25247Y20388D02*
X25063D01*
X24788Y20526D02*
X24971D01*
Y20388D01*
X24880Y20434D01*
X24834D01*
X24788Y20388D01*
Y20296D01*
X24834Y20250D01*
X24926D01*
X24971Y20296D01*
X24696Y20250D02*
Y20296D01*
X24650D01*
Y20250D01*
X24696D01*
X24466Y20480D02*
X24420Y20526D01*
X24329D01*
X24283Y20480D01*
Y20296D01*
X24329Y20250D01*
X24420D01*
X24466Y20296D01*
Y20480D01*
X24191Y20526D02*
Y20342D01*
X24099Y20250D01*
X24007Y20342D01*
Y20526D01*
X14923Y7706D02*
Y8306D01*
X14623D01*
X14523Y8206D01*
Y8006D01*
X14623Y7906D01*
X14923D01*
X14723D02*
X14523Y7706D01*
X14323D02*
Y8306D01*
X14023D01*
X13923Y8206D01*
Y8006D01*
X14023Y7906D01*
X14323D01*
X13324Y7706D02*
X13724D01*
X13324Y8106D01*
Y8206D01*
X13424Y8306D01*
X13624D01*
X13724Y8206D01*
X27550Y9500D02*
Y10100D01*
X27250D01*
X27150Y10000D01*
Y9800D01*
X27250Y9700D01*
X27550D01*
X27350D02*
X27150Y9500D01*
X26950Y10000D02*
X26850Y10100D01*
X26650D01*
X26550Y10000D01*
Y9900D01*
X26650Y9800D01*
X26550Y9700D01*
Y9600D01*
X26650Y9500D01*
X26850D01*
X26950Y9600D01*
Y9700D01*
X26850Y9800D01*
X26950Y9900D01*
Y10000D01*
X26850Y9800D02*
X26650D01*
X26050Y10820D02*
Y11420D01*
X25750D01*
X25650Y11320D01*
Y11120D01*
X25750Y11020D01*
X26050D01*
X25850D02*
X25650Y10820D01*
X25450Y11420D02*
X25050D01*
Y11320D01*
X25450Y10920D01*
Y10820D01*
X27600D02*
Y11420D01*
X27300D01*
X27200Y11320D01*
Y11120D01*
X27300Y11020D01*
X27600D01*
X27400D02*
X27200Y10820D01*
X26600Y11420D02*
X26800Y11320D01*
X27000Y11120D01*
Y10920D01*
X26900Y10820D01*
X26700D01*
X26600Y10920D01*
Y11020D01*
X26700Y11120D01*
X27000D01*
X32198Y12630D02*
Y13230D01*
X31899D01*
X31799Y13130D01*
Y12930D01*
X31899Y12830D01*
X32198D01*
X31998D02*
X31799Y12630D01*
X31299D02*
Y13230D01*
X31599Y12930D01*
X31199D01*
X33600Y12630D02*
Y13230D01*
X33300D01*
X33200Y13130D01*
Y12930D01*
X33300Y12830D01*
X33600D01*
X33400D02*
X33200Y12630D01*
X33000Y13130D02*
X32900Y13230D01*
X32700D01*
X32600Y13130D01*
Y13030D01*
X32700Y12930D01*
X32800D01*
X32700D01*
X32600Y12830D01*
Y12730D01*
X32700Y12630D01*
X32900D01*
X33000Y12730D01*
X32620Y11210D02*
Y11810D01*
X32320D01*
X32220Y11710D01*
Y11510D01*
X32320Y11410D01*
X32620D01*
X32420D02*
X32220Y11210D01*
X32020D02*
X31820D01*
X31920D01*
Y11810D01*
X32020Y11710D01*
X36650Y8050D02*
Y7450D01*
X36350D01*
X36250Y7550D01*
Y7950D01*
X36350Y8050D01*
X36650D01*
X35750Y7450D02*
Y8050D01*
X36050Y7750D01*
X35650D01*
X29548Y16768D02*
X29648Y16868D01*
X29848D01*
X29948Y16768D01*
Y16368D01*
X29848Y16268D01*
X29648D01*
X29548Y16368D01*
X29048Y16268D02*
Y16868D01*
X29348Y16568D01*
X28948D01*
X23348Y16770D02*
X23448Y16870D01*
X23648D01*
X23748Y16770D01*
Y16370D01*
X23648Y16270D01*
X23448D01*
X23348Y16370D01*
X22748Y16270D02*
X23148D01*
X22748Y16670D01*
Y16770D01*
X22848Y16870D01*
X23048D01*
X23148Y16770D01*
D12*
X13990Y6489D02*
Y7395D01*
X15013D01*
Y6489D02*
Y7395D01*
X13990Y6489D02*
X15013D01*
D15*
X14988Y6542D02*
D03*
D70*
X33408Y14517D02*
G03*
X33408Y14517I-49J0D01*
G01*
X35034Y9355D02*
G03*
X35034Y9355I-49J0D01*
G01*
X27158Y14517D02*
G03*
X27158Y14517I-49J0D01*
G01*
M02*
