G04*
G04 #@! TF.GenerationSoftware,Altium Limited,Altium Designer,18.1.4 (159)*
G04*
G04 Layer_Color=2752767*
%FSLAX24Y24*%
%MOIN*%
G70*
G01*
G75*
%ADD72C,0.0020*%
%ADD73C,0.0027*%
%ADD74C,0.0013*%
D72*
X20820Y22370D02*
Y22530D01*
X20980D01*
Y22370D01*
X20820D01*
Y23370D02*
Y23530D01*
X20980D01*
Y23370D01*
X20820D01*
X21820Y22370D02*
Y22530D01*
X21980D01*
Y22370D01*
X21820D01*
X23820Y23370D02*
Y23530D01*
X23980D01*
Y23370D01*
X23820D01*
X27820D02*
Y23530D01*
X27980D01*
Y23370D01*
X27820D01*
X24820Y22370D02*
Y22530D01*
X24980D01*
Y22370D01*
X24820D01*
Y23370D02*
Y23530D01*
X24980D01*
Y23370D01*
X24820D01*
X25820Y22370D02*
Y22530D01*
X25980D01*
Y22370D01*
X25820D01*
X22820D02*
Y22530D01*
X22980D01*
Y22370D01*
X22820D01*
Y23370D02*
Y23530D01*
X22980D01*
Y23370D01*
X22820D01*
X23820Y22370D02*
Y22530D01*
X23980D01*
Y22370D01*
X23820D01*
X27820D02*
Y22530D01*
X27980D01*
Y22370D01*
X27820D01*
X26820Y23370D02*
Y23530D01*
X26980D01*
Y23370D01*
X26820D01*
Y22370D02*
Y22530D01*
X26980D01*
Y22370D01*
X26820D01*
X21820Y23370D02*
Y23530D01*
X21980D01*
Y23370D01*
X21820D01*
X25820D02*
Y23530D01*
X25980D01*
Y23370D01*
X25820D01*
X7570Y22370D02*
Y22530D01*
X7730D01*
Y22370D01*
X7570D01*
Y23370D02*
Y23530D01*
X7730D01*
Y23370D01*
X7570D01*
X4570D02*
Y23530D01*
X4730D01*
Y23370D01*
X4570D01*
Y22370D02*
Y22530D01*
X4730D01*
Y22370D01*
X4570D01*
X5570D02*
Y22530D01*
X5730D01*
Y22370D01*
X5570D01*
Y23370D02*
Y23530D01*
X5730D01*
Y23370D01*
X5570D01*
X6570Y22370D02*
Y22530D01*
X6730D01*
Y22370D01*
X6570D01*
X2570D02*
Y22530D01*
X2730D01*
Y22370D01*
X2570D01*
Y23370D02*
Y23530D01*
X2730D01*
Y23370D01*
X2570D01*
X3570Y22370D02*
Y22530D01*
X3730D01*
Y22370D01*
X3570D01*
X6570Y23370D02*
Y23530D01*
X6730D01*
Y23370D01*
X6570D01*
X3570D02*
Y23530D01*
X3730D01*
Y23370D01*
X3570D01*
X21520Y12420D02*
Y12580D01*
X21680D01*
Y12420D01*
X21520D01*
Y11420D02*
Y11580D01*
X21680D01*
Y11420D01*
X21520D01*
Y10420D02*
Y10580D01*
X21680D01*
Y10420D01*
X21520D01*
Y13420D02*
Y13580D01*
X21680D01*
Y13420D01*
X21520D01*
Y14420D02*
Y14580D01*
X21680D01*
Y14420D01*
X21520D01*
Y19720D02*
Y19880D01*
X21680D01*
Y19720D01*
X21520D01*
Y18720D02*
Y18880D01*
X21680D01*
Y18720D01*
X21520D01*
Y20720D02*
Y20880D01*
X21680D01*
Y20720D01*
X21520D01*
X37600Y13570D02*
X37520Y13730D01*
X37680D01*
X37600Y13570D01*
Y11570D02*
X37520Y11730D01*
X37680D01*
X37600Y11570D01*
X13570Y23370D02*
Y23530D01*
X13730D01*
Y23370D01*
X13570D01*
X11570Y22370D02*
Y22530D01*
X11730D01*
Y22370D01*
X11570D01*
X14570D02*
Y22530D01*
X14730D01*
Y22370D01*
X14570D01*
Y23370D02*
Y23530D01*
X14730D01*
Y23370D01*
X14570D01*
X11570D02*
Y23530D01*
X11730D01*
Y23370D01*
X11570D01*
X12570Y22370D02*
Y22530D01*
X12730D01*
Y22370D01*
X12570D01*
X13570D02*
Y22530D01*
X13730D01*
Y22370D01*
X13570D01*
X10570Y23370D02*
Y23530D01*
X10730D01*
Y23370D01*
X10570D01*
X12570D02*
Y23530D01*
X12730D01*
Y23370D01*
X12570D01*
X10570Y22370D02*
Y22530D01*
X10730D01*
Y22370D01*
X10570D01*
X37900Y8170D02*
X37940Y8210D01*
X37980D01*
X37940Y8250D01*
X37980Y8290D01*
X37940D01*
X37900Y8330D01*
X37860Y8290D01*
X37820D01*
X37860Y8250D01*
X37820Y8210D01*
X37860D01*
X37900Y8170D01*
Y7170D02*
X37940Y7210D01*
X37980D01*
X37940Y7250D01*
X37980Y7290D01*
X37940D01*
X37900Y7330D01*
X37860Y7290D01*
X37820D01*
X37860Y7250D01*
X37820Y7210D01*
X37860D01*
X37900Y7170D01*
Y6170D02*
X37940Y6210D01*
X37980D01*
X37940Y6250D01*
X37980Y6290D01*
X37940D01*
X37900Y6330D01*
X37860Y6290D01*
X37820D01*
X37860Y6250D01*
X37820Y6210D01*
X37860D01*
X37900Y6170D01*
X23420Y920D02*
X23460Y1000D01*
X23420Y1080D01*
X23500Y1040D01*
X23580Y1080D01*
X23540Y1000D01*
X23580Y920D01*
X23500Y960D01*
X23420Y920D01*
X24420D02*
X24460Y1000D01*
X24420Y1080D01*
X24500Y1040D01*
X24580Y1080D01*
X24540Y1000D01*
X24580Y920D01*
X24500Y960D01*
X24420Y920D01*
X21420D02*
X21460Y1000D01*
X21420Y1080D01*
X21500Y1040D01*
X21580Y1080D01*
X21540Y1000D01*
X21580Y920D01*
X21500Y960D01*
X21420Y920D01*
X22420D02*
X22460Y1000D01*
X22420Y1080D01*
X22500Y1040D01*
X22580Y1080D01*
X22540Y1000D01*
X22580Y920D01*
X22500Y960D01*
X22420Y920D01*
X24420Y3920D02*
X24460Y4000D01*
X24420Y4080D01*
X24500Y4040D01*
X24580Y4080D01*
X24540Y4000D01*
X24580Y3920D01*
X24500Y3960D01*
X24420Y3920D01*
X23420D02*
X23460Y4000D01*
X23420Y4080D01*
X23500Y4040D01*
X23580Y4080D01*
X23540Y4000D01*
X23580Y3920D01*
X23500Y3960D01*
X23420Y3920D01*
X22420D02*
X22460Y4000D01*
X22420Y4080D01*
X22500Y4040D01*
X22580Y4080D01*
X22540Y4000D01*
X22580Y3920D01*
X22500Y3960D01*
X22420Y3920D01*
X21420D02*
X21460Y4000D01*
X21420Y4080D01*
X21500Y4040D01*
X21580Y4080D01*
X21540Y4000D01*
X21580Y3920D01*
X21500Y3960D01*
X21420Y3920D01*
X37950Y19335D02*
Y19295D01*
X38030D01*
Y19335D01*
X38070D01*
Y19415D01*
X38030D01*
Y19455D01*
X37950D01*
Y19415D01*
X37910D01*
Y19335D01*
X37950D01*
X37910Y18507D02*
X37950D01*
X37990Y18547D01*
X38030Y18507D01*
X38070D01*
Y18547D01*
X38030Y18587D01*
X38070Y18627D01*
Y18667D01*
X38030D01*
X37990Y18627D01*
X37950Y18667D01*
X37910D01*
Y18627D01*
X37950Y18587D01*
X37910Y18547D01*
Y18507D01*
X37950Y16185D02*
Y16145D01*
X38030D01*
Y16185D01*
X38070D01*
Y16265D01*
X38030D01*
Y16305D01*
X37950D01*
Y16265D01*
X37910D01*
Y16185D01*
X37950D01*
X37910Y17720D02*
X37950D01*
X37990Y17760D01*
X38030Y17720D01*
X38070D01*
Y17760D01*
X38030Y17800D01*
X38070Y17840D01*
Y17880D01*
X38030D01*
X37990Y17840D01*
X37950Y17880D01*
X37910D01*
Y17840D01*
X37950Y17800D01*
X37910Y17760D01*
Y17720D01*
Y16933D02*
X37950D01*
X37990Y16973D01*
X38030Y16933D01*
X38070D01*
Y16973D01*
X38030Y17013D01*
X38070Y17053D01*
Y17093D01*
X38030D01*
X37990Y17053D01*
X37950Y17093D01*
X37910D01*
Y17053D01*
X37950Y17013D01*
X37910Y16973D01*
Y16933D01*
X36456Y784D02*
Y944D01*
X36616D01*
Y784D01*
X36456D01*
X34684D02*
Y944D01*
X34844D01*
Y784D01*
X34684D01*
Y3461D02*
Y3621D01*
X34844D01*
Y3461D01*
X34684D01*
X36456D02*
Y3621D01*
X36616D01*
Y3461D01*
X36456D01*
X31970Y22370D02*
Y22530D01*
X32130D01*
Y22370D01*
X31970D01*
X30970D02*
Y22530D01*
X31130D01*
Y22370D01*
X30970D01*
Y23370D02*
Y23530D01*
X31130D01*
Y23370D01*
X30970D01*
X32970D02*
Y23530D01*
X33130D01*
Y23370D01*
X32970D01*
Y22370D02*
Y22530D01*
X33130D01*
Y22370D01*
X32970D01*
X31970Y23370D02*
Y23530D01*
X32130D01*
Y23370D01*
X31970D01*
X18849Y19950D02*
X18929Y20030D01*
X19009Y19950D01*
X18929Y19870D01*
X18849Y19950D01*
X17849D02*
X17929Y20030D01*
X18009Y19950D01*
X17929Y19870D01*
X17849Y19950D01*
X18849Y18950D02*
X18929Y19030D01*
X19009Y18950D01*
X18929Y18870D01*
X18849Y18950D01*
X17849D02*
X17929Y19030D01*
X18009Y18950D01*
X17929Y18870D01*
X17849Y18950D01*
X18849Y17950D02*
X18929Y18030D01*
X19009Y17950D01*
X18929Y17870D01*
X18849Y17950D01*
X17849D02*
X17929Y18030D01*
X18009Y17950D01*
X17929Y17870D01*
X17849Y17950D01*
Y16950D02*
X17929Y17030D01*
X18009Y16950D01*
X17929Y16870D01*
X17849Y16950D01*
X18849Y15950D02*
X18929Y16030D01*
X19009Y15950D01*
X18929Y15870D01*
X18849Y15950D01*
X17849D02*
X17929Y16030D01*
X18009Y15950D01*
X17929Y15870D01*
X17849Y15950D01*
X18849Y14950D02*
X18929Y15030D01*
X19009Y14950D01*
X18929Y14870D01*
X18849Y14950D01*
X17849D02*
X17929Y15030D01*
X18009Y14950D01*
X17929Y14870D01*
X17849Y14950D01*
X18849Y13950D02*
X18929Y14030D01*
X19009Y13950D01*
X18929Y13870D01*
X18849Y13950D01*
X17849D02*
X17929Y14030D01*
X18009Y13950D01*
X17929Y13870D01*
X17849Y13950D01*
X18849Y12950D02*
X18929Y13030D01*
X19009Y12950D01*
X18929Y12870D01*
X18849Y12950D01*
X17849D02*
X17929Y13030D01*
X18009Y12950D01*
X17929Y12870D01*
X17849Y12950D01*
X18849Y11950D02*
X18929Y12030D01*
X19009Y11950D01*
X18929Y11870D01*
X18849Y11950D01*
X17849D02*
X17929Y12030D01*
X18009Y11950D01*
X17929Y11870D01*
X17849Y11950D01*
X18849Y10946D02*
X18929Y11026D01*
X19009Y10946D01*
X18929Y10866D01*
X18849Y10946D01*
X17849Y10954D02*
X17929Y11034D01*
X18009Y10954D01*
X17929Y10874D01*
X17849Y10954D01*
Y9950D02*
X17929Y10030D01*
X18009Y9950D01*
X17929Y9870D01*
X17849Y9950D01*
X18849Y8950D02*
X18929Y9030D01*
X19009Y8950D01*
X18929Y8870D01*
X18849Y8950D01*
X17849D02*
X17929Y9030D01*
X18009Y8950D01*
X17929Y8870D01*
X17849Y8950D01*
X18849Y7950D02*
X18929Y8030D01*
X19009Y7950D01*
X18929Y7870D01*
X18849Y7950D01*
X17849D02*
X17929Y8030D01*
X18009Y7950D01*
X17929Y7870D01*
X17849Y7950D01*
X18849Y7009D02*
X18929Y7089D01*
X19009Y7009D01*
X18929Y6929D01*
X18849Y7009D01*
X17849Y6950D02*
X17929Y7030D01*
X18009Y6950D01*
X17929Y6870D01*
X17849Y6950D01*
X18849Y5950D02*
X18929Y6030D01*
X19009Y5950D01*
X18929Y5870D01*
X18849Y5950D01*
Y4950D02*
X18929Y5030D01*
X19009Y4950D01*
X18929Y4870D01*
X18849Y4950D01*
X17849D02*
X17929Y5030D01*
X18009Y4950D01*
X17929Y4870D01*
X17849Y4950D01*
X16849Y5950D02*
X16929Y6030D01*
X17009Y5950D01*
X16929Y5870D01*
X16849Y5950D01*
Y4950D02*
X16929Y5030D01*
X17009Y4950D01*
X16929Y4870D01*
X16849Y4950D01*
X15849Y5950D02*
X15929Y6030D01*
X16009Y5950D01*
X15929Y5870D01*
X15849Y5950D01*
Y4950D02*
X15929Y5030D01*
X16009Y4950D01*
X15929Y4870D01*
X15849Y4950D01*
X849Y12950D02*
X929Y13030D01*
X1009Y12950D01*
X929Y12870D01*
X849Y12950D01*
X1849D02*
X1929Y13030D01*
X2009Y12950D01*
X1929Y12870D01*
X1849Y12950D01*
X849Y13950D02*
X929Y14030D01*
X1009Y13950D01*
X929Y13870D01*
X849Y13950D01*
X1849D02*
X1929Y14030D01*
X2009Y13950D01*
X1929Y13870D01*
X1849Y13950D01*
X14849Y5950D02*
X14929Y6030D01*
X15009Y5950D01*
X14929Y5870D01*
X14849Y5950D01*
X13849D02*
X13929Y6030D01*
X14009Y5950D01*
X13929Y5870D01*
X13849Y5950D01*
Y4950D02*
X13929Y5030D01*
X14009Y4950D01*
X13929Y4870D01*
X13849Y4950D01*
X12849D02*
X12929Y5030D01*
X13009Y4950D01*
X12929Y4870D01*
X12849Y4950D01*
X11849Y5950D02*
X11929Y6030D01*
X12009Y5950D01*
X11929Y5870D01*
X11849Y5950D01*
Y4950D02*
X11929Y5030D01*
X12009Y4950D01*
X11929Y4870D01*
X11849Y4950D01*
X10849Y5950D02*
X10929Y6030D01*
X11009Y5950D01*
X10929Y5870D01*
X10849Y5950D01*
Y4950D02*
X10929Y5030D01*
X11009Y4950D01*
X10929Y4870D01*
X10849Y4950D01*
X9849Y5950D02*
X9929Y6030D01*
X10009Y5950D01*
X9929Y5870D01*
X9849Y5950D01*
Y4950D02*
X9929Y5030D01*
X10009Y4950D01*
X9929Y4870D01*
X9849Y4950D01*
X8849Y5950D02*
X8929Y6030D01*
X9009Y5950D01*
X8929Y5870D01*
X8849Y5950D01*
Y4950D02*
X8929Y5030D01*
X9009Y4950D01*
X8929Y4870D01*
X8849Y4950D01*
X7849Y5950D02*
X7929Y6030D01*
X8009Y5950D01*
X7929Y5870D01*
X7849Y5950D01*
Y4950D02*
X7929Y5030D01*
X8009Y4950D01*
X7929Y4870D01*
X7849Y4950D01*
X6849Y5950D02*
X6929Y6030D01*
X7009Y5950D01*
X6929Y5870D01*
X6849Y5950D01*
X5849D02*
X5929Y6030D01*
X6009Y5950D01*
X5929Y5870D01*
X5849Y5950D01*
Y4950D02*
X5929Y5030D01*
X6009Y4950D01*
X5929Y4870D01*
X5849Y4950D01*
X4849Y5950D02*
X4929Y6030D01*
X5009Y5950D01*
X4929Y5870D01*
X4849Y5950D01*
X3849D02*
X3929Y6030D01*
X4009Y5950D01*
X3929Y5870D01*
X3849Y5950D01*
Y4950D02*
X3929Y5030D01*
X4009Y4950D01*
X3929Y4870D01*
X3849Y4950D01*
X2849Y5950D02*
X2929Y6030D01*
X3009Y5950D01*
X2929Y5870D01*
X2849Y5950D01*
Y4950D02*
X2929Y5030D01*
X3009Y4950D01*
X2929Y4870D01*
X2849Y4950D01*
X849D02*
X929Y5030D01*
X1009Y4950D01*
X929Y4870D01*
X849Y4950D01*
X1849D02*
X1929Y5030D01*
X2009Y4950D01*
X1929Y4870D01*
X1849Y4950D01*
X849Y5950D02*
X929Y6030D01*
X1009Y5950D01*
X929Y5870D01*
X849Y5950D01*
X1849D02*
X1929Y6030D01*
X2009Y5950D01*
X1929Y5870D01*
X1849Y5950D01*
X849Y6950D02*
X929Y7030D01*
X1009Y6950D01*
X929Y6870D01*
X849Y6950D01*
X1849D02*
X1929Y7030D01*
X2009Y6950D01*
X1929Y6870D01*
X1849Y6950D01*
X849Y7950D02*
X929Y8030D01*
X1009Y7950D01*
X929Y7870D01*
X849Y7950D01*
X1849D02*
X1929Y8030D01*
X2009Y7950D01*
X1929Y7870D01*
X1849Y7950D01*
X849Y8950D02*
X929Y9030D01*
X1009Y8950D01*
X929Y8870D01*
X849Y8950D01*
X1849D02*
X1929Y9030D01*
X2009Y8950D01*
X1929Y8870D01*
X1849Y8950D01*
Y9950D02*
X1929Y10030D01*
X2009Y9950D01*
X1929Y9870D01*
X1849Y9950D01*
X849Y10950D02*
X929Y11030D01*
X1009Y10950D01*
X929Y10870D01*
X849Y10950D01*
X1849D02*
X1929Y11030D01*
X2009Y10950D01*
X1929Y10870D01*
X1849Y10950D01*
X849Y11950D02*
X929Y12030D01*
X1009Y11950D01*
X929Y11870D01*
X849Y11950D01*
X1849D02*
X1929Y12030D01*
X2009Y11950D01*
X1929Y11870D01*
X1849Y11950D01*
X16849Y19950D02*
X16929Y20030D01*
X17009Y19950D01*
X16929Y19870D01*
X16849Y19950D01*
Y18950D02*
X16929Y19030D01*
X17009Y18950D01*
X16929Y18870D01*
X16849Y18950D01*
X15849Y19950D02*
X15929Y20030D01*
X16009Y19950D01*
X15929Y19870D01*
X15849Y19950D01*
Y18950D02*
X15929Y19030D01*
X16009Y18950D01*
X15929Y18870D01*
X15849Y18950D01*
X14849Y19950D02*
X14929Y20030D01*
X15009Y19950D01*
X14929Y19870D01*
X14849Y19950D01*
Y18950D02*
X14929Y19030D01*
X15009Y18950D01*
X14929Y18870D01*
X14849Y18950D01*
X13849Y19950D02*
X13929Y20030D01*
X14009Y19950D01*
X13929Y19870D01*
X13849Y19950D01*
Y18950D02*
X13929Y19030D01*
X14009Y18950D01*
X13929Y18870D01*
X13849Y18950D01*
X12849D02*
X12929Y19030D01*
X13009Y18950D01*
X12929Y18870D01*
X12849Y18950D01*
X11849Y19950D02*
X11929Y20030D01*
X12009Y19950D01*
X11929Y19870D01*
X11849Y19950D01*
X11841Y18950D02*
X11921Y19030D01*
X12001Y18950D01*
X11921Y18870D01*
X11841Y18950D01*
X10849Y19950D02*
X10929Y20030D01*
X11009Y19950D01*
X10929Y19870D01*
X10849Y19950D01*
X9849D02*
X9929Y20030D01*
X10009Y19950D01*
X9929Y19870D01*
X9849Y19950D01*
Y18950D02*
X9929Y19030D01*
X10009Y18950D01*
X9929Y18870D01*
X9849Y18950D01*
X8849Y19950D02*
X8929Y20030D01*
X9009Y19950D01*
X8929Y19870D01*
X8849Y19950D01*
X8881Y18950D02*
X8961Y19030D01*
X9041Y18950D01*
X8961Y18870D01*
X8881Y18950D01*
X7849Y19950D02*
X7929Y20030D01*
X8009Y19950D01*
X7929Y19870D01*
X7849Y19950D01*
X7826Y18950D02*
X7906Y19030D01*
X7986Y18950D01*
X7906Y18870D01*
X7826Y18950D01*
X6849Y19950D02*
X6929Y20030D01*
X7009Y19950D01*
X6929Y19870D01*
X6849Y19950D01*
X6861Y18950D02*
X6941Y19030D01*
X7021Y18950D01*
X6941Y18870D01*
X6861Y18950D01*
X5849Y19950D02*
X5929Y20030D01*
X6009Y19950D01*
X5929Y19870D01*
X5849Y19950D01*
X5873Y18950D02*
X5953Y19030D01*
X6033Y18950D01*
X5953Y18870D01*
X5873Y18950D01*
X4849Y19950D02*
X4929Y20030D01*
X5009Y19950D01*
X4929Y19870D01*
X4849Y19950D01*
X4845Y18950D02*
X4925Y19030D01*
X5005Y18950D01*
X4925Y18870D01*
X4845Y18950D01*
X3849Y19950D02*
X3929Y20030D01*
X4009Y19950D01*
X3929Y19870D01*
X3849Y19950D01*
Y18950D02*
X3929Y19030D01*
X4009Y18950D01*
X3929Y18870D01*
X3849Y18950D01*
X2849Y19950D02*
X2929Y20030D01*
X3009Y19950D01*
X2929Y19870D01*
X2849Y19950D01*
X1849D02*
X1929Y20030D01*
X2009Y19950D01*
X1929Y19870D01*
X1849Y19950D01*
X849D02*
X929Y20030D01*
X1009Y19950D01*
X929Y19870D01*
X849Y19950D01*
X1849Y18950D02*
X1929Y19030D01*
X2009Y18950D01*
X1929Y18870D01*
X1849Y18950D01*
X849D02*
X929Y19030D01*
X1009Y18950D01*
X929Y18870D01*
X849Y18950D01*
X1849Y17950D02*
X1929Y18030D01*
X2009Y17950D01*
X1929Y17870D01*
X1849Y17950D01*
X849D02*
X929Y18030D01*
X1009Y17950D01*
X929Y17870D01*
X849Y17950D01*
Y16950D02*
X929Y17030D01*
X1009Y16950D01*
X929Y16870D01*
X849Y16950D01*
Y15950D02*
X929Y16030D01*
X1009Y15950D01*
X929Y15870D01*
X849Y15950D01*
Y14946D02*
X929Y15026D01*
X1009Y14946D01*
X929Y14866D01*
X849Y14946D01*
X1849Y15942D02*
X1929Y16022D01*
X2009Y15942D01*
X1929Y15862D01*
X1849Y15942D01*
Y14950D02*
X1929Y15030D01*
X2009Y14950D01*
X1929Y14870D01*
X1849Y14950D01*
X10849Y18950D02*
X10929Y19030D01*
X11009Y18950D01*
X10929Y18870D01*
X10849Y18950D01*
X14900Y4926D02*
X14980Y5006D01*
X15060Y4926D01*
X14980Y4846D01*
X14900Y4926D01*
X4849Y4930D02*
X4929Y5010D01*
X5009Y4930D01*
X4929Y4850D01*
X4849Y4930D01*
X6849Y4950D02*
X6929Y5030D01*
X7009Y4950D01*
X6929Y4870D01*
X6849Y4950D01*
X12849Y5950D02*
X12929Y6030D01*
X13009Y5950D01*
X12929Y5870D01*
X12849Y5950D01*
X1849Y16950D02*
X1929Y17030D01*
X2009Y16950D01*
X1929Y16870D01*
X1849Y16950D01*
X849Y9950D02*
X929Y10030D01*
X1009Y9950D01*
X929Y9870D01*
X849Y9950D01*
X17849Y5950D02*
X17929Y6030D01*
X18009Y5950D01*
X17929Y5870D01*
X17849Y5950D01*
X18849Y9950D02*
X18929Y10030D01*
X19009Y9950D01*
X18929Y9870D01*
X18849Y9950D01*
Y16950D02*
X18929Y17030D01*
X19009Y16950D01*
X18929Y16870D01*
X18849Y16950D01*
X12849Y19950D02*
X12929Y20030D01*
X13009Y19950D01*
X12929Y19870D01*
X12849Y19950D01*
X2845Y18950D02*
X2925Y19030D01*
X3005Y18950D01*
X2925Y18870D01*
X2845Y18950D01*
X21520Y7070D02*
Y7230D01*
X21680D01*
Y7070D01*
X21520D01*
Y6070D02*
Y6230D01*
X21680D01*
Y6070D01*
X21520D01*
Y8070D02*
Y8230D01*
X21680D01*
Y8070D01*
X21520D01*
X15070Y2270D02*
Y2430D01*
X15230D01*
Y2270D01*
X15070D01*
X16070Y1270D02*
Y1430D01*
X16230D01*
Y1270D01*
X16070D01*
Y2270D02*
Y2430D01*
X16230D01*
Y2270D01*
X16070D01*
X14070D02*
Y2430D01*
X14230D01*
Y2270D01*
X14070D01*
Y1270D02*
Y1430D01*
X14230D01*
Y1270D01*
X14070D01*
X15070D02*
Y1430D01*
X15230D01*
Y1270D01*
X15070D01*
X3670Y2270D02*
Y2430D01*
X3830D01*
Y2270D01*
X3670D01*
X4670Y1270D02*
Y1430D01*
X4830D01*
Y1270D01*
X4670D01*
Y2270D02*
Y2430D01*
X4830D01*
Y2270D01*
X4670D01*
X2670D02*
Y2430D01*
X2830D01*
Y2270D01*
X2670D01*
Y1270D02*
Y1430D01*
X2830D01*
Y1270D01*
X2670D01*
X3670D02*
Y1430D01*
X3830D01*
Y1270D01*
X3670D01*
X10370Y2270D02*
Y2430D01*
X10530D01*
Y2270D01*
X10370D01*
X8370Y1270D02*
Y1430D01*
X8530D01*
Y1270D01*
X8370D01*
X11370D02*
Y1430D01*
X11530D01*
Y1270D01*
X11370D01*
Y2270D02*
Y2430D01*
X11530D01*
Y2270D01*
X11370D01*
X8370D02*
Y2430D01*
X8530D01*
Y2270D01*
X8370D01*
X9370Y1270D02*
Y1430D01*
X9530D01*
Y1270D01*
X9370D01*
X10370D02*
Y1430D01*
X10530D01*
Y1270D01*
X10370D01*
X7370Y2270D02*
Y2430D01*
X7530D01*
Y2270D01*
X7370D01*
X9370D02*
Y2430D01*
X9530D01*
Y2270D01*
X9370D01*
X7370Y1270D02*
Y1430D01*
X7530D01*
Y1270D01*
X7370D01*
X33056Y3461D02*
Y3621D01*
X33216D01*
Y3461D01*
X33056D01*
X31284D02*
Y3621D01*
X31444D01*
Y3461D01*
X31284D01*
Y784D02*
Y944D01*
X31444D01*
Y784D01*
X31284D01*
X33056D02*
Y944D01*
X33216D01*
Y784D01*
X33056D01*
X29406Y3461D02*
Y3621D01*
X29566D01*
Y3461D01*
X29406D01*
X27634D02*
Y3621D01*
X27794D01*
Y3461D01*
X27634D01*
Y784D02*
Y944D01*
X27794D01*
Y784D01*
X27634D01*
X29406D02*
Y944D01*
X29566D01*
Y784D01*
X29406D01*
X28820Y17320D02*
Y17480D01*
X28980D01*
Y17320D01*
X28820D01*
X28860Y17360D02*
Y17440D01*
X28940D01*
Y17360D01*
X28860D01*
X24270Y13807D02*
Y13967D01*
X24430D01*
Y13807D01*
X24270D01*
X24310Y13847D02*
Y13927D01*
X24390D01*
Y13847D01*
X24310D01*
X32520Y11170D02*
Y11330D01*
X32680D01*
Y11170D01*
X32520D01*
X32560Y11210D02*
Y11290D01*
X32640D01*
Y11210D01*
X32560D01*
X35532Y8782D02*
Y8942D01*
X35692D01*
Y8782D01*
X35532D01*
X35572Y8822D02*
Y8902D01*
X35652D01*
Y8822D01*
X35572D01*
D73*
X32980Y20800D02*
G03*
X32980Y20800I-80J0D01*
G01*
X31980D02*
G03*
X31980Y20800I-80J0D01*
G01*
X30980D02*
G03*
X30980Y20800I-80J0D01*
G01*
X29980D02*
G03*
X29980Y20800I-80J0D01*
G01*
X27980D02*
G03*
X27980Y20800I-80J0D01*
G01*
X26980D02*
G03*
X26980Y20800I-80J0D01*
G01*
X28980D02*
G03*
X28980Y20800I-80J0D01*
G01*
X38269Y1181D02*
G03*
X38269Y1181I-80J0D01*
G01*
Y23622D02*
G03*
X38269Y23622I-80J0D01*
G01*
X1261Y1181D02*
G03*
X1261Y1181I-80J0D01*
G01*
Y23622D02*
G03*
X1261Y23622I-80J0D01*
G01*
D74*
X38229Y1181D02*
G03*
X38229Y1181I-40J0D01*
G01*
Y23622D02*
G03*
X38229Y23622I-40J0D01*
G01*
X1221Y1181D02*
G03*
X1221Y1181I-40J0D01*
G01*
Y23622D02*
G03*
X1221Y23622I-40J0D01*
G01*
M02*
