G04*
G04 #@! TF.GenerationSoftware,Altium Limited,Altium Designer,18.1.4 (159)*
G04*
G04 Layer_Color=8388736*
%FSLAX24Y24*%
%MOIN*%
G70*
G01*
G75*
%ADD21R,0.1261X0.0592*%
%ADD22O,0.1261X0.0592*%
%ADD23R,0.0277X0.0480*%
%ADD24R,0.1261X0.2049*%
%ADD25R,0.0380X0.0380*%
%ADD26R,0.0380X0.0380*%
%ADD27O,0.0907X0.0552*%
G04:AMPARAMS|DCode=28|XSize=67.1mil|YSize=47.4mil|CornerRadius=13.8mil|HoleSize=0mil|Usage=FLASHONLY|Rotation=90.000|XOffset=0mil|YOffset=0mil|HoleType=Round|Shape=RoundedRectangle|*
%AMROUNDEDRECTD28*
21,1,0.0671,0.0197,0,0,90.0*
21,1,0.0394,0.0474,0,0,90.0*
1,1,0.0277,0.0098,0.0197*
1,1,0.0277,0.0098,-0.0197*
1,1,0.0277,-0.0098,-0.0197*
1,1,0.0277,-0.0098,0.0197*
%
%ADD28ROUNDEDRECTD28*%
%ADD29C,0.0780*%
%ADD30R,0.0780X0.0780*%
%ADD31C,0.0980*%
%ADD32R,0.0980X0.0980*%
%ADD33R,0.0780X0.0780*%
%ADD34C,0.0580*%
%ADD35C,0.1680*%
D21*
X24375Y13050D02*
D03*
Y18000D02*
D03*
X33875Y18050D02*
D03*
Y13050D02*
D03*
D22*
X27525D02*
D03*
Y18000D02*
D03*
X30725Y18050D02*
D03*
Y13050D02*
D03*
D23*
X35030Y21100D02*
D03*
Y21800D02*
D03*
X34715Y21100D02*
D03*
Y21800D02*
D03*
X34400Y21100D02*
D03*
Y21800D02*
D03*
X34085Y21100D02*
D03*
Y21800D02*
D03*
D24*
X30888Y6750D02*
D03*
X35612D02*
D03*
D25*
X36600Y22900D02*
D03*
Y23450D02*
D03*
X35300Y22900D02*
D03*
Y23450D02*
D03*
X34085Y22900D02*
D03*
Y23450D02*
D03*
D26*
X27950Y6593D02*
D03*
X27400D02*
D03*
X27950Y7550D02*
D03*
X27400D02*
D03*
D27*
X37990Y19375D02*
D03*
Y16225D02*
D03*
D28*
Y18587D02*
D03*
Y17800D02*
D03*
Y17013D02*
D03*
D29*
X18929Y19950D02*
D03*
X17929D02*
D03*
X18929Y18950D02*
D03*
X17929D02*
D03*
X18929Y17950D02*
D03*
X17929D02*
D03*
Y16950D02*
D03*
X18929Y15950D02*
D03*
X17929D02*
D03*
X18929Y14950D02*
D03*
X17929D02*
D03*
X18929Y13950D02*
D03*
X17929D02*
D03*
X18929Y12950D02*
D03*
X17929D02*
D03*
X18929Y11950D02*
D03*
X17929D02*
D03*
X18929Y10950D02*
D03*
X17929D02*
D03*
Y9950D02*
D03*
X18929Y8950D02*
D03*
X17929D02*
D03*
X18929Y7950D02*
D03*
X17929D02*
D03*
X18929Y6950D02*
D03*
X17929D02*
D03*
X18929Y5950D02*
D03*
Y4950D02*
D03*
X17929D02*
D03*
X16929Y5950D02*
D03*
Y4950D02*
D03*
X15929Y5950D02*
D03*
Y4950D02*
D03*
X929Y12950D02*
D03*
X1929D02*
D03*
X929Y13950D02*
D03*
X1929D02*
D03*
X14929Y5950D02*
D03*
X13929D02*
D03*
Y4950D02*
D03*
X12929D02*
D03*
X11929Y5950D02*
D03*
Y4950D02*
D03*
X10929Y5950D02*
D03*
Y4950D02*
D03*
X9929Y5950D02*
D03*
Y4950D02*
D03*
X8929Y5950D02*
D03*
Y4950D02*
D03*
X7929Y5950D02*
D03*
Y4950D02*
D03*
X6929Y5950D02*
D03*
X5929D02*
D03*
Y4950D02*
D03*
X4929Y5950D02*
D03*
X3929D02*
D03*
Y4950D02*
D03*
X2929Y5950D02*
D03*
Y4950D02*
D03*
X929D02*
D03*
X1929D02*
D03*
X929Y5950D02*
D03*
X1929D02*
D03*
X929Y6950D02*
D03*
X1929D02*
D03*
X929Y7950D02*
D03*
X1929D02*
D03*
X929Y8950D02*
D03*
X1929D02*
D03*
Y9950D02*
D03*
X929Y10950D02*
D03*
X1929D02*
D03*
X929Y11950D02*
D03*
X1929D02*
D03*
X16929Y19950D02*
D03*
Y18950D02*
D03*
X15929Y19950D02*
D03*
Y18950D02*
D03*
X14929Y19950D02*
D03*
Y18950D02*
D03*
X13929Y19950D02*
D03*
Y18950D02*
D03*
X12929D02*
D03*
X11929Y19950D02*
D03*
Y18950D02*
D03*
X10929Y19950D02*
D03*
X9929D02*
D03*
Y18950D02*
D03*
X8929Y19950D02*
D03*
Y18950D02*
D03*
X7929Y19950D02*
D03*
Y18950D02*
D03*
X6929Y19950D02*
D03*
Y18950D02*
D03*
X5929Y19950D02*
D03*
Y18950D02*
D03*
X4929Y19950D02*
D03*
Y18950D02*
D03*
X3929Y19950D02*
D03*
Y18950D02*
D03*
X2929Y19950D02*
D03*
X1929D02*
D03*
X929D02*
D03*
X1929Y18950D02*
D03*
X929D02*
D03*
X1929Y17950D02*
D03*
X929D02*
D03*
Y16950D02*
D03*
Y15950D02*
D03*
Y14950D02*
D03*
X1929Y15950D02*
D03*
Y14950D02*
D03*
X10929Y18950D02*
D03*
X14929Y4926D02*
D03*
X4929Y4950D02*
D03*
X6929D02*
D03*
X12929Y5950D02*
D03*
X1929Y16950D02*
D03*
X929Y9950D02*
D03*
X17929Y5950D02*
D03*
X18929Y9950D02*
D03*
Y16950D02*
D03*
X12929Y19950D02*
D03*
X2929Y18950D02*
D03*
X32136Y840D02*
D03*
X30364D02*
D03*
Y3517D02*
D03*
X36636Y840D02*
D03*
X34864D02*
D03*
Y3517D02*
D03*
X27636Y840D02*
D03*
X25864D02*
D03*
Y3517D02*
D03*
X25900Y23450D02*
D03*
X21900D02*
D03*
X26900Y22450D02*
D03*
Y23450D02*
D03*
X27900Y22450D02*
D03*
X23900D02*
D03*
X22900Y23450D02*
D03*
Y22450D02*
D03*
X25900D02*
D03*
X24900Y23450D02*
D03*
Y22450D02*
D03*
X27900Y23450D02*
D03*
X23900D02*
D03*
X21900Y22450D02*
D03*
X20900Y23450D02*
D03*
Y22450D02*
D03*
X7650D02*
D03*
Y23450D02*
D03*
X4650D02*
D03*
Y22450D02*
D03*
X5650D02*
D03*
Y23450D02*
D03*
X6650Y22450D02*
D03*
X2650D02*
D03*
Y23450D02*
D03*
X3650Y22450D02*
D03*
X6650Y23450D02*
D03*
X3650D02*
D03*
X7450Y1350D02*
D03*
X9450Y2350D02*
D03*
X7450D02*
D03*
X10450Y1350D02*
D03*
X9450D02*
D03*
X8450Y2350D02*
D03*
X11450D02*
D03*
Y1350D02*
D03*
X8450D02*
D03*
X10450Y2350D02*
D03*
X10650Y22450D02*
D03*
X12650Y23450D02*
D03*
X10650D02*
D03*
X13650Y22450D02*
D03*
X12650D02*
D03*
X11650Y23450D02*
D03*
X14650D02*
D03*
Y22450D02*
D03*
X11650D02*
D03*
X13650Y23450D02*
D03*
X3750Y2350D02*
D03*
X4750Y1350D02*
D03*
Y2350D02*
D03*
X2750D02*
D03*
Y1350D02*
D03*
X3750D02*
D03*
X15150Y2350D02*
D03*
X16150Y1350D02*
D03*
Y2350D02*
D03*
X14150D02*
D03*
Y1350D02*
D03*
X15150D02*
D03*
X32050Y23450D02*
D03*
X33050Y22450D02*
D03*
Y23450D02*
D03*
X31050D02*
D03*
Y22450D02*
D03*
X32050D02*
D03*
X21600Y14500D02*
D03*
Y13500D02*
D03*
Y10500D02*
D03*
Y11500D02*
D03*
Y12500D02*
D03*
Y8150D02*
D03*
Y6150D02*
D03*
Y7150D02*
D03*
Y20800D02*
D03*
Y18800D02*
D03*
Y19800D02*
D03*
X32900Y20800D02*
D03*
X31900D02*
D03*
X30900D02*
D03*
X29900D02*
D03*
X27900D02*
D03*
X28900D02*
D03*
X37900Y8250D02*
D03*
Y7250D02*
D03*
X23500Y1000D02*
D03*
X24500D02*
D03*
X21500D02*
D03*
X22500D02*
D03*
X24500Y4000D02*
D03*
X23500D02*
D03*
X22500D02*
D03*
D30*
X32136Y3517D02*
D03*
X36636D02*
D03*
X27636D02*
D03*
X37900Y6250D02*
D03*
D31*
X37689Y13650D02*
D03*
D32*
Y11650D02*
D03*
D33*
X26900Y20800D02*
D03*
X21500Y4000D02*
D03*
D34*
X22900Y13050D02*
D03*
X36536Y8800D02*
D03*
D35*
X1181Y23622D02*
D03*
Y1181D02*
D03*
X38189D02*
D03*
Y23622D02*
D03*
M02*
