G04*
G04 #@! TF.GenerationSoftware,Altium Limited,Altium Designer,18.1.4 (159)*
G04*
G04 Layer_Color=128*
%FSLAX24Y24*%
%MOIN*%
G70*
G01*
G75*
%ADD58C,0.0020*%
D58*
X7403Y1400D02*
X7797D01*
X7600Y1203D02*
Y1597D01*
X9403Y2400D02*
X9797D01*
X9600Y2203D02*
Y2597D01*
X7403Y2400D02*
X7797D01*
X7600Y2203D02*
Y2597D01*
X10403Y1400D02*
X10797D01*
X10600Y1203D02*
Y1597D01*
X9403Y1400D02*
X9797D01*
X9600Y1203D02*
Y1597D01*
X8403Y2400D02*
X8797D01*
X8600Y2203D02*
Y2597D01*
X11403Y2400D02*
X11797D01*
X11600Y2203D02*
Y2597D01*
X11403Y1400D02*
X11797D01*
X11600Y1203D02*
Y1597D01*
X8403Y1400D02*
X8797D01*
X8600Y1203D02*
Y1597D01*
X10403Y2400D02*
X10797D01*
X10600Y2203D02*
Y2597D01*
X21403Y18200D02*
X21797D01*
X21600Y18003D02*
Y18397D01*
X21403Y19200D02*
X21797D01*
X21600Y19003D02*
Y19397D01*
X22403Y19200D02*
X22797D01*
X22600Y19003D02*
Y19397D01*
X22403Y17200D02*
X22797D01*
X22600Y17003D02*
Y17397D01*
X21403Y17200D02*
X21797D01*
X21600Y17003D02*
Y17397D01*
X22403Y18200D02*
X22797D01*
X22600Y18003D02*
Y18397D01*
X21403Y13300D02*
X21797D01*
X21600Y13103D02*
Y13497D01*
X22403Y11300D02*
X22797D01*
X22600Y11103D02*
Y11497D01*
X22403Y14300D02*
X22797D01*
X22600Y14103D02*
Y14497D01*
X21403Y14300D02*
X21797D01*
X21600Y14103D02*
Y14497D01*
X21403Y11300D02*
X21797D01*
X21600Y11103D02*
Y11497D01*
X22403Y12300D02*
X22797D01*
X22600Y12103D02*
Y12497D01*
X22403Y13300D02*
X22797D01*
X22600Y13103D02*
Y13497D01*
X21403Y10300D02*
X21797D01*
X21600Y10103D02*
Y10497D01*
X21403Y12300D02*
X21797D01*
X21600Y12103D02*
Y12497D01*
X22403Y10300D02*
X22797D01*
X22600Y10103D02*
Y10497D01*
X20703Y22450D02*
X21097D01*
X20900Y22253D02*
Y22647D01*
X20703Y23450D02*
X21097D01*
X20900Y23253D02*
Y23647D01*
X21703Y22450D02*
X22097D01*
X21900Y22253D02*
Y22647D01*
X23703Y23450D02*
X24097D01*
X23900Y23253D02*
Y23647D01*
X27703Y23450D02*
X28097D01*
X27900Y23253D02*
Y23647D01*
X24703Y22450D02*
X25097D01*
X24900Y22253D02*
Y22647D01*
X24703Y23450D02*
X25097D01*
X24900Y23253D02*
Y23647D01*
X25703Y22450D02*
X26097D01*
X25900Y22253D02*
Y22647D01*
X22703Y22450D02*
X23097D01*
X22900Y22253D02*
Y22647D01*
X22703Y23450D02*
X23097D01*
X22900Y23253D02*
Y23647D01*
X23703Y22450D02*
X24097D01*
X23900Y22253D02*
Y22647D01*
X27703Y22450D02*
X28097D01*
X27900Y22253D02*
Y22647D01*
X26703Y23450D02*
X27097D01*
X26900Y23253D02*
Y23647D01*
X26703Y22450D02*
X27097D01*
X26900Y22253D02*
Y22647D01*
X21703Y23450D02*
X22097D01*
X21900Y23253D02*
Y23647D01*
X25703Y23450D02*
X26097D01*
X25900Y23253D02*
Y23647D01*
X28703Y20450D02*
X29097D01*
X28900Y20253D02*
Y20647D01*
X26703Y20450D02*
X27097D01*
X26900Y20253D02*
Y20647D01*
X27703Y20450D02*
X28097D01*
X27900Y20253D02*
Y20647D01*
X29703Y20450D02*
X30097D01*
X29900Y20253D02*
Y20647D01*
X30703Y20450D02*
X31097D01*
X30900Y20253D02*
Y20647D01*
X31703Y20450D02*
X32097D01*
X31900Y20253D02*
Y20647D01*
X32703Y20450D02*
X33097D01*
X32900Y20253D02*
Y20647D01*
X21403Y7150D02*
X21797D01*
X21600Y6953D02*
Y7347D01*
X21403Y6150D02*
X21797D01*
X21600Y5953D02*
Y6347D01*
X21403Y8150D02*
X21797D01*
X21600Y7953D02*
Y8347D01*
X37394Y11650D02*
X37985D01*
X37689Y11355D02*
Y11945D01*
X37394Y13650D02*
X37985D01*
X37689Y13355D02*
Y13945D01*
X16453Y23450D02*
X16847D01*
X16650Y23253D02*
Y23647D01*
X14453Y22450D02*
X14847D01*
X14650Y22253D02*
Y22647D01*
X17453Y22450D02*
X17847D01*
X17650Y22253D02*
Y22647D01*
X17453Y23450D02*
X17847D01*
X17650Y23253D02*
Y23647D01*
X14453Y23450D02*
X14847D01*
X14650Y23253D02*
Y23647D01*
X15453Y22450D02*
X15847D01*
X15650Y22253D02*
Y22647D01*
X16453Y22450D02*
X16847D01*
X16650Y22253D02*
Y22647D01*
X13453Y23450D02*
X13847D01*
X13650Y23253D02*
Y23647D01*
X15453Y23450D02*
X15847D01*
X15650Y23253D02*
Y23647D01*
X13453Y22450D02*
X13847D01*
X13650Y22253D02*
Y22647D01*
X37703Y6250D02*
X38097D01*
X37900Y6053D02*
Y6447D01*
X37703Y7250D02*
X38097D01*
X37900Y7053D02*
Y7447D01*
X37703Y8250D02*
X38097D01*
X37900Y8053D02*
Y8447D01*
X21303Y4000D02*
X21697D01*
X21500Y3803D02*
Y4197D01*
X22303Y4000D02*
X22697D01*
X22500Y3803D02*
Y4197D01*
X23303Y4000D02*
X23697D01*
X23500Y3803D02*
Y4197D01*
X24303Y4000D02*
X24697D01*
X24500Y3803D02*
Y4197D01*
X22303Y1000D02*
X22697D01*
X22500Y803D02*
Y1197D01*
X21303Y1000D02*
X21697D01*
X21500Y803D02*
Y1197D01*
X24303Y1000D02*
X24697D01*
X24500Y803D02*
Y1197D01*
X23303Y1000D02*
X23697D01*
X23500Y803D02*
Y1197D01*
X37892Y17013D02*
X38089D01*
X37990Y16914D02*
Y17111D01*
X37892Y17800D02*
X38089D01*
X37990Y17702D02*
Y17898D01*
X37862Y16225D02*
X38118D01*
X37990Y16097D02*
Y16353D01*
X37892Y18587D02*
X38089D01*
X37990Y18489D02*
Y18686D01*
X37862Y19375D02*
X38118D01*
X37990Y19247D02*
Y19503D01*
X2769Y18950D02*
X3089D01*
X2929Y18790D02*
Y19110D01*
X12769Y19950D02*
X13089D01*
X12929Y19790D02*
Y20110D01*
X18769Y16950D02*
X19089D01*
X18929Y16790D02*
Y17110D01*
X18769Y9950D02*
X19089D01*
X18929Y9790D02*
Y10110D01*
X17769Y5950D02*
X18089D01*
X17929Y5790D02*
Y6110D01*
X769Y9950D02*
X1089D01*
X929Y9790D02*
Y10110D01*
X1769Y16950D02*
X2089D01*
X1929Y16790D02*
Y17110D01*
X12769Y5950D02*
X13089D01*
X12929Y5790D02*
Y6110D01*
X6769Y4950D02*
X7089D01*
X6929Y4790D02*
Y5110D01*
X4769Y4950D02*
X5089D01*
X4929Y4790D02*
Y5110D01*
X14769Y4926D02*
X15089D01*
X14929Y4766D02*
Y5086D01*
X10769Y18950D02*
X11089D01*
X10929Y18790D02*
Y19110D01*
X1769Y14950D02*
X2089D01*
X1929Y14790D02*
Y15110D01*
X1769Y15950D02*
X2089D01*
X1929Y15790D02*
Y16110D01*
X769Y14950D02*
X1089D01*
X929Y14790D02*
Y15110D01*
X769Y15950D02*
X1089D01*
X929Y15790D02*
Y16110D01*
X769Y16950D02*
X1089D01*
X929Y16790D02*
Y17110D01*
X769Y17950D02*
X1089D01*
X929Y17790D02*
Y18110D01*
X1769Y17950D02*
X2089D01*
X1929Y17790D02*
Y18110D01*
X769Y18950D02*
X1089D01*
X929Y18790D02*
Y19110D01*
X1769Y18950D02*
X2089D01*
X1929Y18790D02*
Y19110D01*
X769Y19950D02*
X1089D01*
X929Y19790D02*
Y20110D01*
X1769Y19950D02*
X2089D01*
X1929Y19790D02*
Y20110D01*
X2769Y19950D02*
X3089D01*
X2929Y19790D02*
Y20110D01*
X3769Y18950D02*
X4089D01*
X3929Y18790D02*
Y19110D01*
X3769Y19950D02*
X4089D01*
X3929Y19790D02*
Y20110D01*
X4769Y18950D02*
X5089D01*
X4929Y18790D02*
Y19110D01*
X4769Y19950D02*
X5089D01*
X4929Y19790D02*
Y20110D01*
X5769Y18950D02*
X6089D01*
X5929Y18790D02*
Y19110D01*
X5769Y19950D02*
X6089D01*
X5929Y19790D02*
Y20110D01*
X6769Y18950D02*
X7089D01*
X6929Y18790D02*
Y19110D01*
X6769Y19950D02*
X7089D01*
X6929Y19790D02*
Y20110D01*
X7769Y18950D02*
X8089D01*
X7929Y18790D02*
Y19110D01*
X7769Y19950D02*
X8089D01*
X7929Y19790D02*
Y20110D01*
X8769Y18950D02*
X9089D01*
X8929Y18790D02*
Y19110D01*
X8769Y19950D02*
X9089D01*
X8929Y19790D02*
Y20110D01*
X9769Y18950D02*
X10089D01*
X9929Y18790D02*
Y19110D01*
X9769Y19950D02*
X10089D01*
X9929Y19790D02*
Y20110D01*
X10769Y19950D02*
X11089D01*
X10929Y19790D02*
Y20110D01*
X11769Y18950D02*
X12089D01*
X11929Y18790D02*
Y19110D01*
X11769Y19950D02*
X12089D01*
X11929Y19790D02*
Y20110D01*
X12769Y18950D02*
X13089D01*
X12929Y18790D02*
Y19110D01*
X13769Y18950D02*
X14089D01*
X13929Y18790D02*
Y19110D01*
X13769Y19950D02*
X14089D01*
X13929Y19790D02*
Y20110D01*
X14769Y18950D02*
X15089D01*
X14929Y18790D02*
Y19110D01*
X14769Y19950D02*
X15089D01*
X14929Y19790D02*
Y20110D01*
X15769Y18950D02*
X16089D01*
X15929Y18790D02*
Y19110D01*
X15769Y19950D02*
X16089D01*
X15929Y19790D02*
Y20110D01*
X16769Y18950D02*
X17089D01*
X16929Y18790D02*
Y19110D01*
X16769Y19950D02*
X17089D01*
X16929Y19790D02*
Y20110D01*
X1769Y11950D02*
X2089D01*
X1929Y11790D02*
Y12110D01*
X769Y11950D02*
X1089D01*
X929Y11790D02*
Y12110D01*
X1769Y10950D02*
X2089D01*
X1929Y10790D02*
Y11110D01*
X769Y10950D02*
X1089D01*
X929Y10790D02*
Y11110D01*
X1769Y9950D02*
X2089D01*
X1929Y9790D02*
Y10110D01*
X1769Y8950D02*
X2089D01*
X1929Y8790D02*
Y9110D01*
X769Y8950D02*
X1089D01*
X929Y8790D02*
Y9110D01*
X1769Y7950D02*
X2089D01*
X1929Y7790D02*
Y8110D01*
X769Y7950D02*
X1089D01*
X929Y7790D02*
Y8110D01*
X1769Y6950D02*
X2089D01*
X1929Y6790D02*
Y7110D01*
X769Y6950D02*
X1089D01*
X929Y6790D02*
Y7110D01*
X1769Y5950D02*
X2089D01*
X1929Y5790D02*
Y6110D01*
X769Y5950D02*
X1089D01*
X929Y5790D02*
Y6110D01*
X1769Y4950D02*
X2089D01*
X1929Y4790D02*
Y5110D01*
X769Y4950D02*
X1089D01*
X929Y4790D02*
Y5110D01*
X2769Y4950D02*
X3089D01*
X2929Y4790D02*
Y5110D01*
X2769Y5950D02*
X3089D01*
X2929Y5790D02*
Y6110D01*
X3769Y4950D02*
X4089D01*
X3929Y4790D02*
Y5110D01*
X3769Y5950D02*
X4089D01*
X3929Y5790D02*
Y6110D01*
X4769Y5950D02*
X5089D01*
X4929Y5790D02*
Y6110D01*
X5769Y4950D02*
X6089D01*
X5929Y4790D02*
Y5110D01*
X5769Y5950D02*
X6089D01*
X5929Y5790D02*
Y6110D01*
X6769Y5950D02*
X7089D01*
X6929Y5790D02*
Y6110D01*
X7769Y4950D02*
X8089D01*
X7929Y4790D02*
Y5110D01*
X7769Y5950D02*
X8089D01*
X7929Y5790D02*
Y6110D01*
X8769Y4950D02*
X9089D01*
X8929Y4790D02*
Y5110D01*
X8769Y5950D02*
X9089D01*
X8929Y5790D02*
Y6110D01*
X9769Y4950D02*
X10089D01*
X9929Y4790D02*
Y5110D01*
X9769Y5950D02*
X10089D01*
X9929Y5790D02*
Y6110D01*
X10769Y4950D02*
X11089D01*
X10929Y4790D02*
Y5110D01*
X10769Y5950D02*
X11089D01*
X10929Y5790D02*
Y6110D01*
X11769Y4950D02*
X12089D01*
X11929Y4790D02*
Y5110D01*
X11769Y5950D02*
X12089D01*
X11929Y5790D02*
Y6110D01*
X12769Y4950D02*
X13089D01*
X12929Y4790D02*
Y5110D01*
X13769Y4950D02*
X14089D01*
X13929Y4790D02*
Y5110D01*
X13769Y5950D02*
X14089D01*
X13929Y5790D02*
Y6110D01*
X14769Y5950D02*
X15089D01*
X14929Y5790D02*
Y6110D01*
X1769Y13950D02*
X2089D01*
X1929Y13790D02*
Y14110D01*
X769Y13950D02*
X1089D01*
X929Y13790D02*
Y14110D01*
X1769Y12950D02*
X2089D01*
X1929Y12790D02*
Y13110D01*
X769Y12950D02*
X1089D01*
X929Y12790D02*
Y13110D01*
X15769Y4950D02*
X16089D01*
X15929Y4790D02*
Y5110D01*
X15769Y5950D02*
X16089D01*
X15929Y5790D02*
Y6110D01*
X16769Y4950D02*
X17089D01*
X16929Y4790D02*
Y5110D01*
X16769Y5950D02*
X17089D01*
X16929Y5790D02*
Y6110D01*
X17769Y4950D02*
X18089D01*
X17929Y4790D02*
Y5110D01*
X18769Y4950D02*
X19089D01*
X18929Y4790D02*
Y5110D01*
X18769Y5950D02*
X19089D01*
X18929Y5790D02*
Y6110D01*
X17769Y6950D02*
X18089D01*
X17929Y6790D02*
Y7110D01*
X18769Y6950D02*
X19089D01*
X18929Y6790D02*
Y7110D01*
X17769Y7950D02*
X18089D01*
X17929Y7790D02*
Y8110D01*
X18769Y7950D02*
X19089D01*
X18929Y7790D02*
Y8110D01*
X17769Y8950D02*
X18089D01*
X17929Y8790D02*
Y9110D01*
X18769Y8950D02*
X19089D01*
X18929Y8790D02*
Y9110D01*
X17769Y9950D02*
X18089D01*
X17929Y9790D02*
Y10110D01*
X17769Y10950D02*
X18089D01*
X17929Y10790D02*
Y11110D01*
X18769Y10950D02*
X19089D01*
X18929Y10790D02*
Y11110D01*
X17769Y11950D02*
X18089D01*
X17929Y11790D02*
Y12110D01*
X18769Y11950D02*
X19089D01*
X18929Y11790D02*
Y12110D01*
X17769Y12950D02*
X18089D01*
X17929Y12790D02*
Y13110D01*
X18769Y12950D02*
X19089D01*
X18929Y12790D02*
Y13110D01*
X17769Y13950D02*
X18089D01*
X17929Y13790D02*
Y14110D01*
X18769Y13950D02*
X19089D01*
X18929Y13790D02*
Y14110D01*
X17769Y14950D02*
X18089D01*
X17929Y14790D02*
Y15110D01*
X18769Y14950D02*
X19089D01*
X18929Y14790D02*
Y15110D01*
X17769Y15950D02*
X18089D01*
X17929Y15790D02*
Y16110D01*
X18769Y15950D02*
X19089D01*
X18929Y15790D02*
Y16110D01*
X17769Y16950D02*
X18089D01*
X17929Y16790D02*
Y17110D01*
X17769Y17950D02*
X18089D01*
X17929Y17790D02*
Y18110D01*
X18769Y17950D02*
X19089D01*
X18929Y17790D02*
Y18110D01*
X17769Y18950D02*
X18089D01*
X17929Y18790D02*
Y19110D01*
X18769Y18950D02*
X19089D01*
X18929Y18790D02*
Y19110D01*
X17769Y19950D02*
X18089D01*
X17929Y19790D02*
Y20110D01*
X18769Y19950D02*
X19089D01*
X18929Y19790D02*
Y20110D01*
X27439Y3517D02*
X27833D01*
X27636Y3320D02*
Y3714D01*
X25667Y3517D02*
X26061D01*
X25864Y3320D02*
Y3714D01*
X25667Y840D02*
X26061D01*
X25864Y643D02*
Y1037D01*
X27439Y840D02*
X27833D01*
X27636Y643D02*
Y1037D01*
X5303Y23450D02*
X5697D01*
X5500Y23253D02*
Y23647D01*
X6303Y22450D02*
X6697D01*
X6500Y22253D02*
Y22647D01*
X6303Y23450D02*
X6697D01*
X6500Y23253D02*
Y23647D01*
X4303Y23450D02*
X4697D01*
X4500Y23253D02*
Y23647D01*
X4303Y22450D02*
X4697D01*
X4500Y22253D02*
Y22647D01*
X5303Y22450D02*
X5697D01*
X5500Y22253D02*
Y22647D01*
X9653Y23450D02*
X10047D01*
X9850Y23253D02*
Y23647D01*
X10653Y22450D02*
X11047D01*
X10850Y22253D02*
Y22647D01*
X10653Y23450D02*
X11047D01*
X10850Y23253D02*
Y23647D01*
X8653Y23450D02*
X9047D01*
X8850Y23253D02*
Y23647D01*
X8653Y22450D02*
X9047D01*
X8850Y22253D02*
Y22647D01*
X9653Y22450D02*
X10047D01*
X9850Y22253D02*
Y22647D01*
X31853Y22450D02*
X32247D01*
X32050Y22253D02*
Y22647D01*
X30853Y22450D02*
X31247D01*
X31050Y22253D02*
Y22647D01*
X30853Y23450D02*
X31247D01*
X31050Y23253D02*
Y23647D01*
X32853Y23450D02*
X33247D01*
X33050Y23253D02*
Y23647D01*
X32853Y22450D02*
X33247D01*
X33050Y22253D02*
Y22647D01*
X31853Y23450D02*
X32247D01*
X32050Y23253D02*
Y23647D01*
X31939Y840D02*
X32333D01*
X32136Y643D02*
Y1037D01*
X30167Y840D02*
X30561D01*
X30364Y643D02*
Y1037D01*
X30167Y3517D02*
X30561D01*
X30364Y3320D02*
Y3714D01*
X31939Y3517D02*
X32333D01*
X32136Y3320D02*
Y3714D01*
X36439Y840D02*
X36833D01*
X36636Y643D02*
Y1037D01*
X34667Y840D02*
X35061D01*
X34864Y643D02*
Y1037D01*
X34667Y3517D02*
X35061D01*
X34864Y3320D02*
Y3714D01*
X36439Y3517D02*
X36833D01*
X36636Y3320D02*
Y3714D01*
X3553Y2350D02*
X3947D01*
X3750Y2153D02*
Y2547D01*
X4553Y1350D02*
X4947D01*
X4750Y1153D02*
Y1547D01*
X4553Y2350D02*
X4947D01*
X4750Y2153D02*
Y2547D01*
X2553Y2350D02*
X2947D01*
X2750Y2153D02*
Y2547D01*
X2553Y1350D02*
X2947D01*
X2750Y1153D02*
Y1547D01*
X3553Y1350D02*
X3947D01*
X3750Y1153D02*
Y1547D01*
X14953Y2350D02*
X15347D01*
X15150Y2153D02*
Y2547D01*
X15953Y1350D02*
X16347D01*
X16150Y1153D02*
Y1547D01*
X15953Y2350D02*
X16347D01*
X16150Y2153D02*
Y2547D01*
X13953Y2350D02*
X14347D01*
X14150Y2153D02*
Y2547D01*
X13953Y1350D02*
X14347D01*
X14150Y1153D02*
Y1547D01*
X14953Y1350D02*
X15347D01*
X15150Y1153D02*
Y1547D01*
X24510Y9100D02*
X24790D01*
X24650Y8960D02*
Y9240D01*
X20450Y21750D02*
X20730D01*
X20590Y21610D02*
Y21890D01*
X35030Y12080D02*
X35310D01*
X35170Y11940D02*
Y12220D01*
X25360Y9790D02*
X25640D01*
X25500Y9650D02*
Y9930D01*
X26010Y11120D02*
X26290D01*
X26150Y10980D02*
Y11260D01*
X19710Y14310D02*
X19990D01*
X19850Y14170D02*
Y14450D01*
X27530Y13160D02*
X27810D01*
X27670Y13020D02*
Y13300D01*
X27110Y12210D02*
X27390D01*
X27250Y12070D02*
Y12350D01*
X16010Y24390D02*
X16290D01*
X16150Y24250D02*
Y24530D01*
X20350Y17880D02*
X20630D01*
X20490Y17740D02*
Y18020D01*
X16880Y14250D02*
X17160D01*
X17020Y14110D02*
Y14390D01*
X4880Y10890D02*
X5160D01*
X5020Y10750D02*
Y11030D01*
X15289Y11449D02*
X15569D01*
X15429Y11309D02*
Y11589D01*
X20510Y11900D02*
X20790D01*
X20650Y11760D02*
Y12040D01*
X7390Y9320D02*
X7670D01*
X7530Y9180D02*
Y9460D01*
X13920Y13350D02*
X14200D01*
X14060Y13210D02*
Y13490D01*
X18210Y22950D02*
X18490D01*
X18350Y22810D02*
Y23090D01*
X13240Y11530D02*
X13520D01*
X13380Y11390D02*
Y11670D01*
X13240Y7420D02*
X13520D01*
X13380Y7280D02*
Y7560D01*
X6080Y8920D02*
X6360D01*
X6220Y8780D02*
Y9060D01*
X24390Y13750D02*
X24670D01*
X24530Y13610D02*
Y13890D01*
X22710Y7290D02*
X22990D01*
X22850Y7150D02*
Y7430D01*
X35620Y7860D02*
X35900D01*
X35760Y7720D02*
Y8000D01*
X591Y23622D02*
X1772D01*
X1181Y23031D02*
Y24213D01*
X591Y1181D02*
X1772D01*
X1181Y591D02*
Y1772D01*
X37598Y1181D02*
X38780D01*
X38189Y591D02*
Y1772D01*
X37598Y23622D02*
X38780D01*
X38189Y23031D02*
Y24213D01*
M02*
