G04*
G04 #@! TF.GenerationSoftware,Altium Limited,Altium Designer,18.1.4 (159)*
G04*
G04 Layer_Color=32896*
%FSLAX24Y24*%
%MOIN*%
G70*
G01*
G75*
%ADD10C,0.0079*%
%ADD11C,0.0100*%
%ADD14C,0.0120*%
%ADD53C,0.0098*%
D10*
X34544Y13513D02*
Y19202D01*
X30174Y13513D02*
Y19202D01*
X31716Y9596D02*
Y10304D01*
X33684Y9596D02*
Y10304D01*
X31716D02*
X33684D01*
X31716Y9596D02*
X33684D01*
X13880Y7150D02*
X15030D01*
X13880D02*
Y7350D01*
X15030D01*
Y7150D02*
Y7350D01*
X23924Y13513D02*
Y19202D01*
X28294Y13513D02*
Y19202D01*
D11*
X34658Y7912D02*
G03*
X34658Y7912I-50J0D01*
G01*
X34352Y7853D02*
Y7991D01*
X32148D02*
X34352D01*
X32148Y7853D02*
Y7991D01*
X34352Y6809D02*
Y6947D01*
X32148Y6809D02*
X34352D01*
X32148D02*
Y6947D01*
X34274Y7853D02*
Y7991D01*
X34195Y7853D02*
Y7991D01*
X34116Y7853D02*
Y7991D01*
X34037Y7853D02*
Y7991D01*
Y7853D02*
X34352D01*
X34274Y6809D02*
Y6947D01*
X34195Y6809D02*
Y6947D01*
X34116Y6809D02*
Y6947D01*
X34037Y6809D02*
Y6947D01*
X34352D01*
X25850Y1279D02*
Y3079D01*
X27650Y1279D02*
Y3079D01*
X32150Y1279D02*
Y3079D01*
X30350Y1279D02*
Y3079D01*
X36650Y1279D02*
Y3079D01*
X34850Y1279D02*
Y3079D01*
X31350Y10300D02*
Y9800D01*
X31250Y9700D01*
X31050D01*
X30950Y9800D01*
Y10300D01*
X30750Y10200D02*
X30650Y10300D01*
X30450D01*
X30350Y10200D01*
Y10100D01*
X30450Y10000D01*
X30550D01*
X30450D01*
X30350Y9900D01*
Y9800D01*
X30450Y9700D01*
X30650D01*
X30750Y9800D01*
X34480Y20850D02*
Y20350D01*
X34380Y20250D01*
X34180D01*
X34080Y20350D01*
Y20850D01*
X33480Y20250D02*
X33880D01*
X33480Y20650D01*
Y20750D01*
X33580Y20850D01*
X33780D01*
X33880Y20750D01*
X33100Y20526D02*
Y20250D01*
X32916D01*
X32824D02*
Y20526D01*
X32733Y20434D01*
X32641Y20526D01*
Y20250D01*
X32365D02*
X32549D01*
X32365Y20434D01*
Y20480D01*
X32411Y20526D01*
X32503D01*
X32549Y20480D01*
X32273Y20296D02*
X32228Y20250D01*
X32136D01*
X32090Y20296D01*
Y20480D01*
X32136Y20526D01*
X32228D01*
X32273Y20480D01*
Y20434D01*
X32228Y20388D01*
X32090D01*
X31998Y20480D02*
X31952Y20526D01*
X31860D01*
X31814Y20480D01*
Y20434D01*
X31860Y20388D01*
X31906D01*
X31860D01*
X31814Y20342D01*
Y20296D01*
X31860Y20250D01*
X31952D01*
X31998Y20296D01*
X31722Y20526D02*
X31539D01*
Y20480D01*
X31722Y20296D01*
Y20250D01*
X31447Y20388D02*
X31263D01*
X31171Y20480D02*
X31126Y20526D01*
X31034D01*
X30988Y20480D01*
Y20434D01*
X31034Y20388D01*
X31080D01*
X31034D01*
X30988Y20342D01*
Y20296D01*
X31034Y20250D01*
X31126D01*
X31171Y20296D01*
X30896Y20250D02*
Y20296D01*
X30850D01*
Y20250D01*
X30896D01*
X30666Y20480D02*
X30620Y20526D01*
X30529D01*
X30483Y20480D01*
Y20434D01*
X30529Y20388D01*
X30575D01*
X30529D01*
X30483Y20342D01*
Y20296D01*
X30529Y20250D01*
X30620D01*
X30666Y20296D01*
X30391Y20526D02*
Y20342D01*
X30299Y20250D01*
X30207Y20342D01*
Y20526D01*
X28230Y20850D02*
Y20350D01*
X28130Y20250D01*
X27930D01*
X27830Y20350D01*
Y20850D01*
X27630Y20250D02*
X27430D01*
X27530D01*
Y20850D01*
X27630Y20750D01*
X26900Y20526D02*
Y20250D01*
X26716D01*
X26625D02*
Y20526D01*
X26533Y20434D01*
X26441Y20526D01*
Y20250D01*
X26165D02*
X26349D01*
X26165Y20434D01*
Y20480D01*
X26211Y20526D01*
X26303D01*
X26349Y20480D01*
X26073Y20296D02*
X26028Y20250D01*
X25936D01*
X25890Y20296D01*
Y20480D01*
X25936Y20526D01*
X26028D01*
X26073Y20480D01*
Y20434D01*
X26028Y20388D01*
X25890D01*
X25660Y20250D02*
Y20526D01*
X25798Y20388D01*
X25614D01*
X25522Y20480D02*
X25477Y20526D01*
X25385D01*
X25339Y20480D01*
Y20296D01*
X25385Y20250D01*
X25477D01*
X25522Y20296D01*
Y20480D01*
X25247Y20388D02*
X25063D01*
X24788Y20526D02*
X24971D01*
Y20388D01*
X24880Y20434D01*
X24834D01*
X24788Y20388D01*
Y20296D01*
X24834Y20250D01*
X24926D01*
X24971Y20296D01*
X24696Y20250D02*
Y20296D01*
X24650D01*
Y20250D01*
X24696D01*
X24466Y20480D02*
X24420Y20526D01*
X24329D01*
X24283Y20480D01*
Y20296D01*
X24329Y20250D01*
X24420D01*
X24466Y20296D01*
Y20480D01*
X24191Y20526D02*
Y20342D01*
X24099Y20250D01*
X24007Y20342D01*
Y20526D01*
X14980Y7950D02*
Y8550D01*
X14680D01*
X14580Y8450D01*
Y8250D01*
X14680Y8150D01*
X14980D01*
X14780D02*
X14580Y7950D01*
X14381D02*
Y8550D01*
X14081D01*
X13981Y8450D01*
Y8250D01*
X14081Y8150D01*
X14381D01*
X13381Y7950D02*
X13781D01*
X13381Y8350D01*
Y8450D01*
X13481Y8550D01*
X13681D01*
X13781Y8450D01*
X13550Y6900D02*
X13350D01*
X13450D01*
Y7500D01*
X13550Y7400D01*
X13050D02*
X12950Y7500D01*
X12750D01*
X12650Y7400D01*
Y7000D01*
X12750Y6900D01*
X12950D01*
X13050Y7000D01*
Y7400D01*
X12050Y6900D02*
X12450D01*
X12050Y7300D01*
Y7400D01*
X12150Y7500D01*
X12350D01*
X12450Y7400D01*
X28300Y9200D02*
Y9800D01*
X28000D01*
X27900Y9700D01*
Y9500D01*
X28000Y9400D01*
X28300D01*
X28100D02*
X27900Y9200D01*
X27700Y9700D02*
X27600Y9800D01*
X27400D01*
X27300Y9700D01*
Y9600D01*
X27400Y9500D01*
X27300Y9400D01*
Y9300D01*
X27400Y9200D01*
X27600D01*
X27700Y9300D01*
Y9400D01*
X27600Y9500D01*
X27700Y9600D01*
Y9700D01*
X27600Y9500D02*
X27400D01*
X26750Y10900D02*
Y11500D01*
X26450D01*
X26350Y11400D01*
Y11200D01*
X26450Y11100D01*
X26750D01*
X26550D02*
X26350Y10900D01*
X26150Y11500D02*
X25750D01*
Y11400D01*
X26150Y11000D01*
Y10900D01*
X28250D02*
Y11500D01*
X27950D01*
X27850Y11400D01*
Y11200D01*
X27950Y11100D01*
X28250D01*
X28050D02*
X27850Y10900D01*
X27250Y11500D02*
X27450Y11400D01*
X27650Y11200D01*
Y11000D01*
X27550Y10900D01*
X27350D01*
X27250Y11000D01*
Y11100D01*
X27350Y11200D01*
X27650D01*
X31898Y12690D02*
Y13289D01*
X31599D01*
X31499Y13190D01*
Y12990D01*
X31599Y12890D01*
X31898D01*
X31698D02*
X31499Y12690D01*
X30999D02*
Y13289D01*
X31299Y12990D01*
X30899D01*
X33384Y12690D02*
Y13289D01*
X33084D01*
X32984Y13190D01*
Y12990D01*
X33084Y12890D01*
X33384D01*
X33184D02*
X32984Y12690D01*
X32784Y13190D02*
X32684Y13289D01*
X32484D01*
X32384Y13190D01*
Y13090D01*
X32484Y12990D01*
X32584D01*
X32484D01*
X32384Y12890D01*
Y12790D01*
X32484Y12690D01*
X32684D01*
X32784Y12790D01*
X34900Y12690D02*
Y13289D01*
X34600D01*
X34500Y13190D01*
Y12990D01*
X34600Y12890D01*
X34900D01*
X34700D02*
X34500Y12690D01*
X34300D02*
X34100D01*
X34200D01*
Y13289D01*
X34300Y13190D01*
X36650Y7700D02*
Y7100D01*
X36350D01*
X36250Y7200D01*
Y7600D01*
X36350Y7700D01*
X36650D01*
X35750Y7100D02*
Y7700D01*
X36050Y7400D01*
X35650D01*
X29548Y16768D02*
X29648Y16868D01*
X29848D01*
X29948Y16768D01*
Y16368D01*
X29848Y16268D01*
X29648D01*
X29548Y16368D01*
X29048Y16268D02*
Y16868D01*
X29348Y16568D01*
X28948D01*
X23348Y16770D02*
X23448Y16870D01*
X23648D01*
X23748Y16770D01*
Y16370D01*
X23648Y16270D01*
X23448D01*
X23348Y16370D01*
X22748Y16270D02*
X23148D01*
X22748Y16670D01*
Y16770D01*
X22848Y16870D01*
X23048D01*
X23148Y16770D01*
D14*
X22550Y15500D02*
Y16200D01*
X23800Y15500D02*
Y16200D01*
X22550D02*
X23050D01*
X22550Y15500D02*
X23050D01*
X23350D02*
X23800D01*
X23350Y16200D02*
X23800D01*
X28750Y15500D02*
Y16200D01*
X30000Y15500D02*
Y16200D01*
X28750D02*
X29250D01*
X28750Y15500D02*
X29250D01*
X29550D02*
X30000D01*
X29550Y16200D02*
X30000D01*
X35000Y11850D02*
Y12550D01*
X33750Y11850D02*
Y12550D01*
X34500Y11850D02*
X35000D01*
X34500Y12550D02*
X35000D01*
X33750D02*
X34200D01*
X33750Y11850D02*
X34200D01*
X33475D02*
Y12550D01*
X32225Y11850D02*
Y12550D01*
X32975Y11850D02*
X33475D01*
X32975Y12550D02*
X33475D01*
X32225D02*
X32675D01*
X32225Y11850D02*
X32675D01*
X30700D02*
Y12550D01*
X31950Y11850D02*
Y12550D01*
X30700D02*
X31200D01*
X30700Y11850D02*
X31200D01*
X31500D02*
X31950D01*
X31500Y12550D02*
X31950D01*
X28300Y10050D02*
Y10750D01*
X27050Y10050D02*
Y10750D01*
X27800Y10050D02*
X28300D01*
X27800Y10750D02*
X28300D01*
X27050D02*
X27500D01*
X27050Y10050D02*
X27500D01*
X26750D02*
Y10750D01*
X25500Y10050D02*
Y10750D01*
X26250Y10050D02*
X26750D01*
X26250Y10750D02*
X26750D01*
X25500D02*
X25950D01*
X25500Y10050D02*
X25950D01*
X27050Y8350D02*
Y9050D01*
X28300Y8350D02*
Y9050D01*
X27050D02*
X27550D01*
X27050Y8350D02*
X27550D01*
X27850D02*
X28300D01*
X27850Y9050D02*
X28300D01*
D53*
X33408Y14517D02*
G03*
X33408Y14517I-49J0D01*
G01*
X33834Y9005D02*
G03*
X33834Y9005I-49J0D01*
G01*
X27158Y14517D02*
G03*
X27158Y14517I-49J0D01*
G01*
M02*
