G04*
G04 #@! TF.GenerationSoftware,Altium Limited,Altium Designer,18.1.4 (159)*
G04*
G04 Layer_Color=255*
%FSLAX24Y24*%
%MOIN*%
G70*
G01*
G75*
%ADD18R,0.0197X0.0400*%
%ADD19R,0.0300X0.0300*%
%ADD36C,0.0700*%
%ADD37R,0.0700X0.0700*%
%ADD38R,0.0900X0.0900*%
%ADD39C,0.0900*%
%ADD40R,0.0700X0.0700*%
G04:AMPARAMS|DCode=41|XSize=59.1mil|YSize=39.4mil|CornerRadius=9.8mil|HoleSize=0mil|Usage=FLASHONLY|Rotation=90.000|XOffset=0mil|YOffset=0mil|HoleType=Round|Shape=RoundedRectangle|*
%AMROUNDEDRECTD41*
21,1,0.0591,0.0197,0,0,90.0*
21,1,0.0394,0.0394,0,0,90.0*
1,1,0.0197,0.0098,0.0197*
1,1,0.0197,0.0098,-0.0197*
1,1,0.0197,-0.0098,-0.0197*
1,1,0.0197,-0.0098,0.0197*
%
%ADD41ROUNDEDRECTD41*%
%ADD42O,0.0827X0.0472*%
%ADD45R,0.0925X0.0610*%
%ADD46R,0.4134X0.4724*%
%ADD47R,0.0413X0.0827*%
%ADD48O,0.0236X0.0866*%
D18*
X14930Y7600D02*
D03*
Y6900D02*
D03*
X14615Y7600D02*
D03*
Y6900D02*
D03*
X14300Y7600D02*
D03*
Y6900D02*
D03*
X13985Y7600D02*
D03*
Y6900D02*
D03*
D19*
X22900Y15850D02*
D03*
X23450D02*
D03*
X29100D02*
D03*
X29650D02*
D03*
X34650Y12200D02*
D03*
X34100D02*
D03*
X33125D02*
D03*
X32575D02*
D03*
X31050D02*
D03*
X31600D02*
D03*
X27950Y10400D02*
D03*
X27400D02*
D03*
X26400D02*
D03*
X25850D02*
D03*
X27400Y8700D02*
D03*
X27950D02*
D03*
D36*
X7600Y1400D02*
D03*
X9600Y2400D02*
D03*
X7600D02*
D03*
X10600Y1400D02*
D03*
X9600D02*
D03*
X8600Y2400D02*
D03*
X11600D02*
D03*
Y1400D02*
D03*
X8600D02*
D03*
X10600Y2400D02*
D03*
X21600Y18200D02*
D03*
Y19200D02*
D03*
X22600D02*
D03*
Y17200D02*
D03*
X21600D02*
D03*
X22600Y18200D02*
D03*
X21600Y13300D02*
D03*
X22600Y11300D02*
D03*
Y14300D02*
D03*
X21600D02*
D03*
Y11300D02*
D03*
X22600Y12300D02*
D03*
Y13300D02*
D03*
X21600Y10300D02*
D03*
Y12300D02*
D03*
X22600Y10300D02*
D03*
X20900Y22450D02*
D03*
Y23450D02*
D03*
X21900Y22450D02*
D03*
X23900Y23450D02*
D03*
X27900D02*
D03*
X24900Y22450D02*
D03*
Y23450D02*
D03*
X25900Y22450D02*
D03*
X22900D02*
D03*
Y23450D02*
D03*
X23900Y22450D02*
D03*
X27900D02*
D03*
X26900Y23450D02*
D03*
Y22450D02*
D03*
X21900Y23450D02*
D03*
X25900D02*
D03*
X28900Y20450D02*
D03*
X27900D02*
D03*
X29900D02*
D03*
X30900D02*
D03*
X31900D02*
D03*
X32900D02*
D03*
X21600Y7150D02*
D03*
Y6150D02*
D03*
Y8150D02*
D03*
X16650Y23450D02*
D03*
X14650Y22450D02*
D03*
X17650D02*
D03*
Y23450D02*
D03*
X14650D02*
D03*
X15650Y22450D02*
D03*
X16650D02*
D03*
X13650Y23450D02*
D03*
X15650D02*
D03*
X13650Y22450D02*
D03*
X37900Y7250D02*
D03*
Y8250D02*
D03*
X22500Y4000D02*
D03*
X23500D02*
D03*
X24500D02*
D03*
X22500Y1000D02*
D03*
X21500D02*
D03*
X24500D02*
D03*
X23500D02*
D03*
X2929Y18950D02*
D03*
X12929Y19950D02*
D03*
X18929Y16950D02*
D03*
Y9950D02*
D03*
X17929Y5950D02*
D03*
X929Y9950D02*
D03*
X1929Y16950D02*
D03*
X12929Y5950D02*
D03*
X6929Y4950D02*
D03*
X4929D02*
D03*
X14929Y4926D02*
D03*
X10929Y18950D02*
D03*
X1929Y14950D02*
D03*
Y15950D02*
D03*
X929Y14950D02*
D03*
Y15950D02*
D03*
Y16950D02*
D03*
Y17950D02*
D03*
X1929D02*
D03*
X929Y18950D02*
D03*
X1929D02*
D03*
X929Y19950D02*
D03*
X1929D02*
D03*
X2929D02*
D03*
X3929Y18950D02*
D03*
Y19950D02*
D03*
X4929Y18950D02*
D03*
Y19950D02*
D03*
X5929Y18950D02*
D03*
Y19950D02*
D03*
X6929Y18950D02*
D03*
Y19950D02*
D03*
X7929Y18950D02*
D03*
Y19950D02*
D03*
X8929Y18950D02*
D03*
Y19950D02*
D03*
X9929Y18950D02*
D03*
Y19950D02*
D03*
X10929D02*
D03*
X11929Y18950D02*
D03*
Y19950D02*
D03*
X12929Y18950D02*
D03*
X13929D02*
D03*
Y19950D02*
D03*
X14929Y18950D02*
D03*
Y19950D02*
D03*
X15929Y18950D02*
D03*
Y19950D02*
D03*
X16929Y18950D02*
D03*
Y19950D02*
D03*
X1929Y11950D02*
D03*
X929D02*
D03*
X1929Y10950D02*
D03*
X929D02*
D03*
X1929Y9950D02*
D03*
Y8950D02*
D03*
X929D02*
D03*
X1929Y7950D02*
D03*
X929D02*
D03*
X1929Y6950D02*
D03*
X929D02*
D03*
X1929Y5950D02*
D03*
X929D02*
D03*
X1929Y4950D02*
D03*
X929D02*
D03*
X2929D02*
D03*
Y5950D02*
D03*
X3929Y4950D02*
D03*
Y5950D02*
D03*
X4929D02*
D03*
X5929Y4950D02*
D03*
Y5950D02*
D03*
X6929D02*
D03*
X7929Y4950D02*
D03*
Y5950D02*
D03*
X8929Y4950D02*
D03*
Y5950D02*
D03*
X9929Y4950D02*
D03*
Y5950D02*
D03*
X10929Y4950D02*
D03*
Y5950D02*
D03*
X11929Y4950D02*
D03*
Y5950D02*
D03*
X12929Y4950D02*
D03*
X13929D02*
D03*
Y5950D02*
D03*
X14929D02*
D03*
X1929Y13950D02*
D03*
X929D02*
D03*
X1929Y12950D02*
D03*
X929D02*
D03*
X15929Y4950D02*
D03*
Y5950D02*
D03*
X16929Y4950D02*
D03*
Y5950D02*
D03*
X17929Y4950D02*
D03*
X18929D02*
D03*
Y5950D02*
D03*
X17929Y6950D02*
D03*
X18929D02*
D03*
X17929Y7950D02*
D03*
X18929D02*
D03*
X17929Y8950D02*
D03*
X18929D02*
D03*
X17929Y9950D02*
D03*
Y10950D02*
D03*
X18929D02*
D03*
X17929Y11950D02*
D03*
X18929D02*
D03*
X17929Y12950D02*
D03*
X18929D02*
D03*
X17929Y13950D02*
D03*
X18929D02*
D03*
X17929Y14950D02*
D03*
X18929D02*
D03*
X17929Y15950D02*
D03*
X18929D02*
D03*
X17929Y16950D02*
D03*
Y17950D02*
D03*
X18929D02*
D03*
X17929Y18950D02*
D03*
X18929D02*
D03*
X17929Y19950D02*
D03*
X18929D02*
D03*
X25864Y3517D02*
D03*
Y840D02*
D03*
X27636D02*
D03*
X5500Y23450D02*
D03*
X6500Y22450D02*
D03*
Y23450D02*
D03*
X4500D02*
D03*
Y22450D02*
D03*
X5500D02*
D03*
X9850Y23450D02*
D03*
X10850Y22450D02*
D03*
Y23450D02*
D03*
X8850D02*
D03*
Y22450D02*
D03*
X9850D02*
D03*
X32050D02*
D03*
X31050D02*
D03*
Y23450D02*
D03*
X33050D02*
D03*
Y22450D02*
D03*
X32050Y23450D02*
D03*
X32136Y840D02*
D03*
X30364D02*
D03*
Y3517D02*
D03*
X36636Y840D02*
D03*
X34864D02*
D03*
Y3517D02*
D03*
X3750Y2350D02*
D03*
X4750Y1350D02*
D03*
Y2350D02*
D03*
X2750D02*
D03*
Y1350D02*
D03*
X3750D02*
D03*
X15150Y2350D02*
D03*
X16150Y1350D02*
D03*
Y2350D02*
D03*
X14150D02*
D03*
Y1350D02*
D03*
X15150D02*
D03*
D37*
X26900Y20450D02*
D03*
X21500Y4000D02*
D03*
D38*
X37689Y11650D02*
D03*
D39*
Y13650D02*
D03*
D40*
X37900Y6250D02*
D03*
X27636Y3517D02*
D03*
X32136D02*
D03*
X36636D02*
D03*
D41*
X37990Y17013D02*
D03*
Y17800D02*
D03*
Y18587D02*
D03*
D42*
Y16225D02*
D03*
Y19375D02*
D03*
D45*
X34096Y7400D02*
D03*
X32404D02*
D03*
D46*
X32400Y17550D02*
D03*
X26150D02*
D03*
D47*
X32359Y13887D02*
D03*
X33359D02*
D03*
X31359D02*
D03*
X25109D02*
D03*
X27109D02*
D03*
X26109D02*
D03*
D48*
X31950Y10995D02*
D03*
X32450D02*
D03*
X32950D02*
D03*
X33450D02*
D03*
X31950Y8905D02*
D03*
X32450D02*
D03*
X32950D02*
D03*
X33450D02*
D03*
M02*
