G04*
G04 #@! TF.GenerationSoftware,Altium Limited,Altium Designer,18.1.4 (159)*
G04*
G04 Layer_Color=32768*
%FSLAX24Y24*%
%MOIN*%
G70*
G01*
G75*
%ADD54C,0.0016*%
D54*
X21460Y4250D02*
X21424Y4238D01*
X21412Y4214D01*
Y4190D01*
X21424Y4167D01*
X21448Y4155D01*
X21495Y4143D01*
X21531Y4131D01*
X21555Y4107D01*
X21567Y4083D01*
Y4048D01*
X21555Y4024D01*
X21543Y4012D01*
X21507Y4000D01*
X21460D01*
X21424Y4012D01*
X21412Y4024D01*
X21400Y4048D01*
Y4083D01*
X21412Y4107D01*
X21436Y4131D01*
X21471Y4143D01*
X21519Y4155D01*
X21543Y4167D01*
X21555Y4190D01*
Y4214D01*
X21543Y4238D01*
X21507Y4250D01*
X21460D01*
X22567D02*
X22448Y4000D01*
X22400Y4250D02*
X22567D01*
X23543Y4214D02*
X23531Y4238D01*
X23495Y4250D01*
X23471D01*
X23436Y4238D01*
X23412Y4202D01*
X23400Y4143D01*
Y4083D01*
X23412Y4036D01*
X23436Y4012D01*
X23471Y4000D01*
X23483D01*
X23519Y4012D01*
X23543Y4036D01*
X23555Y4071D01*
Y4083D01*
X23543Y4119D01*
X23519Y4143D01*
X23483Y4155D01*
X23471D01*
X23436Y4143D01*
X23412Y4119D01*
X23400Y4083D01*
X24543Y4250D02*
X24424D01*
X24412Y4143D01*
X24424Y4155D01*
X24460Y4167D01*
X24495D01*
X24531Y4155D01*
X24555Y4131D01*
X24567Y4095D01*
Y4071D01*
X24555Y4036D01*
X24531Y4012D01*
X24495Y4000D01*
X24460D01*
X24424Y4012D01*
X24412Y4024D01*
X24400Y4048D01*
X22412Y1190D02*
Y1202D01*
X22424Y1226D01*
X22436Y1238D01*
X22460Y1250D01*
X22507D01*
X22531Y1238D01*
X22543Y1226D01*
X22555Y1202D01*
Y1179D01*
X22543Y1155D01*
X22519Y1119D01*
X22400Y1000D01*
X22567D01*
X21400Y1202D02*
X21424Y1214D01*
X21460Y1250D01*
Y1000D01*
X24519Y1250D02*
X24400Y1083D01*
X24579D01*
X24519Y1250D02*
Y1000D01*
X23424Y1250D02*
X23555D01*
X23483Y1155D01*
X23519D01*
X23543Y1143D01*
X23555Y1131D01*
X23567Y1095D01*
Y1071D01*
X23555Y1036D01*
X23531Y1012D01*
X23495Y1000D01*
X23460D01*
X23424Y1012D01*
X23412Y1024D01*
X23400Y1048D01*
M02*
