G04*
G04 #@! TF.GenerationSoftware,Altium Limited,Altium Designer,18.1.4 (159)*
G04*
G04 Layer_Physical_Order=2*
G04 Layer_Color=16711680*
%FSLAX24Y24*%
%MOIN*%
G70*
G01*
G75*
%ADD11C,0.0100*%
%ADD19R,0.0110X0.0295*%
%ADD20R,0.0197X0.0118*%
%ADD21R,0.0118X0.0197*%
%ADD45R,0.0748X0.0748*%
%ADD46C,0.0748*%
%ADD47C,0.0709*%
%ADD48C,0.0591*%
%ADD49R,0.0591X0.0591*%
%ADD50R,0.0984X0.0984*%
%ADD51C,0.0984*%
%ADD52R,0.0472X0.0472*%
%ADD53C,0.0472*%
%ADD54C,0.0600*%
%ADD55R,0.0600X0.0600*%
%ADD56O,0.0827X0.0472*%
G04:AMPARAMS|DCode=57|XSize=59.1mil|YSize=39.4mil|CornerRadius=9.8mil|HoleSize=0mil|Usage=FLASHONLY|Rotation=90.000|XOffset=0mil|YOffset=0mil|HoleType=Round|Shape=RoundedRectangle|*
%AMROUNDEDRECTD57*
21,1,0.0591,0.0197,0,0,90.0*
21,1,0.0394,0.0394,0,0,90.0*
1,1,0.0197,0.0098,0.0197*
1,1,0.0197,0.0098,-0.0197*
1,1,0.0197,-0.0098,-0.0197*
1,1,0.0197,-0.0098,0.0197*
%
%ADD57ROUNDEDRECTD57*%
%ADD58O,0.0660X0.0590*%
%ADD59O,0.0590X0.0660*%
%ADD60C,0.0500*%
%ADD61C,0.1575*%
%ADD62R,0.0925X0.0610*%
%ADD63R,0.4134X0.4724*%
%ADD64R,0.0413X0.0827*%
%ADD65O,0.0236X0.0866*%
G36*
X22794Y23995D02*
X22755Y23990D01*
X22620Y23934D01*
X22505Y23845D01*
X22416Y23730D01*
X22373Y23626D01*
X22319D01*
X22297Y23679D01*
X22224Y23774D01*
X22129Y23847D01*
X22019Y23893D01*
X21950Y23902D01*
Y23450D01*
X21850D01*
Y23902D01*
X21781Y23893D01*
X21671Y23847D01*
X21576Y23774D01*
X21503Y23679D01*
X21481Y23626D01*
X21427D01*
X21384Y23730D01*
X21295Y23845D01*
X21180Y23934D01*
X21045Y23990D01*
X21006Y23995D01*
X21010Y24045D01*
X22790D01*
X22794Y23995D01*
D02*
G37*
G36*
X23555Y23868D02*
X23578Y23854D01*
X23604Y23842D01*
X23634Y23832D01*
X23668Y23823D01*
X23706Y23816D01*
X23748Y23810D01*
X23843Y23805D01*
X23896Y23804D01*
X23546Y23454D01*
X23545Y23507D01*
X23540Y23602D01*
X23534Y23644D01*
X23527Y23682D01*
X23518Y23716D01*
X23508Y23746D01*
X23496Y23772D01*
X23482Y23795D01*
X23466Y23813D01*
X23537Y23884D01*
X23555Y23868D01*
D02*
G37*
G36*
X6084Y23813D02*
X6068Y23795D01*
X6054Y23772D01*
X6042Y23746D01*
X6032Y23716D01*
X6023Y23682D01*
X6016Y23644D01*
X6010Y23602D01*
X6005Y23507D01*
X6004Y23454D01*
X5654Y23804D01*
X5707Y23805D01*
X5802Y23810D01*
X5844Y23816D01*
X5882Y23823D01*
X5916Y23832D01*
X5946Y23842D01*
X5972Y23854D01*
X5995Y23868D01*
X6013Y23884D01*
X6084Y23813D01*
D02*
G37*
G36*
X30739Y23280D02*
X30725Y23303D01*
X30711Y23323D01*
X30695Y23341D01*
X30677Y23357D01*
X30659Y23370D01*
X30640Y23381D01*
X30619Y23389D01*
X30597Y23395D01*
X30574Y23399D01*
X30550Y23400D01*
Y23500D01*
X30574Y23501D01*
X30597Y23505D01*
X30619Y23511D01*
X30640Y23519D01*
X30659Y23530D01*
X30677Y23543D01*
X30695Y23559D01*
X30711Y23577D01*
X30725Y23597D01*
X30739Y23620D01*
Y23280D01*
D02*
G37*
G36*
X33341Y23660D02*
X33412Y23597D01*
X33446Y23571D01*
X33478Y23550D01*
X33508Y23532D01*
X33537Y23518D01*
X33564Y23508D01*
X33589Y23502D01*
X33613Y23500D01*
Y23400D01*
X33589Y23398D01*
X33564Y23392D01*
X33537Y23382D01*
X33508Y23368D01*
X33478Y23350D01*
X33446Y23329D01*
X33412Y23303D01*
X33341Y23240D01*
X33303Y23202D01*
Y23698D01*
X33341Y23660D01*
D02*
G37*
G36*
X21255Y23393D02*
X21260Y23298D01*
X21266Y23256D01*
X21273Y23218D01*
X21282Y23184D01*
X21292Y23154D01*
X21304Y23128D01*
X21318Y23105D01*
X21334Y23087D01*
X21263Y23016D01*
X21245Y23032D01*
X21222Y23046D01*
X21196Y23058D01*
X21166Y23068D01*
X21132Y23077D01*
X21094Y23084D01*
X21052Y23090D01*
X20957Y23095D01*
X20904Y23096D01*
X21254Y23446D01*
X21255Y23393D01*
D02*
G37*
G36*
X14357Y23798D02*
X14326Y23774D01*
X14253Y23679D01*
X14207Y23569D01*
X14198Y23500D01*
X14650D01*
Y23400D01*
X14198D01*
X14207Y23331D01*
X14253Y23221D01*
X14326Y23126D01*
X14421Y23053D01*
X14474Y23031D01*
Y22977D01*
X14370Y22934D01*
X14255Y22845D01*
X14180Y22749D01*
X14172Y22745D01*
X14128D01*
X14120Y22749D01*
X14045Y22845D01*
X13930Y22934D01*
X13826Y22977D01*
Y23031D01*
X13879Y23053D01*
X13974Y23126D01*
X14047Y23221D01*
X14093Y23331D01*
X14102Y23400D01*
X13650D01*
Y23500D01*
X14102D01*
X14093Y23569D01*
X14047Y23679D01*
X13974Y23774D01*
X13943Y23798D01*
X13959Y23845D01*
X14341D01*
X14357Y23798D01*
D02*
G37*
G36*
X13365Y22908D02*
X13385Y22896D01*
X13410Y22883D01*
X13439Y22870D01*
X13474Y22858D01*
X13557Y22834D01*
X13659Y22810D01*
X13717Y22798D01*
X13304Y22524D01*
X13313Y22572D01*
X13322Y22659D01*
X13323Y22698D01*
X13320Y22734D01*
X13315Y22766D01*
X13307Y22796D01*
X13295Y22822D01*
X13281Y22845D01*
X13264Y22865D01*
X13349Y22921D01*
X13365Y22908D01*
D02*
G37*
G36*
X33405Y22393D02*
X33410Y22298D01*
X33416Y22256D01*
X33423Y22218D01*
X33432Y22184D01*
X33442Y22154D01*
X33454Y22128D01*
X33468Y22105D01*
X33484Y22087D01*
X33413Y22016D01*
X33395Y22032D01*
X33372Y22046D01*
X33346Y22058D01*
X33316Y22068D01*
X33282Y22077D01*
X33244Y22084D01*
X33202Y22090D01*
X33107Y22095D01*
X33054Y22096D01*
X33404Y22446D01*
X33405Y22393D01*
D02*
G37*
G36*
X7005D02*
X7010Y22298D01*
X7016Y22256D01*
X7023Y22218D01*
X7032Y22184D01*
X7042Y22154D01*
X7054Y22128D01*
X7068Y22105D01*
X7084Y22087D01*
X7013Y22016D01*
X6995Y22032D01*
X6972Y22046D01*
X6946Y22058D01*
X6916Y22068D01*
X6882Y22077D01*
X6844Y22084D01*
X6802Y22090D01*
X6707Y22095D01*
X6654Y22096D01*
X7004Y22446D01*
X7005Y22393D01*
D02*
G37*
G36*
X6005D02*
X6010Y22298D01*
X6016Y22256D01*
X6023Y22218D01*
X6032Y22184D01*
X6042Y22154D01*
X6054Y22128D01*
X6068Y22105D01*
X6084Y22087D01*
X6013Y22016D01*
X5995Y22032D01*
X5972Y22046D01*
X5946Y22058D01*
X5916Y22068D01*
X5882Y22077D01*
X5844Y22084D01*
X5802Y22090D01*
X5707Y22095D01*
X5654Y22096D01*
X6004Y22446D01*
X6005Y22393D01*
D02*
G37*
G36*
X2700Y21998D02*
X2769Y22007D01*
X2879Y22053D01*
X2974Y22126D01*
X3047Y22221D01*
X3069Y22274D01*
X3123D01*
X3166Y22170D01*
X3255Y22055D01*
X3370Y21966D01*
X3505Y21910D01*
X3650Y21891D01*
X3795Y21910D01*
X3930Y21966D01*
X4045Y22055D01*
X4120Y22151D01*
X4128Y22155D01*
X4172D01*
X4180Y22151D01*
X4255Y22055D01*
X4370Y21966D01*
X4505Y21910D01*
X4650Y21891D01*
X4795Y21910D01*
X4930Y21966D01*
X5045Y22055D01*
X5120Y22151D01*
X5128Y22155D01*
X5172D01*
X5180Y22151D01*
X5255Y22055D01*
X5370Y21966D01*
X5505Y21910D01*
X5650Y21891D01*
X5657Y21892D01*
X5700Y21892D01*
X5783Y21887D01*
X5812Y21883D01*
X5838Y21878D01*
X5857Y21873D01*
X5869Y21869D01*
X5872Y21868D01*
X7220Y20520D01*
X7302Y20464D01*
X7400Y20445D01*
X7633D01*
X7650Y20395D01*
X7576Y20338D01*
X7497Y20235D01*
X7456Y20137D01*
X7402D01*
X7362Y20235D01*
X7282Y20338D01*
X7179Y20417D01*
X7058Y20467D01*
X6929Y20484D01*
X6800Y20467D01*
X6679Y20417D01*
X6576Y20338D01*
X6497Y20235D01*
X6456Y20137D01*
X6402D01*
X6362Y20235D01*
X6282Y20338D01*
X6179Y20417D01*
X6058Y20467D01*
X5929Y20484D01*
X5800Y20467D01*
X5680Y20417D01*
X5576Y20338D01*
X5497Y20235D01*
X5456Y20137D01*
X5402D01*
X5362Y20235D01*
X5282Y20338D01*
X5179Y20417D01*
X5058Y20467D01*
X4929Y20484D01*
X4800Y20467D01*
X4679Y20417D01*
X4576Y20338D01*
X4497Y20235D01*
X4456Y20137D01*
X4402D01*
X4362Y20235D01*
X4282Y20338D01*
X4179Y20417D01*
X4058Y20467D01*
X3929Y20484D01*
X3800Y20467D01*
X3679Y20417D01*
X3576Y20338D01*
X3497Y20235D01*
X3456Y20137D01*
X3402D01*
X3362Y20235D01*
X3282Y20338D01*
X3179Y20417D01*
X3058Y20467D01*
X2929Y20484D01*
X2800Y20467D01*
X2679Y20417D01*
X2576Y20338D01*
X2497Y20235D01*
X2466Y20161D01*
X2412D01*
X2397Y20200D01*
X2317Y20303D01*
X2214Y20382D01*
X2093Y20432D01*
X1964Y20449D01*
X1894D01*
X1765Y20432D01*
X1645Y20382D01*
X1541Y20303D01*
X1462Y20200D01*
X1454Y20181D01*
X1404D01*
X1397Y20200D01*
X1317Y20303D01*
X1214Y20382D01*
X1093Y20432D01*
X964Y20449D01*
X894D01*
X765Y20432D01*
X645Y20382D01*
X555Y20314D01*
X505Y20333D01*
Y20757D01*
X2152Y22405D01*
X2200Y22389D01*
X2207Y22331D01*
X2253Y22221D01*
X2326Y22126D01*
X2421Y22053D01*
X2531Y22007D01*
X2600Y21998D01*
Y22450D01*
X2700D01*
Y21998D01*
D02*
G37*
G36*
X35717Y21379D02*
X35693Y21403D01*
X35646Y21443D01*
X35624Y21459D01*
X35602Y21473D01*
X35580Y21484D01*
X35560Y21493D01*
X35540Y21499D01*
X35520Y21503D01*
X35501Y21504D01*
Y21604D01*
X35520Y21605D01*
X35540Y21609D01*
X35560Y21615D01*
X35580Y21624D01*
X35602Y21635D01*
X35624Y21649D01*
X35646Y21665D01*
X35669Y21684D01*
X35717Y21729D01*
Y21379D01*
D02*
G37*
G36*
X36078Y21911D02*
X36050Y21869D01*
X35987Y21895D01*
X35946Y21900D01*
Y21554D01*
Y21207D01*
X35987Y21213D01*
X36072Y21248D01*
X36100Y21270D01*
X36145Y21248D01*
Y20756D01*
X35894Y20505D01*
X33354D01*
X33348Y20518D01*
X33335Y20555D01*
X33383Y20671D01*
X33400Y20800D01*
X33383Y20929D01*
X33333Y21050D01*
X33253Y21153D01*
X33150Y21233D01*
X33029Y21283D01*
X32900Y21300D01*
X32771Y21283D01*
X32650Y21233D01*
X32547Y21153D01*
X32467Y21050D01*
X32427Y20952D01*
X32373D01*
X32333Y21050D01*
X32253Y21153D01*
X32150Y21233D01*
X32029Y21283D01*
X31900Y21300D01*
X31771Y21283D01*
X31650Y21233D01*
X31547Y21153D01*
X31467Y21050D01*
X31427Y20952D01*
X31373D01*
X31333Y21050D01*
X31253Y21153D01*
X31150Y21233D01*
X31029Y21283D01*
X30900Y21300D01*
X30771Y21283D01*
X30650Y21233D01*
X30547Y21153D01*
X30467Y21050D01*
X30427Y20952D01*
X30373D01*
X30333Y21050D01*
X30253Y21153D01*
X30150Y21233D01*
X30029Y21283D01*
X29900Y21300D01*
X29771Y21283D01*
X29650Y21233D01*
X29547Y21153D01*
X29467Y21050D01*
X29427Y20952D01*
X29373D01*
X29333Y21050D01*
X29253Y21153D01*
X29150Y21233D01*
X29029Y21283D01*
X28900Y21300D01*
X28820Y21289D01*
X28797Y21336D01*
X30567Y23107D01*
X30617Y23104D01*
X30655Y23055D01*
X30770Y22966D01*
X30874Y22923D01*
Y22869D01*
X30821Y22847D01*
X30726Y22774D01*
X30653Y22679D01*
X30607Y22569D01*
X30598Y22500D01*
X31050D01*
X31502D01*
X31493Y22569D01*
X31447Y22679D01*
X31374Y22774D01*
X31279Y22847D01*
X31226Y22869D01*
Y22923D01*
X31330Y22966D01*
X31445Y23055D01*
X31520Y23151D01*
X31528Y23155D01*
X31572D01*
X31580Y23151D01*
X31655Y23055D01*
X31770Y22966D01*
X31874Y22923D01*
Y22869D01*
X31821Y22847D01*
X31726Y22774D01*
X31653Y22679D01*
X31607Y22569D01*
X31598Y22500D01*
X32050D01*
X32502D01*
X32493Y22569D01*
X32447Y22679D01*
X32374Y22774D01*
X32279Y22847D01*
X32226Y22869D01*
Y22923D01*
X32330Y22966D01*
X32445Y23055D01*
X32520Y23151D01*
X32528Y23155D01*
X32572D01*
X32580Y23151D01*
X32655Y23055D01*
X32770Y22966D01*
X32874Y22923D01*
Y22869D01*
X32821Y22847D01*
X32726Y22774D01*
X32653Y22679D01*
X32607Y22569D01*
X32598Y22500D01*
X33050D01*
Y22400D01*
X32598D01*
X32607Y22331D01*
X32653Y22221D01*
X32726Y22126D01*
X32821Y22053D01*
X32861Y22036D01*
X32865Y22019D01*
X32865Y22018D01*
X32865Y22018D01*
X32887Y21985D01*
X32909Y21952D01*
X32909Y21952D01*
X32909Y21951D01*
X32942Y21930D01*
X32974Y21908D01*
X32975Y21908D01*
X32976Y21907D01*
X33014Y21900D01*
X33052Y21892D01*
X33100Y21892D01*
X33183Y21887D01*
X33212Y21883D01*
X33238Y21878D01*
X33257Y21873D01*
X33269Y21869D01*
X33272Y21868D01*
X33766Y21374D01*
X33849Y21318D01*
X33946Y21299D01*
X35494D01*
X35500Y21296D01*
X35510Y21290D01*
X35520Y21282D01*
X35555Y21252D01*
X35574Y21233D01*
X35607Y21212D01*
X35639Y21191D01*
X35640Y21190D01*
X35641Y21190D01*
X35679Y21183D01*
X35717Y21175D01*
X35718Y21175D01*
X35719Y21175D01*
X35757Y21183D01*
X35795Y21191D01*
X35796Y21191D01*
X35797Y21191D01*
X35825Y21210D01*
X35846Y21207D01*
Y21554D01*
Y21900D01*
X35825Y21898D01*
X35801Y21915D01*
X35798Y21916D01*
X35795Y21917D01*
X35759Y21924D01*
X35724Y21933D01*
X35720Y21932D01*
X35717Y21933D01*
X35681Y21926D01*
X35645Y21920D01*
X35642Y21918D01*
X35639Y21917D01*
X35609Y21897D01*
X35578Y21878D01*
X35535Y21838D01*
X35522Y21827D01*
X35510Y21818D01*
X35500Y21812D01*
X35494Y21809D01*
X34052D01*
X33632Y22228D01*
X33631Y22231D01*
X33627Y22243D01*
X33622Y22262D01*
X33617Y22288D01*
X33613Y22317D01*
X33608Y22400D01*
X33608Y22448D01*
X33600Y22486D01*
X33593Y22524D01*
X33592Y22525D01*
X33592Y22526D01*
X33570Y22558D01*
X33549Y22591D01*
X33548Y22591D01*
X33548Y22591D01*
X33515Y22613D01*
X33482Y22635D01*
X33482Y22635D01*
X33481Y22635D01*
X33464Y22639D01*
X33447Y22679D01*
X33374Y22774D01*
X33279Y22847D01*
X33226Y22869D01*
Y22923D01*
X33330Y22966D01*
X33445Y23055D01*
X33449Y23060D01*
X33481Y23091D01*
X33543Y23146D01*
X33566Y23164D01*
X33587Y23178D01*
X33604Y23188D01*
X33616Y23194D01*
X33619Y23195D01*
X34794D01*
X36078Y21911D01*
D02*
G37*
G36*
X28266Y21096D02*
X28252Y21080D01*
X28240Y21061D01*
X28229Y21039D01*
X28220Y21014D01*
X28212Y20986D01*
X28206Y20955D01*
X28201Y20921D01*
X28196Y20845D01*
X28195Y20803D01*
X27903Y21095D01*
X27945Y21096D01*
X28021Y21101D01*
X28055Y21106D01*
X28086Y21112D01*
X28114Y21120D01*
X28139Y21129D01*
X28161Y21140D01*
X28180Y21152D01*
X28196Y21166D01*
X28266Y21096D01*
D02*
G37*
G36*
X28196Y20755D02*
X28201Y20679D01*
X28206Y20645D01*
X28212Y20614D01*
X28220Y20586D01*
X28229Y20561D01*
X28240Y20539D01*
X28252Y20520D01*
X28266Y20504D01*
X28196Y20434D01*
X28180Y20448D01*
X28161Y20460D01*
X28139Y20471D01*
X28114Y20480D01*
X28086Y20488D01*
X28055Y20494D01*
X28021Y20499D01*
X27945Y20504D01*
X27903Y20505D01*
X28195Y20797D01*
X28196Y20755D01*
D02*
G37*
G36*
X26990Y20505D02*
X26982Y20502D01*
X26974Y20497D01*
X26968Y20490D01*
X26962Y20481D01*
X26958Y20470D01*
X26955Y20457D01*
X26952Y20442D01*
X26951Y20425D01*
X26950Y20406D01*
X26850D01*
X26850Y20425D01*
X26848Y20442D01*
X26846Y20457D01*
X26842Y20470D01*
X26837Y20481D01*
X26832Y20490D01*
X26825Y20497D01*
X26818Y20502D01*
X26809Y20505D01*
X26800Y20506D01*
X27000D01*
X26990Y20505D01*
D02*
G37*
G36*
X21955Y20743D02*
X21960Y20648D01*
X21966Y20606D01*
X21973Y20568D01*
X21982Y20534D01*
X21992Y20504D01*
X22004Y20478D01*
X22018Y20455D01*
X22034Y20437D01*
X21963Y20366D01*
X21945Y20382D01*
X21922Y20396D01*
X21896Y20408D01*
X21866Y20418D01*
X21832Y20427D01*
X21794Y20434D01*
X21752Y20440D01*
X21657Y20445D01*
X21604Y20446D01*
X21954Y20796D01*
X21955Y20743D01*
D02*
G37*
G36*
X16980Y20353D02*
X16981Y20334D01*
X16984Y20317D01*
X16987Y20302D01*
X16992Y20289D01*
X16997Y20279D01*
X17003Y20271D01*
X17011Y20265D01*
X17019Y20262D01*
X17029Y20261D01*
X16829D01*
X16839Y20262D01*
X16847Y20265D01*
X16855Y20271D01*
X16861Y20279D01*
X16867Y20289D01*
X16871Y20302D01*
X16875Y20317D01*
X16877Y20334D01*
X16879Y20353D01*
X16879Y20375D01*
X16979D01*
X16980Y20353D01*
D02*
G37*
G36*
X15980D02*
X15981Y20334D01*
X15984Y20317D01*
X15987Y20302D01*
X15992Y20289D01*
X15997Y20279D01*
X16003Y20271D01*
X16011Y20265D01*
X16019Y20262D01*
X16029Y20261D01*
X15829D01*
X15839Y20262D01*
X15847Y20265D01*
X15855Y20271D01*
X15861Y20279D01*
X15867Y20289D01*
X15871Y20302D01*
X15875Y20317D01*
X15877Y20334D01*
X15879Y20353D01*
X15879Y20375D01*
X15979D01*
X15980Y20353D01*
D02*
G37*
G36*
X14685Y20266D02*
X14700Y20253D01*
X14713Y20243D01*
X14726Y20235D01*
X14738Y20230D01*
X14749Y20227D01*
X14758Y20226D01*
X14767Y20228D01*
X14775Y20232D01*
X14782Y20238D01*
X14654Y20085D01*
X14659Y20093D01*
X14662Y20102D01*
X14663Y20112D01*
X14661Y20122D01*
X14657Y20134D01*
X14651Y20146D01*
X14643Y20159D01*
X14632Y20173D01*
X14620Y20188D01*
X14605Y20204D01*
X14669Y20281D01*
X14685Y20266D01*
D02*
G37*
G36*
X26951Y19992D02*
X26952Y19975D01*
X26955Y19960D01*
X26958Y19947D01*
X26962Y19936D01*
X26968Y19927D01*
X26974Y19920D01*
X26982Y19915D01*
X26990Y19912D01*
X27000Y19911D01*
X26800D01*
X26809Y19912D01*
X26818Y19915D01*
X26825Y19920D01*
X26832Y19927D01*
X26837Y19936D01*
X26842Y19947D01*
X26846Y19960D01*
X26848Y19975D01*
X26850Y19992D01*
X26850Y20011D01*
X26950D01*
X26951Y19992D01*
D02*
G37*
G36*
X21347Y19552D02*
X21309Y19590D01*
X21237Y19653D01*
X21204Y19679D01*
X21172Y19700D01*
X21142Y19718D01*
X21113Y19732D01*
X21086Y19742D01*
X21061Y19748D01*
X21037Y19750D01*
Y19850D01*
X21061Y19852D01*
X21086Y19858D01*
X21113Y19868D01*
X21142Y19882D01*
X21172Y19900D01*
X21204Y19921D01*
X21237Y19947D01*
X21309Y20010D01*
X21347Y20048D01*
Y19552D01*
D02*
G37*
G36*
X15254Y19204D02*
X15239Y19188D01*
X15226Y19173D01*
X15215Y19159D01*
X15207Y19146D01*
X15201Y19134D01*
X15197Y19122D01*
X15196Y19112D01*
X15196Y19102D01*
X15199Y19093D01*
X15205Y19085D01*
X15076Y19238D01*
X15083Y19232D01*
X15091Y19228D01*
X15100Y19226D01*
X15110Y19227D01*
X15120Y19230D01*
X15132Y19235D01*
X15145Y19243D01*
X15159Y19253D01*
X15173Y19266D01*
X15189Y19281D01*
X15254Y19204D01*
D02*
G37*
G36*
X21347Y18552D02*
X21309Y18590D01*
X21237Y18653D01*
X21204Y18679D01*
X21172Y18700D01*
X21142Y18718D01*
X21113Y18732D01*
X21086Y18742D01*
X21061Y18748D01*
X21037Y18750D01*
Y18850D01*
X21061Y18852D01*
X21086Y18858D01*
X21113Y18868D01*
X21142Y18882D01*
X21172Y18900D01*
X21204Y18921D01*
X21237Y18947D01*
X21309Y19010D01*
X21347Y19048D01*
Y18552D01*
D02*
G37*
G36*
X22295Y19744D02*
Y15556D01*
X21822Y15082D01*
X21819Y15081D01*
X21807Y15077D01*
X21788Y15072D01*
X21762Y15067D01*
X21733Y15063D01*
X21650Y15058D01*
X21607Y15058D01*
X21600Y15059D01*
X21455Y15040D01*
X21320Y14984D01*
X21205Y14895D01*
X21116Y14780D01*
X21060Y14645D01*
X21041Y14500D01*
X21042Y14493D01*
X21042Y14450D01*
X21037Y14367D01*
X21033Y14338D01*
X21028Y14312D01*
X21023Y14293D01*
X21019Y14281D01*
X21018Y14278D01*
X20370Y13630D01*
X20315Y13548D01*
X20295Y13450D01*
Y12006D01*
X19964Y11675D01*
X19436D01*
X19407Y11725D01*
X19446Y11821D01*
X19463Y11950D01*
X19446Y12079D01*
X19397Y12200D01*
X19317Y12303D01*
X19214Y12382D01*
X19116Y12423D01*
Y12477D01*
X19214Y12518D01*
X19317Y12597D01*
X19397Y12700D01*
X19446Y12821D01*
X19463Y12950D01*
X19446Y13079D01*
X19397Y13200D01*
X19317Y13303D01*
X19214Y13382D01*
X19116Y13423D01*
Y13477D01*
X19214Y13518D01*
X19317Y13597D01*
X19397Y13700D01*
X19446Y13821D01*
X19463Y13950D01*
X19446Y14079D01*
X19397Y14200D01*
X19317Y14303D01*
X19214Y14382D01*
X19116Y14423D01*
Y14477D01*
X19214Y14518D01*
X19317Y14597D01*
X19397Y14700D01*
X19446Y14821D01*
X19463Y14950D01*
X19446Y15079D01*
X19397Y15200D01*
X19317Y15303D01*
X19214Y15382D01*
X19116Y15423D01*
Y15477D01*
X19214Y15518D01*
X19317Y15597D01*
X19397Y15700D01*
X19446Y15821D01*
X19463Y15950D01*
X19446Y16079D01*
X19397Y16200D01*
X19317Y16303D01*
X19214Y16382D01*
X19116Y16423D01*
Y16477D01*
X19214Y16518D01*
X19317Y16597D01*
X19397Y16700D01*
X19446Y16821D01*
X19463Y16950D01*
X19446Y17079D01*
X19416Y17154D01*
X19443Y17195D01*
X19550D01*
X19648Y17214D01*
X19730Y17270D01*
X21006Y18545D01*
X21031D01*
X21034Y18544D01*
X21046Y18538D01*
X21063Y18528D01*
X21084Y18514D01*
X21107Y18496D01*
X21169Y18441D01*
X21204Y18407D01*
X21236Y18385D01*
X21269Y18364D01*
X21269Y18363D01*
X21270Y18363D01*
X21308Y18356D01*
X21347Y18348D01*
X21348Y18348D01*
X21348Y18348D01*
X21387Y18356D01*
X21425Y18364D01*
X21425Y18364D01*
X21426Y18364D01*
X21441Y18374D01*
X21481Y18357D01*
X21550Y18348D01*
Y18800D01*
X21600D01*
Y18850D01*
X22052D01*
X22043Y18919D01*
X21997Y19029D01*
X21924Y19124D01*
X21829Y19197D01*
X21776Y19219D01*
Y19273D01*
X21880Y19316D01*
X21995Y19405D01*
X22084Y19520D01*
X22140Y19655D01*
X22159Y19800D01*
X22157Y19815D01*
X22202Y19838D01*
X22295Y19744D01*
D02*
G37*
G36*
X37848Y18304D02*
X37845Y18314D01*
X37839Y18321D01*
X37833Y18325D01*
X37824Y18325D01*
X37814Y18323D01*
X37803Y18318D01*
X37789Y18310D01*
X37774Y18298D01*
X37758Y18284D01*
X37740Y18266D01*
X37722Y18390D01*
X37738Y18407D01*
X37764Y18438D01*
X37774Y18453D01*
X37783Y18468D01*
X37789Y18482D01*
X37793Y18495D01*
X37795Y18508D01*
X37796Y18520D01*
X37794Y18531D01*
X37848Y18304D01*
D02*
G37*
G36*
X34536Y18116D02*
X34523Y18101D01*
X34511Y18087D01*
X34500Y18073D01*
X34490Y18059D01*
X34483Y18044D01*
X34476Y18030D01*
X34471Y18016D01*
X34467Y18002D01*
X34465Y17988D01*
X34465Y17974D01*
Y18257D01*
X34465Y18244D01*
X34467Y18234D01*
X34471Y18227D01*
X34476Y18223D01*
X34483Y18221D01*
X34490Y18223D01*
X34500Y18227D01*
X34511Y18234D01*
X34523Y18244D01*
X34536Y18257D01*
Y18116D01*
D02*
G37*
G36*
X37436Y19600D02*
X37432Y19595D01*
X37388Y19489D01*
X37373Y19375D01*
X37388Y19261D01*
X37432Y19155D01*
X37502Y19064D01*
X37593Y18994D01*
X37618Y18983D01*
X37631Y18935D01*
X37631Y18935D01*
X37601Y18862D01*
X37591Y18784D01*
Y18549D01*
X37590Y18548D01*
X36220Y17177D01*
X36165Y17095D01*
X36145Y16997D01*
Y16068D01*
X34218Y14142D01*
X33766D01*
Y14500D01*
X32952D01*
Y13273D01*
X33095D01*
Y12469D01*
X32964D01*
Y12465D01*
X32336D01*
Y12469D01*
X32149D01*
X32147Y12470D01*
X31864Y12753D01*
X31781Y12808D01*
X31723Y12820D01*
X31707Y12874D01*
X32170Y13337D01*
X32199Y13345D01*
X32233Y13351D01*
X32238Y13355D01*
X32243Y13356D01*
X32266Y13373D01*
X32309D01*
Y13887D01*
X32359D01*
Y13937D01*
X32666D01*
Y14185D01*
X32679Y14201D01*
X32682Y14212D01*
X32688Y14221D01*
X32694Y14250D01*
X32703Y14277D01*
X32702Y14288D01*
X32704Y14299D01*
X32698Y14328D01*
X32696Y14357D01*
X32690Y14366D01*
X32688Y14377D01*
X32672Y14401D01*
X32658Y14427D01*
X32655Y14430D01*
Y15059D01*
X32659Y15062D01*
X32672Y15088D01*
X34567D01*
Y17500D01*
X32400D01*
X30233D01*
Y16122D01*
X30207Y16109D01*
X30204Y16105D01*
X29937D01*
X29932Y16105D01*
X29925Y16108D01*
X29905Y16108D01*
X29885Y16112D01*
X29865Y16108D01*
X29861Y16108D01*
X29811Y16109D01*
X29811D01*
X29767Y16125D01*
Y19207D01*
X30187Y19626D01*
X30233Y19607D01*
Y17600D01*
X32400D01*
X34567D01*
Y17802D01*
X34571Y17805D01*
X34601Y17823D01*
X34604Y17827D01*
X34609Y17830D01*
X34628Y17859D01*
X34649Y17887D01*
X34650Y17892D01*
X34653Y17896D01*
X34660Y17930D01*
X34666Y17954D01*
X34666Y17955D01*
X34669Y17959D01*
X36356Y19645D01*
X37414D01*
X37436Y19600D01*
D02*
G37*
G36*
X28951Y17776D02*
X28955Y17756D01*
X28961Y17736D01*
X28970Y17715D01*
X28981Y17694D01*
X28995Y17672D01*
X29011Y17649D01*
X29030Y17626D01*
X29075Y17579D01*
X28725D01*
X28749Y17603D01*
X28789Y17649D01*
X28805Y17672D01*
X28819Y17694D01*
X28830Y17715D01*
X28839Y17736D01*
X28845Y17756D01*
X28849Y17776D01*
X28850Y17795D01*
X28950D01*
X28951Y17776D01*
D02*
G37*
G36*
X29886Y15906D02*
X29889Y15905D01*
X29894Y15904D01*
X29901Y15903D01*
X29921Y15901D01*
X29985Y15900D01*
Y15800D01*
X29966Y15800D01*
X29889Y15795D01*
X29886Y15794D01*
X29885Y15792D01*
Y15908D01*
X29886Y15906D01*
D02*
G37*
G36*
X23686D02*
X23689Y15905D01*
X23694Y15904D01*
X23701Y15903D01*
X23721Y15901D01*
X23785Y15900D01*
Y15800D01*
X23766Y15800D01*
X23689Y15795D01*
X23686Y15794D01*
X23685Y15792D01*
Y15908D01*
X23686Y15906D01*
D02*
G37*
G36*
X30335Y15750D02*
X30334Y15760D01*
X30331Y15768D01*
X30326Y15776D01*
X30319Y15782D01*
X30310Y15788D01*
X30299Y15792D01*
X30286Y15796D01*
X30271Y15798D01*
X30254Y15799D01*
X30234Y15800D01*
Y15900D01*
X30254Y15900D01*
X30271Y15902D01*
X30286Y15905D01*
X30299Y15908D01*
X30310Y15912D01*
X30319Y15918D01*
X30326Y15925D01*
X30331Y15932D01*
X30334Y15941D01*
X30335Y15950D01*
Y15750D01*
D02*
G37*
G36*
X24085D02*
X24084Y15760D01*
X24081Y15768D01*
X24076Y15776D01*
X24069Y15782D01*
X24060Y15788D01*
X24049Y15792D01*
X24036Y15796D01*
X24021Y15798D01*
X24004Y15799D01*
X23984Y15800D01*
Y15900D01*
X24004Y15900D01*
X24021Y15902D01*
X24036Y15905D01*
X24049Y15908D01*
X24060Y15912D01*
X24069Y15918D01*
X24076Y15925D01*
X24081Y15932D01*
X24084Y15941D01*
X24085Y15950D01*
Y15750D01*
D02*
G37*
G36*
X23957Y15591D02*
X23983Y15578D01*
Y15088D01*
X25878D01*
X25891Y15062D01*
X25895Y15059D01*
Y14430D01*
X25892Y14427D01*
X25878Y14401D01*
X25877Y14400D01*
X25802D01*
Y13937D01*
X26109D01*
X26416D01*
Y14185D01*
X26429Y14201D01*
X26432Y14212D01*
X26438Y14221D01*
X26444Y14250D01*
X26453Y14277D01*
X26452Y14288D01*
X26454Y14299D01*
X26448Y14328D01*
X26446Y14357D01*
X26440Y14366D01*
X26438Y14377D01*
X26422Y14401D01*
X26408Y14427D01*
X26405Y14430D01*
Y15059D01*
X26409Y15062D01*
X26422Y15088D01*
X28252D01*
X30466Y12874D01*
X30446Y12828D01*
X28528D01*
X27718Y13638D01*
X27518Y13838D01*
X27516Y13841D01*
Y14500D01*
X26702D01*
Y13273D01*
X27283D01*
Y10659D01*
X27179D01*
X27165Y10662D01*
X27151Y10659D01*
X26964D01*
Y10655D01*
X26286D01*
Y10659D01*
X26099D01*
X26085Y10662D01*
X26071Y10659D01*
X25505D01*
Y13273D01*
X25516D01*
Y13455D01*
X25518Y13465D01*
X25518Y13469D01*
X25518Y13473D01*
X25516Y13487D01*
Y14500D01*
X24702D01*
Y14246D01*
X24652Y14222D01*
X24577Y14280D01*
X24467Y14325D01*
X24358Y14339D01*
X24354Y14340D01*
X24295Y14342D01*
X24279Y14344D01*
X24264Y14346D01*
X24253Y14349D01*
X24246Y14351D01*
X23599Y14999D01*
Y15569D01*
X23643Y15591D01*
X23646Y15592D01*
X23661Y15592D01*
X23665Y15592D01*
X23685Y15588D01*
X23702Y15592D01*
X23702Y15591D01*
X23712Y15592D01*
X23725Y15592D01*
X23727Y15593D01*
X23759Y15595D01*
X23954D01*
X23957Y15591D01*
D02*
G37*
G36*
X28215Y15612D02*
X28217Y15598D01*
X28221Y15584D01*
X28226Y15570D01*
X28233Y15556D01*
X28240Y15541D01*
X28250Y15527D01*
X28261Y15513D01*
X28273Y15499D01*
X28286Y15484D01*
Y15343D01*
X28273Y15356D01*
X28261Y15366D01*
X28250Y15373D01*
X28240Y15377D01*
X28233Y15379D01*
X28226Y15377D01*
X28221Y15373D01*
X28217Y15366D01*
X28215Y15356D01*
X28215Y15343D01*
Y15626D01*
X28215Y15612D01*
D02*
G37*
G36*
X2260Y15210D02*
X2245Y15194D01*
X2232Y15180D01*
X2222Y15166D01*
X2214Y15153D01*
X2209Y15141D01*
X2206Y15131D01*
X2205Y15121D01*
X2207Y15112D01*
X2211Y15104D01*
X2217Y15097D01*
X2064Y15225D01*
X2072Y15220D01*
X2081Y15217D01*
X2091Y15217D01*
X2101Y15218D01*
X2113Y15222D01*
X2125Y15228D01*
X2138Y15236D01*
X2152Y15247D01*
X2167Y15260D01*
X2183Y15275D01*
X2260Y15210D01*
D02*
G37*
G36*
X32490Y15189D02*
X32482Y15186D01*
X32475Y15181D01*
X32468Y15174D01*
X32462Y15165D01*
X32458Y15154D01*
X32455Y15141D01*
X32452Y15125D01*
X32450Y15108D01*
X32450Y15089D01*
X32350D01*
X32350Y15108D01*
X32348Y15125D01*
X32345Y15141D01*
X32342Y15154D01*
X32338Y15165D01*
X32332Y15174D01*
X32325Y15181D01*
X32318Y15186D01*
X32310Y15189D01*
X32300Y15190D01*
X32500D01*
X32490Y15189D01*
D02*
G37*
G36*
X26240D02*
X26232Y15186D01*
X26225Y15181D01*
X26218Y15174D01*
X26212Y15165D01*
X26208Y15154D01*
X26205Y15141D01*
X26202Y15125D01*
X26200Y15108D01*
X26200Y15089D01*
X26100D01*
X26100Y15108D01*
X26098Y15125D01*
X26095Y15141D01*
X26092Y15154D01*
X26088Y15165D01*
X26082Y15174D01*
X26075Y15181D01*
X26068Y15186D01*
X26060Y15189D01*
X26050Y15190D01*
X26250D01*
X26240Y15189D01*
D02*
G37*
G36*
X17542Y15596D02*
X17644Y15518D01*
X17742Y15477D01*
Y15423D01*
X17644Y15382D01*
X17541Y15303D01*
X17462Y15200D01*
X17412Y15079D01*
X17395Y14950D01*
X17412Y14821D01*
X17462Y14700D01*
X17541Y14597D01*
X17644Y14518D01*
X17742Y14477D01*
Y14423D01*
X17644Y14382D01*
X17541Y14303D01*
X17462Y14200D01*
X17412Y14079D01*
X17395Y13950D01*
X17412Y13821D01*
X17462Y13700D01*
X17541Y13597D01*
X17644Y13518D01*
X17742Y13477D01*
Y13423D01*
X17644Y13382D01*
X17541Y13303D01*
X17462Y13200D01*
X17412Y13079D01*
X17395Y12950D01*
X17412Y12821D01*
X17462Y12700D01*
X17541Y12597D01*
X17644Y12518D01*
X17742Y12477D01*
Y12423D01*
X17644Y12382D01*
X17541Y12303D01*
X17462Y12200D01*
X17412Y12079D01*
X17395Y11950D01*
X17412Y11821D01*
X17452Y11725D01*
X17422Y11675D01*
X15800D01*
X15702Y11655D01*
X15620Y11600D01*
X14617Y10597D01*
X14561Y10514D01*
X14542Y10417D01*
Y7536D01*
X14461D01*
Y9744D01*
X14442Y9841D01*
X14387Y9924D01*
X11180Y13130D01*
X11098Y13185D01*
X11000Y13205D01*
X2392D01*
X2317Y13303D01*
X2214Y13382D01*
X2093Y13432D01*
X1964Y13449D01*
X1894D01*
X1765Y13432D01*
X1696Y13404D01*
X1655Y13432D01*
Y13580D01*
X1705Y13601D01*
X1791Y13565D01*
X1879Y13554D01*
Y13950D01*
Y14346D01*
X1791Y14335D01*
X1705Y14299D01*
X1655Y14320D01*
Y14580D01*
X1705Y14601D01*
X1791Y14565D01*
X1879Y14554D01*
Y14950D01*
X1929D01*
Y15000D01*
X2394D01*
X2403Y15013D01*
X2406Y15025D01*
X2412Y15036D01*
X2415Y15064D01*
X2418Y15079D01*
X2956Y15616D01*
X17500D01*
X17542Y15596D01*
D02*
G37*
G36*
X22034Y14863D02*
X22018Y14845D01*
X22004Y14822D01*
X21992Y14796D01*
X21982Y14766D01*
X21973Y14732D01*
X21966Y14694D01*
X21960Y14652D01*
X21955Y14557D01*
X21954Y14504D01*
X21604Y14854D01*
X21657Y14855D01*
X21752Y14860D01*
X21794Y14866D01*
X21832Y14873D01*
X21866Y14882D01*
X21896Y14892D01*
X21922Y14904D01*
X21945Y14918D01*
X21963Y14934D01*
X22034Y14863D01*
D02*
G37*
G36*
X32450Y14380D02*
X32452Y14363D01*
X32455Y14348D01*
X32458Y14335D01*
X32462Y14324D01*
X32468Y14315D01*
X32475Y14308D01*
X32482Y14303D01*
X32490Y14300D01*
X32500Y14299D01*
X32300D01*
X32310Y14300D01*
X32318Y14303D01*
X32325Y14308D01*
X32332Y14315D01*
X32338Y14324D01*
X32342Y14335D01*
X32345Y14348D01*
X32348Y14363D01*
X32350Y14380D01*
X32350Y14399D01*
X32450D01*
X32450Y14380D01*
D02*
G37*
G36*
X26200D02*
X26202Y14363D01*
X26205Y14348D01*
X26208Y14335D01*
X26212Y14324D01*
X26218Y14315D01*
X26225Y14308D01*
X26232Y14303D01*
X26240Y14300D01*
X26250Y14299D01*
X26050D01*
X26060Y14300D01*
X26068Y14303D01*
X26075Y14308D01*
X26082Y14315D01*
X26088Y14324D01*
X26092Y14335D01*
X26095Y14348D01*
X26098Y14363D01*
X26100Y14380D01*
X26100Y14399D01*
X26200D01*
X26200Y14380D01*
D02*
G37*
G36*
X31155Y13951D02*
X31154Y13965D01*
X31152Y13979D01*
X31148Y13993D01*
X31143Y14007D01*
X31137Y14021D01*
X31129Y14035D01*
X31120Y14049D01*
X31109Y14063D01*
X31097Y14078D01*
X31083Y14092D01*
Y14234D01*
X31097Y14221D01*
X31109Y14211D01*
X31120Y14203D01*
X31129Y14199D01*
X31137Y14198D01*
X31143Y14199D01*
X31148Y14203D01*
X31152Y14211D01*
X31154Y14221D01*
X31155Y14234D01*
Y13951D01*
D02*
G37*
G36*
X21596Y14146D02*
X21543Y14145D01*
X21448Y14140D01*
X21406Y14134D01*
X21368Y14127D01*
X21334Y14118D01*
X21304Y14108D01*
X21278Y14096D01*
X21255Y14082D01*
X21237Y14066D01*
X21166Y14137D01*
X21182Y14155D01*
X21196Y14178D01*
X21208Y14204D01*
X21218Y14234D01*
X21227Y14268D01*
X21234Y14306D01*
X21240Y14348D01*
X21245Y14443D01*
X21246Y14496D01*
X21596Y14146D01*
D02*
G37*
G36*
X24120Y14189D02*
X24137Y14177D01*
X24156Y14168D01*
X24177Y14159D01*
X24200Y14152D01*
X24225Y14146D01*
X24252Y14142D01*
X24282Y14139D01*
X24348Y14137D01*
X24100Y13889D01*
X24100Y13923D01*
X24095Y13984D01*
X24091Y14012D01*
X24085Y14037D01*
X24078Y14060D01*
X24069Y14081D01*
X24059Y14100D01*
X24048Y14116D01*
X24035Y14131D01*
X24106Y14201D01*
X24120Y14189D01*
D02*
G37*
G36*
X33564Y13977D02*
X33567Y13969D01*
X33572Y13961D01*
X33580Y13955D01*
X33589Y13949D01*
X33600Y13945D01*
X33613Y13941D01*
X33628Y13939D01*
X33645Y13937D01*
X33665Y13937D01*
Y13837D01*
X33645Y13836D01*
X33628Y13835D01*
X33613Y13832D01*
X33600Y13829D01*
X33589Y13824D01*
X33580Y13819D01*
X33572Y13812D01*
X33567Y13805D01*
X33564Y13796D01*
X33563Y13787D01*
Y13987D01*
X33564Y13977D01*
D02*
G37*
G36*
X24905Y13787D02*
X24904Y13796D01*
X24901Y13805D01*
X24896Y13812D01*
X24889Y13819D01*
X24879Y13824D01*
X24868Y13829D01*
X24855Y13832D01*
X24840Y13835D01*
X24823Y13836D01*
X24804Y13837D01*
Y13937D01*
X24823Y13937D01*
X24840Y13939D01*
X24855Y13941D01*
X24868Y13945D01*
X24879Y13949D01*
X24889Y13955D01*
X24896Y13961D01*
X24901Y13969D01*
X24904Y13977D01*
X24905Y13987D01*
Y13787D01*
D02*
G37*
G36*
X24553Y14038D02*
X24599Y13998D01*
X24622Y13982D01*
X24644Y13968D01*
X24665Y13957D01*
X24686Y13948D01*
X24706Y13942D01*
X24726Y13938D01*
X24745Y13937D01*
Y13837D01*
X24726Y13835D01*
X24706Y13832D01*
X24686Y13825D01*
X24665Y13817D01*
X24644Y13805D01*
X24622Y13792D01*
X24599Y13775D01*
X24576Y13757D01*
X24529Y13712D01*
Y14062D01*
X24553Y14038D01*
D02*
G37*
G36*
X32155Y13540D02*
X32154Y13553D01*
X32152Y13563D01*
X32148Y13570D01*
X32143Y13574D01*
X32137Y13576D01*
X32129Y13574D01*
X32120Y13570D01*
X32109Y13563D01*
X32097Y13553D01*
X32083Y13540D01*
Y13681D01*
X32097Y13695D01*
X32109Y13710D01*
X32120Y13724D01*
X32129Y13738D01*
X32137Y13752D01*
X32143Y13767D01*
X32148Y13781D01*
X32152Y13795D01*
X32154Y13809D01*
X32155Y13823D01*
Y13540D01*
D02*
G37*
G36*
X27314Y13809D02*
X27316Y13795D01*
X27320Y13781D01*
X27325Y13767D01*
X27331Y13752D01*
X27339Y13738D01*
X27349Y13724D01*
X27359Y13710D01*
X27372Y13695D01*
X27385Y13681D01*
Y13540D01*
X27372Y13553D01*
X27359Y13563D01*
X27349Y13570D01*
X27339Y13574D01*
X27331Y13576D01*
X27325Y13574D01*
X27320Y13570D01*
X27316Y13563D01*
X27314Y13553D01*
X27313Y13540D01*
Y13823D01*
X27314Y13809D01*
D02*
G37*
G36*
X33440Y13475D02*
X33432Y13472D01*
X33424Y13467D01*
X33418Y13459D01*
X33412Y13450D01*
X33408Y13439D01*
X33405Y13426D01*
X33402Y13411D01*
X33400Y13394D01*
X33400Y13374D01*
X33300D01*
X33300Y13394D01*
X33298Y13411D01*
X33296Y13426D01*
X33292Y13439D01*
X33287Y13450D01*
X33282Y13459D01*
X33275Y13467D01*
X33268Y13472D01*
X33259Y13475D01*
X33250Y13476D01*
X33450D01*
X33440Y13475D01*
D02*
G37*
G36*
X25315Y13474D02*
X25312Y13473D01*
X25309Y13470D01*
X25307Y13465D01*
X25305Y13458D01*
X25304Y13449D01*
X25302Y13438D01*
X25301Y13410D01*
X25300Y13374D01*
X25200D01*
X25199Y13394D01*
X25198Y13411D01*
X25196Y13426D01*
X25192Y13439D01*
X25187Y13450D01*
X25182Y13459D01*
X25175Y13466D01*
X25168Y13471D01*
X25159Y13475D01*
X25150Y13476D01*
X25315Y13474D01*
D02*
G37*
G36*
X27538Y13458D02*
X27659Y13266D01*
X27645Y13279D01*
X27633Y13288D01*
X27622Y13294D01*
X27613Y13296D01*
X27605Y13294D01*
X27599Y13290D01*
X27594Y13282D01*
X27591Y13270D01*
X27589Y13255D01*
X27588Y13237D01*
X27488Y13337D01*
X27487Y13357D01*
X27485Y13376D01*
X27481Y13395D01*
X27476Y13412D01*
X27470Y13430D01*
X27462Y13447D01*
X27453Y13463D01*
X27443Y13478D01*
X27431Y13493D01*
X27417Y13508D01*
X27538Y13458D01*
D02*
G37*
G36*
X21596Y13146D02*
X21543Y13145D01*
X21448Y13140D01*
X21406Y13134D01*
X21368Y13127D01*
X21334Y13118D01*
X21304Y13108D01*
X21278Y13096D01*
X21255Y13082D01*
X21237Y13066D01*
X21166Y13137D01*
X21182Y13155D01*
X21196Y13178D01*
X21208Y13204D01*
X21218Y13234D01*
X21227Y13268D01*
X21234Y13306D01*
X21240Y13348D01*
X21245Y13443D01*
X21246Y13496D01*
X21596Y13146D01*
D02*
G37*
G36*
X2241Y13040D02*
X2244Y13032D01*
X2250Y13024D01*
X2258Y13018D01*
X2268Y13012D01*
X2281Y13008D01*
X2296Y13004D01*
X2313Y13002D01*
X2333Y13001D01*
X2354Y13000D01*
Y12900D01*
X2333Y12900D01*
X2313Y12898D01*
X2296Y12896D01*
X2281Y12892D01*
X2268Y12888D01*
X2258Y12882D01*
X2250Y12876D01*
X2244Y12868D01*
X2241Y12860D01*
X2240Y12850D01*
Y13050D01*
X2241Y13040D01*
D02*
G37*
G36*
X38692Y24812D02*
X38874Y24736D01*
X39037Y24627D01*
X39177Y24487D01*
X39286Y24324D01*
X39362Y24142D01*
X39400Y23948D01*
Y23850D01*
Y950D01*
Y852D01*
X39362Y658D01*
X39286Y476D01*
X39177Y313D01*
X39037Y173D01*
X38874Y64D01*
X38692Y-12D01*
X38498Y-50D01*
X852D01*
X658Y-12D01*
X476Y64D01*
X313Y173D01*
X173Y313D01*
X64Y476D01*
X-12Y658D01*
X-50Y852D01*
Y950D01*
Y3236D01*
X0Y3251D01*
X20Y3222D01*
X1037Y2205D01*
X1020Y2157D01*
X988Y2154D01*
X801Y2098D01*
X630Y2006D01*
X480Y1883D01*
X356Y1732D01*
X264Y1561D01*
X208Y1375D01*
X189Y1181D01*
X208Y988D01*
X264Y801D01*
X356Y630D01*
X480Y480D01*
X630Y356D01*
X801Y264D01*
X988Y208D01*
X1181Y189D01*
X1375Y208D01*
X1561Y264D01*
X1732Y356D01*
X1883Y480D01*
X2006Y630D01*
X2075Y758D01*
X2124Y765D01*
X2670Y220D01*
X2752Y165D01*
X2850Y145D01*
X25300D01*
X25398Y165D01*
X25480Y220D01*
X25892Y632D01*
X25948Y715D01*
X25967Y812D01*
Y10141D01*
X26071D01*
X26085Y10138D01*
X26099Y10141D01*
X26286D01*
Y10145D01*
X26964D01*
Y10141D01*
X27095D01*
Y9409D01*
X27052D01*
Y8891D01*
X27648D01*
X27648Y8891D01*
X27698Y8892D01*
X27703Y8892D01*
X27723Y8888D01*
X27739Y8892D01*
X27740Y8891D01*
X27750Y8892D01*
X27762Y8892D01*
X27765Y8893D01*
X27796Y8895D01*
X30898D01*
X31756Y8037D01*
X31763Y8008D01*
X31770Y7975D01*
X31773Y7970D01*
X31774Y7964D01*
X31795Y7937D01*
X31814Y7909D01*
X31819Y7905D01*
X31822Y7901D01*
X31841Y7890D01*
Y7800D01*
X32966D01*
Y8155D01*
X32413D01*
X32410Y8160D01*
X32392Y8189D01*
X32388Y8192D01*
X32385Y8197D01*
X32356Y8216D01*
X32329Y8237D01*
X32324Y8238D01*
X32319Y8241D01*
X32285Y8248D01*
X32261Y8254D01*
X32260Y8255D01*
X32257Y8257D01*
X31184Y9330D01*
X31101Y9385D01*
X31004Y9405D01*
X27775D01*
X27769Y9405D01*
X27762Y9408D01*
X27742Y9408D01*
X27723Y9412D01*
X27703Y9408D01*
X27698Y9408D01*
X27648Y9409D01*
X27648D01*
X27605Y9425D01*
Y10141D01*
X27836D01*
Y10659D01*
X27793D01*
Y12777D01*
X27839Y12796D01*
X28243Y12393D01*
X28325Y12337D01*
X28423Y12318D01*
X31453D01*
X31459Y12268D01*
X31020Y11828D01*
X30965Y11746D01*
X30945Y11648D01*
Y10200D01*
X30965Y10102D01*
X31020Y10020D01*
X32670Y8370D01*
X32752Y8315D01*
X32850Y8295D01*
X33319D01*
X33338Y8249D01*
X33247Y8158D01*
X33192Y8075D01*
X33173Y7978D01*
Y7525D01*
X33192Y7427D01*
X33247Y7344D01*
X33802Y6790D01*
X33786Y6735D01*
X33780Y6734D01*
X33051Y7463D01*
X33044Y7491D01*
X33037Y7524D01*
X33034Y7529D01*
X33033Y7534D01*
X33012Y7562D01*
X32993Y7590D01*
X32988Y7593D01*
X32985Y7598D01*
X32966Y7609D01*
Y7700D01*
X31841D01*
Y7345D01*
X32393D01*
X32397Y7339D01*
X32415Y7309D01*
X32419Y7306D01*
X32422Y7302D01*
X32451Y7283D01*
X32479Y7262D01*
X32484Y7261D01*
X32488Y7258D01*
X32522Y7251D01*
X32548Y7244D01*
X32548Y7244D01*
X32551Y7242D01*
X33523Y6270D01*
X33606Y6215D01*
X33704Y6195D01*
X35900D01*
X35998Y6215D01*
X36080Y6270D01*
X37306Y7495D01*
X37601D01*
X37626Y7445D01*
X37606Y7420D01*
X37572Y7338D01*
X37567Y7300D01*
X37900D01*
X38233D01*
X38228Y7338D01*
X38194Y7420D01*
X38140Y7490D01*
X38114Y7510D01*
X38115Y7560D01*
X38130Y7570D01*
X38530Y7970D01*
X38586Y8052D01*
X38605Y8150D01*
Y8600D01*
X38586Y8698D01*
X38530Y8780D01*
X37855Y9456D01*
Y11028D01*
X37858Y11031D01*
X37872Y11057D01*
X37873Y11058D01*
X38192D01*
Y11600D01*
X37600D01*
X36979D01*
X36979Y11600D01*
X34898D01*
X34895Y11604D01*
X34872Y11615D01*
Y11660D01*
X34855Y11745D01*
X34807Y11817D01*
X34735Y11865D01*
X34700Y11872D01*
Y11345D01*
Y10817D01*
X34735Y10824D01*
X34807Y10873D01*
X34855Y10945D01*
X34872Y11030D01*
Y11074D01*
X34895Y11086D01*
X34898Y11090D01*
X36979D01*
X36982Y11086D01*
X37008Y11073D01*
Y11058D01*
X37030D01*
X37032Y11056D01*
X37043Y11054D01*
X37053Y11049D01*
X37082Y11047D01*
X37110Y11041D01*
X37121Y11043D01*
X37132Y11042D01*
X37160Y11051D01*
X37188Y11056D01*
X37190Y11058D01*
X37327D01*
X37328Y11057D01*
X37342Y11031D01*
X37345Y11028D01*
Y9350D01*
X37364Y9252D01*
X37420Y9170D01*
X37860Y8730D01*
X37844Y8683D01*
X37786Y8675D01*
X37680Y8631D01*
X37597Y8567D01*
X37592Y8564D01*
X37553Y8528D01*
X37542Y8519D01*
X37532Y8512D01*
X37524Y8507D01*
X37520Y8505D01*
X37500D01*
X37402Y8485D01*
X37320Y8430D01*
X35744Y6855D01*
X34458D01*
X34114Y7199D01*
X34133Y7245D01*
X34759D01*
Y7845D01*
X34850D01*
X34948Y7865D01*
X35030Y7920D01*
X35109Y7998D01*
X35115Y7999D01*
X35143Y8002D01*
X35154Y8007D01*
X35165Y8009D01*
X35189Y8025D01*
X35214Y8038D01*
X35222Y8047D01*
X35231Y8053D01*
X35247Y8077D01*
X35266Y8098D01*
X35270Y8109D01*
X35276Y8119D01*
X35282Y8147D01*
X35291Y8174D01*
X35290Y8180D01*
X35508Y8398D01*
X35515Y8400D01*
X35526Y8402D01*
X35539Y8404D01*
X35585Y8408D01*
X35612Y8408D01*
X35612Y8408D01*
X35612Y8408D01*
X35730Y8424D01*
X35839Y8469D01*
X35933Y8541D01*
X36005Y8635D01*
X36051Y8745D01*
X36066Y8862D01*
X36051Y8980D01*
X36005Y9089D01*
X35933Y9183D01*
X35839Y9255D01*
X35730Y9301D01*
X35612Y9316D01*
X35495Y9301D01*
X35385Y9255D01*
X35291Y9183D01*
X35219Y9089D01*
X35174Y8980D01*
X35162Y8893D01*
X35112Y8896D01*
Y9690D01*
X35093Y9787D01*
X35038Y9870D01*
X34146Y10761D01*
X34167Y10811D01*
X34235Y10824D01*
X34307Y10873D01*
X34355Y10945D01*
X34369Y11011D01*
X34400Y11026D01*
X34431Y11011D01*
X34445Y10945D01*
X34493Y10873D01*
X34565Y10824D01*
X34600Y10817D01*
Y11345D01*
Y11872D01*
X34565Y11865D01*
X34493Y11817D01*
X34445Y11745D01*
X34431Y11679D01*
X34400Y11664D01*
X34369Y11679D01*
X34355Y11745D01*
X34307Y11817D01*
X34235Y11865D01*
X34200Y11872D01*
Y11345D01*
X34100D01*
Y11872D01*
X34065Y11865D01*
X33993Y11817D01*
X33983Y11802D01*
X33933Y11807D01*
X33928Y11820D01*
X33877Y11887D01*
X33852Y11906D01*
X33836Y11951D01*
X33836Y11951D01*
X33836Y11951D01*
Y12469D01*
X33605D01*
Y13273D01*
X33766D01*
Y13632D01*
X34324D01*
X34422Y13651D01*
X34504Y13706D01*
X36580Y15782D01*
X36635Y15865D01*
X36655Y15963D01*
Y16892D01*
X37545Y17781D01*
X37591Y17762D01*
Y17603D01*
X37601Y17525D01*
X37631Y17453D01*
X37667Y17406D01*
X37631Y17360D01*
X37601Y17287D01*
X37591Y17209D01*
Y16816D01*
X37601Y16738D01*
X37631Y16665D01*
X37631Y16665D01*
X37618Y16617D01*
X37593Y16606D01*
X37502Y16536D01*
X37432Y16445D01*
X37388Y16339D01*
X37373Y16225D01*
X37388Y16111D01*
X37432Y16005D01*
X37502Y15914D01*
X37593Y15844D01*
X37699Y15800D01*
X37813Y15785D01*
X38167D01*
X38281Y15800D01*
X38387Y15844D01*
X38478Y15914D01*
X38498Y15939D01*
X38545Y15923D01*
Y12956D01*
X37930Y12341D01*
X37917Y12341D01*
X37895Y12333D01*
X37871Y12328D01*
X37858Y12319D01*
X37842Y12313D01*
X37825Y12297D01*
X37805Y12284D01*
X37796Y12270D01*
X37784Y12259D01*
X37776Y12242D01*
X37650D01*
Y11700D01*
X38192D01*
Y11826D01*
X38209Y11834D01*
X38220Y11846D01*
X38234Y11855D01*
X38247Y11875D01*
X38263Y11892D01*
X38269Y11908D01*
X38278Y11921D01*
X38283Y11945D01*
X38291Y11967D01*
X38291Y11980D01*
X38980Y12670D01*
X39035Y12752D01*
X39055Y12850D01*
Y19300D01*
X39035Y19398D01*
X38980Y19480D01*
X38380Y20080D01*
X38298Y20136D01*
X38200Y20155D01*
X36331D01*
X36312Y20201D01*
X36580Y20470D01*
X36635Y20552D01*
X36655Y20650D01*
Y21950D01*
X36635Y22048D01*
X36580Y22130D01*
X35080Y23630D01*
X34998Y23686D01*
X34900Y23705D01*
X33619D01*
X33616Y23706D01*
X33604Y23712D01*
X33587Y23722D01*
X33566Y23736D01*
X33543Y23754D01*
X33481Y23809D01*
X33449Y23840D01*
X33445Y23845D01*
X33330Y23934D01*
X33195Y23990D01*
X33050Y24009D01*
X32905Y23990D01*
X32770Y23934D01*
X32655Y23845D01*
X32580Y23749D01*
X32572Y23745D01*
X32528D01*
X32520Y23749D01*
X32445Y23845D01*
X32330Y23934D01*
X32195Y23990D01*
X32050Y24009D01*
X31905Y23990D01*
X31770Y23934D01*
X31655Y23845D01*
X31580Y23749D01*
X31572Y23745D01*
X31528D01*
X31520Y23749D01*
X31445Y23845D01*
X31330Y23934D01*
X31195Y23990D01*
X31050Y24009D01*
X30905Y23990D01*
X30770Y23934D01*
X30655Y23845D01*
X30566Y23730D01*
X30563Y23723D01*
X30555Y23710D01*
X30552Y23705D01*
X30550D01*
X30545Y23704D01*
X30540Y23704D01*
X30525Y23700D01*
X30452Y23686D01*
X30370Y23630D01*
X28055Y21316D01*
X28050Y21314D01*
X28037Y21310D01*
X28020Y21307D01*
X28000Y21304D01*
X27938Y21299D01*
X27903Y21299D01*
X27900Y21300D01*
X27771Y21283D01*
X27650Y21233D01*
X27547Y21153D01*
X27467Y21050D01*
X27417Y20929D01*
X27400Y20800D01*
X27417Y20671D01*
X27467Y20550D01*
X27547Y20447D01*
X27650Y20367D01*
X27771Y20317D01*
X27900Y20300D01*
X27903Y20301D01*
X27938Y20301D01*
X28000Y20296D01*
X28020Y20293D01*
X28037Y20290D01*
X28050Y20286D01*
X28055Y20284D01*
X28277Y20062D01*
X28257Y20012D01*
X27173D01*
X27172Y20013D01*
X27158Y20039D01*
X27155Y20042D01*
Y20375D01*
X27158Y20378D01*
X27172Y20404D01*
X27173Y20405D01*
X27295D01*
Y20750D01*
X26505D01*
Y20405D01*
X26627D01*
X26628Y20404D01*
X26642Y20378D01*
X26645Y20375D01*
Y20042D01*
X26642Y20039D01*
X26628Y20013D01*
X26627Y20012D01*
X26200D01*
Y17600D01*
X28317D01*
Y19952D01*
X28367Y19973D01*
X28645Y19694D01*
Y17802D01*
X28642Y17796D01*
X28636Y17786D01*
X28628Y17776D01*
X28598Y17741D01*
X28579Y17721D01*
X28579Y17721D01*
X28579Y17721D01*
X28507Y17627D01*
X28462Y17517D01*
X28446Y17400D01*
X28462Y17283D01*
X28507Y17173D01*
X28579Y17079D01*
X28673Y17007D01*
X28783Y16962D01*
X28900Y16946D01*
X29017Y16962D01*
X29127Y17007D01*
X29207Y17069D01*
X29257Y17050D01*
Y16109D01*
X29214D01*
Y15591D01*
X29307D01*
X29332Y15553D01*
X30950Y13935D01*
X30952Y13932D01*
Y13273D01*
X30910Y13255D01*
X30806D01*
X28419Y15641D01*
X28416Y15645D01*
X28416Y15646D01*
X28410Y15670D01*
X28403Y15704D01*
X28400Y15708D01*
X28399Y15713D01*
X28378Y15741D01*
X28359Y15770D01*
X28354Y15773D01*
X28351Y15777D01*
X28321Y15795D01*
X28317Y15798D01*
Y17500D01*
X26150D01*
X23983D01*
Y16122D01*
X23957Y16109D01*
X23954Y16105D01*
X23737D01*
X23732Y16105D01*
X23725Y16108D01*
X23705Y16108D01*
X23685Y16112D01*
X23665Y16108D01*
X23661Y16108D01*
X23646Y16108D01*
X23643Y16109D01*
X23599Y16131D01*
Y21922D01*
X23649Y21954D01*
X23755Y21910D01*
X23900Y21891D01*
X24045Y21910D01*
X24180Y21966D01*
X24295Y22055D01*
X24370Y22151D01*
X24378Y22155D01*
X24422D01*
X24430Y22151D01*
X24505Y22055D01*
X24620Y21966D01*
X24755Y21910D01*
X24900Y21891D01*
X25045Y21910D01*
X25180Y21966D01*
X25295Y22055D01*
X25370Y22151D01*
X25378Y22155D01*
X25422D01*
X25430Y22151D01*
X25505Y22055D01*
X25620Y21966D01*
X25755Y21910D01*
X25900Y21891D01*
X26045Y21910D01*
X26180Y21966D01*
X26295Y22055D01*
X26370Y22151D01*
X26378Y22155D01*
X26422D01*
X26430Y22151D01*
X26505Y22055D01*
X26620Y21966D01*
X26755Y21910D01*
X26900Y21891D01*
X27045Y21910D01*
X27180Y21966D01*
X27295Y22055D01*
X27370Y22151D01*
X27378Y22155D01*
X27422D01*
X27430Y22151D01*
X27505Y22055D01*
X27620Y21966D01*
X27755Y21910D01*
X27900Y21891D01*
X28045Y21910D01*
X28180Y21966D01*
X28295Y22055D01*
X28384Y22170D01*
X28440Y22305D01*
X28459Y22450D01*
X28440Y22595D01*
X28384Y22730D01*
X28295Y22845D01*
X28199Y22920D01*
X28195Y22928D01*
Y22972D01*
X28199Y22980D01*
X28295Y23055D01*
X28384Y23170D01*
X28440Y23305D01*
X28459Y23450D01*
X28440Y23595D01*
X28384Y23730D01*
X28295Y23845D01*
X28180Y23934D01*
X28045Y23990D01*
X27900Y24009D01*
X27755Y23990D01*
X27620Y23934D01*
X27505Y23845D01*
X27430Y23749D01*
X27422Y23745D01*
X27378D01*
X27370Y23749D01*
X27295Y23845D01*
X27180Y23934D01*
X27045Y23990D01*
X26900Y24009D01*
X26755Y23990D01*
X26620Y23934D01*
X26505Y23845D01*
X26430Y23749D01*
X26422Y23745D01*
X26378D01*
X26370Y23749D01*
X26295Y23845D01*
X26180Y23934D01*
X26045Y23990D01*
X25900Y24009D01*
X25755Y23990D01*
X25620Y23934D01*
X25505Y23845D01*
X25430Y23749D01*
X25422Y23745D01*
X25378D01*
X25370Y23749D01*
X25295Y23845D01*
X25180Y23934D01*
X25045Y23990D01*
X24900Y24009D01*
X24755Y23990D01*
X24620Y23934D01*
X24609Y23925D01*
X24580Y23930D01*
X23880Y24630D01*
X23798Y24685D01*
X23700Y24705D01*
X4900D01*
X4802Y24685D01*
X4720Y24630D01*
X3983Y23893D01*
X3930Y23934D01*
X3795Y23990D01*
X3650Y24009D01*
X3505Y23990D01*
X3370Y23934D01*
X3255Y23845D01*
X3166Y23730D01*
X3123Y23626D01*
X3069D01*
X3047Y23679D01*
X2974Y23774D01*
X2879Y23847D01*
X2769Y23893D01*
X2700Y23902D01*
Y23450D01*
X2600D01*
Y23902D01*
X2531Y23893D01*
X2421Y23847D01*
X2326Y23774D01*
X2253Y23679D01*
X2222Y23603D01*
X2173Y23615D01*
X2173Y23622D01*
X2154Y23816D01*
X2098Y24002D01*
X2006Y24173D01*
X1883Y24324D01*
X1732Y24447D01*
X1561Y24539D01*
X1375Y24595D01*
X1181Y24614D01*
X988Y24595D01*
X801Y24539D01*
X630Y24447D01*
X480Y24324D01*
X356Y24173D01*
X264Y24002D01*
X208Y23816D01*
X189Y23622D01*
X208Y23428D01*
X264Y23242D01*
X356Y23071D01*
X480Y22920D01*
X630Y22797D01*
X801Y22705D01*
X988Y22649D01*
X1181Y22630D01*
X1375Y22649D01*
X1561Y22705D01*
X1732Y22797D01*
X1849Y22893D01*
X1883Y22856D01*
X70Y21043D01*
X14Y20960D01*
X0Y20887D01*
X-50Y20892D01*
Y23850D01*
Y23948D01*
X-12Y24142D01*
X64Y24324D01*
X173Y24487D01*
X313Y24627D01*
X476Y24736D01*
X658Y24812D01*
X852Y24850D01*
X38498D01*
X38692Y24812D01*
D02*
G37*
G36*
X32136Y12267D02*
X32139Y12265D01*
X32144Y12264D01*
X32151Y12263D01*
X32171Y12262D01*
X32235Y12260D01*
Y12160D01*
X32216Y12160D01*
X32139Y12155D01*
X32136Y12154D01*
X32135Y12152D01*
Y12268D01*
X32136Y12267D01*
D02*
G37*
G36*
X38162Y12141D02*
X38142Y12120D01*
X38110Y12083D01*
X38099Y12067D01*
X38090Y12052D01*
X38085Y12039D01*
X38082Y12027D01*
X38081Y12016D01*
X38084Y12007D01*
X38090Y11999D01*
X37950Y12140D01*
X37957Y12134D01*
X37966Y12131D01*
X37977Y12132D01*
X37989Y12135D01*
X38002Y12140D01*
X38017Y12149D01*
X38033Y12160D01*
X38051Y12175D01*
X38091Y12212D01*
X38162Y12141D01*
D02*
G37*
G36*
X21596Y12146D02*
X21543Y12145D01*
X21448Y12140D01*
X21406Y12134D01*
X21368Y12127D01*
X21334Y12118D01*
X21304Y12108D01*
X21278Y12096D01*
X21255Y12082D01*
X21237Y12066D01*
X21166Y12137D01*
X21182Y12155D01*
X21196Y12178D01*
X21208Y12204D01*
X21218Y12234D01*
X21227Y12268D01*
X21234Y12306D01*
X21240Y12348D01*
X21245Y12443D01*
X21246Y12496D01*
X21596Y12146D01*
D02*
G37*
G36*
X37110Y11245D02*
X37109Y11254D01*
X37106Y11263D01*
X37101Y11270D01*
X37094Y11277D01*
X37085Y11282D01*
X37074Y11287D01*
X37061Y11290D01*
X37046Y11293D01*
X37028Y11294D01*
X37009Y11295D01*
Y11395D01*
X37028Y11395D01*
X37046Y11397D01*
X37061Y11399D01*
X37074Y11403D01*
X37085Y11407D01*
X37094Y11413D01*
X37101Y11419D01*
X37106Y11427D01*
X37109Y11435D01*
X37110Y11445D01*
Y11245D01*
D02*
G37*
G36*
X34768Y11435D02*
X34771Y11427D01*
X34776Y11419D01*
X34783Y11413D01*
X34792Y11407D01*
X34803Y11403D01*
X34816Y11399D01*
X34831Y11397D01*
X34849Y11395D01*
X34868Y11395D01*
Y11295D01*
X34849Y11294D01*
X34831Y11293D01*
X34816Y11290D01*
X34803Y11287D01*
X34792Y11282D01*
X34783Y11277D01*
X34776Y11270D01*
X34771Y11263D01*
X34768Y11254D01*
X34767Y11245D01*
Y11445D01*
X34768Y11435D01*
D02*
G37*
G36*
X34533Y11245D02*
X34532Y11254D01*
X34529Y11263D01*
X34524Y11270D01*
X34517Y11277D01*
X34508Y11282D01*
X34497Y11287D01*
X34484Y11290D01*
X34469Y11293D01*
X34451Y11294D01*
X34432Y11295D01*
Y11395D01*
X34451Y11395D01*
X34469Y11397D01*
X34484Y11399D01*
X34497Y11403D01*
X34508Y11407D01*
X34517Y11413D01*
X34524Y11419D01*
X34529Y11427D01*
X34532Y11435D01*
X34533Y11445D01*
Y11245D01*
D02*
G37*
G36*
X34268Y11435D02*
X34271Y11427D01*
X34276Y11419D01*
X34283Y11413D01*
X34292Y11407D01*
X34303Y11403D01*
X34316Y11399D01*
X34331Y11397D01*
X34349Y11395D01*
X34368Y11395D01*
Y11295D01*
X34349Y11294D01*
X34331Y11293D01*
X34316Y11290D01*
X34303Y11287D01*
X34292Y11282D01*
X34283Y11277D01*
X34276Y11270D01*
X34271Y11263D01*
X34268Y11254D01*
X34267Y11245D01*
Y11445D01*
X34268Y11435D01*
D02*
G37*
G36*
X33533Y11245D02*
X33532Y11254D01*
X33529Y11263D01*
X33524Y11270D01*
X33517Y11277D01*
X33508Y11282D01*
X33497Y11287D01*
X33484Y11290D01*
X33469Y11293D01*
X33451Y11294D01*
X33432Y11295D01*
Y11395D01*
X33451Y11395D01*
X33469Y11397D01*
X33484Y11399D01*
X33497Y11403D01*
X33508Y11407D01*
X33517Y11413D01*
X33524Y11419D01*
X33529Y11427D01*
X33532Y11435D01*
X33533Y11445D01*
Y11245D01*
D02*
G37*
G36*
X33268Y11435D02*
X33271Y11427D01*
X33276Y11419D01*
X33283Y11413D01*
X33292Y11407D01*
X33303Y11403D01*
X33316Y11399D01*
X33331Y11397D01*
X33349Y11395D01*
X33368Y11395D01*
Y11295D01*
X33349Y11294D01*
X33331Y11293D01*
X33316Y11290D01*
X33303Y11287D01*
X33292Y11282D01*
X33283Y11277D01*
X33276Y11270D01*
X33271Y11263D01*
X33268Y11254D01*
X33267Y11245D01*
Y11445D01*
X33268Y11435D01*
D02*
G37*
G36*
X37690Y11158D02*
X37682Y11155D01*
X37675Y11150D01*
X37668Y11143D01*
X37662Y11134D01*
X37658Y11123D01*
X37655Y11110D01*
X37652Y11095D01*
X37650Y11078D01*
X37650Y11059D01*
X37550D01*
X37550Y11078D01*
X37548Y11095D01*
X37545Y11110D01*
X37542Y11123D01*
X37538Y11134D01*
X37532Y11143D01*
X37525Y11150D01*
X37518Y11155D01*
X37510Y11158D01*
X37500Y11159D01*
X37700D01*
X37690Y11158D01*
D02*
G37*
G36*
X32751Y11047D02*
X32711Y11001D01*
X32695Y10978D01*
X32681Y10956D01*
X32670Y10935D01*
X32661Y10914D01*
X32655Y10894D01*
X32653Y10883D01*
X32655Y10851D01*
X32656Y10848D01*
X32658Y10847D01*
X32542D01*
X32544Y10848D01*
X32545Y10851D01*
X32546Y10856D01*
X32547Y10863D01*
X32548Y10877D01*
X32545Y10894D01*
X32539Y10914D01*
X32530Y10935D01*
X32519Y10956D01*
X32505Y10978D01*
X32489Y11001D01*
X32470Y11024D01*
X32425Y11071D01*
X32775D01*
X32751Y11047D01*
D02*
G37*
G36*
X27165Y10342D02*
X27164Y10344D01*
X27161Y10345D01*
X27156Y10346D01*
X27149Y10347D01*
X27129Y10349D01*
X27065Y10350D01*
Y10450D01*
X27084Y10450D01*
X27161Y10455D01*
X27164Y10456D01*
X27165Y10458D01*
Y10342D01*
D02*
G37*
G36*
X26086Y10456D02*
X26089Y10455D01*
X26094Y10454D01*
X26101Y10453D01*
X26121Y10451D01*
X26185Y10450D01*
Y10350D01*
X26166Y10350D01*
X26089Y10345D01*
X26086Y10344D01*
X26085Y10342D01*
Y10458D01*
X26086Y10456D01*
D02*
G37*
G36*
X20794Y23995D02*
X20755Y23990D01*
X20620Y23934D01*
X20505Y23845D01*
X20416Y23730D01*
X20360Y23595D01*
X20341Y23450D01*
X20360Y23305D01*
X20416Y23170D01*
X20505Y23055D01*
X20620Y22966D01*
X20724Y22923D01*
Y22869D01*
X20671Y22847D01*
X20576Y22774D01*
X20503Y22679D01*
X20457Y22569D01*
X20448Y22500D01*
X20900D01*
Y22450D01*
X20950D01*
Y21998D01*
X21019Y22007D01*
X21129Y22053D01*
X21224Y22126D01*
X21297Y22221D01*
X21319Y22274D01*
X21373D01*
X21416Y22170D01*
X21505Y22055D01*
X21620Y21966D01*
X21755Y21910D01*
X21900Y21891D01*
X22045Y21910D01*
X22180Y21966D01*
X22295Y22055D01*
X22370Y22151D01*
X22378Y22155D01*
X22422D01*
X22430Y22151D01*
X22505Y22055D01*
X22620Y21966D01*
X22755Y21910D01*
X22900Y21891D01*
X23039Y21909D01*
X23057Y21904D01*
X23089Y21883D01*
Y16109D01*
X23014D01*
Y15591D01*
X23089D01*
Y14893D01*
X23108Y14795D01*
X23163Y14713D01*
X23886Y13990D01*
X23888Y13984D01*
X23890Y13973D01*
X23892Y13960D01*
X23896Y13914D01*
X23896Y13887D01*
X23896Y13887D01*
X23896Y13887D01*
X23912Y13769D01*
X23957Y13660D01*
X24029Y13566D01*
X24123Y13494D01*
X24233Y13448D01*
X24350Y13433D01*
X24467Y13448D01*
X24577Y13494D01*
X24652Y13551D01*
X24696Y13536D01*
X24702Y13531D01*
Y13273D01*
X24995D01*
Y4242D01*
X24945Y4232D01*
X24937Y4252D01*
X24857Y4357D01*
X24854Y4358D01*
X24829Y4384D01*
X24787Y4432D01*
X24774Y4449D01*
X24764Y4464D01*
X24758Y4476D01*
X24755Y4482D01*
Y8300D01*
X24736Y8398D01*
X24680Y8480D01*
X24230Y8930D01*
X24148Y8985D01*
X24050Y9005D01*
X19456D01*
X19451Y9045D01*
X19450Y9081D01*
X19491Y9103D01*
X19548Y9115D01*
X19630Y9170D01*
X20998Y10538D01*
X21043Y10515D01*
X21041Y10500D01*
X21060Y10355D01*
X21116Y10220D01*
X21205Y10105D01*
X21320Y10016D01*
X21455Y9960D01*
X21600Y9941D01*
X21745Y9960D01*
X21880Y10016D01*
X21995Y10105D01*
X22084Y10220D01*
X22140Y10355D01*
X22159Y10500D01*
X22140Y10645D01*
X22084Y10780D01*
X21995Y10895D01*
X21899Y10970D01*
X21895Y10978D01*
Y11022D01*
X21899Y11030D01*
X21995Y11105D01*
X22084Y11220D01*
X22140Y11355D01*
X22159Y11500D01*
X22140Y11645D01*
X22084Y11780D01*
X21995Y11895D01*
X21899Y11970D01*
X21895Y11978D01*
Y12022D01*
X21899Y12030D01*
X21995Y12105D01*
X22084Y12220D01*
X22140Y12355D01*
X22159Y12500D01*
X22140Y12645D01*
X22084Y12780D01*
X21995Y12895D01*
X21899Y12970D01*
X21895Y12978D01*
Y13022D01*
X21899Y13030D01*
X21995Y13105D01*
X22084Y13220D01*
X22140Y13355D01*
X22159Y13500D01*
X22140Y13645D01*
X22084Y13780D01*
X21995Y13895D01*
X21899Y13970D01*
X21895Y13978D01*
Y14022D01*
X21899Y14030D01*
X21995Y14105D01*
X22084Y14220D01*
X22140Y14355D01*
X22159Y14500D01*
X22158Y14507D01*
X22158Y14550D01*
X22163Y14633D01*
X22167Y14662D01*
X22172Y14688D01*
X22177Y14707D01*
X22181Y14719D01*
X22182Y14722D01*
X22730Y15270D01*
X22785Y15352D01*
X22805Y15450D01*
Y19850D01*
X22785Y19948D01*
X22730Y20030D01*
X22182Y20578D01*
X22181Y20581D01*
X22177Y20593D01*
X22172Y20612D01*
X22167Y20638D01*
X22163Y20667D01*
X22158Y20750D01*
X22158Y20793D01*
X22159Y20800D01*
X22140Y20945D01*
X22084Y21080D01*
X21995Y21195D01*
X21880Y21284D01*
X21745Y21340D01*
X21600Y21359D01*
X21455Y21340D01*
X21320Y21284D01*
X21205Y21195D01*
X21116Y21080D01*
X21060Y20945D01*
X21041Y20800D01*
X21060Y20655D01*
X21116Y20520D01*
X21205Y20405D01*
X21301Y20330D01*
X21305Y20322D01*
Y20278D01*
X21301Y20270D01*
X21205Y20195D01*
X21201Y20190D01*
X21169Y20159D01*
X21107Y20104D01*
X21084Y20086D01*
X21063Y20072D01*
X21046Y20062D01*
X21034Y20056D01*
X21031Y20055D01*
X20650D01*
X20552Y20036D01*
X20470Y19980D01*
X19501Y19011D01*
X19453Y19027D01*
X19446Y19079D01*
X19397Y19200D01*
X19317Y19303D01*
X19214Y19382D01*
X19116Y19423D01*
Y19477D01*
X19214Y19518D01*
X19317Y19597D01*
X19397Y19700D01*
X19446Y19821D01*
X19463Y19950D01*
X19446Y20079D01*
X19397Y20200D01*
X19317Y20303D01*
X19214Y20382D01*
X19093Y20432D01*
X18964Y20449D01*
X18894D01*
X18765Y20432D01*
X18644Y20382D01*
X18541Y20303D01*
X18462Y20200D01*
X18454Y20181D01*
X18404D01*
X18397Y20200D01*
X18317Y20303D01*
X18214Y20382D01*
X18093Y20432D01*
X17964Y20449D01*
X17894D01*
X17765Y20432D01*
X17644Y20382D01*
X17541Y20303D01*
X17462Y20200D01*
X17446Y20161D01*
X17392D01*
X17362Y20235D01*
X17282Y20338D01*
X17184Y20413D01*
Y23186D01*
X18043Y24045D01*
X20790D01*
X20794Y23995D01*
D02*
G37*
G36*
X1741Y9700D02*
X1734Y9707D01*
X1727Y9711D01*
X1718Y9713D01*
X1708Y9712D01*
X1698Y9709D01*
X1686Y9704D01*
X1673Y9696D01*
X1660Y9686D01*
X1645Y9674D01*
X1629Y9659D01*
X1566Y9737D01*
X1581Y9753D01*
X1594Y9768D01*
X1605Y9782D01*
X1613Y9795D01*
X1619Y9808D01*
X1623Y9819D01*
X1625Y9830D01*
X1624Y9840D01*
X1622Y9849D01*
X1617Y9857D01*
X1741Y9700D01*
D02*
G37*
G36*
X34209Y9672D02*
X34044Y9616D01*
X34053Y9620D01*
X34059Y9626D01*
X34062Y9633D01*
X34062Y9642D01*
X34059Y9653D01*
X34053Y9665D01*
X34045Y9678D01*
X34033Y9693D01*
X34019Y9710D01*
X34001Y9728D01*
X34082Y9789D01*
X34209Y9672D01*
D02*
G37*
G36*
X33033Y9155D02*
X33032Y9165D01*
X33029Y9173D01*
X33024Y9181D01*
X33017Y9187D01*
X33008Y9193D01*
X32997Y9197D01*
X32984Y9201D01*
X32969Y9203D01*
X32951Y9205D01*
X32932Y9205D01*
Y9305D01*
X32951Y9306D01*
X32969Y9307D01*
X32984Y9310D01*
X32997Y9313D01*
X33008Y9318D01*
X33017Y9323D01*
X33024Y9330D01*
X33029Y9337D01*
X33032Y9346D01*
X33033Y9355D01*
Y9155D01*
D02*
G37*
G36*
X27724Y9206D02*
X27727Y9205D01*
X27732Y9204D01*
X27739Y9203D01*
X27759Y9201D01*
X27823Y9200D01*
Y9100D01*
X27804Y9100D01*
X27727Y9095D01*
X27724Y9094D01*
X27723Y9092D01*
Y9208D01*
X27724Y9206D01*
D02*
G37*
G36*
X35610Y8612D02*
X35576Y8612D01*
X35514Y8607D01*
X35487Y8603D01*
X35462Y8597D01*
X35439Y8590D01*
X35418Y8581D01*
X35399Y8571D01*
X35383Y8560D01*
X35368Y8548D01*
X35298Y8618D01*
X35310Y8633D01*
X35321Y8649D01*
X35331Y8668D01*
X35340Y8689D01*
X35347Y8712D01*
X35353Y8737D01*
X35357Y8764D01*
X35360Y8794D01*
X35362Y8860D01*
X35610Y8612D01*
D02*
G37*
G36*
X35160Y8339D02*
X35143Y8321D01*
X35115Y8288D01*
X35104Y8273D01*
X35096Y8258D01*
X35090Y8244D01*
X35086Y8231D01*
X35085Y8219D01*
X35085Y8208D01*
X35088Y8198D01*
X35007Y8397D01*
X35012Y8389D01*
X35019Y8384D01*
X35028Y8383D01*
X35039Y8385D01*
X35052Y8390D01*
X35068Y8399D01*
X35085Y8412D01*
X35104Y8427D01*
X35148Y8469D01*
X35160Y8339D01*
D02*
G37*
G36*
X18260Y8210D02*
X18245Y8194D01*
X18232Y8180D01*
X18222Y8166D01*
X18214Y8153D01*
X18209Y8141D01*
X18206Y8131D01*
X18205Y8121D01*
X18207Y8112D01*
X18211Y8104D01*
X18217Y8097D01*
X18064Y8225D01*
X18072Y8220D01*
X18081Y8217D01*
X18091Y8217D01*
X18101Y8218D01*
X18113Y8222D01*
X18125Y8228D01*
X18138Y8236D01*
X18152Y8247D01*
X18167Y8260D01*
X18183Y8275D01*
X18260Y8210D01*
D02*
G37*
G36*
X37731Y8085D02*
X37709Y8107D01*
X37665Y8143D01*
X37644Y8158D01*
X37624Y8171D01*
X37604Y8182D01*
X37584Y8190D01*
X37565Y8195D01*
X37546Y8199D01*
X37527Y8200D01*
Y8300D01*
X37546Y8301D01*
X37565Y8305D01*
X37584Y8310D01*
X37604Y8318D01*
X37624Y8329D01*
X37644Y8342D01*
X37665Y8357D01*
X37687Y8374D01*
X37731Y8415D01*
Y8085D01*
D02*
G37*
G36*
X32114Y8111D02*
X32128Y8099D01*
X32143Y8088D01*
X32157Y8079D01*
X32171Y8071D01*
X32185Y8064D01*
X32199Y8059D01*
X32213Y8056D01*
X32227Y8053D01*
X32241Y8053D01*
X31958D01*
X31971Y8053D01*
X31981Y8056D01*
X31988Y8059D01*
X31993Y8064D01*
X31994Y8071D01*
X31993Y8079D01*
X31988Y8088D01*
X31981Y8099D01*
X31971Y8111D01*
X31958Y8125D01*
X32100D01*
X32114Y8111D01*
D02*
G37*
G36*
X19241Y8040D02*
X19244Y8032D01*
X19250Y8024D01*
X19258Y8018D01*
X19268Y8012D01*
X19281Y8008D01*
X19296Y8004D01*
X19313Y8002D01*
X19333Y8001D01*
X19354Y8000D01*
Y7900D01*
X19333Y7900D01*
X19313Y7898D01*
X19296Y7896D01*
X19281Y7892D01*
X19268Y7888D01*
X19258Y7882D01*
X19250Y7876D01*
X19244Y7868D01*
X19241Y7860D01*
X19240Y7850D01*
Y8050D01*
X19241Y8040D01*
D02*
G37*
G36*
X21955Y8093D02*
X21960Y7998D01*
X21966Y7956D01*
X21973Y7918D01*
X21982Y7884D01*
X21992Y7854D01*
X22004Y7828D01*
X22018Y7805D01*
X22034Y7787D01*
X21963Y7716D01*
X21945Y7732D01*
X21922Y7746D01*
X21896Y7758D01*
X21866Y7768D01*
X21832Y7777D01*
X21794Y7784D01*
X21752Y7790D01*
X21657Y7795D01*
X21604Y7796D01*
X21954Y8146D01*
X21955Y8093D01*
D02*
G37*
G36*
X1794Y7675D02*
X1786Y7680D01*
X1777Y7683D01*
X1768Y7683D01*
X1757Y7682D01*
X1745Y7678D01*
X1733Y7672D01*
X1720Y7664D01*
X1706Y7653D01*
X1691Y7640D01*
X1675Y7625D01*
X1599Y7690D01*
X1614Y7706D01*
X1626Y7720D01*
X1636Y7734D01*
X1644Y7747D01*
X1650Y7759D01*
X1653Y7769D01*
X1653Y7779D01*
X1652Y7788D01*
X1647Y7796D01*
X1641Y7803D01*
X1794Y7675D01*
D02*
G37*
G36*
X32836Y7445D02*
X32826Y7443D01*
X32819Y7440D01*
X32815Y7435D01*
X32814Y7428D01*
X32815Y7421D01*
X32819Y7411D01*
X32826Y7401D01*
X32836Y7389D01*
X32849Y7375D01*
X32707D01*
X32693Y7389D01*
X32679Y7401D01*
X32665Y7411D01*
X32651Y7421D01*
X32637Y7428D01*
X32623Y7435D01*
X32608Y7440D01*
X32594Y7443D01*
X32580Y7445D01*
X32566Y7446D01*
X32849D01*
X32836Y7445D01*
D02*
G37*
G36*
X14851Y7335D02*
X14743D01*
X14744Y7336D01*
X14744Y7339D01*
X14745Y7344D01*
X14746Y7360D01*
X14747Y7435D01*
X14847D01*
X14851Y7335D01*
D02*
G37*
G36*
X14260D02*
X14152D01*
X14153Y7336D01*
X14154Y7339D01*
X14154Y7344D01*
X14155Y7360D01*
X14156Y7435D01*
X14256D01*
X14260Y7335D01*
D02*
G37*
G36*
X18794Y6734D02*
X18786Y6739D01*
X18777Y6742D01*
X18768Y6743D01*
X18757Y6741D01*
X18745Y6737D01*
X18733Y6731D01*
X18720Y6723D01*
X18706Y6712D01*
X18691Y6700D01*
X18675Y6684D01*
X18599Y6749D01*
X18614Y6765D01*
X18626Y6780D01*
X18636Y6793D01*
X18644Y6806D01*
X18650Y6818D01*
X18653Y6829D01*
X18653Y6838D01*
X18652Y6847D01*
X18647Y6855D01*
X18641Y6862D01*
X18794Y6734D01*
D02*
G37*
G36*
X17794Y6675D02*
X17786Y6680D01*
X17777Y6683D01*
X17768Y6683D01*
X17757Y6682D01*
X17745Y6678D01*
X17733Y6672D01*
X17720Y6664D01*
X17706Y6653D01*
X17691Y6640D01*
X17675Y6625D01*
X17599Y6690D01*
X17614Y6706D01*
X17626Y6720D01*
X17636Y6734D01*
X17644Y6747D01*
X17650Y6759D01*
X17653Y6769D01*
X17653Y6779D01*
X17652Y6788D01*
X17647Y6796D01*
X17641Y6803D01*
X17794Y6675D01*
D02*
G37*
G36*
X21269Y6465D02*
X21203Y6379D01*
X21157Y6269D01*
X21148Y6200D01*
X21600D01*
X22052D01*
X22043Y6269D01*
X22028Y6304D01*
X22056Y6345D01*
X22494D01*
X23245Y5594D01*
Y4482D01*
X23242Y4476D01*
X23236Y4464D01*
X23226Y4449D01*
X23213Y4432D01*
X23171Y4384D01*
X23146Y4358D01*
X23143Y4357D01*
X23063Y4252D01*
X23027Y4165D01*
X22973D01*
X22937Y4252D01*
X22857Y4357D01*
X22752Y4437D01*
X22631Y4487D01*
X22500Y4504D01*
X22369Y4487D01*
X22248Y4437D01*
X22143Y4357D01*
X22063Y4252D01*
X22050Y4220D01*
X22000Y4230D01*
Y4500D01*
X21000D01*
Y4255D01*
X18906D01*
X18734Y4426D01*
X18762Y4469D01*
X18765Y4468D01*
X18894Y4451D01*
X18964D01*
X19093Y4468D01*
X19214Y4518D01*
X19317Y4597D01*
X19397Y4700D01*
X19446Y4821D01*
X19463Y4950D01*
X19446Y5079D01*
X19397Y5200D01*
X19317Y5303D01*
X19214Y5382D01*
X19116Y5423D01*
Y5477D01*
X19214Y5518D01*
X19317Y5597D01*
X19397Y5700D01*
X19446Y5821D01*
X19463Y5950D01*
X19446Y6079D01*
X19397Y6200D01*
X19317Y6303D01*
X19214Y6382D01*
X19093Y6432D01*
X18964Y6449D01*
X18894D01*
X18786Y6435D01*
X18763Y6482D01*
X18802Y6522D01*
X18894Y6510D01*
X18964D01*
X19093Y6527D01*
X19214Y6577D01*
X19317Y6656D01*
X19397Y6759D01*
X19446Y6880D01*
X19463Y7009D01*
X19446Y7138D01*
X19397Y7259D01*
X19317Y7362D01*
X19214Y7441D01*
X19182Y7455D01*
Y7505D01*
X19214Y7518D01*
X19317Y7597D01*
X19392Y7695D01*
X20038D01*
X21269Y6465D01*
D02*
G37*
G36*
X16980Y6353D02*
X16981Y6334D01*
X16984Y6317D01*
X16987Y6302D01*
X16992Y6289D01*
X16997Y6279D01*
X17003Y6271D01*
X17011Y6265D01*
X17019Y6262D01*
X17029Y6261D01*
X16829D01*
X16839Y6262D01*
X16847Y6265D01*
X16855Y6271D01*
X16861Y6279D01*
X16867Y6289D01*
X16871Y6302D01*
X16875Y6317D01*
X16877Y6334D01*
X16879Y6353D01*
X16879Y6375D01*
X16979D01*
X16980Y6353D01*
D02*
G37*
G36*
X14980D02*
X14981Y6334D01*
X14984Y6317D01*
X14987Y6302D01*
X14992Y6289D01*
X14997Y6279D01*
X15003Y6271D01*
X15011Y6265D01*
X15019Y6262D01*
X15029Y6261D01*
X14829D01*
X14839Y6262D01*
X14847Y6265D01*
X14855Y6271D01*
X14861Y6279D01*
X14867Y6289D01*
X14871Y6302D01*
X14875Y6317D01*
X14877Y6334D01*
X14879Y6353D01*
X14879Y6375D01*
X14979D01*
X14980Y6353D01*
D02*
G37*
G36*
X13980D02*
X13981Y6334D01*
X13984Y6317D01*
X13987Y6302D01*
X13992Y6289D01*
X13997Y6279D01*
X14003Y6271D01*
X14011Y6265D01*
X14019Y6262D01*
X14029Y6261D01*
X13829D01*
X13839Y6262D01*
X13847Y6265D01*
X13855Y6271D01*
X13861Y6279D01*
X13867Y6289D01*
X13871Y6302D01*
X13875Y6317D01*
X13877Y6334D01*
X13879Y6353D01*
X13879Y6375D01*
X13979D01*
X13980Y6353D01*
D02*
G37*
G36*
X10782Y5662D02*
X10775Y5668D01*
X10767Y5672D01*
X10758Y5674D01*
X10749Y5673D01*
X10738Y5670D01*
X10726Y5665D01*
X10713Y5657D01*
X10700Y5647D01*
X10685Y5634D01*
X10669Y5619D01*
X10604Y5696D01*
X10620Y5712D01*
X10632Y5727D01*
X10643Y5741D01*
X10651Y5754D01*
X10657Y5766D01*
X10661Y5778D01*
X10663Y5788D01*
X10662Y5798D01*
X10659Y5807D01*
X10654Y5815D01*
X10782Y5662D01*
D02*
G37*
G36*
X12172Y5755D02*
X12168Y5747D01*
X12166Y5739D01*
X12167Y5729D01*
X12170Y5718D01*
X12175Y5707D01*
X12183Y5694D01*
X12193Y5680D01*
X12206Y5666D01*
X12221Y5650D01*
X12142Y5587D01*
X12126Y5602D01*
X12111Y5615D01*
X12097Y5626D01*
X12084Y5634D01*
X12072Y5640D01*
X12060Y5644D01*
X12049Y5646D01*
X12039Y5645D01*
X12030Y5642D01*
X12022Y5637D01*
X12179Y5762D01*
X12172Y5755D01*
D02*
G37*
G36*
X6172D02*
X6168Y5747D01*
X6166Y5739D01*
X6167Y5729D01*
X6170Y5718D01*
X6175Y5707D01*
X6183Y5694D01*
X6193Y5680D01*
X6206Y5666D01*
X6221Y5650D01*
X6142Y5587D01*
X6126Y5602D01*
X6111Y5615D01*
X6097Y5626D01*
X6084Y5634D01*
X6072Y5640D01*
X6060Y5644D01*
X6049Y5646D01*
X6039Y5645D01*
X6030Y5642D01*
X6022Y5637D01*
X6179Y5762D01*
X6172Y5755D01*
D02*
G37*
G36*
X17254Y5204D02*
X17239Y5188D01*
X17226Y5173D01*
X17215Y5159D01*
X17207Y5146D01*
X17201Y5134D01*
X17197Y5122D01*
X17196Y5112D01*
X17196Y5102D01*
X17199Y5093D01*
X17205Y5085D01*
X17076Y5238D01*
X17083Y5232D01*
X17091Y5228D01*
X17100Y5226D01*
X17110Y5227D01*
X17120Y5230D01*
X17132Y5235D01*
X17145Y5243D01*
X17159Y5253D01*
X17173Y5266D01*
X17189Y5281D01*
X17254Y5204D01*
D02*
G37*
G36*
X16254D02*
X16239Y5188D01*
X16226Y5173D01*
X16215Y5159D01*
X16207Y5146D01*
X16201Y5134D01*
X16197Y5122D01*
X16196Y5112D01*
X16196Y5102D01*
X16199Y5093D01*
X16205Y5085D01*
X16076Y5238D01*
X16083Y5232D01*
X16091Y5228D01*
X16100Y5226D01*
X16110Y5227D01*
X16120Y5230D01*
X16132Y5235D01*
X16145Y5243D01*
X16159Y5253D01*
X16173Y5266D01*
X16189Y5281D01*
X16254Y5204D01*
D02*
G37*
G36*
X14254D02*
X14239Y5188D01*
X14226Y5173D01*
X14215Y5159D01*
X14207Y5146D01*
X14201Y5134D01*
X14197Y5122D01*
X14196Y5112D01*
X14196Y5102D01*
X14199Y5093D01*
X14205Y5085D01*
X14076Y5238D01*
X14083Y5232D01*
X14091Y5228D01*
X14100Y5226D01*
X14110Y5227D01*
X14120Y5230D01*
X14132Y5235D01*
X14145Y5243D01*
X14159Y5253D01*
X14173Y5266D01*
X14189Y5281D01*
X14254Y5204D01*
D02*
G37*
G36*
X1260Y5210D02*
X1245Y5194D01*
X1232Y5180D01*
X1222Y5166D01*
X1214Y5153D01*
X1209Y5141D01*
X1206Y5131D01*
X1205Y5121D01*
X1207Y5112D01*
X1211Y5104D01*
X1217Y5097D01*
X1064Y5225D01*
X1072Y5220D01*
X1081Y5217D01*
X1091Y5217D01*
X1101Y5218D01*
X1113Y5222D01*
X1125Y5228D01*
X1138Y5236D01*
X1152Y5247D01*
X1167Y5260D01*
X1183Y5275D01*
X1260Y5210D01*
D02*
G37*
G36*
X13199Y4807D02*
X13196Y4798D01*
X13196Y4788D01*
X13197Y4778D01*
X13201Y4766D01*
X13207Y4754D01*
X13215Y4741D01*
X13226Y4727D01*
X13239Y4712D01*
X13254Y4696D01*
X13189Y4619D01*
X13173Y4634D01*
X13159Y4647D01*
X13145Y4657D01*
X13132Y4665D01*
X13120Y4670D01*
X13110Y4673D01*
X13100Y4674D01*
X13091Y4672D01*
X13083Y4668D01*
X13076Y4662D01*
X13205Y4815D01*
X13199Y4807D01*
D02*
G37*
G36*
X12019Y4638D02*
X12011Y4635D01*
X12003Y4629D01*
X11997Y4621D01*
X11992Y4611D01*
X11987Y4598D01*
X11984Y4583D01*
X11981Y4566D01*
X11980Y4547D01*
X11979Y4525D01*
X11879D01*
X11879Y4547D01*
X11877Y4566D01*
X11875Y4583D01*
X11871Y4598D01*
X11867Y4611D01*
X11861Y4621D01*
X11855Y4629D01*
X11847Y4635D01*
X11839Y4638D01*
X11829Y4639D01*
X12029D01*
X12019Y4638D01*
D02*
G37*
G36*
X11019D02*
X11011Y4635D01*
X11003Y4629D01*
X10997Y4621D01*
X10992Y4611D01*
X10987Y4598D01*
X10984Y4583D01*
X10981Y4566D01*
X10980Y4547D01*
X10979Y4525D01*
X10879D01*
X10879Y4547D01*
X10877Y4566D01*
X10875Y4583D01*
X10871Y4598D01*
X10867Y4611D01*
X10861Y4621D01*
X10855Y4629D01*
X10847Y4635D01*
X10839Y4638D01*
X10829Y4639D01*
X11029D01*
X11019Y4638D01*
D02*
G37*
G36*
X6019D02*
X6011Y4635D01*
X6003Y4629D01*
X5997Y4621D01*
X5992Y4611D01*
X5987Y4598D01*
X5984Y4583D01*
X5981Y4566D01*
X5980Y4547D01*
X5979Y4525D01*
X5879D01*
X5879Y4547D01*
X5877Y4566D01*
X5875Y4583D01*
X5871Y4598D01*
X5867Y4611D01*
X5861Y4621D01*
X5855Y4629D01*
X5847Y4635D01*
X5839Y4638D01*
X5829Y4639D01*
X6029D01*
X6019Y4638D01*
D02*
G37*
G36*
X3497Y4665D02*
X3576Y4562D01*
X3679Y4483D01*
X3800Y4433D01*
X3929Y4416D01*
X4058Y4433D01*
X4179Y4483D01*
X4282Y4562D01*
X4362Y4665D01*
X4399Y4756D01*
X4411Y4759D01*
X4452Y4753D01*
X4497Y4646D01*
X4576Y4542D01*
X4679Y4463D01*
X4800Y4413D01*
X4929Y4396D01*
X5058Y4413D01*
X5179Y4463D01*
X5282Y4542D01*
X5362Y4646D01*
X5406Y4753D01*
X5448Y4759D01*
X5459Y4756D01*
X5497Y4665D01*
X5576Y4562D01*
X5674Y4487D01*
Y2971D01*
X5694Y2873D01*
X5749Y2791D01*
X6870Y1670D01*
X6882Y1662D01*
X6885Y1652D01*
X6859Y1605D01*
X5856D01*
X5332Y2128D01*
X5331Y2131D01*
X5327Y2143D01*
X5322Y2162D01*
X5317Y2188D01*
X5313Y2217D01*
X5308Y2300D01*
X5308Y2348D01*
X5300Y2386D01*
X5293Y2424D01*
X5292Y2425D01*
X5292Y2426D01*
X5270Y2458D01*
X5249Y2491D01*
X5248Y2491D01*
X5248Y2491D01*
X5215Y2513D01*
X5182Y2535D01*
X5182Y2535D01*
X5181Y2535D01*
X5164Y2539D01*
X5147Y2579D01*
X5074Y2674D01*
X4979Y2747D01*
X4869Y2793D01*
X4800Y2802D01*
Y2350D01*
X4700D01*
Y2802D01*
X4631Y2793D01*
X4521Y2747D01*
X4426Y2674D01*
X4353Y2579D01*
X4331Y2526D01*
X4277D01*
X4234Y2630D01*
X4145Y2745D01*
X4030Y2834D01*
X3895Y2890D01*
X3750Y2909D01*
X3743Y2908D01*
X3700Y2908D01*
X3617Y2913D01*
X3588Y2917D01*
X3562Y2922D01*
X3543Y2927D01*
X3531Y2931D01*
X3528Y2932D01*
X3330Y3130D01*
X3248Y3185D01*
X3150Y3205D01*
X1756D01*
X765Y4196D01*
Y4417D01*
X815Y4461D01*
X894Y4451D01*
X964D01*
X1093Y4468D01*
X1214Y4518D01*
X1317Y4597D01*
X1397Y4700D01*
X1404Y4719D01*
X1454D01*
X1462Y4700D01*
X1541Y4597D01*
X1645Y4518D01*
X1765Y4468D01*
X1894Y4451D01*
X1964D01*
X2093Y4468D01*
X2214Y4518D01*
X2317Y4597D01*
X2397Y4700D01*
X2412Y4739D01*
X2466D01*
X2497Y4665D01*
X2576Y4562D01*
X2679Y4483D01*
X2800Y4433D01*
X2929Y4416D01*
X3058Y4433D01*
X3179Y4483D01*
X3282Y4562D01*
X3362Y4665D01*
X3402Y4763D01*
X3456D01*
X3497Y4665D01*
D02*
G37*
G36*
X24552Y4454D02*
X24556Y4432D01*
X24564Y4408D01*
X24576Y4384D01*
X24590Y4358D01*
X24608Y4331D01*
X24628Y4304D01*
X24680Y4245D01*
X24710Y4214D01*
X24290D01*
X24320Y4245D01*
X24372Y4304D01*
X24392Y4331D01*
X24410Y4358D01*
X24424Y4384D01*
X24436Y4408D01*
X24444Y4432D01*
X24448Y4454D01*
X24450Y4476D01*
X24550D01*
X24552Y4454D01*
D02*
G37*
G36*
X23552D02*
X23556Y4432D01*
X23564Y4408D01*
X23576Y4384D01*
X23590Y4358D01*
X23608Y4331D01*
X23628Y4304D01*
X23680Y4245D01*
X23710Y4214D01*
X23290D01*
X23320Y4245D01*
X23372Y4304D01*
X23392Y4331D01*
X23410Y4358D01*
X23424Y4384D01*
X23436Y4408D01*
X23444Y4432D01*
X23448Y4454D01*
X23450Y4476D01*
X23550D01*
X23552Y4454D01*
D02*
G37*
G36*
X21202Y3900D02*
X21201Y3909D01*
X21198Y3918D01*
X21193Y3925D01*
X21186Y3932D01*
X21177Y3938D01*
X21166Y3942D01*
X21153Y3945D01*
X21138Y3948D01*
X21120Y3950D01*
X21101Y3950D01*
Y4050D01*
X21120Y4051D01*
X21138Y4052D01*
X21153Y4054D01*
X21166Y4058D01*
X21177Y4062D01*
X21186Y4068D01*
X21193Y4074D01*
X21198Y4082D01*
X21201Y4090D01*
X21202Y4100D01*
Y3900D01*
D02*
G37*
G36*
X22497Y3700D02*
X22454Y3700D01*
X22376Y3694D01*
X22342Y3690D01*
X22310Y3683D01*
X22282Y3675D01*
X22257Y3666D01*
X22235Y3655D01*
X22215Y3642D01*
X22199Y3628D01*
X22128Y3699D01*
X22142Y3715D01*
X22155Y3735D01*
X22166Y3757D01*
X22175Y3782D01*
X22183Y3810D01*
X22190Y3842D01*
X22194Y3876D01*
X22200Y3954D01*
X22200Y3997D01*
X22497Y3700D01*
D02*
G37*
G36*
X9502Y2889D02*
X9508Y2864D01*
X9518Y2837D01*
X9532Y2808D01*
X9550Y2778D01*
X9571Y2746D01*
X9597Y2713D01*
X9660Y2641D01*
X9698Y2603D01*
X9202D01*
X9240Y2641D01*
X9303Y2713D01*
X9329Y2746D01*
X9350Y2778D01*
X9368Y2808D01*
X9382Y2837D01*
X9392Y2864D01*
X9398Y2889D01*
X9400Y2913D01*
X9500D01*
X9502Y2889D01*
D02*
G37*
G36*
X8502D02*
X8508Y2864D01*
X8518Y2837D01*
X8532Y2808D01*
X8550Y2778D01*
X8571Y2746D01*
X8597Y2713D01*
X8660Y2641D01*
X8698Y2603D01*
X8202D01*
X8240Y2641D01*
X8303Y2713D01*
X8329Y2746D01*
X8350Y2778D01*
X8368Y2808D01*
X8382Y2837D01*
X8392Y2864D01*
X8398Y2889D01*
X8400Y2913D01*
X8500D01*
X8502Y2889D01*
D02*
G37*
G36*
X10366Y2879D02*
X10372Y2852D01*
X10383Y2827D01*
X10398Y2803D01*
X10418Y2779D01*
X10442Y2757D01*
X10470Y2736D01*
X10503Y2716D01*
X10540Y2697D01*
X10581Y2679D01*
X10124Y2488D01*
X10264Y2864D01*
X10364Y2906D01*
X10366Y2879D01*
D02*
G37*
G36*
X14805Y2768D02*
X14828Y2754D01*
X14854Y2742D01*
X14884Y2732D01*
X14918Y2723D01*
X14956Y2716D01*
X14998Y2710D01*
X15093Y2705D01*
X15146Y2704D01*
X14796Y2354D01*
X14795Y2407D01*
X14790Y2502D01*
X14784Y2544D01*
X14777Y2582D01*
X14768Y2616D01*
X14758Y2646D01*
X14746Y2672D01*
X14732Y2695D01*
X14716Y2713D01*
X14787Y2784D01*
X14805Y2768D01*
D02*
G37*
G36*
X3405D02*
X3428Y2754D01*
X3454Y2742D01*
X3484Y2732D01*
X3518Y2723D01*
X3556Y2716D01*
X3598Y2710D01*
X3693Y2705D01*
X3746Y2704D01*
X3396Y2354D01*
X3395Y2407D01*
X3390Y2502D01*
X3384Y2544D01*
X3377Y2582D01*
X3368Y2616D01*
X3358Y2646D01*
X3346Y2672D01*
X3332Y2695D01*
X3316Y2713D01*
X3387Y2784D01*
X3405Y2768D01*
D02*
G37*
G36*
X5105Y2293D02*
X5110Y2198D01*
X5116Y2156D01*
X5123Y2118D01*
X5132Y2084D01*
X5142Y2054D01*
X5154Y2028D01*
X5168Y2005D01*
X5184Y1987D01*
X5113Y1916D01*
X5095Y1932D01*
X5072Y1946D01*
X5046Y1958D01*
X5016Y1968D01*
X4982Y1977D01*
X4944Y1984D01*
X4902Y1990D01*
X4807Y1995D01*
X4754Y1996D01*
X5104Y2346D01*
X5105Y2293D01*
D02*
G37*
G36*
X17399Y1690D02*
X17380Y1644D01*
X16712D01*
X16706Y1646D01*
X16691Y1653D01*
X16670Y1664D01*
X16647Y1677D01*
X16541Y1753D01*
X16501Y1784D01*
X16482Y1794D01*
X16430Y1834D01*
X16326Y1877D01*
Y1931D01*
X16379Y1953D01*
X16474Y2026D01*
X16547Y2121D01*
X16593Y2231D01*
X16602Y2300D01*
X16150D01*
Y2400D01*
X16602D01*
X16599Y2420D01*
X16646Y2443D01*
X17399Y1690D01*
D02*
G37*
G36*
X10884Y1713D02*
X10868Y1695D01*
X10854Y1672D01*
X10842Y1646D01*
X10832Y1616D01*
X10823Y1582D01*
X10816Y1544D01*
X10810Y1502D01*
X10805Y1407D01*
X10804Y1354D01*
X10454Y1704D01*
X10507Y1705D01*
X10602Y1710D01*
X10644Y1716D01*
X10682Y1723D01*
X10716Y1732D01*
X10746Y1742D01*
X10772Y1754D01*
X10795Y1768D01*
X10813Y1784D01*
X10884Y1713D01*
D02*
G37*
G36*
X9105Y1768D02*
X9128Y1754D01*
X9154Y1742D01*
X9184Y1732D01*
X9218Y1723D01*
X9256Y1716D01*
X9298Y1710D01*
X9393Y1705D01*
X9446Y1704D01*
X9096Y1354D01*
X9095Y1407D01*
X9090Y1502D01*
X9084Y1544D01*
X9077Y1582D01*
X9068Y1616D01*
X9058Y1646D01*
X9046Y1672D01*
X9032Y1695D01*
X9016Y1713D01*
X9087Y1784D01*
X9105Y1768D01*
D02*
G37*
G36*
X3405D02*
X3428Y1754D01*
X3454Y1742D01*
X3484Y1732D01*
X3518Y1723D01*
X3556Y1716D01*
X3598Y1710D01*
X3693Y1705D01*
X3746Y1704D01*
X3396Y1354D01*
X3395Y1407D01*
X3390Y1502D01*
X3384Y1544D01*
X3377Y1582D01*
X3368Y1616D01*
X3358Y1646D01*
X3346Y1672D01*
X3332Y1695D01*
X3316Y1713D01*
X3387Y1784D01*
X3405Y1768D01*
D02*
G37*
G36*
X16418Y1589D02*
X16536Y1506D01*
X16570Y1486D01*
X16602Y1469D01*
X16632Y1456D01*
X16659Y1447D01*
X16683Y1441D01*
X16705Y1439D01*
X16717Y1339D01*
X16691Y1337D01*
X16665Y1331D01*
X16638Y1321D01*
X16611Y1306D01*
X16582Y1287D01*
X16553Y1265D01*
X16523Y1238D01*
X16493Y1206D01*
X16429Y1132D01*
X16374Y1625D01*
X16418Y1589D01*
D02*
G37*
G36*
X7197Y1102D02*
X7159Y1140D01*
X7088Y1203D01*
X7054Y1229D01*
X7022Y1250D01*
X6992Y1268D01*
X6963Y1282D01*
X6936Y1292D01*
X6911Y1298D01*
X6887Y1300D01*
Y1400D01*
X6911Y1402D01*
X6936Y1408D01*
X6963Y1418D01*
X6992Y1432D01*
X7022Y1450D01*
X7054Y1471D01*
X7088Y1497D01*
X7159Y1560D01*
X7197Y1598D01*
Y1102D01*
D02*
G37*
G36*
X15146Y996D02*
X15093Y995D01*
X14998Y990D01*
X14956Y984D01*
X14918Y977D01*
X14884Y968D01*
X14854Y958D01*
X14828Y946D01*
X14805Y932D01*
X14787Y916D01*
X14716Y987D01*
X14732Y1005D01*
X14746Y1028D01*
X14758Y1054D01*
X14768Y1084D01*
X14777Y1118D01*
X14784Y1156D01*
X14790Y1198D01*
X14795Y1293D01*
X14796Y1346D01*
X15146Y996D01*
D02*
G37*
G36*
X21108Y1084D02*
X21103Y1050D01*
X21500D01*
Y950D01*
X21103D01*
X21110Y896D01*
X21151Y798D01*
X21215Y715D01*
X21231Y702D01*
X21215Y655D01*
X14886D01*
X14865Y705D01*
X14928Y768D01*
X14931Y769D01*
X14943Y773D01*
X14962Y778D01*
X14988Y783D01*
X15017Y787D01*
X15100Y792D01*
X15143Y792D01*
X15150Y791D01*
X15295Y810D01*
X15430Y866D01*
X15545Y955D01*
X15620Y1051D01*
X15628Y1055D01*
X15672D01*
X15680Y1051D01*
X15755Y955D01*
X15870Y866D01*
X16005Y810D01*
X16150Y791D01*
X16295Y810D01*
X16430Y866D01*
X16545Y955D01*
X16573Y990D01*
X16584Y1000D01*
X16643Y1069D01*
X16664Y1090D01*
X16685Y1108D01*
X16701Y1122D01*
X16714Y1130D01*
X16722Y1134D01*
X21074D01*
X21108Y1084D01*
D02*
G37*
G36*
X5570Y1170D02*
X5652Y1115D01*
X5750Y1095D01*
X6881D01*
X6884Y1094D01*
X6896Y1088D01*
X6913Y1078D01*
X6934Y1064D01*
X6957Y1046D01*
X7019Y991D01*
X7054Y957D01*
X7086Y935D01*
X7119Y914D01*
X7119Y913D01*
X7120Y913D01*
X7158Y906D01*
X7197Y898D01*
X7198Y898D01*
X7198Y898D01*
X7237Y906D01*
X7275Y914D01*
X7275Y914D01*
X7276Y914D01*
X7291Y924D01*
X7331Y907D01*
X7400Y898D01*
Y1350D01*
X7500D01*
Y898D01*
X7569Y907D01*
X7679Y953D01*
X7774Y1026D01*
X7847Y1121D01*
X7869Y1174D01*
X7923D01*
X7966Y1070D01*
X8055Y955D01*
X8170Y866D01*
X8305Y810D01*
X8450Y791D01*
X8595Y810D01*
X8730Y866D01*
X8845Y955D01*
X8920Y1051D01*
X8928Y1055D01*
X8972D01*
X8980Y1051D01*
X9055Y955D01*
X9170Y866D01*
X9305Y810D01*
X9450Y791D01*
X9595Y810D01*
X9730Y866D01*
X9845Y955D01*
X9920Y1051D01*
X9928Y1055D01*
X9972D01*
X9980Y1051D01*
X10055Y955D01*
X10170Y866D01*
X10305Y810D01*
X10450Y791D01*
X10595Y810D01*
X10730Y866D01*
X10845Y955D01*
X10920Y1051D01*
X10928Y1055D01*
X10972D01*
X10980Y1051D01*
X11055Y955D01*
X11170Y866D01*
X11305Y810D01*
X11450Y791D01*
X11595Y810D01*
X11730Y866D01*
X11845Y955D01*
X11934Y1070D01*
X11990Y1205D01*
X12004Y1314D01*
X12057Y1332D01*
X12685Y705D01*
X12664Y655D01*
X2956D01*
X2851Y759D01*
X2868Y806D01*
X2895Y810D01*
X3030Y866D01*
X3145Y955D01*
X3220Y1051D01*
X3228Y1055D01*
X3272D01*
X3280Y1051D01*
X3355Y955D01*
X3470Y866D01*
X3605Y810D01*
X3750Y791D01*
X3895Y810D01*
X4030Y866D01*
X4145Y955D01*
X4220Y1051D01*
X4228Y1055D01*
X4272D01*
X4280Y1051D01*
X4355Y955D01*
X4470Y866D01*
X4605Y810D01*
X4750Y791D01*
X4895Y810D01*
X5030Y866D01*
X5145Y955D01*
X5234Y1070D01*
X5290Y1205D01*
X5309Y1350D01*
X5307Y1365D01*
X5352Y1388D01*
X5570Y1170D01*
D02*
G37*
G36*
X25457Y1426D02*
Y918D01*
X25194Y655D01*
X24785D01*
X24769Y702D01*
X24785Y715D01*
X24849Y798D01*
X24890Y896D01*
X24897Y950D01*
X24500D01*
Y1050D01*
X24897D01*
X24892Y1084D01*
X24926Y1134D01*
X24989D01*
X25087Y1154D01*
X25170Y1209D01*
X25407Y1447D01*
X25457Y1426D01*
D02*
G37*
%LPC*%
G36*
X32502Y22400D02*
X32100D01*
Y21998D01*
X32169Y22007D01*
X32279Y22053D01*
X32374Y22126D01*
X32447Y22221D01*
X32493Y22331D01*
X32502Y22400D01*
D02*
G37*
G36*
X31502D02*
X31100D01*
Y21998D01*
X31169Y22007D01*
X31279Y22053D01*
X31374Y22126D01*
X31447Y22221D01*
X31493Y22331D01*
X31502Y22400D01*
D02*
G37*
G36*
X32000D02*
X31598D01*
X31607Y22331D01*
X31653Y22221D01*
X31726Y22126D01*
X31821Y22053D01*
X31931Y22007D01*
X32000Y21998D01*
Y22400D01*
D02*
G37*
G36*
X31000D02*
X30598D01*
X30607Y22331D01*
X30653Y22221D01*
X30726Y22126D01*
X30821Y22053D01*
X30931Y22007D01*
X31000Y21998D01*
Y22400D01*
D02*
G37*
G36*
X22052Y18750D02*
X21650D01*
Y18348D01*
X21719Y18357D01*
X21829Y18403D01*
X21924Y18476D01*
X21997Y18571D01*
X22043Y18681D01*
X22052Y18750D01*
D02*
G37*
G36*
X32666Y13837D02*
X32409D01*
Y13373D01*
X32666D01*
Y13837D01*
D02*
G37*
G36*
X26416D02*
X26159D01*
Y13373D01*
X26416D01*
Y13837D01*
D02*
G37*
G36*
X26059D02*
X25802D01*
Y13373D01*
X26059D01*
Y13837D01*
D02*
G37*
G36*
X2356Y14900D02*
X1979D01*
Y14554D01*
X2067Y14565D01*
X2163Y14605D01*
X2246Y14668D01*
X2309Y14751D01*
X2349Y14847D01*
X2356Y14900D01*
D02*
G37*
G36*
X1979Y14346D02*
Y14000D01*
X2356D01*
X2349Y14053D01*
X2309Y14149D01*
X2246Y14232D01*
X2163Y14295D01*
X2067Y14335D01*
X1979Y14346D01*
D02*
G37*
G36*
X2356Y13900D02*
X1979D01*
Y13554D01*
X2067Y13565D01*
X2163Y13605D01*
X2246Y13668D01*
X2309Y13751D01*
X2349Y13847D01*
X2356Y13900D01*
D02*
G37*
G36*
X38189Y24614D02*
X37995Y24595D01*
X37809Y24539D01*
X37638Y24447D01*
X37487Y24324D01*
X37364Y24173D01*
X37272Y24002D01*
X37216Y23816D01*
X37197Y23622D01*
X37216Y23428D01*
X37272Y23242D01*
X37364Y23071D01*
X37487Y22920D01*
X37638Y22797D01*
X37809Y22705D01*
X37995Y22649D01*
X38189Y22630D01*
X38383Y22649D01*
X38569Y22705D01*
X38740Y22797D01*
X38891Y22920D01*
X39014Y23071D01*
X39106Y23242D01*
X39162Y23428D01*
X39181Y23622D01*
X39162Y23816D01*
X39106Y24002D01*
X39014Y24173D01*
X38891Y24324D01*
X38740Y24447D01*
X38569Y24539D01*
X38383Y24595D01*
X38189Y24614D01*
D02*
G37*
G36*
X27295Y21195D02*
X26950D01*
Y20850D01*
X27295D01*
Y21195D01*
D02*
G37*
G36*
X26850D02*
X26505D01*
Y20850D01*
X26850D01*
Y21195D01*
D02*
G37*
G36*
X26100Y20012D02*
X23983D01*
Y17600D01*
X26100D01*
Y20012D01*
D02*
G37*
G36*
X37600Y14345D02*
X37464Y14332D01*
X37334Y14293D01*
X37214Y14228D01*
X37108Y14142D01*
X37022Y14036D01*
X36957Y13916D01*
X36918Y13786D01*
X36905Y13650D01*
X36918Y13514D01*
X36957Y13384D01*
X37022Y13264D01*
X37108Y13158D01*
X37214Y13072D01*
X37334Y13007D01*
X37464Y12968D01*
X37600Y12955D01*
X37736Y12968D01*
X37866Y13007D01*
X37986Y13072D01*
X38092Y13158D01*
X38178Y13264D01*
X38243Y13384D01*
X38282Y13514D01*
X38295Y13650D01*
X38282Y13786D01*
X38243Y13916D01*
X38178Y14036D01*
X38092Y14142D01*
X37986Y14228D01*
X37866Y14293D01*
X37736Y14332D01*
X37600Y14345D01*
D02*
G37*
G36*
X37550Y12242D02*
X37008D01*
Y11700D01*
X37550D01*
Y12242D01*
D02*
G37*
G36*
X38233Y7200D02*
X37950D01*
Y6917D01*
X37988Y6922D01*
X38070Y6956D01*
X38140Y7010D01*
X38194Y7080D01*
X38228Y7162D01*
X38233Y7200D01*
D02*
G37*
G36*
X37850D02*
X37567D01*
X37572Y7162D01*
X37606Y7080D01*
X37660Y7010D01*
X37730Y6956D01*
X37812Y6922D01*
X37850Y6917D01*
Y7200D01*
D02*
G37*
G36*
X38336Y6686D02*
X37464D01*
Y5814D01*
X38336D01*
Y6686D01*
D02*
G37*
G36*
X37010Y4015D02*
X36586D01*
Y3591D01*
X37010D01*
Y4015D01*
D02*
G37*
G36*
X33485D02*
X33061D01*
Y3591D01*
X33485D01*
Y4015D01*
D02*
G37*
G36*
X29960D02*
X29536D01*
Y3591D01*
X29960D01*
Y4015D01*
D02*
G37*
G36*
X36486D02*
X36062D01*
Y3591D01*
X36486D01*
Y4015D01*
D02*
G37*
G36*
X32961D02*
X32537D01*
Y3591D01*
X32961D01*
Y4015D01*
D02*
G37*
G36*
X29436D02*
X29012D01*
Y3591D01*
X29436D01*
Y4015D01*
D02*
G37*
G36*
X37010Y3491D02*
X36586D01*
Y3067D01*
X37010D01*
Y3491D01*
D02*
G37*
G36*
X36486D02*
X36062D01*
Y3067D01*
X36486D01*
Y3491D01*
D02*
G37*
G36*
X33485D02*
X33061D01*
Y3067D01*
X33485D01*
Y3491D01*
D02*
G37*
G36*
X32961D02*
X32537D01*
Y3067D01*
X32961D01*
Y3491D01*
D02*
G37*
G36*
X29960D02*
X29536D01*
Y3067D01*
X29960D01*
Y3491D01*
D02*
G37*
G36*
X29436D02*
X29012D01*
Y3067D01*
X29436D01*
Y3491D01*
D02*
G37*
G36*
X36586Y1336D02*
Y914D01*
X37007D01*
X36998Y988D01*
X36950Y1103D01*
X36874Y1202D01*
X36775Y1278D01*
X36660Y1326D01*
X36586Y1336D01*
D02*
G37*
G36*
X33061D02*
Y914D01*
X33482D01*
X33473Y988D01*
X33425Y1103D01*
X33349Y1202D01*
X33250Y1278D01*
X33135Y1326D01*
X33061Y1336D01*
D02*
G37*
G36*
X29536D02*
Y914D01*
X29957D01*
X29948Y988D01*
X29900Y1103D01*
X29824Y1202D01*
X29725Y1278D01*
X29610Y1326D01*
X29536Y1336D01*
D02*
G37*
G36*
X36486Y1336D02*
X36412Y1326D01*
X36297Y1278D01*
X36198Y1202D01*
X36122Y1103D01*
X36074Y988D01*
X36064Y914D01*
X36486D01*
Y1336D01*
D02*
G37*
G36*
X32961D02*
X32887Y1326D01*
X32772Y1278D01*
X32673Y1202D01*
X32597Y1103D01*
X32549Y988D01*
X32539Y914D01*
X32961D01*
Y1336D01*
D02*
G37*
G36*
X29436D02*
X29362Y1326D01*
X29247Y1278D01*
X29148Y1202D01*
X29072Y1103D01*
X29024Y988D01*
X29014Y914D01*
X29436D01*
Y1336D01*
D02*
G37*
G36*
X37007Y814D02*
X36586D01*
Y392D01*
X36660Y402D01*
X36775Y450D01*
X36874Y526D01*
X36950Y625D01*
X36998Y740D01*
X37007Y814D01*
D02*
G37*
G36*
X33482D02*
X33061D01*
Y392D01*
X33135Y402D01*
X33250Y450D01*
X33349Y526D01*
X33425Y625D01*
X33473Y740D01*
X33482Y814D01*
D02*
G37*
G36*
X29957D02*
X29536D01*
Y392D01*
X29610Y402D01*
X29725Y450D01*
X29824Y526D01*
X29900Y625D01*
X29948Y740D01*
X29957Y814D01*
D02*
G37*
G36*
X36486D02*
X36064D01*
X36074Y740D01*
X36122Y625D01*
X36198Y526D01*
X36297Y450D01*
X36412Y402D01*
X36486Y392D01*
Y814D01*
D02*
G37*
G36*
X32961D02*
X32539D01*
X32549Y740D01*
X32597Y625D01*
X32673Y526D01*
X32772Y450D01*
X32887Y402D01*
X32961Y392D01*
Y814D01*
D02*
G37*
G36*
X29436D02*
X29014D01*
X29024Y740D01*
X29072Y625D01*
X29148Y526D01*
X29247Y450D01*
X29362Y402D01*
X29436Y392D01*
Y814D01*
D02*
G37*
G36*
X34764Y4120D02*
X34614Y4100D01*
X34475Y4043D01*
X34355Y3951D01*
X34263Y3831D01*
X34205Y3691D01*
X34185Y3541D01*
X34205Y3391D01*
X34263Y3252D01*
X34355Y3132D01*
X34361Y3127D01*
X34394Y3094D01*
X34454Y3027D01*
X34473Y3001D01*
X34490Y2978D01*
X34501Y2959D01*
X34508Y2945D01*
X34509Y2941D01*
Y1464D01*
X34508Y1460D01*
X34501Y1446D01*
X34490Y1427D01*
X34473Y1404D01*
X34454Y1378D01*
X34394Y1311D01*
X34361Y1278D01*
X34355Y1273D01*
X34263Y1154D01*
X34205Y1014D01*
X34185Y864D01*
X34205Y714D01*
X34263Y575D01*
X34355Y455D01*
X34475Y363D01*
X34614Y305D01*
X34764Y285D01*
X34914Y305D01*
X35054Y363D01*
X35174Y455D01*
X35266Y575D01*
X35323Y714D01*
X35343Y864D01*
X35323Y1014D01*
X35266Y1154D01*
X35174Y1273D01*
X35167Y1278D01*
X35134Y1311D01*
X35075Y1378D01*
X35055Y1404D01*
X35039Y1427D01*
X35027Y1446D01*
X35021Y1460D01*
X35019Y1464D01*
Y2941D01*
X35021Y2945D01*
X35027Y2959D01*
X35039Y2978D01*
X35055Y3001D01*
X35075Y3027D01*
X35134Y3094D01*
X35167Y3127D01*
X35174Y3132D01*
X35266Y3252D01*
X35323Y3391D01*
X35343Y3541D01*
X35323Y3691D01*
X35266Y3831D01*
X35174Y3951D01*
X35054Y4043D01*
X34914Y4100D01*
X34764Y4120D01*
D02*
G37*
G36*
X31239D02*
X31089Y4100D01*
X30950Y4043D01*
X30830Y3951D01*
X30738Y3831D01*
X30680Y3691D01*
X30660Y3541D01*
X30680Y3391D01*
X30738Y3252D01*
X30830Y3132D01*
X30836Y3127D01*
X30869Y3094D01*
X30929Y3027D01*
X30948Y3001D01*
X30965Y2978D01*
X30976Y2959D01*
X30983Y2945D01*
X30984Y2941D01*
Y1464D01*
X30983Y1460D01*
X30976Y1446D01*
X30965Y1427D01*
X30948Y1404D01*
X30929Y1378D01*
X30869Y1311D01*
X30836Y1278D01*
X30830Y1273D01*
X30738Y1154D01*
X30680Y1014D01*
X30660Y864D01*
X30680Y714D01*
X30738Y575D01*
X30830Y455D01*
X30950Y363D01*
X31089Y305D01*
X31239Y285D01*
X31389Y305D01*
X31529Y363D01*
X31649Y455D01*
X31741Y575D01*
X31798Y714D01*
X31818Y864D01*
X31798Y1014D01*
X31741Y1154D01*
X31649Y1273D01*
X31642Y1278D01*
X31609Y1311D01*
X31550Y1378D01*
X31530Y1404D01*
X31514Y1427D01*
X31502Y1446D01*
X31496Y1460D01*
X31494Y1464D01*
Y2941D01*
X31496Y2945D01*
X31502Y2959D01*
X31514Y2978D01*
X31530Y3001D01*
X31550Y3027D01*
X31609Y3094D01*
X31642Y3127D01*
X31649Y3132D01*
X31741Y3252D01*
X31798Y3391D01*
X31818Y3541D01*
X31798Y3691D01*
X31741Y3831D01*
X31649Y3951D01*
X31529Y4043D01*
X31389Y4100D01*
X31239Y4120D01*
D02*
G37*
G36*
X27714D02*
X27564Y4100D01*
X27425Y4043D01*
X27305Y3951D01*
X27213Y3831D01*
X27155Y3691D01*
X27135Y3541D01*
X27155Y3391D01*
X27213Y3252D01*
X27305Y3132D01*
X27311Y3127D01*
X27344Y3094D01*
X27404Y3027D01*
X27423Y3001D01*
X27440Y2978D01*
X27451Y2959D01*
X27458Y2945D01*
X27459Y2941D01*
Y1464D01*
X27458Y1460D01*
X27451Y1446D01*
X27440Y1427D01*
X27423Y1404D01*
X27404Y1378D01*
X27344Y1311D01*
X27311Y1278D01*
X27305Y1273D01*
X27213Y1154D01*
X27155Y1014D01*
X27135Y864D01*
X27155Y714D01*
X27213Y575D01*
X27305Y455D01*
X27425Y363D01*
X27564Y305D01*
X27714Y285D01*
X27864Y305D01*
X28004Y363D01*
X28124Y455D01*
X28216Y575D01*
X28273Y714D01*
X28293Y864D01*
X28273Y1014D01*
X28216Y1154D01*
X28124Y1273D01*
X28117Y1278D01*
X28084Y1311D01*
X28025Y1378D01*
X28005Y1404D01*
X27989Y1427D01*
X27977Y1446D01*
X27971Y1460D01*
X27969Y1464D01*
Y2941D01*
X27971Y2945D01*
X27977Y2959D01*
X27989Y2978D01*
X28005Y3001D01*
X28025Y3027D01*
X28084Y3094D01*
X28117Y3127D01*
X28124Y3132D01*
X28216Y3252D01*
X28273Y3391D01*
X28293Y3541D01*
X28273Y3691D01*
X28216Y3831D01*
X28124Y3951D01*
X28004Y4043D01*
X27864Y4100D01*
X27714Y4120D01*
D02*
G37*
G36*
X38189Y2173D02*
X37995Y2154D01*
X37809Y2098D01*
X37638Y2006D01*
X37487Y1883D01*
X37364Y1732D01*
X37272Y1561D01*
X37216Y1375D01*
X37197Y1181D01*
X37216Y988D01*
X37272Y801D01*
X37364Y630D01*
X37487Y480D01*
X37638Y356D01*
X37809Y264D01*
X37995Y208D01*
X38189Y189D01*
X38383Y208D01*
X38569Y264D01*
X38740Y356D01*
X38891Y480D01*
X39014Y630D01*
X39106Y801D01*
X39162Y988D01*
X39181Y1181D01*
X39162Y1375D01*
X39106Y1561D01*
X39014Y1732D01*
X38891Y1883D01*
X38740Y2006D01*
X38569Y2098D01*
X38383Y2154D01*
X38189Y2173D01*
D02*
G37*
%LPD*%
G36*
X34986Y3233D02*
X34918Y3157D01*
X34890Y3122D01*
X34867Y3088D01*
X34848Y3056D01*
X34833Y3026D01*
X34823Y2998D01*
X34816Y2971D01*
X34814Y2946D01*
X34714D01*
X34712Y2971D01*
X34706Y2998D01*
X34695Y3026D01*
X34680Y3056D01*
X34661Y3088D01*
X34638Y3122D01*
X34610Y3157D01*
X34543Y3233D01*
X34502Y3274D01*
X35026D01*
X34986Y3233D01*
D02*
G37*
G36*
X34816Y1434D02*
X34823Y1407D01*
X34833Y1379D01*
X34848Y1349D01*
X34867Y1317D01*
X34890Y1283D01*
X34918Y1248D01*
X34986Y1172D01*
X35026Y1131D01*
X34502D01*
X34543Y1172D01*
X34610Y1248D01*
X34638Y1283D01*
X34661Y1317D01*
X34680Y1349D01*
X34695Y1379D01*
X34706Y1407D01*
X34712Y1434D01*
X34714Y1459D01*
X34814D01*
X34816Y1434D01*
D02*
G37*
G36*
X31461Y3233D02*
X31393Y3157D01*
X31365Y3122D01*
X31342Y3088D01*
X31323Y3056D01*
X31308Y3026D01*
X31298Y2998D01*
X31291Y2971D01*
X31289Y2946D01*
X31189D01*
X31187Y2971D01*
X31181Y2998D01*
X31170Y3026D01*
X31155Y3056D01*
X31136Y3088D01*
X31113Y3122D01*
X31085Y3157D01*
X31018Y3233D01*
X30977Y3274D01*
X31501D01*
X31461Y3233D01*
D02*
G37*
G36*
X31291Y1434D02*
X31298Y1407D01*
X31308Y1379D01*
X31323Y1349D01*
X31342Y1317D01*
X31365Y1283D01*
X31393Y1248D01*
X31461Y1172D01*
X31501Y1131D01*
X30977D01*
X31018Y1172D01*
X31085Y1248D01*
X31113Y1283D01*
X31136Y1317D01*
X31155Y1349D01*
X31170Y1379D01*
X31181Y1407D01*
X31187Y1434D01*
X31189Y1459D01*
X31289D01*
X31291Y1434D01*
D02*
G37*
G36*
X27936Y3233D02*
X27868Y3157D01*
X27840Y3122D01*
X27817Y3088D01*
X27798Y3056D01*
X27783Y3026D01*
X27773Y2998D01*
X27766Y2971D01*
X27764Y2946D01*
X27664D01*
X27662Y2971D01*
X27656Y2998D01*
X27645Y3026D01*
X27630Y3056D01*
X27611Y3088D01*
X27588Y3122D01*
X27560Y3157D01*
X27493Y3233D01*
X27452Y3274D01*
X27976D01*
X27936Y3233D01*
D02*
G37*
G36*
X27766Y1434D02*
X27773Y1407D01*
X27783Y1379D01*
X27798Y1349D01*
X27817Y1317D01*
X27840Y1283D01*
X27868Y1248D01*
X27936Y1172D01*
X27976Y1131D01*
X27452D01*
X27493Y1172D01*
X27560Y1248D01*
X27588Y1283D01*
X27611Y1317D01*
X27630Y1349D01*
X27645Y1379D01*
X27656Y1407D01*
X27662Y1434D01*
X27664Y1459D01*
X27764D01*
X27766Y1434D01*
D02*
G37*
%LPC*%
G36*
X20850Y22400D02*
X20448D01*
X20457Y22331D01*
X20503Y22221D01*
X20576Y22126D01*
X20671Y22053D01*
X20781Y22007D01*
X20850Y21998D01*
Y22400D01*
D02*
G37*
G36*
X22052Y6100D02*
X21650D01*
Y5698D01*
X21719Y5707D01*
X21829Y5753D01*
X21924Y5826D01*
X21997Y5921D01*
X22043Y6031D01*
X22052Y6100D01*
D02*
G37*
G36*
X21550D02*
X21148D01*
X21157Y6031D01*
X21203Y5921D01*
X21276Y5826D01*
X21371Y5753D01*
X21481Y5707D01*
X21550Y5698D01*
Y6100D01*
D02*
G37*
%LPD*%
D11*
X13929Y6095D02*
Y6419D01*
X13890Y6095D02*
X13929D01*
X13837Y6042D02*
X13890Y6095D01*
X31239Y864D02*
Y3541D01*
X13929Y6419D02*
X14206Y6696D01*
X14403Y5424D02*
Y6696D01*
X14797Y10417D02*
X15800Y11420D01*
X14797Y7188D02*
Y10417D01*
X15800Y11420D02*
X20070D01*
X14206Y7188D02*
Y9744D01*
X14929Y5950D02*
Y6564D01*
X14797Y6696D02*
X14929Y6564D01*
X13929Y4950D02*
X14403Y5424D01*
X33050Y22450D02*
X33946Y21554D01*
X35896D01*
X36400Y20650D02*
Y21950D01*
X36000Y20250D02*
X36400Y20650D01*
X34900Y23450D02*
X36400Y21950D01*
X33428Y7525D02*
X34352Y6600D01*
X33428Y7525D02*
Y7978D01*
X34352Y6600D02*
X35850D01*
X34618Y8100D02*
X34850D01*
X34618D02*
Y8615D01*
X32404Y7750D02*
X33704Y6450D01*
X31004Y9150D02*
X32404Y7750D01*
X33704Y6450D02*
X35900D01*
X33428Y7978D02*
X34183Y8733D01*
X27626Y9150D02*
X31004D01*
X17313Y7913D02*
X17966Y8566D01*
X18216D01*
X18510Y8860D01*
X17313Y5334D02*
Y7913D01*
X17929Y7950D02*
X18329Y8350D01*
X18510Y8860D02*
Y9109D01*
X18400Y6480D02*
X18929Y7009D01*
X18400Y4400D02*
Y6480D01*
X17510Y6531D02*
X17929Y6950D01*
X17510Y2640D02*
Y6531D01*
X11000Y12950D02*
X14206Y9744D01*
X1929Y12950D02*
X11000D01*
X13929Y5950D02*
X13944Y5965D01*
X23344Y14893D02*
Y22644D01*
X16150Y1389D02*
X24989D01*
X13463Y22387D02*
X13650Y22200D01*
X3650D02*
X4400Y22950D01*
X7400Y20700D02*
X14179D01*
X5650Y22450D02*
X7400Y20700D01*
X8150Y20950D02*
X14800D01*
X6650Y22450D02*
X8150Y20950D01*
X13650Y22450D02*
Y22550D01*
X13250Y22950D02*
X13650Y22550D01*
X4400Y22950D02*
X13250D01*
X3650Y23200D02*
Y23350D01*
X4150Y23200D02*
Y23700D01*
X3900Y22950D02*
X4150Y23200D01*
X2337Y22950D02*
X3900D01*
X250Y20863D02*
X2337Y22950D01*
X19550Y17450D02*
X20900Y18800D01*
X21600D01*
X19300Y18450D02*
X20650Y19800D01*
X21600D01*
X22550Y15450D02*
Y19850D01*
X21600Y20800D02*
X22550Y19850D01*
X7950Y1850D02*
X8450Y1350D01*
X7050Y1850D02*
X7950D01*
X5929Y2971D02*
X7050Y1850D01*
X5929Y2971D02*
Y4950D01*
X7906Y2194D02*
Y3974D01*
Y2194D02*
X8250Y1850D01*
X6929Y4950D02*
X7906Y3974D01*
X8250Y1850D02*
X8950D01*
X9450Y1350D01*
X5750D02*
X7450D01*
X4750Y2350D02*
X5750Y1350D01*
X8450Y2350D02*
Y3750D01*
X7450Y4750D02*
X8450Y3750D01*
X7450Y4750D02*
Y5200D01*
X9450Y2350D02*
Y5150D01*
X9150Y5450D02*
X9450Y5150D01*
X10450Y1350D02*
X10929Y1829D01*
Y4950D01*
X3250Y1850D02*
X3750Y1350D01*
X2300Y1850D02*
X3250D01*
X3150Y2950D02*
X3750Y2350D01*
X1650Y2950D02*
X3150D01*
X2850Y400D02*
X25300D01*
X2058Y1192D02*
X2850Y400D01*
X2058Y1192D02*
Y1544D01*
X200Y3402D02*
X2058Y1544D01*
X200Y3402D02*
Y9100D01*
X2160Y12450D02*
X2700Y11910D01*
X1850Y12450D02*
X2160D01*
X1400Y12900D02*
X1850Y12450D01*
X2700Y6550D02*
Y11910D01*
X1400Y12900D02*
Y18050D01*
X1929Y5950D02*
X2100D01*
X2700Y6550D01*
X28900Y17400D02*
Y19800D01*
X27900Y20800D02*
X28900Y19800D01*
X21600Y14500D02*
X22550Y15450D01*
X29502Y19302D02*
X29512Y19291D01*
Y15850D02*
Y19291D01*
Y15733D02*
X31359Y13887D01*
X29512Y15733D02*
Y15850D01*
X30700D02*
X32400Y17550D01*
X29788Y15850D02*
X30700D01*
X23344Y14893D02*
X24350Y13887D01*
X24450Y15850D02*
X26150Y17550D01*
X23588Y15850D02*
X24450D01*
X23094Y22894D02*
X23344Y22644D01*
X21456Y22894D02*
X23094D01*
X24350Y13887D02*
X25109D01*
X32600Y10750D02*
X32600Y10750D01*
X32600Y10750D02*
Y11250D01*
X31800Y11223D02*
X32577Y12000D01*
X31800Y10850D02*
Y11223D01*
X32577Y12000D02*
X33350D01*
X31950Y11673D02*
Y12123D01*
X31500Y11223D02*
X31950Y11673D01*
X31500Y10550D02*
Y11223D01*
X35612Y8862D02*
X35650Y8900D01*
X34850Y8100D02*
X35612Y8862D01*
X35850Y6600D02*
X37500Y8250D01*
X38200Y19900D02*
X38800Y19300D01*
Y12850D02*
Y19300D01*
X37600Y11650D02*
X38800Y12850D01*
X32400Y17550D02*
X33900D01*
X36250Y19900D01*
X38200D01*
X36400Y16997D02*
X37990Y18587D01*
X36400Y15963D02*
Y16997D01*
X34324Y13887D02*
X36400Y15963D01*
X29502Y19302D02*
X30450Y20250D01*
X36000D01*
X33150Y11345D02*
X33650D01*
X31800Y10850D02*
X32650Y10000D01*
X33800D01*
X33650Y10897D02*
Y11345D01*
X34150Y9255D02*
Y9650D01*
X33800Y10000D02*
X34150Y9650D01*
X33350Y12000D02*
X33538Y12188D01*
Y12210D01*
X37500Y8250D02*
X37900D01*
X34183Y8733D02*
X34539D01*
X34650Y8844D01*
Y9255D01*
X33650Y10897D02*
X34857Y9690D01*
Y8854D02*
Y9690D01*
X34618Y8615D02*
X34857Y8854D01*
X33874Y10474D02*
X33875Y10475D01*
X32600Y10474D02*
X33874D01*
X33875Y10475D02*
X34650Y9700D01*
Y9255D02*
Y9700D01*
X26900Y18300D02*
Y20800D01*
X27900D02*
X30550Y23450D01*
X31050D01*
X19500Y10400D02*
X20850Y11750D01*
X17526Y10400D02*
X19500D01*
X20850Y11750D02*
Y12750D01*
X1929Y14950D02*
X4429Y17450D01*
X19550D01*
X1800Y18450D02*
X19300D01*
X1400Y18050D02*
X1800Y18450D01*
X17938Y24300D02*
X23050D01*
X16929Y23291D02*
X17938Y24300D01*
X16929Y19950D02*
Y23291D01*
X33050Y23450D02*
X34900D01*
X26150Y17550D02*
X26900Y18300D01*
X23350Y23000D02*
X24300D01*
X24400Y23100D01*
X22900Y23450D02*
X23350Y23000D01*
X24400Y23100D02*
Y23750D01*
X23700Y24450D02*
X24400Y23750D01*
X4900Y24450D02*
X23700D01*
X23050Y24300D02*
X23900Y23450D01*
X20550Y13450D02*
X21600Y14500D01*
X20550Y11900D02*
Y13450D01*
X20070Y11420D02*
X20550Y11900D01*
X16450Y9324D02*
X17526Y10400D01*
X16450Y5471D02*
Y9324D01*
X20850Y12750D02*
X21600Y13500D01*
X21050Y11950D02*
X21600Y12500D01*
X21050Y11400D02*
Y11950D01*
X19150Y9500D02*
X21050Y11400D01*
X17550Y9500D02*
X19150D01*
X19450Y9350D02*
X21600Y11500D01*
X18751Y9350D02*
X19450D01*
X18510Y9109D02*
X18751Y9350D01*
X16929Y8879D02*
X17550Y9500D01*
X16929Y5950D02*
Y8879D01*
X19050Y8350D02*
X19450Y8750D01*
X18329Y8350D02*
X19050D01*
X17839Y1611D02*
X21911D01*
X21600Y8150D02*
X24000Y5750D01*
Y3700D02*
Y5750D01*
X21911Y1611D02*
X24000Y3700D01*
X16350Y3100D02*
X17839Y1611D01*
X14779Y3100D02*
X16350D01*
X12929Y4950D02*
X14779Y3100D01*
X20250Y1750D02*
X22500Y4000D01*
X18400Y1750D02*
X20250D01*
X17510Y2640D02*
X18400Y1750D01*
X21494Y6600D02*
X22600D01*
X21494D02*
X21500Y6594D01*
X20144Y7950D02*
X21494Y6600D01*
X18929Y7950D02*
X20144D01*
X18400Y4400D02*
X18800Y4000D01*
X21500D01*
X19450Y8750D02*
X24050D01*
X16929Y4950D02*
X17313Y5334D01*
X22600Y6600D02*
X23500Y5700D01*
X24050Y8750D02*
X24500Y8300D01*
Y4000D02*
Y8300D01*
X23500Y4000D02*
Y5700D01*
X16389Y5410D02*
X16450Y5471D01*
X15929Y4950D02*
X16389Y5410D01*
X31472Y13000D02*
X32359Y13887D01*
X30700Y13000D02*
X31472D01*
X26150Y17550D02*
X30700Y13000D01*
X32359Y13887D02*
X32400Y13928D01*
Y17550D01*
X26109Y13887D02*
X26150Y13928D01*
Y17550D01*
X33350Y12298D02*
Y13878D01*
X33262Y12210D02*
X33350Y12298D01*
X32038Y12210D02*
X33262D01*
X33650Y8800D02*
Y9255D01*
X33400Y8550D02*
X33650Y8800D01*
X20900Y23450D02*
X21456Y22894D01*
X929Y4950D02*
X1450Y5471D01*
Y6171D01*
X1679Y6400D01*
X2200D01*
X2500Y6700D01*
Y10250D01*
X2300Y10450D02*
X2500Y10250D01*
X850Y10450D02*
X2300D01*
X250Y11050D02*
X850Y10450D01*
X250Y11050D02*
Y20863D01*
X600Y9500D02*
X1400D01*
X1850Y9950D01*
X4150Y23700D02*
X4900Y24450D01*
X33350Y13878D02*
X33359Y13887D01*
X32038Y12210D02*
Y12219D01*
X31684Y12573D02*
X32038Y12219D01*
X28423Y12573D02*
X31684D01*
X27538Y13458D02*
X28423Y12573D01*
X27109Y13887D02*
X27538Y13458D01*
Y10400D02*
Y13458D01*
X27262Y10400D02*
X27350Y10312D01*
Y9150D02*
Y10312D01*
X25988Y10400D02*
X27262D01*
X15450Y19471D02*
Y20300D01*
X14929Y18950D02*
X15450Y19471D01*
X14800Y20950D02*
X15450Y20300D01*
X25109Y13887D02*
X25250Y13746D01*
Y1650D02*
Y13746D01*
X24989Y1389D02*
X25250Y1650D01*
X16150Y1350D02*
Y1389D01*
X14450Y3050D02*
X15150Y2350D01*
X13700Y3050D02*
X14450D01*
X12450Y4300D02*
X13700Y3050D01*
X12450Y4300D02*
Y5350D01*
X11929Y5871D02*
X12450Y5350D01*
X11929Y5871D02*
Y5950D01*
X14650Y850D02*
X15150Y1350D01*
X12900Y850D02*
X14650D01*
X11929Y1821D02*
X12900Y850D01*
X11929Y1821D02*
Y4950D01*
X10800Y4821D02*
X10929Y4950D01*
X10314Y5334D02*
X10929Y5950D01*
X10314Y2363D02*
Y5334D01*
X10300Y2350D02*
X10314Y2363D01*
X9300Y2350D02*
X9313D01*
X7550Y5450D02*
X9150D01*
X7050Y5950D02*
X7550Y5450D01*
X6929Y5950D02*
X7050D01*
X7200Y5450D02*
X7450Y5200D01*
X6350Y5450D02*
X7200D01*
X5929Y5871D02*
X6350Y5450D01*
X5929Y5871D02*
Y5950D01*
X370Y3780D02*
X2300Y1850D01*
X370Y3780D02*
Y7391D01*
X510Y4090D02*
X1650Y2950D01*
X510Y4090D02*
Y7260D01*
X370Y7391D02*
X929Y7950D01*
X510Y7260D02*
X750Y7500D01*
X1479D01*
X1929Y7950D01*
X3750Y1350D02*
X3900D01*
X200Y9100D02*
X600Y9500D01*
X25712Y812D02*
Y10400D01*
X25300Y400D02*
X25712Y812D01*
X1850Y9950D02*
X1929D01*
X14179Y20700D02*
X14929Y19950D01*
X15929D02*
Y22821D01*
X14650Y24100D02*
X15929Y22821D01*
X6300Y24100D02*
X14650D01*
X5650Y23450D02*
X6300Y24100D01*
X5650Y23200D02*
Y23450D01*
X34764Y864D02*
Y3541D01*
X27714Y864D02*
Y3541D01*
X35900Y6450D02*
X37200Y7750D01*
X37950D01*
X38350Y8150D01*
Y8600D01*
X37600Y9350D02*
X38350Y8600D01*
X37600Y9350D02*
Y11650D01*
X37295Y11345D02*
X37600Y11650D01*
X34650Y11345D02*
X37295D01*
X34150D02*
X34650D01*
X32795Y9255D02*
X33150D01*
X31500Y10550D02*
X32795Y9255D01*
X31950Y12123D02*
X32038Y12210D01*
X31200Y11648D02*
X31762Y12210D01*
X31200Y10200D02*
Y11648D01*
X32850Y8550D02*
X33400D01*
X31200Y10200D02*
X32850Y8550D01*
X33359Y13887D02*
X34324D01*
D19*
X14797Y6696D02*
D03*
X14600D02*
D03*
X14403D02*
D03*
X14206D02*
D03*
Y7188D02*
D03*
X14403D02*
D03*
X14600D02*
D03*
X14797D02*
D03*
D20*
X27626Y9150D02*
D03*
X27350D02*
D03*
X27262Y10400D02*
D03*
X27538D02*
D03*
X25712D02*
D03*
X25988D02*
D03*
X23312Y15850D02*
D03*
X23588D02*
D03*
X29512D02*
D03*
X29788D02*
D03*
X33538Y12210D02*
D03*
X33262D02*
D03*
X31762Y12210D02*
D03*
X32038D02*
D03*
D21*
X32600Y10750D02*
D03*
Y10474D02*
D03*
D45*
X33011Y3541D02*
D03*
X36536D02*
D03*
X29486D02*
D03*
D46*
X31239D02*
D03*
Y864D02*
D03*
X33011D02*
D03*
X36536D02*
D03*
X34764D02*
D03*
Y3541D02*
D03*
X27714D02*
D03*
Y864D02*
D03*
X29486D02*
D03*
D47*
X20900Y22450D02*
D03*
Y23450D02*
D03*
X21900Y22450D02*
D03*
X23900Y23450D02*
D03*
X27900D02*
D03*
X24900Y22450D02*
D03*
Y23450D02*
D03*
X25900Y22450D02*
D03*
X22900D02*
D03*
Y23450D02*
D03*
X23900Y22450D02*
D03*
X27900D02*
D03*
X26900Y23450D02*
D03*
Y22450D02*
D03*
X21900Y23450D02*
D03*
X25900D02*
D03*
X7650Y22450D02*
D03*
Y23450D02*
D03*
X4650D02*
D03*
Y22450D02*
D03*
X5650D02*
D03*
Y23450D02*
D03*
X6650Y22450D02*
D03*
X2650D02*
D03*
Y23450D02*
D03*
X3650Y22450D02*
D03*
X6650Y23450D02*
D03*
X3650D02*
D03*
X21600Y12500D02*
D03*
Y11500D02*
D03*
Y10500D02*
D03*
Y13500D02*
D03*
Y14500D02*
D03*
Y19800D02*
D03*
Y18800D02*
D03*
Y20800D02*
D03*
X13650Y23450D02*
D03*
X11650Y22450D02*
D03*
X14650D02*
D03*
Y23450D02*
D03*
X11650D02*
D03*
X12650Y22450D02*
D03*
X13650D02*
D03*
X10650Y23450D02*
D03*
X12650D02*
D03*
X10650Y22450D02*
D03*
X32050D02*
D03*
X31050D02*
D03*
Y23450D02*
D03*
X33050D02*
D03*
Y22450D02*
D03*
X32050Y23450D02*
D03*
X21600Y7150D02*
D03*
Y6150D02*
D03*
Y8150D02*
D03*
X15150Y2350D02*
D03*
X16150Y1350D02*
D03*
Y2350D02*
D03*
X14150D02*
D03*
Y1350D02*
D03*
X15150D02*
D03*
X3750Y2350D02*
D03*
X4750Y1350D02*
D03*
Y2350D02*
D03*
X2750D02*
D03*
Y1350D02*
D03*
X3750D02*
D03*
X10450Y2350D02*
D03*
X8450Y1350D02*
D03*
X11450D02*
D03*
Y2350D02*
D03*
X8450D02*
D03*
X9450Y1350D02*
D03*
X10450D02*
D03*
X7450Y2350D02*
D03*
X9450D02*
D03*
X7450Y1350D02*
D03*
D48*
X32900Y20800D02*
D03*
X31900D02*
D03*
X30900D02*
D03*
X29900D02*
D03*
X27900D02*
D03*
X28900D02*
D03*
D49*
X26900D02*
D03*
D50*
X37600Y11650D02*
D03*
D51*
Y13650D02*
D03*
D52*
X37900Y6250D02*
D03*
D53*
Y7250D02*
D03*
Y8250D02*
D03*
D54*
X23500Y1000D02*
D03*
X24500D02*
D03*
X21500D02*
D03*
X22500D02*
D03*
X24500Y4000D02*
D03*
X23500D02*
D03*
X22500D02*
D03*
D55*
X21500D02*
D03*
D56*
X37990Y19375D02*
D03*
Y16225D02*
D03*
D57*
Y18587D02*
D03*
Y17800D02*
D03*
Y17013D02*
D03*
D58*
X18929Y19950D02*
D03*
X17929D02*
D03*
X18929Y18950D02*
D03*
X17929D02*
D03*
X18929Y17950D02*
D03*
X17929D02*
D03*
Y16950D02*
D03*
X18929Y15950D02*
D03*
X17929D02*
D03*
X18929Y14950D02*
D03*
X17929D02*
D03*
X18929Y13950D02*
D03*
X17929D02*
D03*
X18929Y12950D02*
D03*
X17929D02*
D03*
X18929Y11950D02*
D03*
X17929D02*
D03*
X18929Y10946D02*
D03*
X17929Y10954D02*
D03*
Y9950D02*
D03*
X18929Y8950D02*
D03*
X17929D02*
D03*
X18929Y7950D02*
D03*
X17929D02*
D03*
X18929Y7009D02*
D03*
X17929Y6950D02*
D03*
X18929Y5950D02*
D03*
Y4950D02*
D03*
X17929D02*
D03*
X929Y12950D02*
D03*
X1929D02*
D03*
X929Y13950D02*
D03*
X1929D02*
D03*
X929Y4950D02*
D03*
X1929D02*
D03*
X929Y5950D02*
D03*
X1929D02*
D03*
X929Y6950D02*
D03*
X1929D02*
D03*
X929Y7950D02*
D03*
X1929D02*
D03*
X929Y8950D02*
D03*
X1929D02*
D03*
Y9950D02*
D03*
X929Y10950D02*
D03*
X1929D02*
D03*
X929Y11950D02*
D03*
X1929D02*
D03*
Y19950D02*
D03*
X929D02*
D03*
X1929Y18950D02*
D03*
X929D02*
D03*
X1929Y17950D02*
D03*
X929D02*
D03*
Y16950D02*
D03*
Y15950D02*
D03*
Y14946D02*
D03*
X1929Y15942D02*
D03*
Y14950D02*
D03*
Y16950D02*
D03*
X929Y9950D02*
D03*
X17929Y5950D02*
D03*
X18929Y9950D02*
D03*
Y16950D02*
D03*
D59*
X16929Y5950D02*
D03*
Y4950D02*
D03*
X15929Y5950D02*
D03*
Y4950D02*
D03*
X14929Y5950D02*
D03*
X13929D02*
D03*
Y4950D02*
D03*
X12929D02*
D03*
X11929Y5950D02*
D03*
Y4950D02*
D03*
X10929Y5950D02*
D03*
Y4950D02*
D03*
X9929Y5950D02*
D03*
Y4950D02*
D03*
X8929Y5950D02*
D03*
Y4950D02*
D03*
X7929Y5950D02*
D03*
Y4950D02*
D03*
X6929Y5950D02*
D03*
X5929D02*
D03*
Y4950D02*
D03*
X4929Y5950D02*
D03*
X3929D02*
D03*
Y4950D02*
D03*
X2929Y5950D02*
D03*
Y4950D02*
D03*
X16929Y19950D02*
D03*
Y18950D02*
D03*
X15929Y19950D02*
D03*
Y18950D02*
D03*
X14929Y19950D02*
D03*
Y18950D02*
D03*
X13929Y19950D02*
D03*
Y18950D02*
D03*
X12929D02*
D03*
X11929Y19950D02*
D03*
X11921Y18950D02*
D03*
X10929Y19950D02*
D03*
X9929D02*
D03*
Y18950D02*
D03*
X8929Y19950D02*
D03*
X8961Y18950D02*
D03*
X7929Y19950D02*
D03*
X7906Y18950D02*
D03*
X6929Y19950D02*
D03*
X6941Y18950D02*
D03*
X5929Y19950D02*
D03*
X5953Y18950D02*
D03*
X4929Y19950D02*
D03*
X4925Y18950D02*
D03*
X3929Y19950D02*
D03*
Y18950D02*
D03*
X2929Y19950D02*
D03*
X10929Y18950D02*
D03*
X14980Y4926D02*
D03*
X4929Y4930D02*
D03*
X6929Y4950D02*
D03*
X12929Y5950D02*
D03*
Y19950D02*
D03*
X2925Y18950D02*
D03*
D60*
X35896Y21554D02*
D03*
X28900Y17400D02*
D03*
X24350Y13887D02*
D03*
X32600Y11250D02*
D03*
X35612Y8862D02*
D03*
D61*
X38189Y1181D02*
D03*
Y23622D02*
D03*
X1181Y1181D02*
D03*
Y23622D02*
D03*
D62*
X34096Y7750D02*
D03*
X32404D02*
D03*
D63*
X32400Y17550D02*
D03*
X26150D02*
D03*
D64*
X32359Y13887D02*
D03*
X33359D02*
D03*
X31359D02*
D03*
X25109D02*
D03*
X27109D02*
D03*
X26109D02*
D03*
D65*
X33150Y11345D02*
D03*
X33650D02*
D03*
X34150D02*
D03*
X34650D02*
D03*
X33150Y9255D02*
D03*
X33650D02*
D03*
X34150D02*
D03*
X34650D02*
D03*
M02*
