G04*
G04 #@! TF.GenerationSoftware,Altium Limited,Altium Designer,18.1.4 (159)*
G04*
G04 Layer_Color=128*
%FSLAX24Y24*%
%MOIN*%
G70*
G01*
G75*
%ADD19R,0.0110X0.0295*%
%ADD20R,0.0197X0.0118*%
%ADD21R,0.0118X0.0197*%
%ADD62R,0.0925X0.0610*%
%ADD63R,0.4134X0.4724*%
%ADD64R,0.0413X0.0827*%
%ADD65O,0.0236X0.0866*%
D19*
X14797Y6696D02*
D03*
X14600D02*
D03*
X14403D02*
D03*
X14206D02*
D03*
Y7188D02*
D03*
X14403D02*
D03*
X14600D02*
D03*
X14797D02*
D03*
D20*
X27626Y9150D02*
D03*
X27350D02*
D03*
X27262Y10400D02*
D03*
X27538D02*
D03*
X25712D02*
D03*
X25988D02*
D03*
X23312Y15850D02*
D03*
X23588D02*
D03*
X29512D02*
D03*
X29788D02*
D03*
X33538Y12210D02*
D03*
X33262D02*
D03*
X31762Y12210D02*
D03*
X32038D02*
D03*
D21*
X32600Y10750D02*
D03*
Y10474D02*
D03*
D62*
X34096Y7750D02*
D03*
X32404D02*
D03*
D63*
X32400Y17550D02*
D03*
X26150D02*
D03*
D64*
X32359Y13887D02*
D03*
X33359D02*
D03*
X31359D02*
D03*
X25109D02*
D03*
X27109D02*
D03*
X26109D02*
D03*
D65*
X33150Y11345D02*
D03*
X33650D02*
D03*
X34150D02*
D03*
X34650D02*
D03*
X33150Y9255D02*
D03*
X33650D02*
D03*
X34150D02*
D03*
X34650D02*
D03*
M02*
