G04*
G04 #@! TF.GenerationSoftware,Altium Limited,Altium Designer,18.1.4 (159)*
G04*
G04 Layer_Color=16711935*
%FSLAX24Y24*%
%MOIN*%
G70*
G01*
G75*
%ADD24R,0.0277X0.0480*%
%ADD25R,0.0380X0.0380*%
%ADD27C,0.0780*%
%ADD28R,0.0780X0.0780*%
%ADD29R,0.0980X0.0980*%
%ADD30C,0.0980*%
%ADD31R,0.0780X0.0780*%
G04:AMPARAMS|DCode=32|XSize=67.1mil|YSize=47.4mil|CornerRadius=13.8mil|HoleSize=0mil|Usage=FLASHONLY|Rotation=90.000|XOffset=0mil|YOffset=0mil|HoleType=Round|Shape=RoundedRectangle|*
%AMROUNDEDRECTD32*
21,1,0.0671,0.0197,0,0,90.0*
21,1,0.0394,0.0474,0,0,90.0*
1,1,0.0277,0.0098,0.0197*
1,1,0.0277,0.0098,-0.0197*
1,1,0.0277,-0.0098,-0.0197*
1,1,0.0277,-0.0098,0.0197*
%
%ADD32ROUNDEDRECTD32*%
%ADD33O,0.0907X0.0552*%
%ADD34C,0.0580*%
%ADD35C,0.1680*%
%ADD49R,0.1005X0.0690*%
%ADD50R,0.4214X0.4804*%
%ADD51R,0.0493X0.0907*%
%ADD52O,0.0316X0.0946*%
D24*
X14930Y7600D02*
D03*
Y6900D02*
D03*
X14615Y7600D02*
D03*
Y6900D02*
D03*
X14300Y7600D02*
D03*
Y6900D02*
D03*
X13985Y7600D02*
D03*
Y6900D02*
D03*
D25*
X22900Y15850D02*
D03*
X23450D02*
D03*
X29100D02*
D03*
X29650D02*
D03*
X34650Y12200D02*
D03*
X34100D02*
D03*
X33125D02*
D03*
X32575D02*
D03*
X31050D02*
D03*
X31600D02*
D03*
X27950Y10400D02*
D03*
X27400D02*
D03*
X26400D02*
D03*
X25850D02*
D03*
X27400Y8700D02*
D03*
X27950D02*
D03*
D27*
X7600Y1400D02*
D03*
X9600Y2400D02*
D03*
X7600D02*
D03*
X10600Y1400D02*
D03*
X9600D02*
D03*
X8600Y2400D02*
D03*
X11600D02*
D03*
Y1400D02*
D03*
X8600D02*
D03*
X10600Y2400D02*
D03*
X21600Y18200D02*
D03*
Y19200D02*
D03*
X22600D02*
D03*
Y17200D02*
D03*
X21600D02*
D03*
X22600Y18200D02*
D03*
X21600Y13300D02*
D03*
X22600Y11300D02*
D03*
Y14300D02*
D03*
X21600D02*
D03*
Y11300D02*
D03*
X22600Y12300D02*
D03*
Y13300D02*
D03*
X21600Y10300D02*
D03*
Y12300D02*
D03*
X22600Y10300D02*
D03*
X20900Y22450D02*
D03*
Y23450D02*
D03*
X21900Y22450D02*
D03*
X23900Y23450D02*
D03*
X27900D02*
D03*
X24900Y22450D02*
D03*
Y23450D02*
D03*
X25900Y22450D02*
D03*
X22900D02*
D03*
Y23450D02*
D03*
X23900Y22450D02*
D03*
X27900D02*
D03*
X26900Y23450D02*
D03*
Y22450D02*
D03*
X21900Y23450D02*
D03*
X25900D02*
D03*
X28900Y20450D02*
D03*
X27900D02*
D03*
X29900D02*
D03*
X30900D02*
D03*
X31900D02*
D03*
X32900D02*
D03*
X21600Y7150D02*
D03*
Y6150D02*
D03*
Y8150D02*
D03*
X16650Y23450D02*
D03*
X14650Y22450D02*
D03*
X17650D02*
D03*
Y23450D02*
D03*
X14650D02*
D03*
X15650Y22450D02*
D03*
X16650D02*
D03*
X13650Y23450D02*
D03*
X15650D02*
D03*
X13650Y22450D02*
D03*
X37900Y7250D02*
D03*
Y8250D02*
D03*
X22500Y4000D02*
D03*
X23500D02*
D03*
X24500D02*
D03*
X22500Y1000D02*
D03*
X21500D02*
D03*
X24500D02*
D03*
X23500D02*
D03*
X2929Y18950D02*
D03*
X12929Y19950D02*
D03*
X18929Y16950D02*
D03*
Y9950D02*
D03*
X17929Y5950D02*
D03*
X929Y9950D02*
D03*
X1929Y16950D02*
D03*
X12929Y5950D02*
D03*
X6929Y4950D02*
D03*
X4929D02*
D03*
X14929Y4926D02*
D03*
X10929Y18950D02*
D03*
X1929Y14950D02*
D03*
Y15950D02*
D03*
X929Y14950D02*
D03*
Y15950D02*
D03*
Y16950D02*
D03*
Y17950D02*
D03*
X1929D02*
D03*
X929Y18950D02*
D03*
X1929D02*
D03*
X929Y19950D02*
D03*
X1929D02*
D03*
X2929D02*
D03*
X3929Y18950D02*
D03*
Y19950D02*
D03*
X4929Y18950D02*
D03*
Y19950D02*
D03*
X5929Y18950D02*
D03*
Y19950D02*
D03*
X6929Y18950D02*
D03*
Y19950D02*
D03*
X7929Y18950D02*
D03*
Y19950D02*
D03*
X8929Y18950D02*
D03*
Y19950D02*
D03*
X9929Y18950D02*
D03*
Y19950D02*
D03*
X10929D02*
D03*
X11929Y18950D02*
D03*
Y19950D02*
D03*
X12929Y18950D02*
D03*
X13929D02*
D03*
Y19950D02*
D03*
X14929Y18950D02*
D03*
Y19950D02*
D03*
X15929Y18950D02*
D03*
Y19950D02*
D03*
X16929Y18950D02*
D03*
Y19950D02*
D03*
X1929Y11950D02*
D03*
X929D02*
D03*
X1929Y10950D02*
D03*
X929D02*
D03*
X1929Y9950D02*
D03*
Y8950D02*
D03*
X929D02*
D03*
X1929Y7950D02*
D03*
X929D02*
D03*
X1929Y6950D02*
D03*
X929D02*
D03*
X1929Y5950D02*
D03*
X929D02*
D03*
X1929Y4950D02*
D03*
X929D02*
D03*
X2929D02*
D03*
Y5950D02*
D03*
X3929Y4950D02*
D03*
Y5950D02*
D03*
X4929D02*
D03*
X5929Y4950D02*
D03*
Y5950D02*
D03*
X6929D02*
D03*
X7929Y4950D02*
D03*
Y5950D02*
D03*
X8929Y4950D02*
D03*
Y5950D02*
D03*
X9929Y4950D02*
D03*
Y5950D02*
D03*
X10929Y4950D02*
D03*
Y5950D02*
D03*
X11929Y4950D02*
D03*
Y5950D02*
D03*
X12929Y4950D02*
D03*
X13929D02*
D03*
Y5950D02*
D03*
X14929D02*
D03*
X1929Y13950D02*
D03*
X929D02*
D03*
X1929Y12950D02*
D03*
X929D02*
D03*
X15929Y4950D02*
D03*
Y5950D02*
D03*
X16929Y4950D02*
D03*
Y5950D02*
D03*
X17929Y4950D02*
D03*
X18929D02*
D03*
Y5950D02*
D03*
X17929Y6950D02*
D03*
X18929D02*
D03*
X17929Y7950D02*
D03*
X18929D02*
D03*
X17929Y8950D02*
D03*
X18929D02*
D03*
X17929Y9950D02*
D03*
Y10950D02*
D03*
X18929D02*
D03*
X17929Y11950D02*
D03*
X18929D02*
D03*
X17929Y12950D02*
D03*
X18929D02*
D03*
X17929Y13950D02*
D03*
X18929D02*
D03*
X17929Y14950D02*
D03*
X18929D02*
D03*
X17929Y15950D02*
D03*
X18929D02*
D03*
X17929Y16950D02*
D03*
Y17950D02*
D03*
X18929D02*
D03*
X17929Y18950D02*
D03*
X18929D02*
D03*
X17929Y19950D02*
D03*
X18929D02*
D03*
X25864Y3517D02*
D03*
Y840D02*
D03*
X27636D02*
D03*
X5500Y23450D02*
D03*
X6500Y22450D02*
D03*
Y23450D02*
D03*
X4500D02*
D03*
Y22450D02*
D03*
X5500D02*
D03*
X9850Y23450D02*
D03*
X10850Y22450D02*
D03*
Y23450D02*
D03*
X8850D02*
D03*
Y22450D02*
D03*
X9850D02*
D03*
X32050D02*
D03*
X31050D02*
D03*
Y23450D02*
D03*
X33050D02*
D03*
Y22450D02*
D03*
X32050Y23450D02*
D03*
X32136Y840D02*
D03*
X30364D02*
D03*
Y3517D02*
D03*
X36636Y840D02*
D03*
X34864D02*
D03*
Y3517D02*
D03*
X3750Y2350D02*
D03*
X4750Y1350D02*
D03*
Y2350D02*
D03*
X2750D02*
D03*
Y1350D02*
D03*
X3750D02*
D03*
X15150Y2350D02*
D03*
X16150Y1350D02*
D03*
Y2350D02*
D03*
X14150D02*
D03*
Y1350D02*
D03*
X15150D02*
D03*
D28*
X26900Y20450D02*
D03*
X21500Y4000D02*
D03*
D29*
X37689Y11650D02*
D03*
D30*
Y13650D02*
D03*
D31*
X37900Y6250D02*
D03*
X27636Y3517D02*
D03*
X32136D02*
D03*
X36636D02*
D03*
D32*
X37990Y17013D02*
D03*
Y17800D02*
D03*
Y18587D02*
D03*
D33*
Y16225D02*
D03*
Y19375D02*
D03*
D34*
X24650Y9100D02*
D03*
X20590Y21750D02*
D03*
X35170Y12080D02*
D03*
X25500Y9790D02*
D03*
X26150Y11120D02*
D03*
X19850Y14310D02*
D03*
X27670Y13160D02*
D03*
X27250Y12210D02*
D03*
X16150Y24390D02*
D03*
X20490Y17880D02*
D03*
X17020Y14250D02*
D03*
X5020Y10890D02*
D03*
X15429Y11449D02*
D03*
X20650Y11900D02*
D03*
X7530Y9320D02*
D03*
X14060Y13350D02*
D03*
X18350Y22950D02*
D03*
X13380Y11530D02*
D03*
Y7420D02*
D03*
X6220Y8920D02*
D03*
X24530Y13750D02*
D03*
X22850Y7290D02*
D03*
X35760Y7860D02*
D03*
D35*
X1181Y23622D02*
D03*
Y1181D02*
D03*
X38189D02*
D03*
Y23622D02*
D03*
D49*
X34096Y7400D02*
D03*
X32404D02*
D03*
D50*
X32400Y17550D02*
D03*
X26150D02*
D03*
D51*
X32359Y13887D02*
D03*
X33359D02*
D03*
X31359D02*
D03*
X25109D02*
D03*
X27109D02*
D03*
X26109D02*
D03*
D52*
X31950Y10995D02*
D03*
X32450D02*
D03*
X32950D02*
D03*
X33450D02*
D03*
X31950Y8905D02*
D03*
X32450D02*
D03*
X32950D02*
D03*
X33450D02*
D03*
M02*
