G04*
G04 #@! TF.GenerationSoftware,Altium Limited,Altium Designer,18.1.4 (159)*
G04*
G04 Layer_Physical_Order=1*
G04 Layer_Color=255*
%FSLAX24Y24*%
%MOIN*%
G70*
G01*
G75*
%ADD11C,0.0100*%
%ADD16O,0.1181X0.0512*%
%ADD17R,0.1181X0.0512*%
%ADD18R,0.1181X0.1969*%
%ADD19R,0.0110X0.0295*%
%ADD20R,0.0197X0.0118*%
%ADD21R,0.0118X0.0197*%
%ADD45R,0.0748X0.0748*%
%ADD46C,0.0748*%
%ADD47C,0.0709*%
%ADD48C,0.0591*%
%ADD49R,0.0591X0.0591*%
%ADD50R,0.0984X0.0984*%
%ADD51C,0.0984*%
%ADD52R,0.0472X0.0472*%
%ADD53C,0.0472*%
%ADD54C,0.0600*%
%ADD55R,0.0600X0.0600*%
%ADD56O,0.0827X0.0472*%
G04:AMPARAMS|DCode=57|XSize=59.1mil|YSize=39.4mil|CornerRadius=9.8mil|HoleSize=0mil|Usage=FLASHONLY|Rotation=90.000|XOffset=0mil|YOffset=0mil|HoleType=Round|Shape=RoundedRectangle|*
%AMROUNDEDRECTD57*
21,1,0.0591,0.0197,0,0,90.0*
21,1,0.0394,0.0394,0,0,90.0*
1,1,0.0197,0.0098,0.0197*
1,1,0.0197,0.0098,-0.0197*
1,1,0.0197,-0.0098,-0.0197*
1,1,0.0197,-0.0098,0.0197*
%
%ADD57ROUNDEDRECTD57*%
%ADD58O,0.0660X0.0590*%
%ADD59O,0.0590X0.0660*%
%ADD60C,0.0500*%
%ADD61C,0.1575*%
G36*
X38692Y24812D02*
X38874Y24736D01*
X39037Y24627D01*
X39177Y24487D01*
X39286Y24324D01*
X39362Y24142D01*
X39400Y23948D01*
Y23850D01*
Y950D01*
Y852D01*
X39362Y658D01*
X39286Y476D01*
X39177Y313D01*
X39037Y173D01*
X38874Y64D01*
X38692Y-12D01*
X38498Y-50D01*
X852D01*
X658Y-12D01*
X476Y64D01*
X313Y173D01*
X173Y313D01*
X64Y476D01*
X-12Y658D01*
X-50Y852D01*
Y950D01*
Y23850D01*
Y23948D01*
X-12Y24142D01*
X64Y24324D01*
X173Y24487D01*
X313Y24627D01*
X476Y24736D01*
X658Y24812D01*
X852Y24850D01*
X38498D01*
X38692Y24812D01*
D02*
G37*
%LPC*%
G36*
X38189Y24614D02*
X37995Y24595D01*
X37809Y24539D01*
X37638Y24447D01*
X37487Y24324D01*
X37364Y24173D01*
X37272Y24002D01*
X37216Y23816D01*
X37197Y23622D01*
X37216Y23428D01*
X37272Y23242D01*
X37364Y23071D01*
X37487Y22920D01*
X37638Y22797D01*
X37809Y22705D01*
X37995Y22649D01*
X38189Y22630D01*
X38383Y22649D01*
X38569Y22705D01*
X38740Y22797D01*
X38891Y22920D01*
X39014Y23071D01*
X39106Y23242D01*
X39162Y23428D01*
X39181Y23622D01*
X39162Y23816D01*
X39106Y24002D01*
X39014Y24173D01*
X38891Y24324D01*
X38740Y24447D01*
X38569Y24539D01*
X38383Y24595D01*
X38189Y24614D01*
D02*
G37*
G36*
X1181D02*
X988Y24595D01*
X801Y24539D01*
X630Y24447D01*
X480Y24324D01*
X356Y24173D01*
X264Y24002D01*
X208Y23816D01*
X189Y23622D01*
X208Y23428D01*
X264Y23242D01*
X356Y23071D01*
X480Y22920D01*
X630Y22797D01*
X801Y22705D01*
X988Y22649D01*
X1181Y22630D01*
X1375Y22649D01*
X1561Y22705D01*
X1732Y22797D01*
X1883Y22920D01*
X2006Y23071D01*
X2098Y23242D01*
X2147Y23405D01*
X2198Y23401D01*
X2207Y23331D01*
X2224Y23291D01*
X2214Y23276D01*
X2214Y23275D01*
X2214Y23275D01*
X2206Y23237D01*
X2198Y23198D01*
X2198Y23198D01*
X2198Y23197D01*
X2206Y23158D01*
X2213Y23120D01*
X2213Y23119D01*
X2214Y23119D01*
X2235Y23086D01*
X2257Y23054D01*
X2291Y23019D01*
X2346Y22957D01*
X2351Y22950D01*
X2346Y22943D01*
X2291Y22881D01*
X2257Y22846D01*
X2235Y22814D01*
X2214Y22781D01*
X2213Y22781D01*
X2213Y22780D01*
X2206Y22742D01*
X2198Y22703D01*
X2198Y22702D01*
X2198Y22702D01*
X2206Y22663D01*
X2214Y22625D01*
X2214Y22625D01*
X2214Y22624D01*
X2224Y22609D01*
X2207Y22569D01*
X2198Y22500D01*
X2650D01*
Y22400D01*
X2174D01*
X2162Y22377D01*
X2143Y22343D01*
X2143Y22342D01*
X2143Y22342D01*
X2139Y22302D01*
X2135Y22263D01*
X2135Y22263D01*
X2135Y22263D01*
X2146Y22225D01*
X2157Y22187D01*
X2158Y22187D01*
X2158Y22186D01*
X2186Y22133D01*
X2253Y21998D01*
X2280Y21936D01*
X2287Y21916D01*
X2290Y21909D01*
Y20381D01*
X2245Y20358D01*
X2214Y20382D01*
X2093Y20432D01*
X1964Y20449D01*
X1894D01*
X1765Y20432D01*
X1645Y20382D01*
X1541Y20303D01*
X1462Y20200D01*
X1454Y20181D01*
X1404D01*
X1397Y20200D01*
X1317Y20303D01*
X1214Y20382D01*
X1093Y20432D01*
X964Y20449D01*
X894D01*
X765Y20432D01*
X645Y20382D01*
X541Y20303D01*
X462Y20200D01*
X412Y20079D01*
X395Y19950D01*
X412Y19821D01*
X462Y19700D01*
X541Y19597D01*
X645Y19518D01*
X742Y19477D01*
Y19423D01*
X645Y19382D01*
X541Y19303D01*
X462Y19200D01*
X412Y19079D01*
X395Y18950D01*
X412Y18821D01*
X462Y18700D01*
X541Y18597D01*
X645Y18518D01*
X742Y18477D01*
Y18423D01*
X645Y18382D01*
X541Y18303D01*
X462Y18200D01*
X412Y18079D01*
X395Y17950D01*
X412Y17821D01*
X462Y17700D01*
X541Y17597D01*
X645Y17518D01*
X742Y17477D01*
Y17423D01*
X645Y17382D01*
X541Y17303D01*
X462Y17200D01*
X412Y17079D01*
X395Y16950D01*
X412Y16821D01*
X462Y16700D01*
X541Y16597D01*
X645Y16518D01*
X742Y16477D01*
Y16423D01*
X645Y16382D01*
X541Y16303D01*
X462Y16200D01*
X412Y16079D01*
X395Y15950D01*
X412Y15821D01*
X462Y15700D01*
X541Y15597D01*
X645Y15518D01*
X749Y15475D01*
Y15422D01*
X645Y15378D01*
X541Y15299D01*
X462Y15196D01*
X412Y15075D01*
X395Y14946D01*
X412Y14817D01*
X462Y14696D01*
X541Y14593D01*
X645Y14514D01*
X738Y14475D01*
Y14421D01*
X645Y14382D01*
X541Y14303D01*
X462Y14200D01*
X412Y14079D01*
X395Y13950D01*
X412Y13821D01*
X462Y13700D01*
X541Y13597D01*
X645Y13518D01*
X742Y13477D01*
Y13423D01*
X645Y13382D01*
X541Y13303D01*
X462Y13200D01*
X412Y13079D01*
X395Y12950D01*
X412Y12821D01*
X462Y12700D01*
X541Y12597D01*
X645Y12518D01*
X742Y12477D01*
Y12423D01*
X645Y12382D01*
X541Y12303D01*
X462Y12200D01*
X412Y12079D01*
X395Y11950D01*
X412Y11821D01*
X462Y11700D01*
X541Y11597D01*
X645Y11518D01*
X742Y11477D01*
Y11423D01*
X645Y11382D01*
X541Y11303D01*
X462Y11200D01*
X412Y11079D01*
X395Y10950D01*
X412Y10821D01*
X462Y10700D01*
X541Y10597D01*
X645Y10518D01*
X742Y10477D01*
Y10423D01*
X645Y10382D01*
X541Y10303D01*
X462Y10200D01*
X412Y10079D01*
X395Y9950D01*
X412Y9821D01*
X462Y9700D01*
X541Y9597D01*
X645Y9518D01*
X742Y9477D01*
Y9423D01*
X645Y9382D01*
X541Y9303D01*
X462Y9200D01*
X412Y9079D01*
X395Y8950D01*
X412Y8821D01*
X462Y8700D01*
X541Y8597D01*
X645Y8518D01*
X742Y8477D01*
Y8423D01*
X645Y8382D01*
X541Y8303D01*
X462Y8200D01*
X412Y8079D01*
X395Y7950D01*
X412Y7821D01*
X462Y7700D01*
X541Y7597D01*
X645Y7518D01*
X742Y7477D01*
Y7423D01*
X645Y7382D01*
X541Y7303D01*
X462Y7200D01*
X412Y7079D01*
X395Y6950D01*
X412Y6821D01*
X462Y6700D01*
X541Y6597D01*
X645Y6518D01*
X742Y6477D01*
Y6423D01*
X645Y6382D01*
X541Y6303D01*
X462Y6200D01*
X412Y6079D01*
X395Y5950D01*
X412Y5821D01*
X462Y5700D01*
X541Y5597D01*
X645Y5518D01*
X742Y5477D01*
Y5423D01*
X645Y5382D01*
X541Y5303D01*
X462Y5200D01*
X412Y5079D01*
X395Y4950D01*
X412Y4821D01*
X462Y4700D01*
X541Y4597D01*
X645Y4518D01*
X765Y4468D01*
X894Y4451D01*
X964D01*
X1093Y4468D01*
X1214Y4518D01*
X1317Y4597D01*
X1397Y4700D01*
X1404Y4719D01*
X1454D01*
X1462Y4700D01*
X1541Y4597D01*
X1645Y4518D01*
X1765Y4468D01*
X1894Y4451D01*
X1901D01*
X1925Y4407D01*
X1915Y4391D01*
X1895Y4294D01*
Y1937D01*
X1845Y1914D01*
X1732Y2006D01*
X1561Y2098D01*
X1375Y2154D01*
X1181Y2173D01*
X988Y2154D01*
X801Y2098D01*
X630Y2006D01*
X480Y1883D01*
X356Y1732D01*
X264Y1561D01*
X208Y1375D01*
X189Y1181D01*
X208Y988D01*
X264Y801D01*
X356Y630D01*
X480Y480D01*
X630Y356D01*
X801Y264D01*
X988Y208D01*
X1181Y189D01*
X1375Y208D01*
X1561Y264D01*
X1732Y356D01*
X1883Y480D01*
X2006Y630D01*
X2098Y801D01*
X2105Y824D01*
X2153Y836D01*
X2620Y370D01*
X2702Y315D01*
X2800Y295D01*
X6650D01*
X6748Y315D01*
X6830Y370D01*
X7228Y768D01*
X7231Y769D01*
X7243Y773D01*
X7262Y778D01*
X7288Y783D01*
X7317Y787D01*
X7400Y792D01*
X7448Y792D01*
X7450Y792D01*
X7452Y792D01*
X7500Y792D01*
X7583Y787D01*
X7612Y783D01*
X7638Y778D01*
X7657Y773D01*
X7669Y769D01*
X7672Y768D01*
X8070Y370D01*
X8152Y314D01*
X8250Y295D01*
X8500D01*
X21050Y295D01*
X21148Y315D01*
X21230Y370D01*
X21339Y479D01*
X21346Y481D01*
X21359Y485D01*
X21377Y489D01*
X21397Y492D01*
X21461Y496D01*
X21498Y496D01*
X21537Y504D01*
X21575Y512D01*
X21576Y512D01*
X21576Y512D01*
X21609Y534D01*
X21641Y556D01*
X21642Y556D01*
X21642Y557D01*
X21664Y590D01*
X21668Y595D01*
X21674Y594D01*
X21713Y586D01*
X21714Y586D01*
X21714Y586D01*
X21753Y594D01*
X21791Y601D01*
X21792Y601D01*
X21792Y602D01*
X21825Y623D01*
X21857Y645D01*
X21884Y671D01*
X21932Y713D01*
X21949Y726D01*
X21964Y736D01*
X21976Y742D01*
X21982Y745D01*
X22018D01*
X22024Y742D01*
X22036Y736D01*
X22051Y726D01*
X22068Y713D01*
X22116Y671D01*
X22143Y645D01*
X22175Y623D01*
X22208Y602D01*
X22208Y601D01*
X22209Y601D01*
X22247Y594D01*
X22286Y586D01*
X22287Y586D01*
X22287Y586D01*
X22326Y594D01*
X22364Y602D01*
X22364Y602D01*
X22365Y602D01*
X22384Y615D01*
X22396Y610D01*
X22450Y603D01*
Y1000D01*
Y1397D01*
X22396Y1390D01*
X22384Y1385D01*
X22365Y1398D01*
X22364Y1398D01*
X22364Y1398D01*
X22326Y1406D01*
X22287Y1414D01*
X22287Y1414D01*
X22286Y1414D01*
X22247Y1406D01*
X22209Y1399D01*
X22208Y1399D01*
X22208Y1398D01*
X22175Y1377D01*
X22143Y1355D01*
X22116Y1329D01*
X22068Y1287D01*
X22051Y1274D01*
X22036Y1264D01*
X22024Y1258D01*
X22018Y1255D01*
X21982D01*
X21976Y1258D01*
X21964Y1264D01*
X21949Y1274D01*
X21932Y1287D01*
X21884Y1329D01*
X21857Y1355D01*
X21825Y1377D01*
X21792Y1398D01*
X21792Y1399D01*
X21791Y1399D01*
X21753Y1406D01*
X21714Y1414D01*
X21714Y1414D01*
X21713Y1414D01*
X21674Y1406D01*
X21636Y1398D01*
X21636Y1398D01*
X21635Y1398D01*
X21616Y1385D01*
X21604Y1390D01*
X21550Y1397D01*
Y1000D01*
X21450D01*
Y1397D01*
X21396Y1390D01*
X21384Y1385D01*
X21365Y1398D01*
X21364Y1398D01*
X21364Y1398D01*
X21326Y1406D01*
X21287Y1414D01*
X21286Y1414D01*
X21286Y1414D01*
X21247Y1406D01*
X21209Y1399D01*
X21208Y1399D01*
X21208Y1398D01*
X21175Y1377D01*
X21143Y1355D01*
X21116Y1329D01*
X21068Y1287D01*
X21051Y1274D01*
X21036Y1264D01*
X21024Y1258D01*
X21018Y1255D01*
X17606D01*
X16732Y2128D01*
X16731Y2131D01*
X16727Y2143D01*
X16722Y2162D01*
X16717Y2188D01*
X16713Y2217D01*
X16708Y2300D01*
X16708Y2348D01*
X16700Y2386D01*
X16693Y2424D01*
X16692Y2425D01*
X16692Y2426D01*
X16670Y2458D01*
X16649Y2491D01*
X16648Y2491D01*
X16648Y2491D01*
X16642Y2495D01*
X16657Y2545D01*
X26973D01*
X27071Y2564D01*
X27153Y2620D01*
X27470Y2936D01*
X27474Y2938D01*
X27489Y2943D01*
X27510Y2949D01*
X27538Y2954D01*
X27570Y2958D01*
X27660Y2963D01*
X27706Y2963D01*
X27714Y2962D01*
X27864Y2982D01*
X28004Y3040D01*
X28124Y3132D01*
X28216Y3252D01*
X28273Y3391D01*
X28293Y3541D01*
X28273Y3691D01*
X28216Y3831D01*
X28124Y3951D01*
X28077Y3986D01*
X28093Y4033D01*
X28969D01*
X29012Y4015D01*
Y3591D01*
X29486D01*
X29960D01*
Y4015D01*
X30002Y4033D01*
X30387D01*
X30634Y3785D01*
X30636Y3781D01*
X30641Y3767D01*
X30647Y3745D01*
X30652Y3717D01*
X30656Y3685D01*
X30661Y3596D01*
X30661Y3549D01*
X30660Y3541D01*
X30680Y3391D01*
X30738Y3252D01*
X30830Y3132D01*
X30950Y3040D01*
X31089Y2982D01*
X31239Y2962D01*
X31389Y2982D01*
X31529Y3040D01*
X31649Y3132D01*
X31741Y3252D01*
X31798Y3391D01*
X31818Y3541D01*
X31798Y3691D01*
X31741Y3831D01*
X31649Y3951D01*
X31529Y4043D01*
X31389Y4100D01*
X31239Y4120D01*
X31231Y4119D01*
X31185Y4119D01*
X31095Y4125D01*
X31063Y4129D01*
X31035Y4134D01*
X31014Y4139D01*
X30999Y4144D01*
X30995Y4146D01*
X30792Y4349D01*
X30811Y4395D01*
X33550D01*
X34159Y3785D01*
X34161Y3781D01*
X34166Y3767D01*
X34172Y3745D01*
X34177Y3717D01*
X34181Y3685D01*
X34186Y3596D01*
X34186Y3549D01*
X34185Y3541D01*
X34205Y3391D01*
X34263Y3252D01*
X34355Y3132D01*
X34475Y3040D01*
X34614Y2982D01*
X34764Y2962D01*
X34914Y2982D01*
X35054Y3040D01*
X35174Y3132D01*
X35266Y3252D01*
X35323Y3391D01*
X35343Y3541D01*
X35323Y3691D01*
X35266Y3831D01*
X35174Y3951D01*
X35054Y4043D01*
X34914Y4100D01*
X34764Y4120D01*
X34756Y4119D01*
X34710Y4119D01*
X34620Y4125D01*
X34588Y4129D01*
X34560Y4134D01*
X34539Y4139D01*
X34524Y4144D01*
X34520Y4146D01*
X34017Y4649D01*
X34036Y4695D01*
X35144D01*
X35967Y3872D01*
X35974Y3837D01*
X35976Y3835D01*
X35976Y3833D01*
X35997Y3802D01*
X36018Y3770D01*
X36020Y3769D01*
X36021Y3767D01*
X36053Y3747D01*
X36062Y3741D01*
Y3591D01*
X36536D01*
X37010D01*
Y3599D01*
X37027Y3607D01*
X37038Y3619D01*
X37052Y3628D01*
X37065Y3648D01*
X37081Y3665D01*
X37087Y3681D01*
X37096Y3695D01*
X37100Y3718D01*
X37109Y3740D01*
X37108Y3753D01*
X39080Y5725D01*
X39135Y5808D01*
X39155Y5905D01*
Y6250D01*
X39135Y6348D01*
X39080Y6430D01*
X38349Y7162D01*
X38348Y7165D01*
X38345Y7175D01*
X38344Y7185D01*
X38340Y7226D01*
X38340Y7249D01*
X38342Y7299D01*
X38343Y7313D01*
X38345Y7325D01*
X38348Y7335D01*
X38349Y7338D01*
X39080Y8070D01*
X39135Y8152D01*
X39155Y8250D01*
Y10350D01*
X39135Y10448D01*
X39080Y10530D01*
X38292Y11319D01*
X38292Y11332D01*
X38284Y11355D01*
X38279Y11379D01*
X38270Y11392D01*
X38265Y11407D01*
X38249Y11425D01*
X38235Y11445D01*
X38222Y11454D01*
X38211Y11465D01*
X38192Y11474D01*
Y11600D01*
X37650D01*
Y11058D01*
X37776D01*
X37785Y11039D01*
X37796Y11028D01*
X37805Y11015D01*
X37825Y11001D01*
X37843Y10985D01*
X37858Y10980D01*
X37871Y10971D01*
X37895Y10966D01*
X37918Y10958D01*
X37931Y10958D01*
X38645Y10244D01*
Y8356D01*
X38346Y8057D01*
X38304Y8085D01*
X38325Y8136D01*
X38340Y8250D01*
X38325Y8364D01*
X38281Y8470D01*
X38211Y8561D01*
X38120Y8631D01*
X38014Y8675D01*
X37900Y8690D01*
X37786Y8675D01*
X37680Y8631D01*
X37589Y8561D01*
X37519Y8470D01*
X37475Y8364D01*
X37460Y8250D01*
X37475Y8136D01*
X37519Y8030D01*
X37589Y7939D01*
X37680Y7869D01*
X37786Y7825D01*
X37900Y7810D01*
X38014Y7825D01*
X38065Y7846D01*
X38093Y7804D01*
X37988Y7699D01*
X37985Y7698D01*
X37975Y7695D01*
X37965Y7694D01*
X37924Y7690D01*
X37900Y7690D01*
X37862Y7682D01*
X37824Y7675D01*
X37823Y7674D01*
X37822Y7674D01*
X37790Y7652D01*
X37758Y7630D01*
X37758Y7629D01*
X37757Y7629D01*
X37735Y7596D01*
X37714Y7564D01*
X37714Y7563D01*
X37713Y7562D01*
X37706Y7525D01*
X37660Y7490D01*
X37606Y7420D01*
X37572Y7338D01*
X37567Y7300D01*
X37900D01*
Y7200D01*
X37567D01*
X37572Y7162D01*
X37606Y7080D01*
X37660Y7010D01*
X37706Y6975D01*
X37712Y6942D01*
X37713Y6939D01*
X37714Y6936D01*
X37734Y6905D01*
X37754Y6874D01*
X37756Y6872D01*
X37758Y6870D01*
X37789Y6849D01*
X37818Y6828D01*
X37822Y6827D01*
X37824Y6825D01*
X37860Y6818D01*
X37896Y6810D01*
X37949Y6808D01*
X37963Y6807D01*
X37975Y6805D01*
X37985Y6802D01*
X37988Y6801D01*
X38057Y6732D01*
X38038Y6686D01*
X37464D01*
Y5814D01*
X38336D01*
Y6388D01*
X38382Y6407D01*
X38645Y6144D01*
Y6011D01*
X36748Y4114D01*
X36735Y4114D01*
X36712Y4106D01*
X36689Y4101D01*
X36676Y4092D01*
X36660Y4086D01*
X36643Y4070D01*
X36630Y4062D01*
X36605Y4055D01*
X36581Y4056D01*
X36570Y4058D01*
X36544Y4076D01*
X36516Y4097D01*
X36511Y4098D01*
X36506Y4101D01*
X36472Y4108D01*
X36448Y4114D01*
X36446Y4115D01*
X36443Y4117D01*
X35430Y5130D01*
X35348Y5185D01*
X35250Y5205D01*
X27186D01*
X25268Y7123D01*
X25185Y7178D01*
X25111Y7193D01*
Y7202D01*
X25067D01*
Y7495D01*
X25113Y7514D01*
X26058Y6570D01*
X26140Y6515D01*
X26238Y6495D01*
X30097D01*
Y5566D01*
X31678D01*
Y7934D01*
X31143D01*
Y11932D01*
X31956Y12745D01*
X33084D01*
Y12594D01*
X33518D01*
X33537Y12548D01*
X32704Y11714D01*
X32697Y11712D01*
X32686Y11710D01*
X32674Y11708D01*
X32628Y11704D01*
X32601Y11704D01*
X32600Y11704D01*
X32600Y11704D01*
X32483Y11688D01*
X32373Y11643D01*
X32279Y11571D01*
X32207Y11477D01*
X32162Y11367D01*
X32146Y11250D01*
X32162Y11133D01*
X32207Y11023D01*
X32279Y10929D01*
X32373Y10857D01*
X32483Y10812D01*
X32600Y10796D01*
X32717Y10812D01*
X32827Y10857D01*
X32921Y10929D01*
X32993Y11023D01*
X33038Y11133D01*
X33053Y11242D01*
X33054Y11246D01*
X33056Y11305D01*
X33057Y11321D01*
X33060Y11336D01*
X33062Y11347D01*
X33064Y11354D01*
X34055Y12345D01*
X34110Y12427D01*
X34130Y12525D01*
Y12594D01*
X34665D01*
Y13506D01*
X33084D01*
Y13255D01*
X31850D01*
X31752Y13235D01*
X31670Y13180D01*
X31459Y12969D01*
X31411Y12992D01*
X31412Y13000D01*
X30775D01*
Y12691D01*
X31060D01*
X31117Y12699D01*
X31141Y12651D01*
X30708Y12218D01*
X30652Y12135D01*
X30633Y12038D01*
Y7934D01*
X30097D01*
Y7005D01*
X26343D01*
X25386Y7962D01*
Y8159D01*
X25290D01*
X25268Y8192D01*
X25130Y8330D01*
X25048Y8385D01*
X24950Y8405D01*
X22600D01*
X22502Y8385D01*
X22420Y8330D01*
X22202Y8112D01*
X22157Y8135D01*
X22159Y8150D01*
X22140Y8295D01*
X22084Y8430D01*
X21995Y8545D01*
X21880Y8634D01*
X21745Y8690D01*
X21600Y8709D01*
X21455Y8690D01*
X21396Y8666D01*
X21355Y8693D01*
Y9894D01*
X21431Y9970D01*
X21455Y9960D01*
X21600Y9941D01*
X21745Y9960D01*
X21880Y10016D01*
X21995Y10105D01*
X22084Y10220D01*
X22140Y10355D01*
X22159Y10500D01*
X22140Y10645D01*
X22084Y10780D01*
X21995Y10895D01*
X21899Y10970D01*
X21895Y10978D01*
Y11022D01*
X21899Y11030D01*
X21995Y11105D01*
X22084Y11220D01*
X22140Y11355D01*
X22159Y11500D01*
X22140Y11645D01*
X22084Y11780D01*
X21995Y11895D01*
X21899Y11970D01*
X21895Y11978D01*
Y12022D01*
X21899Y12030D01*
X21995Y12105D01*
X22084Y12220D01*
X22140Y12355D01*
X22159Y12500D01*
X22140Y12645D01*
X22084Y12780D01*
X21995Y12895D01*
X21899Y12970D01*
X21895Y12978D01*
Y13022D01*
X21899Y13030D01*
X21995Y13105D01*
X22084Y13220D01*
X22140Y13355D01*
X22159Y13500D01*
X22140Y13645D01*
X22084Y13780D01*
X21995Y13895D01*
X21899Y13970D01*
X21895Y13978D01*
Y14022D01*
X21899Y14030D01*
X21995Y14105D01*
X21999Y14110D01*
X22031Y14141D01*
X22093Y14196D01*
X22116Y14214D01*
X22137Y14228D01*
X22154Y14238D01*
X22166Y14244D01*
X22169Y14245D01*
X24002D01*
X24019Y14195D01*
X23957Y14114D01*
X23912Y14004D01*
X23896Y13887D01*
X23912Y13769D01*
X23957Y13660D01*
X24024Y13572D01*
X24026Y13568D01*
X24038Y13556D01*
X24017Y13506D01*
X23585D01*
Y12594D01*
X25166D01*
Y13506D01*
X24683D01*
X24673Y13518D01*
X24671Y13566D01*
X24743Y13660D01*
X24788Y13769D01*
X24804Y13887D01*
X24788Y14004D01*
X24743Y14114D01*
X24681Y14195D01*
X24698Y14245D01*
X26200D01*
X26298Y14265D01*
X26380Y14320D01*
X28963Y16903D01*
X29099Y16991D01*
X29125Y17006D01*
X29126Y17007D01*
X29127Y17007D01*
X29130Y17009D01*
X29133Y17010D01*
X29138Y17015D01*
X29221Y17079D01*
X29293Y17173D01*
X29338Y17283D01*
X29354Y17400D01*
X29338Y17517D01*
X29293Y17627D01*
X29241Y17695D01*
X29265Y17745D01*
X30059D01*
X30076Y17729D01*
X30087Y17724D01*
X30097Y17717D01*
X30124Y17710D01*
X30150Y17700D01*
X30162Y17700D01*
X30174Y17697D01*
X30201Y17701D01*
X30229Y17702D01*
X30240Y17707D01*
X30252Y17708D01*
X30266Y17716D01*
X30298Y17703D01*
X30391Y17691D01*
X30454D01*
X30467Y17667D01*
X30470Y17664D01*
Y13436D01*
X30467Y13433D01*
X30454Y13409D01*
X30391D01*
X30298Y13397D01*
X30211Y13361D01*
X30194Y13348D01*
X30181Y13352D01*
X30169Y13351D01*
X30156Y13353D01*
X30129Y13348D01*
X30102Y13346D01*
X30091Y13340D01*
X30078Y13338D01*
X30055Y13323D01*
X30031Y13310D01*
X30026Y13305D01*
X28224D01*
X28219Y13310D01*
X28195Y13323D01*
X28172Y13338D01*
X28159Y13340D01*
X28148Y13346D01*
X28121Y13348D01*
X28094Y13353D01*
X28081Y13351D01*
X28069Y13352D01*
X28056Y13348D01*
X28039Y13361D01*
X27952Y13397D01*
X27859Y13409D01*
X27575D01*
Y13050D01*
Y12691D01*
X27859D01*
X27952Y12703D01*
X28039Y12739D01*
X28056Y12752D01*
X28069Y12748D01*
X28081Y12749D01*
X28094Y12747D01*
X28121Y12752D01*
X28148Y12754D01*
X28159Y12760D01*
X28172Y12762D01*
X28195Y12777D01*
X28219Y12790D01*
X28224Y12795D01*
X30026D01*
X30031Y12790D01*
X30055Y12777D01*
X30078Y12762D01*
X30091Y12760D01*
X30102Y12754D01*
X30129Y12752D01*
X30156Y12747D01*
X30169Y12749D01*
X30181Y12748D01*
X30194Y12752D01*
X30211Y12739D01*
X30298Y12703D01*
X30391Y12691D01*
X30675D01*
Y13050D01*
X30725D01*
Y13100D01*
X31412D01*
X31407Y13143D01*
X31371Y13229D01*
X31314Y13304D01*
X31239Y13361D01*
X31153Y13397D01*
X31060Y13409D01*
X30996D01*
X30984Y13433D01*
X30980Y13436D01*
Y17664D01*
X30984Y17667D01*
X30996Y17691D01*
X31060D01*
X31153Y17703D01*
X31239Y17739D01*
X31257Y17752D01*
X31269Y17748D01*
X31282Y17749D01*
X31294Y17747D01*
X31321Y17752D01*
X31348Y17754D01*
X31360Y17760D01*
X31372Y17762D01*
X31395Y17777D01*
X31419Y17790D01*
X31424Y17795D01*
X32245D01*
X32343Y17815D01*
X32426Y17870D01*
X33034Y18478D01*
X33084Y18458D01*
Y17594D01*
X34665D01*
Y18333D01*
X37598D01*
X37601Y18313D01*
X37631Y18240D01*
X37667Y18194D01*
X37631Y18147D01*
X37601Y18075D01*
X37591Y17997D01*
Y17603D01*
X37601Y17525D01*
X37631Y17453D01*
X37667Y17406D01*
X37631Y17360D01*
X37601Y17287D01*
X37591Y17209D01*
Y16816D01*
X37601Y16738D01*
X37631Y16665D01*
X37631Y16665D01*
X37618Y16617D01*
X37593Y16606D01*
X37502Y16536D01*
X37432Y16445D01*
X37388Y16339D01*
X37373Y16225D01*
X37388Y16111D01*
X37432Y16005D01*
X37502Y15914D01*
X37593Y15844D01*
X37699Y15800D01*
X37813Y15785D01*
X38167D01*
X38281Y15800D01*
X38387Y15844D01*
X38400Y15854D01*
X38445Y15832D01*
Y14856D01*
X37977Y14388D01*
X37975Y14387D01*
X37960Y14380D01*
X37936Y14373D01*
X37901Y14365D01*
X37862Y14359D01*
X37677Y14346D01*
X37604Y14346D01*
X37601Y14345D01*
X37600Y14345D01*
X37464Y14332D01*
X37334Y14293D01*
X37214Y14228D01*
X37108Y14142D01*
X37022Y14036D01*
X36957Y13916D01*
X36918Y13786D01*
X36905Y13650D01*
X36918Y13514D01*
X36957Y13384D01*
X37022Y13264D01*
X37108Y13158D01*
X37214Y13072D01*
X37334Y13007D01*
X37464Y12968D01*
X37600Y12955D01*
X37736Y12968D01*
X37866Y13007D01*
X37986Y13072D01*
X38092Y13158D01*
X38178Y13264D01*
X38243Y13384D01*
X38282Y13514D01*
X38295Y13650D01*
X38295Y13651D01*
X38296Y13654D01*
X38296Y13731D01*
X38298Y13795D01*
X38308Y13910D01*
X38315Y13951D01*
X38323Y13986D01*
X38330Y14010D01*
X38337Y14025D01*
X38338Y14027D01*
X38699Y14388D01*
X38745Y14369D01*
Y13156D01*
X37930Y12341D01*
X37917Y12341D01*
X37895Y12333D01*
X37871Y12328D01*
X37858Y12319D01*
X37842Y12313D01*
X37825Y12297D01*
X37805Y12284D01*
X37796Y12270D01*
X37784Y12259D01*
X37776Y12242D01*
X37650D01*
Y11700D01*
X38192D01*
Y11826D01*
X38209Y11834D01*
X38220Y11846D01*
X38234Y11855D01*
X38247Y11875D01*
X38263Y11892D01*
X38269Y11908D01*
X38278Y11921D01*
X38283Y11945D01*
X38291Y11967D01*
X38291Y11980D01*
X39180Y12870D01*
X39235Y12952D01*
X39255Y13050D01*
Y19300D01*
X39235Y19398D01*
X39180Y19480D01*
X36926Y21734D01*
X36844Y21789D01*
X36746Y21809D01*
X36298D01*
X36291Y21812D01*
X36282Y21818D01*
X36271Y21826D01*
X36236Y21856D01*
X36217Y21875D01*
X36185Y21896D01*
X36152Y21917D01*
X36151Y21918D01*
X36150Y21918D01*
X36112Y21925D01*
X36074Y21933D01*
X36073Y21933D01*
X36072Y21933D01*
X36034Y21925D01*
X35996Y21917D01*
X35995Y21917D01*
X35994Y21917D01*
X35967Y21898D01*
X35946Y21900D01*
Y21554D01*
Y21207D01*
X35966Y21210D01*
X35990Y21193D01*
X35994Y21192D01*
X35996Y21191D01*
X36032Y21183D01*
X36068Y21175D01*
X36071Y21176D01*
X36074Y21175D01*
X36110Y21182D01*
X36146Y21188D01*
X36149Y21190D01*
X36152Y21191D01*
X36183Y21211D01*
X36214Y21230D01*
X36256Y21270D01*
X36269Y21281D01*
X36282Y21290D01*
X36291Y21296D01*
X36298Y21299D01*
X36640D01*
X38079Y19861D01*
X38059Y19815D01*
X37813D01*
X37699Y19800D01*
X37593Y19756D01*
X37502Y19686D01*
X37432Y19595D01*
X37388Y19489D01*
X37373Y19375D01*
X37388Y19261D01*
X37432Y19155D01*
X37502Y19064D01*
X37593Y18994D01*
X37618Y18983D01*
X37631Y18935D01*
X37631Y18935D01*
X37601Y18862D01*
X37598Y18842D01*
X34412D01*
X34315Y18823D01*
X34232Y18768D01*
X33973Y18509D01*
X33970Y18507D01*
X33970Y18506D01*
X33968Y18506D01*
X33132D01*
X33112Y18556D01*
X35676Y21120D01*
X35731Y21202D01*
X35774Y21226D01*
X35804Y21213D01*
X35846Y21207D01*
Y21554D01*
Y21900D01*
X35804Y21895D01*
X35792Y21890D01*
X35750Y21918D01*
Y22102D01*
X36662Y23014D01*
X36859D01*
Y23289D01*
Y23886D01*
X36662D01*
X36030Y24518D01*
X35948Y24573D01*
X35850Y24593D01*
X13788D01*
X13690Y24573D01*
X13608Y24518D01*
X12983Y23893D01*
X12930Y23934D01*
X12795Y23990D01*
X12650Y24009D01*
X12505Y23990D01*
X12370Y23934D01*
X12255Y23845D01*
X12180Y23749D01*
X12172Y23745D01*
X12128D01*
X12120Y23749D01*
X12045Y23845D01*
X11930Y23934D01*
X11795Y23990D01*
X11650Y24009D01*
X11505Y23990D01*
X11370Y23934D01*
X11255Y23845D01*
X11180Y23749D01*
X11172Y23745D01*
X11128D01*
X11120Y23749D01*
X11045Y23845D01*
X10930Y23934D01*
X10795Y23990D01*
X10650Y24009D01*
X10505Y23990D01*
X10370Y23934D01*
X10255Y23845D01*
X10166Y23730D01*
X10110Y23595D01*
X10091Y23450D01*
X10110Y23305D01*
X10166Y23170D01*
X10255Y23055D01*
X10351Y22980D01*
X10355Y22972D01*
Y22928D01*
X10351Y22920D01*
X10255Y22845D01*
X10166Y22730D01*
X10110Y22595D01*
X10091Y22450D01*
X10110Y22305D01*
X10166Y22170D01*
X10255Y22055D01*
X10260Y22051D01*
X10291Y22019D01*
X10346Y21957D01*
X10364Y21934D01*
X10378Y21913D01*
X10388Y21896D01*
X10394Y21884D01*
X10395Y21881D01*
Y21031D01*
X10349Y21012D01*
X8230Y23130D01*
X8148Y23185D01*
X8144Y23193D01*
X8190Y23305D01*
X8209Y23450D01*
X8190Y23595D01*
X8134Y23730D01*
X8045Y23845D01*
X7930Y23934D01*
X7795Y23990D01*
X7650Y24009D01*
X7643Y24008D01*
X7600Y24008D01*
X7517Y24013D01*
X7488Y24017D01*
X7462Y24022D01*
X7443Y24027D01*
X7431Y24031D01*
X7428Y24032D01*
X7280Y24180D01*
X7198Y24235D01*
X7100Y24255D01*
X3573D01*
X3475Y24235D01*
X3392Y24180D01*
X3026Y23814D01*
X3014Y23797D01*
X2951Y23792D01*
X2879Y23847D01*
X2769Y23893D01*
X2700Y23902D01*
Y23450D01*
X2600D01*
Y23902D01*
X2531Y23893D01*
X2421Y23847D01*
X2326Y23774D01*
X2253Y23679D01*
X2222Y23603D01*
X2173Y23615D01*
X2173Y23622D01*
X2154Y23816D01*
X2098Y24002D01*
X2006Y24173D01*
X1883Y24324D01*
X1732Y24447D01*
X1561Y24539D01*
X1375Y24595D01*
X1181Y24614D01*
D02*
G37*
G36*
X27475Y13409D02*
X27190D01*
X27097Y13397D01*
X27011Y13361D01*
X26936Y13304D01*
X26879Y13229D01*
X26843Y13143D01*
X26838Y13100D01*
X27475D01*
Y13409D01*
D02*
G37*
G36*
Y13000D02*
X26838D01*
X26843Y12957D01*
X26879Y12871D01*
X26936Y12796D01*
X27011Y12739D01*
X27097Y12703D01*
X27190Y12691D01*
X27475D01*
Y13000D01*
D02*
G37*
G36*
X37550Y12242D02*
X37008D01*
Y11700D01*
X37550D01*
Y12242D01*
D02*
G37*
G36*
Y11600D02*
X37008D01*
Y11058D01*
X37550D01*
Y11600D01*
D02*
G37*
G36*
X35612Y9316D02*
X35495Y9301D01*
X35385Y9255D01*
X35291Y9183D01*
X35219Y9089D01*
X35174Y8980D01*
X35158Y8862D01*
X35174Y8745D01*
X35219Y8635D01*
X35286Y8548D01*
X35289Y8544D01*
X35329Y8501D01*
X35339Y8489D01*
X35348Y8476D01*
X35354Y8466D01*
X35357Y8460D01*
Y7934D01*
X34822D01*
Y5566D01*
X36403D01*
Y7934D01*
X35867D01*
Y8460D01*
X35870Y8466D01*
X35876Y8476D01*
X35884Y8487D01*
X35914Y8522D01*
X35933Y8541D01*
X35933Y8541D01*
X35933Y8541D01*
X36005Y8635D01*
X36051Y8745D01*
X36066Y8862D01*
X36051Y8980D01*
X36005Y9089D01*
X35933Y9183D01*
X35839Y9255D01*
X35730Y9301D01*
X35612Y9316D01*
D02*
G37*
G36*
X32961Y4015D02*
X32537D01*
Y3591D01*
X32961D01*
Y4015D01*
D02*
G37*
G36*
X33485D02*
X33061D01*
Y3541D01*
X33011D01*
Y3491D01*
X32537D01*
Y3341D01*
X32533Y3339D01*
X32505Y3323D01*
X32500Y3317D01*
X32494Y3313D01*
X32476Y3286D01*
X32456Y3260D01*
X32454Y3253D01*
X32450Y3246D01*
X32443Y3215D01*
X32441Y3207D01*
X31839Y2605D01*
X30783D01*
X30060Y3328D01*
X30060Y3342D01*
X30052Y3364D01*
X30047Y3388D01*
X30038Y3401D01*
X30033Y3416D01*
X30016Y3434D01*
X30003Y3454D01*
X29989Y3463D01*
X29979Y3475D01*
X29960Y3483D01*
Y3491D01*
X29486D01*
X29012D01*
Y3483D01*
X28993Y3475D01*
X28982Y3463D01*
X28969Y3454D01*
X28955Y3434D01*
X28939Y3416D01*
X28934Y3401D01*
X28925Y3388D01*
X28920Y3364D01*
X28912Y3342D01*
X28912Y3328D01*
X26839Y1255D01*
X24982D01*
X24976Y1258D01*
X24964Y1264D01*
X24949Y1274D01*
X24932Y1287D01*
X24884Y1329D01*
X24857Y1355D01*
X24825Y1377D01*
X24792Y1398D01*
X24792Y1399D01*
X24791Y1399D01*
X24753Y1406D01*
X24714Y1414D01*
X24713Y1414D01*
X24713Y1414D01*
X24674Y1406D01*
X24636Y1398D01*
X24636Y1398D01*
X24635Y1398D01*
X24616Y1385D01*
X24604Y1390D01*
X24550Y1397D01*
Y1000D01*
Y603D01*
X24604Y610D01*
X24616Y615D01*
X24635Y602D01*
X24636Y602D01*
X24636Y602D01*
X24674Y594D01*
X24713Y586D01*
X24713Y586D01*
X24714Y586D01*
X24753Y594D01*
X24791Y601D01*
X24792Y601D01*
X24792Y602D01*
X24825Y623D01*
X24857Y645D01*
X24884Y671D01*
X24932Y713D01*
X24949Y726D01*
X24964Y736D01*
X24976Y742D01*
X24982Y745D01*
X26945D01*
X27042Y765D01*
X27093Y799D01*
X27147Y774D01*
X27155Y714D01*
X27213Y575D01*
X27305Y455D01*
X27425Y363D01*
X27564Y305D01*
X27714Y285D01*
X27864Y305D01*
X28004Y363D01*
X28124Y455D01*
X28216Y575D01*
X28273Y714D01*
X28293Y864D01*
X28273Y1014D01*
X28216Y1154D01*
X28124Y1273D01*
X28004Y1365D01*
X27864Y1423D01*
X27800Y1432D01*
X27784Y1479D01*
X29185Y2880D01*
X29231Y2860D01*
Y1464D01*
X29229Y1460D01*
X29223Y1446D01*
X29211Y1427D01*
X29195Y1404D01*
X29175Y1378D01*
X29116Y1311D01*
X29079Y1275D01*
X29057Y1242D01*
X29036Y1209D01*
X29036Y1209D01*
X29035Y1208D01*
X29028Y1170D01*
X29020Y1131D01*
X29020Y1131D01*
X29020Y1130D01*
X29028Y1092D01*
X29036Y1053D01*
X29036Y1053D01*
X29036Y1052D01*
X29045Y1039D01*
X29024Y988D01*
X29014Y914D01*
X29486D01*
Y864D01*
D01*
Y914D01*
X29957D01*
X29948Y988D01*
X29927Y1039D01*
X29936Y1052D01*
X29936Y1053D01*
X29936Y1053D01*
X29944Y1092D01*
X29952Y1130D01*
X29951Y1131D01*
X29952Y1131D01*
X29944Y1170D01*
X29936Y1208D01*
X29936Y1209D01*
X29936Y1209D01*
X29914Y1242D01*
X29893Y1275D01*
X29856Y1311D01*
X29796Y1378D01*
X29777Y1404D01*
X29760Y1427D01*
X29749Y1446D01*
X29742Y1460D01*
X29741Y1464D01*
Y2860D01*
X29787Y2880D01*
X30497Y2170D01*
X30579Y2115D01*
X30677Y2095D01*
X31945D01*
X32042Y2115D01*
X32125Y2170D01*
X32710Y2755D01*
X32756Y2735D01*
Y1464D01*
X32754Y1460D01*
X32748Y1446D01*
X32736Y1427D01*
X32720Y1404D01*
X32700Y1378D01*
X32641Y1311D01*
X32604Y1275D01*
X32582Y1242D01*
X32561Y1209D01*
X32561Y1209D01*
X32560Y1208D01*
X32553Y1170D01*
X32545Y1131D01*
X32545Y1131D01*
X32545Y1130D01*
X32553Y1092D01*
X32561Y1053D01*
X32561Y1053D01*
X32561Y1052D01*
X32570Y1039D01*
X32549Y988D01*
X32539Y914D01*
X33011D01*
X33482D01*
X33473Y988D01*
X33452Y1039D01*
X33461Y1052D01*
X33461Y1053D01*
X33461Y1053D01*
X33469Y1092D01*
X33477Y1130D01*
X33476Y1131D01*
X33477Y1131D01*
X33469Y1170D01*
X33461Y1208D01*
X33461Y1209D01*
X33461Y1209D01*
X33439Y1242D01*
X33418Y1275D01*
X33381Y1311D01*
X33321Y1378D01*
X33302Y1404D01*
X33285Y1427D01*
X33274Y1446D01*
X33267Y1460D01*
X33266Y1464D01*
Y2946D01*
X33278Y2958D01*
X33316Y2978D01*
X33344Y2972D01*
X33344Y2972D01*
X34147Y2170D01*
X34229Y2115D01*
X34327Y2095D01*
X35345D01*
X35442Y2115D01*
X35525Y2170D01*
X36235Y2880D01*
X36281Y2860D01*
Y1464D01*
X36279Y1460D01*
X36273Y1446D01*
X36261Y1427D01*
X36245Y1404D01*
X36225Y1378D01*
X36166Y1311D01*
X36129Y1275D01*
X36107Y1242D01*
X36086Y1209D01*
X36086Y1209D01*
X36085Y1208D01*
X36078Y1170D01*
X36070Y1131D01*
X36070Y1131D01*
X36070Y1130D01*
X36078Y1092D01*
X36086Y1053D01*
X36086Y1053D01*
X36086Y1052D01*
X36095Y1039D01*
X36074Y988D01*
X36064Y914D01*
X36536D01*
Y864D01*
D01*
Y914D01*
X37007D01*
X36998Y988D01*
X36977Y1039D01*
X36986Y1052D01*
X36986Y1053D01*
X36986Y1053D01*
X36994Y1092D01*
X37002Y1130D01*
X37001Y1131D01*
X37002Y1131D01*
X36994Y1170D01*
X36986Y1208D01*
X36986Y1209D01*
X36986Y1209D01*
X36964Y1242D01*
X36943Y1275D01*
X36906Y1311D01*
X36846Y1378D01*
X36827Y1404D01*
X36810Y1427D01*
X36799Y1446D01*
X36792Y1460D01*
X36791Y1464D01*
Y3037D01*
X36794Y3040D01*
X36808Y3066D01*
X36809Y3067D01*
X37010D01*
Y3491D01*
X36536D01*
X36062D01*
Y3483D01*
X36043Y3475D01*
X36032Y3463D01*
X36019Y3454D01*
X36005Y3434D01*
X35989Y3416D01*
X35984Y3401D01*
X35975Y3388D01*
X35970Y3364D01*
X35962Y3342D01*
X35962Y3328D01*
X35239Y2605D01*
X34433D01*
X33587Y3450D01*
X33585Y3454D01*
X33584Y3455D01*
X33577Y3480D01*
X33570Y3514D01*
X33568Y3518D01*
X33566Y3523D01*
X33545Y3551D01*
X33526Y3580D01*
X33522Y3583D01*
X33518Y3587D01*
X33489Y3604D01*
X33485Y3607D01*
Y4015D01*
D02*
G37*
G36*
X24286Y1414D02*
X24247Y1406D01*
X24209Y1399D01*
X24208Y1399D01*
X24208Y1398D01*
X24175Y1377D01*
X24143Y1355D01*
X24116Y1329D01*
X24068Y1287D01*
X24051Y1274D01*
X24036Y1264D01*
X24024Y1258D01*
X24018Y1255D01*
X23982D01*
X23976Y1258D01*
X23964Y1264D01*
X23949Y1274D01*
X23932Y1287D01*
X23884Y1329D01*
X23857Y1355D01*
X23825Y1377D01*
X23792Y1398D01*
X23792Y1399D01*
X23791Y1399D01*
X23753Y1406D01*
X23714Y1414D01*
X23714Y1414D01*
X23713Y1414D01*
X23674Y1406D01*
X23636Y1398D01*
X23636Y1398D01*
X23635Y1398D01*
X23616Y1385D01*
X23604Y1390D01*
X23550Y1397D01*
Y1000D01*
Y603D01*
X23604Y610D01*
X23616Y615D01*
X23635Y602D01*
X23636Y602D01*
X23636Y602D01*
X23674Y594D01*
X23713Y586D01*
X23714Y586D01*
X23714Y586D01*
X23753Y594D01*
X23791Y601D01*
X23792Y601D01*
X23792Y602D01*
X23825Y623D01*
X23857Y645D01*
X23884Y671D01*
X23932Y713D01*
X23949Y726D01*
X23964Y736D01*
X23976Y742D01*
X23982Y745D01*
X24018D01*
X24024Y742D01*
X24036Y736D01*
X24051Y726D01*
X24068Y713D01*
X24116Y671D01*
X24143Y645D01*
X24175Y623D01*
X24208Y602D01*
X24208Y601D01*
X24209Y601D01*
X24247Y594D01*
X24286Y586D01*
X24286Y586D01*
X24287Y586D01*
X24326Y594D01*
X24364Y602D01*
X24364Y602D01*
X24365Y602D01*
X24384Y615D01*
X24396Y610D01*
X24450Y603D01*
Y1000D01*
Y1397D01*
X24396Y1390D01*
X24384Y1385D01*
X24365Y1398D01*
X24364Y1398D01*
X24364Y1398D01*
X24326Y1406D01*
X24287Y1414D01*
X24286Y1414D01*
X24286Y1414D01*
D02*
G37*
G36*
X23286D02*
X23247Y1406D01*
X23209Y1399D01*
X23208Y1399D01*
X23208Y1398D01*
X23175Y1377D01*
X23143Y1355D01*
X23116Y1329D01*
X23068Y1287D01*
X23051Y1274D01*
X23036Y1264D01*
X23024Y1258D01*
X23018Y1255D01*
X22982D01*
X22976Y1258D01*
X22964Y1264D01*
X22949Y1274D01*
X22932Y1287D01*
X22884Y1329D01*
X22857Y1355D01*
X22825Y1377D01*
X22792Y1398D01*
X22792Y1399D01*
X22791Y1399D01*
X22753Y1406D01*
X22714Y1414D01*
X22713Y1414D01*
X22713Y1414D01*
X22674Y1406D01*
X22636Y1398D01*
X22636Y1398D01*
X22635Y1398D01*
X22616Y1385D01*
X22604Y1390D01*
X22550Y1397D01*
Y1000D01*
Y603D01*
X22604Y610D01*
X22616Y615D01*
X22635Y602D01*
X22636Y602D01*
X22636Y602D01*
X22674Y594D01*
X22713Y586D01*
X22713Y586D01*
X22714Y586D01*
X22753Y594D01*
X22791Y601D01*
X22792Y601D01*
X22792Y602D01*
X22825Y623D01*
X22857Y645D01*
X22884Y671D01*
X22932Y713D01*
X22949Y726D01*
X22964Y736D01*
X22976Y742D01*
X22982Y745D01*
X23018D01*
X23024Y742D01*
X23036Y736D01*
X23051Y726D01*
X23068Y713D01*
X23116Y671D01*
X23143Y645D01*
X23175Y623D01*
X23208Y602D01*
X23208Y601D01*
X23209Y601D01*
X23247Y594D01*
X23286Y586D01*
X23286Y586D01*
X23287Y586D01*
X23326Y594D01*
X23364Y602D01*
X23364Y602D01*
X23365Y602D01*
X23384Y615D01*
X23396Y610D01*
X23450Y603D01*
Y1000D01*
Y1397D01*
X23396Y1390D01*
X23384Y1385D01*
X23365Y1398D01*
X23364Y1398D01*
X23364Y1398D01*
X23326Y1406D01*
X23287Y1414D01*
X23286Y1414D01*
X23286Y1414D01*
D02*
G37*
G36*
X37007Y814D02*
X36586D01*
Y392D01*
X36660Y402D01*
X36775Y450D01*
X36874Y526D01*
X36950Y625D01*
X36998Y740D01*
X37007Y814D01*
D02*
G37*
G36*
X33482D02*
X33061D01*
Y392D01*
X33135Y402D01*
X33250Y450D01*
X33349Y526D01*
X33425Y625D01*
X33473Y740D01*
X33482Y814D01*
D02*
G37*
G36*
X29957D02*
X29536D01*
Y392D01*
X29610Y402D01*
X29725Y450D01*
X29824Y526D01*
X29900Y625D01*
X29948Y740D01*
X29957Y814D01*
D02*
G37*
G36*
X36486D02*
X36064D01*
X36074Y740D01*
X36122Y625D01*
X36198Y526D01*
X36297Y450D01*
X36412Y402D01*
X36486Y392D01*
Y814D01*
D02*
G37*
G36*
X32961D02*
X32539D01*
X32549Y740D01*
X32597Y625D01*
X32673Y526D01*
X32772Y450D01*
X32887Y402D01*
X32961Y392D01*
Y814D01*
D02*
G37*
G36*
X29436D02*
X29014D01*
X29024Y740D01*
X29072Y625D01*
X29148Y526D01*
X29247Y450D01*
X29362Y402D01*
X29436Y392D01*
Y814D01*
D02*
G37*
G36*
X34764Y1443D02*
X34614Y1423D01*
X34475Y1365D01*
X34355Y1273D01*
X34263Y1154D01*
X34205Y1014D01*
X34185Y864D01*
X34205Y714D01*
X34263Y575D01*
X34355Y455D01*
X34475Y363D01*
X34614Y305D01*
X34764Y285D01*
X34914Y305D01*
X35054Y363D01*
X35174Y455D01*
X35266Y575D01*
X35323Y714D01*
X35343Y864D01*
X35323Y1014D01*
X35266Y1154D01*
X35174Y1273D01*
X35054Y1365D01*
X34914Y1423D01*
X34764Y1443D01*
D02*
G37*
G36*
X31239D02*
X31089Y1423D01*
X30950Y1365D01*
X30830Y1273D01*
X30738Y1154D01*
X30680Y1014D01*
X30660Y864D01*
X30680Y714D01*
X30738Y575D01*
X30830Y455D01*
X30950Y363D01*
X31089Y305D01*
X31239Y285D01*
X31389Y305D01*
X31529Y363D01*
X31649Y455D01*
X31741Y575D01*
X31798Y714D01*
X31818Y864D01*
X31798Y1014D01*
X31741Y1154D01*
X31649Y1273D01*
X31529Y1365D01*
X31389Y1423D01*
X31239Y1443D01*
D02*
G37*
G36*
X38189Y2173D02*
X37995Y2154D01*
X37809Y2098D01*
X37638Y2006D01*
X37487Y1883D01*
X37364Y1732D01*
X37272Y1561D01*
X37216Y1375D01*
X37197Y1181D01*
X37216Y988D01*
X37272Y801D01*
X37364Y630D01*
X37487Y480D01*
X37638Y356D01*
X37809Y264D01*
X37995Y208D01*
X38189Y189D01*
X38383Y208D01*
X38569Y264D01*
X38740Y356D01*
X38891Y480D01*
X39014Y630D01*
X39106Y801D01*
X39162Y988D01*
X39181Y1181D01*
X39162Y1375D01*
X39106Y1561D01*
X39014Y1732D01*
X38891Y1883D01*
X38740Y2006D01*
X38569Y2098D01*
X38383Y2154D01*
X38189Y2173D01*
D02*
G37*
%LPD*%
G36*
X32797Y23202D02*
X32759Y23240D01*
X32687Y23303D01*
X32654Y23329D01*
X32622Y23350D01*
X32592Y23368D01*
X32563Y23382D01*
X32550Y23387D01*
X32537Y23382D01*
X32508Y23368D01*
X32478Y23350D01*
X32446Y23329D01*
X32413Y23303D01*
X32341Y23240D01*
X32303Y23202D01*
Y23698D01*
X32341Y23660D01*
X32413Y23597D01*
X32446Y23571D01*
X32478Y23550D01*
X32508Y23532D01*
X32537Y23518D01*
X32550Y23513D01*
X32563Y23518D01*
X32592Y23532D01*
X32622Y23550D01*
X32654Y23571D01*
X32687Y23597D01*
X32759Y23660D01*
X32797Y23698D01*
Y23202D01*
D02*
G37*
G36*
X31797D02*
X31759Y23240D01*
X31688Y23303D01*
X31654Y23329D01*
X31622Y23350D01*
X31592Y23368D01*
X31563Y23382D01*
X31550Y23387D01*
X31537Y23382D01*
X31508Y23368D01*
X31478Y23350D01*
X31446Y23329D01*
X31412Y23303D01*
X31341Y23240D01*
X31303Y23202D01*
Y23698D01*
X31341Y23660D01*
X31412Y23597D01*
X31446Y23571D01*
X31478Y23550D01*
X31508Y23532D01*
X31537Y23518D01*
X31550Y23513D01*
X31563Y23518D01*
X31592Y23532D01*
X31622Y23550D01*
X31654Y23571D01*
X31688Y23597D01*
X31759Y23660D01*
X31797Y23698D01*
Y23202D01*
D02*
G37*
G36*
X14397D02*
X14359Y23240D01*
X14288Y23303D01*
X14254Y23329D01*
X14222Y23350D01*
X14192Y23368D01*
X14163Y23382D01*
X14150Y23387D01*
X14137Y23382D01*
X14108Y23368D01*
X14078Y23350D01*
X14046Y23329D01*
X14013Y23303D01*
X13941Y23240D01*
X13903Y23202D01*
Y23698D01*
X13941Y23660D01*
X14013Y23597D01*
X14046Y23571D01*
X14078Y23550D01*
X14108Y23532D01*
X14137Y23518D01*
X14150Y23513D01*
X14163Y23518D01*
X14192Y23532D01*
X14222Y23550D01*
X14254Y23571D01*
X14288Y23597D01*
X14359Y23660D01*
X14397Y23698D01*
Y23202D01*
D02*
G37*
G36*
X22334Y23813D02*
X22318Y23795D01*
X22304Y23772D01*
X22292Y23746D01*
X22282Y23716D01*
X22273Y23682D01*
X22266Y23644D01*
X22260Y23602D01*
X22255Y23507D01*
X22254Y23454D01*
X21904Y23804D01*
X21957Y23805D01*
X22052Y23810D01*
X22094Y23816D01*
X22132Y23823D01*
X22166Y23832D01*
X22196Y23842D01*
X22222Y23854D01*
X22245Y23868D01*
X22263Y23884D01*
X22334Y23813D01*
D02*
G37*
G36*
X21555Y23868D02*
X21578Y23854D01*
X21604Y23842D01*
X21634Y23832D01*
X21668Y23823D01*
X21706Y23816D01*
X21748Y23810D01*
X21843Y23805D01*
X21896Y23804D01*
X21546Y23454D01*
X21545Y23507D01*
X21540Y23602D01*
X21534Y23644D01*
X21527Y23682D01*
X21518Y23716D01*
X21508Y23746D01*
X21496Y23772D01*
X21482Y23795D01*
X21466Y23813D01*
X21537Y23884D01*
X21555Y23868D01*
D02*
G37*
G36*
X15084Y23813D02*
X15068Y23795D01*
X15054Y23772D01*
X15042Y23746D01*
X15032Y23716D01*
X15023Y23682D01*
X15016Y23644D01*
X15010Y23602D01*
X15005Y23507D01*
X15004Y23454D01*
X14654Y23804D01*
X14707Y23805D01*
X14802Y23810D01*
X14844Y23816D01*
X14882Y23823D01*
X14916Y23832D01*
X14946Y23842D01*
X14972Y23854D01*
X14995Y23868D01*
X15013Y23884D01*
X15084Y23813D01*
D02*
G37*
G36*
X7305Y23868D02*
X7328Y23854D01*
X7354Y23842D01*
X7384Y23832D01*
X7418Y23823D01*
X7456Y23816D01*
X7498Y23810D01*
X7593Y23805D01*
X7646Y23804D01*
X7296Y23454D01*
X7295Y23507D01*
X7290Y23602D01*
X7284Y23644D01*
X7277Y23682D01*
X7268Y23716D01*
X7258Y23746D01*
X7246Y23772D01*
X7232Y23795D01*
X7216Y23813D01*
X7287Y23884D01*
X7305Y23868D01*
D02*
G37*
G36*
X33514Y23700D02*
X33584Y23600D01*
X33555Y23598D01*
X33529Y23592D01*
X33505Y23581D01*
X33483Y23566D01*
X33464Y23547D01*
X33446Y23524D01*
X33431Y23496D01*
X33418Y23464D01*
X33407Y23428D01*
X33399Y23388D01*
X33144Y23792D01*
X33514Y23700D01*
D02*
G37*
G36*
X20647Y23202D02*
X20609Y23240D01*
X20538Y23303D01*
X20504Y23329D01*
X20472Y23350D01*
X20442Y23368D01*
X20413Y23382D01*
X20386Y23392D01*
X20361Y23398D01*
X20337Y23400D01*
Y23500D01*
X20361Y23502D01*
X20386Y23508D01*
X20413Y23518D01*
X20442Y23532D01*
X20472Y23550D01*
X20504Y23571D01*
X20538Y23597D01*
X20609Y23660D01*
X20647Y23698D01*
Y23202D01*
D02*
G37*
G36*
X5010Y23459D02*
X5058Y23274D01*
X5070Y23239D01*
X5083Y23210D01*
X5096Y23185D01*
X5108Y23165D01*
X5121Y23149D01*
X5065Y23064D01*
X5045Y23081D01*
X5022Y23095D01*
X4996Y23107D01*
X4966Y23115D01*
X4934Y23120D01*
X4898Y23123D01*
X4859Y23122D01*
X4817Y23119D01*
X4772Y23113D01*
X4724Y23104D01*
X4998Y23517D01*
X5010Y23459D01*
D02*
G37*
G36*
X28255Y23393D02*
X28260Y23298D01*
X28266Y23256D01*
X28273Y23218D01*
X28282Y23184D01*
X28292Y23154D01*
X28304Y23128D01*
X28318Y23105D01*
X28334Y23087D01*
X28263Y23016D01*
X28245Y23032D01*
X28222Y23046D01*
X28196Y23058D01*
X28166Y23068D01*
X28132Y23077D01*
X28094Y23084D01*
X28052Y23090D01*
X27957Y23095D01*
X27904Y23096D01*
X28254Y23446D01*
X28255Y23393D01*
D02*
G37*
G36*
X27255D02*
X27260Y23298D01*
X27266Y23256D01*
X27273Y23218D01*
X27282Y23184D01*
X27292Y23154D01*
X27304Y23128D01*
X27318Y23105D01*
X27334Y23087D01*
X27263Y23016D01*
X27245Y23032D01*
X27222Y23046D01*
X27196Y23058D01*
X27166Y23068D01*
X27132Y23077D01*
X27094Y23084D01*
X27052Y23090D01*
X26957Y23095D01*
X26904Y23096D01*
X27254Y23446D01*
X27255Y23393D01*
D02*
G37*
G36*
X26255D02*
X26260Y23298D01*
X26266Y23256D01*
X26273Y23218D01*
X26282Y23184D01*
X26292Y23154D01*
X26304Y23128D01*
X26318Y23105D01*
X26334Y23087D01*
X26263Y23016D01*
X26245Y23032D01*
X26222Y23046D01*
X26196Y23058D01*
X26166Y23068D01*
X26132Y23077D01*
X26094Y23084D01*
X26052Y23090D01*
X25957Y23095D01*
X25904Y23096D01*
X26254Y23446D01*
X26255Y23393D01*
D02*
G37*
G36*
X25255D02*
X25260Y23298D01*
X25266Y23256D01*
X25273Y23218D01*
X25282Y23184D01*
X25292Y23154D01*
X25304Y23128D01*
X25318Y23105D01*
X25334Y23087D01*
X25263Y23016D01*
X25245Y23032D01*
X25222Y23046D01*
X25196Y23058D01*
X25166Y23068D01*
X25132Y23077D01*
X25094Y23084D01*
X25052Y23090D01*
X24957Y23095D01*
X24904Y23096D01*
X25254Y23446D01*
X25255Y23393D01*
D02*
G37*
G36*
X21896Y23096D02*
X21843Y23095D01*
X21748Y23090D01*
X21706Y23084D01*
X21668Y23077D01*
X21634Y23068D01*
X21604Y23058D01*
X21578Y23046D01*
X21555Y23032D01*
X21537Y23016D01*
X21466Y23087D01*
X21482Y23105D01*
X21496Y23128D01*
X21508Y23154D01*
X21518Y23184D01*
X21527Y23218D01*
X21534Y23256D01*
X21540Y23298D01*
X21545Y23393D01*
X21546Y23446D01*
X21896Y23096D01*
D02*
G37*
G36*
X12005Y23393D02*
X12010Y23298D01*
X12016Y23256D01*
X12023Y23218D01*
X12032Y23184D01*
X12042Y23154D01*
X12054Y23128D01*
X12068Y23105D01*
X12084Y23087D01*
X12013Y23016D01*
X11995Y23032D01*
X11972Y23046D01*
X11946Y23058D01*
X11916Y23068D01*
X11882Y23077D01*
X11844Y23084D01*
X11802Y23090D01*
X11707Y23095D01*
X11654Y23096D01*
X12004Y23446D01*
X12005Y23393D01*
D02*
G37*
G36*
X11005D02*
X11010Y23298D01*
X11016Y23256D01*
X11023Y23218D01*
X11032Y23184D01*
X11042Y23154D01*
X11054Y23128D01*
X11068Y23105D01*
X11084Y23087D01*
X11013Y23016D01*
X10995Y23032D01*
X10972Y23046D01*
X10946Y23058D01*
X10916Y23068D01*
X10882Y23077D01*
X10844Y23084D01*
X10802Y23090D01*
X10707Y23095D01*
X10654Y23096D01*
X11004Y23446D01*
X11005Y23393D01*
D02*
G37*
G36*
X7005D02*
X7010Y23298D01*
X7016Y23256D01*
X7023Y23218D01*
X7032Y23184D01*
X7042Y23154D01*
X7054Y23128D01*
X7068Y23105D01*
X7084Y23087D01*
X7013Y23016D01*
X6995Y23032D01*
X6972Y23046D01*
X6946Y23058D01*
X6916Y23068D01*
X6882Y23077D01*
X6844Y23084D01*
X6802Y23090D01*
X6707Y23095D01*
X6654Y23096D01*
X7004Y23446D01*
X7005Y23393D01*
D02*
G37*
G36*
X2860Y23159D02*
X2797Y23087D01*
X2771Y23054D01*
X2750Y23022D01*
X2732Y22992D01*
X2718Y22963D01*
X2713Y22950D01*
X2718Y22937D01*
X2732Y22908D01*
X2750Y22878D01*
X2771Y22846D01*
X2797Y22812D01*
X2860Y22741D01*
X2898Y22703D01*
X2402D01*
X2440Y22741D01*
X2503Y22812D01*
X2529Y22846D01*
X2550Y22878D01*
X2568Y22908D01*
X2582Y22937D01*
X2587Y22950D01*
X2582Y22963D01*
X2568Y22992D01*
X2550Y23022D01*
X2529Y23054D01*
X2503Y23087D01*
X2440Y23159D01*
X2402Y23197D01*
X2898D01*
X2860Y23159D01*
D02*
G37*
G36*
X32797Y22202D02*
X32759Y22240D01*
X32687Y22303D01*
X32654Y22329D01*
X32622Y22350D01*
X32592Y22368D01*
X32563Y22382D01*
X32550Y22387D01*
X32537Y22382D01*
X32508Y22368D01*
X32478Y22350D01*
X32446Y22329D01*
X32413Y22303D01*
X32341Y22240D01*
X32303Y22202D01*
Y22698D01*
X32341Y22660D01*
X32413Y22597D01*
X32446Y22571D01*
X32478Y22550D01*
X32508Y22532D01*
X32537Y22518D01*
X32550Y22513D01*
X32563Y22518D01*
X32592Y22532D01*
X32622Y22550D01*
X32654Y22571D01*
X32687Y22597D01*
X32759Y22660D01*
X32797Y22698D01*
Y22202D01*
D02*
G37*
G36*
X31797D02*
X31759Y22240D01*
X31688Y22303D01*
X31654Y22329D01*
X31622Y22350D01*
X31592Y22368D01*
X31563Y22382D01*
X31550Y22387D01*
X31537Y22382D01*
X31508Y22368D01*
X31478Y22350D01*
X31446Y22329D01*
X31412Y22303D01*
X31341Y22240D01*
X31303Y22202D01*
Y22698D01*
X31341Y22660D01*
X31412Y22597D01*
X31446Y22571D01*
X31478Y22550D01*
X31508Y22532D01*
X31537Y22518D01*
X31550Y22513D01*
X31563Y22518D01*
X31592Y22532D01*
X31622Y22550D01*
X31654Y22571D01*
X31688Y22597D01*
X31759Y22660D01*
X31797Y22698D01*
Y22202D01*
D02*
G37*
G36*
X14397D02*
X14359Y22240D01*
X14288Y22303D01*
X14254Y22329D01*
X14222Y22350D01*
X14192Y22368D01*
X14163Y22382D01*
X14150Y22387D01*
X14137Y22382D01*
X14108Y22368D01*
X14078Y22350D01*
X14046Y22329D01*
X14013Y22303D01*
X13941Y22240D01*
X13903Y22202D01*
Y22698D01*
X13941Y22660D01*
X14013Y22597D01*
X14046Y22571D01*
X14078Y22550D01*
X14108Y22532D01*
X14137Y22518D01*
X14150Y22513D01*
X14163Y22518D01*
X14192Y22532D01*
X14222Y22550D01*
X14254Y22571D01*
X14288Y22597D01*
X14359Y22660D01*
X14397Y22698D01*
Y22202D01*
D02*
G37*
G36*
X30705Y22868D02*
X30728Y22854D01*
X30754Y22842D01*
X30784Y22832D01*
X30818Y22823D01*
X30856Y22816D01*
X30898Y22810D01*
X30993Y22805D01*
X31046Y22804D01*
X30696Y22454D01*
X30695Y22507D01*
X30690Y22602D01*
X30684Y22644D01*
X30677Y22682D01*
X30668Y22716D01*
X30658Y22746D01*
X30646Y22772D01*
X30632Y22795D01*
X30616Y22813D01*
X30687Y22884D01*
X30705Y22868D01*
D02*
G37*
G36*
X21334Y22813D02*
X21318Y22795D01*
X21304Y22772D01*
X21292Y22746D01*
X21282Y22716D01*
X21273Y22682D01*
X21266Y22644D01*
X21260Y22602D01*
X21255Y22507D01*
X21254Y22454D01*
X20904Y22804D01*
X20957Y22805D01*
X21052Y22810D01*
X21094Y22816D01*
X21132Y22823D01*
X21166Y22832D01*
X21196Y22842D01*
X21222Y22854D01*
X21245Y22868D01*
X21263Y22884D01*
X21334Y22813D01*
D02*
G37*
G36*
X15084D02*
X15068Y22795D01*
X15054Y22772D01*
X15042Y22746D01*
X15032Y22716D01*
X15023Y22682D01*
X15016Y22644D01*
X15010Y22602D01*
X15005Y22507D01*
X15004Y22454D01*
X14654Y22804D01*
X14707Y22805D01*
X14802Y22810D01*
X14844Y22816D01*
X14882Y22823D01*
X14916Y22832D01*
X14946Y22842D01*
X14972Y22854D01*
X14995Y22868D01*
X15013Y22884D01*
X15084Y22813D01*
D02*
G37*
G36*
X33405Y22393D02*
X33410Y22298D01*
X33416Y22256D01*
X33423Y22218D01*
X33432Y22184D01*
X33442Y22154D01*
X33454Y22128D01*
X33468Y22105D01*
X33484Y22087D01*
X33413Y22016D01*
X33395Y22032D01*
X33372Y22046D01*
X33346Y22058D01*
X33316Y22068D01*
X33282Y22077D01*
X33244Y22084D01*
X33202Y22090D01*
X33107Y22095D01*
X33054Y22096D01*
X33404Y22446D01*
X33405Y22393D01*
D02*
G37*
G36*
X23896Y22096D02*
X23843Y22095D01*
X23748Y22090D01*
X23706Y22084D01*
X23668Y22077D01*
X23634Y22068D01*
X23604Y22058D01*
X23578Y22046D01*
X23555Y22032D01*
X23537Y22016D01*
X23466Y22087D01*
X23482Y22105D01*
X23496Y22128D01*
X23508Y22154D01*
X23518Y22184D01*
X23527Y22218D01*
X23534Y22256D01*
X23540Y22298D01*
X23545Y22393D01*
X23546Y22446D01*
X23896Y22096D01*
D02*
G37*
G36*
X22896D02*
X22843Y22095D01*
X22748Y22090D01*
X22706Y22084D01*
X22668Y22077D01*
X22634Y22068D01*
X22604Y22058D01*
X22578Y22046D01*
X22555Y22032D01*
X22537Y22016D01*
X22466Y22087D01*
X22482Y22105D01*
X22496Y22128D01*
X22508Y22154D01*
X22518Y22184D01*
X22527Y22218D01*
X22534Y22256D01*
X22540Y22298D01*
X22545Y22393D01*
X22546Y22446D01*
X22896Y22096D01*
D02*
G37*
G36*
X21896D02*
X21843Y22095D01*
X21748Y22090D01*
X21706Y22084D01*
X21668Y22077D01*
X21634Y22068D01*
X21604Y22058D01*
X21578Y22046D01*
X21555Y22032D01*
X21537Y22016D01*
X21466Y22087D01*
X21482Y22105D01*
X21496Y22128D01*
X21508Y22154D01*
X21518Y22184D01*
X21527Y22218D01*
X21534Y22256D01*
X21540Y22298D01*
X21545Y22393D01*
X21546Y22446D01*
X21896Y22096D01*
D02*
G37*
G36*
X8005Y22393D02*
X8010Y22298D01*
X8016Y22256D01*
X8023Y22218D01*
X8032Y22184D01*
X8042Y22154D01*
X8054Y22128D01*
X8068Y22105D01*
X8084Y22087D01*
X8013Y22016D01*
X7995Y22032D01*
X7972Y22046D01*
X7946Y22058D01*
X7916Y22068D01*
X7882Y22077D01*
X7844Y22084D01*
X7802Y22090D01*
X7707Y22095D01*
X7654Y22096D01*
X8004Y22446D01*
X8005Y22393D01*
D02*
G37*
G36*
X20334Y23194D02*
X20346Y23188D01*
X20363Y23178D01*
X20384Y23164D01*
X20407Y23146D01*
X20469Y23091D01*
X20501Y23060D01*
X20505Y23055D01*
X20620Y22966D01*
X20691Y22936D01*
X20703Y22910D01*
X20682Y22852D01*
X20671Y22847D01*
X20576Y22774D01*
X20503Y22679D01*
X20457Y22569D01*
X20448Y22500D01*
X20900D01*
Y22400D01*
X20448D01*
X20457Y22331D01*
X20503Y22221D01*
X20554Y22155D01*
X20529Y22105D01*
X17050D01*
X16952Y22085D01*
X16870Y22030D01*
X16170Y21330D01*
X16114Y21248D01*
X16095Y21150D01*
Y20499D01*
X16045Y20469D01*
X15929Y20484D01*
X15800Y20467D01*
X15680Y20417D01*
X15576Y20338D01*
X15497Y20235D01*
X15456Y20137D01*
X15402D01*
X15362Y20235D01*
X15282Y20338D01*
X15179Y20417D01*
X15058Y20467D01*
X14929Y20484D01*
X14800Y20467D01*
X14679Y20417D01*
X14576Y20338D01*
X14497Y20235D01*
X14456Y20137D01*
X14402D01*
X14362Y20235D01*
X14282Y20338D01*
X14179Y20417D01*
X14058Y20467D01*
X13929Y20484D01*
X13800Y20467D01*
X13679Y20417D01*
X13671Y20419D01*
X13630Y20480D01*
X13349Y20762D01*
Y21922D01*
X13399Y21954D01*
X13505Y21910D01*
X13650Y21891D01*
X13795Y21910D01*
X13930Y21966D01*
X14045Y22055D01*
X14049Y22060D01*
X14081Y22091D01*
X14143Y22146D01*
X14150Y22151D01*
X14157Y22146D01*
X14219Y22091D01*
X14251Y22060D01*
X14255Y22055D01*
X14370Y21966D01*
X14505Y21910D01*
X14650Y21891D01*
X14795Y21910D01*
X14930Y21966D01*
X15045Y22055D01*
X15134Y22170D01*
X15190Y22305D01*
X15209Y22450D01*
X15208Y22457D01*
X15208Y22500D01*
X15213Y22583D01*
X15217Y22612D01*
X15222Y22638D01*
X15227Y22657D01*
X15231Y22669D01*
X15232Y22672D01*
X15756Y23195D01*
X20331D01*
X20334Y23194D01*
D02*
G37*
G36*
X2812Y22135D02*
X2770Y22112D01*
X2734Y22089D01*
X2701Y22066D01*
X2673Y22042D01*
X2649Y22017D01*
X2629Y21992D01*
X2614Y21967D01*
X2603Y21941D01*
X2597Y21914D01*
X2595Y21887D01*
X2495Y21919D01*
X2493Y21935D01*
X2488Y21956D01*
X2481Y21982D01*
X2470Y22012D01*
X2438Y22084D01*
X2368Y22226D01*
X2338Y22282D01*
X2812Y22135D01*
D02*
G37*
G36*
X25110Y22159D02*
X25047Y22088D01*
X25021Y22054D01*
X25000Y22022D01*
X24982Y21992D01*
X24968Y21963D01*
X24958Y21936D01*
X24952Y21911D01*
X24950Y21887D01*
X24850D01*
X24848Y21911D01*
X24842Y21936D01*
X24832Y21963D01*
X24818Y21992D01*
X24800Y22022D01*
X24779Y22054D01*
X24753Y22088D01*
X24690Y22159D01*
X24652Y22197D01*
X25148D01*
X25110Y22159D01*
D02*
G37*
G36*
X10860D02*
X10797Y22088D01*
X10771Y22054D01*
X10750Y22022D01*
X10732Y21992D01*
X10718Y21963D01*
X10708Y21936D01*
X10702Y21911D01*
X10700Y21887D01*
X10600D01*
X10598Y21911D01*
X10592Y21936D01*
X10582Y21963D01*
X10568Y21992D01*
X10550Y22022D01*
X10529Y22054D01*
X10503Y22088D01*
X10440Y22159D01*
X10402Y22197D01*
X10898D01*
X10860Y22159D01*
D02*
G37*
G36*
X30468Y22672D02*
X30469Y22669D01*
X30473Y22657D01*
X30478Y22638D01*
X30483Y22612D01*
X30487Y22583D01*
X30492Y22500D01*
X30492Y22452D01*
X30500Y22414D01*
X30507Y22376D01*
X30508Y22375D01*
X30508Y22374D01*
X30530Y22342D01*
X30551Y22309D01*
X30552Y22309D01*
X30552Y22309D01*
X30585Y22287D01*
X30618Y22265D01*
X30618Y22265D01*
X30619Y22265D01*
X30636Y22261D01*
X30653Y22221D01*
X30726Y22126D01*
X30821Y22053D01*
X30931Y22007D01*
X31000Y21998D01*
Y22450D01*
X31100D01*
Y21998D01*
X31169Y22007D01*
X31209Y22024D01*
X31224Y22014D01*
X31225Y22014D01*
X31225Y22014D01*
X31263Y22006D01*
X31302Y21998D01*
X31302Y21998D01*
X31303Y21998D01*
X31342Y22006D01*
X31380Y22013D01*
X31381Y22013D01*
X31381Y22014D01*
X31414Y22035D01*
X31446Y22057D01*
X31481Y22091D01*
X31543Y22146D01*
X31550Y22151D01*
X31557Y22146D01*
X31619Y22091D01*
X31654Y22057D01*
X31686Y22035D01*
X31719Y22014D01*
X31719Y22013D01*
X31720Y22013D01*
X31758Y22006D01*
X31797Y21998D01*
X31798Y21998D01*
X31798Y21998D01*
X31837Y22006D01*
X31875Y22014D01*
X31875Y22014D01*
X31876Y22014D01*
X31891Y22024D01*
X31931Y22007D01*
X32000Y21998D01*
Y22450D01*
X32100D01*
Y21998D01*
X32169Y22007D01*
X32209Y22024D01*
X32224Y22014D01*
X32225Y22014D01*
X32225Y22014D01*
X32263Y22006D01*
X32302Y21998D01*
X32302Y21998D01*
X32303Y21998D01*
X32342Y22006D01*
X32380Y22013D01*
X32381Y22013D01*
X32381Y22014D01*
X32414Y22035D01*
X32446Y22057D01*
X32481Y22091D01*
X32543Y22146D01*
X32550Y22151D01*
X32557Y22146D01*
X32619Y22091D01*
X32654Y22057D01*
X32686Y22035D01*
X32719Y22014D01*
X32719Y22013D01*
X32720Y22013D01*
X32758Y22006D01*
X32797Y21998D01*
X32798Y21998D01*
X32798Y21998D01*
X32837Y22006D01*
X32869Y22012D01*
X32887Y21985D01*
X32909Y21952D01*
X32909Y21952D01*
X32909Y21951D01*
X32942Y21930D01*
X32974Y21908D01*
X32975Y21908D01*
X32976Y21907D01*
X33014Y21900D01*
X33052Y21892D01*
X33100Y21892D01*
X33183Y21887D01*
X33212Y21883D01*
X33238Y21878D01*
X33241Y21877D01*
X33254Y21859D01*
X33233Y21816D01*
X33223Y21809D01*
X28485D01*
X28466Y21855D01*
X28530Y21920D01*
X28586Y22002D01*
X28605Y22100D01*
Y23000D01*
X28586Y23098D01*
X28530Y23180D01*
X28482Y23228D01*
X28481Y23231D01*
X28477Y23243D01*
X28472Y23262D01*
X28467Y23288D01*
X28463Y23317D01*
X28458Y23400D01*
X28458Y23443D01*
X28459Y23450D01*
X28440Y23595D01*
X28384Y23730D01*
X28330Y23800D01*
X28352Y23845D01*
X29294D01*
X30468Y22672D01*
D02*
G37*
G36*
X36098Y21705D02*
X36145Y21665D01*
X36168Y21649D01*
X36190Y21635D01*
X36211Y21624D01*
X36232Y21615D01*
X36252Y21609D01*
X36272Y21605D01*
X36291Y21604D01*
Y21504D01*
X36272Y21503D01*
X36252Y21499D01*
X36232Y21493D01*
X36211Y21484D01*
X36190Y21473D01*
X36168Y21459D01*
X36145Y21443D01*
X36122Y21424D01*
X36074Y21379D01*
Y21729D01*
X36098Y21705D01*
D02*
G37*
G36*
X31897Y20505D02*
X31855Y20504D01*
X31779Y20499D01*
X31745Y20494D01*
X31714Y20488D01*
X31686Y20480D01*
X31661Y20471D01*
X31639Y20460D01*
X31620Y20448D01*
X31604Y20434D01*
X31534Y20504D01*
X31548Y20520D01*
X31560Y20539D01*
X31571Y20561D01*
X31580Y20586D01*
X31588Y20614D01*
X31594Y20645D01*
X31599Y20679D01*
X31604Y20755D01*
X31605Y20797D01*
X31897Y20505D01*
D02*
G37*
G36*
X30897D02*
X30855Y20504D01*
X30779Y20499D01*
X30745Y20494D01*
X30714Y20488D01*
X30686Y20480D01*
X30661Y20471D01*
X30639Y20460D01*
X30620Y20448D01*
X30604Y20434D01*
X30534Y20504D01*
X30548Y20520D01*
X30560Y20539D01*
X30571Y20561D01*
X30580Y20586D01*
X30588Y20614D01*
X30594Y20645D01*
X30599Y20679D01*
X30604Y20755D01*
X30605Y20797D01*
X30897Y20505D01*
D02*
G37*
G36*
X29897D02*
X29855Y20504D01*
X29779Y20499D01*
X29745Y20494D01*
X29714Y20488D01*
X29686Y20480D01*
X29661Y20471D01*
X29639Y20460D01*
X29620Y20448D01*
X29604Y20434D01*
X29534Y20504D01*
X29548Y20520D01*
X29560Y20539D01*
X29571Y20561D01*
X29580Y20586D01*
X29588Y20614D01*
X29594Y20645D01*
X29599Y20679D01*
X29604Y20755D01*
X29605Y20797D01*
X29897Y20505D01*
D02*
G37*
G36*
X28897D02*
X28855Y20504D01*
X28779Y20499D01*
X28745Y20494D01*
X28714Y20488D01*
X28686Y20480D01*
X28661Y20471D01*
X28639Y20460D01*
X28620Y20448D01*
X28604Y20434D01*
X28534Y20504D01*
X28548Y20520D01*
X28560Y20539D01*
X28571Y20561D01*
X28580Y20586D01*
X28588Y20614D01*
X28594Y20645D01*
X28599Y20679D01*
X28604Y20755D01*
X28605Y20797D01*
X28897Y20505D01*
D02*
G37*
G36*
X27897D02*
X27855Y20504D01*
X27779Y20499D01*
X27745Y20494D01*
X27714Y20488D01*
X27686Y20480D01*
X27661Y20471D01*
X27639Y20460D01*
X27620Y20448D01*
X27604Y20434D01*
X27534Y20504D01*
X27548Y20520D01*
X27560Y20539D01*
X27571Y20561D01*
X27580Y20586D01*
X27588Y20614D01*
X27594Y20645D01*
X27599Y20679D01*
X27604Y20755D01*
X27605Y20797D01*
X27897Y20505D01*
D02*
G37*
G36*
X26950Y20405D02*
X27079D01*
X27098Y20359D01*
X25211Y18472D01*
X25166Y18456D01*
Y18456D01*
X25166Y18456D01*
X24197D01*
X24178Y18502D01*
X26459Y20783D01*
X26505Y20764D01*
Y20405D01*
X26850D01*
Y20800D01*
X26950D01*
Y20405D01*
D02*
G37*
G36*
X34718Y20884D02*
X32140Y18305D01*
X31424D01*
X31419Y18310D01*
X31395Y18323D01*
X31372Y18338D01*
X31360Y18340D01*
X31348Y18346D01*
X31321Y18348D01*
X31294Y18353D01*
X31282Y18351D01*
X31269Y18352D01*
X31257Y18348D01*
X31239Y18361D01*
X31153Y18397D01*
X31060Y18409D01*
X30775D01*
Y18050D01*
X30675D01*
Y18409D01*
X30391D01*
X30298Y18397D01*
X30211Y18361D01*
X30137Y18304D01*
X30135Y18301D01*
X30121Y18303D01*
X30109Y18299D01*
X30096Y18299D01*
X30071Y18288D01*
X30045Y18280D01*
X30035Y18272D01*
X30024Y18267D01*
X30012Y18255D01*
X28224D01*
X28219Y18260D01*
X28195Y18273D01*
X28172Y18288D01*
X28159Y18290D01*
X28148Y18296D01*
X28121Y18298D01*
X28094Y18303D01*
X28081Y18301D01*
X28069Y18302D01*
X28056Y18298D01*
X28039Y18311D01*
X27952Y18347D01*
X27859Y18359D01*
X27575D01*
Y18000D01*
Y17641D01*
X27859D01*
X27952Y17653D01*
X28039Y17689D01*
X28056Y17702D01*
X28069Y17698D01*
X28081Y17699D01*
X28094Y17697D01*
X28121Y17702D01*
X28148Y17704D01*
X28159Y17710D01*
X28172Y17712D01*
X28195Y17727D01*
X28219Y17740D01*
X28224Y17745D01*
X28535D01*
X28559Y17695D01*
X28507Y17627D01*
X28462Y17517D01*
X28446Y17400D01*
X28462Y17283D01*
X28507Y17173D01*
X28509Y17170D01*
X26094Y14755D01*
X22169D01*
X22166Y14756D01*
X22154Y14762D01*
X22137Y14772D01*
X22116Y14786D01*
X22093Y14804D01*
X22031Y14859D01*
X21999Y14890D01*
X21995Y14895D01*
X21880Y14984D01*
X21861Y14992D01*
X21851Y15041D01*
X23706Y16895D01*
X25841D01*
X25939Y16914D01*
X26022Y16970D01*
X26841Y17789D01*
X26907Y17784D01*
X26936Y17746D01*
X27011Y17689D01*
X27097Y17653D01*
X27190Y17641D01*
X27475D01*
Y18000D01*
Y18362D01*
X27457Y18405D01*
X28558Y19506D01*
X30861D01*
X30958Y19525D01*
X31041Y19580D01*
X31745Y20284D01*
X31750Y20286D01*
X31763Y20290D01*
X31780Y20293D01*
X31800Y20296D01*
X31862Y20301D01*
X31897Y20301D01*
X31900Y20300D01*
X32029Y20317D01*
X32150Y20367D01*
X32253Y20447D01*
X32333Y20550D01*
X32373Y20648D01*
X32427D01*
X32467Y20550D01*
X32547Y20447D01*
X32650Y20367D01*
X32771Y20317D01*
X32900Y20300D01*
X33029Y20317D01*
X33150Y20367D01*
X33253Y20447D01*
X33333Y20550D01*
X33383Y20671D01*
X33400Y20800D01*
X33389Y20880D01*
X33433Y20930D01*
X34699D01*
X34718Y20884D01*
D02*
G37*
G36*
X3980Y20353D02*
X3981Y20334D01*
X3984Y20317D01*
X3987Y20302D01*
X3992Y20289D01*
X3997Y20279D01*
X4003Y20271D01*
X4011Y20265D01*
X4019Y20262D01*
X4029Y20261D01*
X3829D01*
X3839Y20262D01*
X3847Y20265D01*
X3855Y20271D01*
X3861Y20279D01*
X3867Y20289D01*
X3871Y20302D01*
X3875Y20317D01*
X3877Y20334D01*
X3879Y20353D01*
X3879Y20375D01*
X3979D01*
X3980Y20353D01*
D02*
G37*
G36*
X4199Y19807D02*
X4196Y19798D01*
X4196Y19788D01*
X4197Y19778D01*
X4201Y19766D01*
X4207Y19754D01*
X4215Y19741D01*
X4226Y19727D01*
X4239Y19712D01*
X4254Y19696D01*
X4189Y19619D01*
X4173Y19634D01*
X4159Y19647D01*
X4145Y19657D01*
X4132Y19665D01*
X4120Y19670D01*
X4110Y19673D01*
X4100Y19674D01*
X4091Y19672D01*
X4083Y19668D01*
X4076Y19662D01*
X4205Y19815D01*
X4199Y19807D01*
D02*
G37*
G36*
X17196Y19275D02*
X17181Y19259D01*
X17168Y19245D01*
X17158Y19231D01*
X17151Y19219D01*
X17146Y19207D01*
X17143Y19197D01*
X17143Y19188D01*
X17146Y19180D01*
X17151Y19173D01*
X17158Y19167D01*
X16983Y19274D01*
X16992Y19269D01*
X17002Y19267D01*
X17013Y19268D01*
X17024Y19270D01*
X17036Y19274D01*
X17049Y19281D01*
X17063Y19290D01*
X17078Y19301D01*
X17093Y19314D01*
X17109Y19330D01*
X17196Y19275D01*
D02*
G37*
G36*
X11707Y19289D02*
X11722Y19276D01*
X11736Y19266D01*
X11749Y19258D01*
X11761Y19252D01*
X11773Y19248D01*
X11783Y19247D01*
X11792Y19248D01*
X11801Y19251D01*
X11809Y19257D01*
X11662Y19121D01*
X11669Y19129D01*
X11672Y19137D01*
X11674Y19146D01*
X11673Y19156D01*
X11670Y19167D01*
X11664Y19179D01*
X11656Y19192D01*
X11646Y19205D01*
X11633Y19220D01*
X11618Y19236D01*
X11692Y19304D01*
X11707Y19289D01*
D02*
G37*
G36*
X13685Y19266D02*
X13700Y19253D01*
X13713Y19243D01*
X13726Y19235D01*
X13738Y19230D01*
X13749Y19227D01*
X13758Y19226D01*
X13767Y19228D01*
X13775Y19232D01*
X13782Y19238D01*
X13654Y19085D01*
X13659Y19093D01*
X13662Y19102D01*
X13663Y19112D01*
X13661Y19122D01*
X13657Y19134D01*
X13651Y19146D01*
X13643Y19159D01*
X13632Y19173D01*
X13620Y19188D01*
X13605Y19204D01*
X13669Y19281D01*
X13685Y19266D01*
D02*
G37*
G36*
X12685D02*
X12700Y19253D01*
X12713Y19243D01*
X12726Y19235D01*
X12738Y19230D01*
X12749Y19227D01*
X12758Y19226D01*
X12767Y19228D01*
X12775Y19232D01*
X12782Y19238D01*
X12654Y19085D01*
X12659Y19093D01*
X12662Y19102D01*
X12663Y19112D01*
X12661Y19122D01*
X12657Y19134D01*
X12651Y19146D01*
X12643Y19159D01*
X12632Y19173D01*
X12620Y19188D01*
X12605Y19204D01*
X12669Y19281D01*
X12685Y19266D01*
D02*
G37*
G36*
X8716D02*
X8731Y19253D01*
X8745Y19243D01*
X8758Y19235D01*
X8769Y19230D01*
X8780Y19227D01*
X8790Y19226D01*
X8799Y19228D01*
X8807Y19232D01*
X8813Y19238D01*
X8685Y19085D01*
X8690Y19093D01*
X8693Y19102D01*
X8694Y19112D01*
X8693Y19122D01*
X8689Y19134D01*
X8683Y19146D01*
X8674Y19159D01*
X8664Y19173D01*
X8651Y19188D01*
X8636Y19204D01*
X8701Y19281D01*
X8716Y19266D01*
D02*
G37*
G36*
X7661D02*
X7676Y19253D01*
X7690Y19243D01*
X7702Y19235D01*
X7714Y19230D01*
X7725Y19227D01*
X7735Y19226D01*
X7744Y19228D01*
X7751Y19232D01*
X7758Y19238D01*
X7630Y19085D01*
X7635Y19093D01*
X7638Y19102D01*
X7639Y19112D01*
X7637Y19122D01*
X7634Y19134D01*
X7628Y19146D01*
X7619Y19159D01*
X7609Y19173D01*
X7596Y19188D01*
X7581Y19204D01*
X7646Y19281D01*
X7661Y19266D01*
D02*
G37*
G36*
X15782Y18662D02*
X15775Y18668D01*
X15767Y18672D01*
X15758Y18674D01*
X15749Y18673D01*
X15738Y18670D01*
X15726Y18665D01*
X15713Y18657D01*
X15700Y18647D01*
X15685Y18634D01*
X15669Y18619D01*
X15604Y18696D01*
X15620Y18712D01*
X15632Y18727D01*
X15643Y18741D01*
X15651Y18754D01*
X15657Y18766D01*
X15661Y18778D01*
X15663Y18788D01*
X15662Y18798D01*
X15659Y18807D01*
X15654Y18815D01*
X15782Y18662D01*
D02*
G37*
G36*
X5195Y18807D02*
X5192Y18798D01*
X5192Y18788D01*
X5193Y18778D01*
X5197Y18766D01*
X5203Y18754D01*
X5211Y18741D01*
X5222Y18727D01*
X5235Y18712D01*
X5250Y18696D01*
X5185Y18619D01*
X5169Y18634D01*
X5155Y18647D01*
X5141Y18657D01*
X5128Y18665D01*
X5117Y18670D01*
X5106Y18673D01*
X5096Y18674D01*
X5087Y18672D01*
X5079Y18668D01*
X5072Y18662D01*
X5201Y18815D01*
X5195Y18807D01*
D02*
G37*
G36*
X37794Y18487D02*
X37793Y18497D01*
X37790Y18505D01*
X37785Y18513D01*
X37778Y18519D01*
X37769Y18525D01*
X37757Y18529D01*
X37744Y18533D01*
X37729Y18535D01*
X37712Y18537D01*
X37693Y18537D01*
Y18637D01*
X37712Y18638D01*
X37729Y18639D01*
X37744Y18642D01*
X37757Y18645D01*
X37769Y18650D01*
X37778Y18655D01*
X37785Y18662D01*
X37790Y18669D01*
X37793Y18678D01*
X37794Y18687D01*
Y18487D01*
D02*
G37*
G36*
X3497Y18665D02*
X3576Y18562D01*
X3679Y18483D01*
X3800Y18433D01*
X3929Y18416D01*
X4058Y18433D01*
X4145Y18469D01*
X4195Y18435D01*
X4195Y6465D01*
X4145Y6431D01*
X4058Y6467D01*
X3929Y6484D01*
X3800Y6467D01*
X3679Y6417D01*
X3576Y6338D01*
X3497Y6235D01*
X3456Y6137D01*
X3402D01*
X3362Y6235D01*
X3282Y6338D01*
X3179Y6417D01*
X3058Y6467D01*
X2929Y6484D01*
X2800Y6467D01*
X2753Y6448D01*
X2711Y6476D01*
Y13423D01*
X2692Y13520D01*
X2637Y13603D01*
X2418Y13821D01*
X2415Y13836D01*
X2412Y13864D01*
X2406Y13875D01*
X2403Y13887D01*
X2394Y13900D01*
X1929D01*
Y14000D01*
X2356D01*
X2349Y14053D01*
X2309Y14149D01*
X2278Y14189D01*
X2281Y14198D01*
X2279Y14226D01*
X2280Y14255D01*
X2275Y14266D01*
X2274Y14278D01*
X2261Y14303D01*
X2251Y14329D01*
X2243Y14338D01*
X2238Y14348D01*
X2234Y14351D01*
Y14549D01*
X2238Y14552D01*
X2243Y14562D01*
X2251Y14571D01*
X2261Y14597D01*
X2274Y14622D01*
X2275Y14634D01*
X2280Y14645D01*
X2279Y14674D01*
X2281Y14702D01*
X2278Y14711D01*
X2309Y14751D01*
X2349Y14847D01*
X2356Y14900D01*
X1929D01*
Y15000D01*
X2394D01*
X2403Y15013D01*
X2406Y15025D01*
X2412Y15036D01*
X2415Y15064D01*
X2418Y15079D01*
X2721Y15381D01*
X2776Y15464D01*
X2796Y15562D01*
Y18382D01*
X2846Y18426D01*
X2925Y18416D01*
X3054Y18433D01*
X3175Y18483D01*
X3278Y18562D01*
X3358Y18665D01*
X3401Y18769D01*
X3454D01*
X3497Y18665D01*
D02*
G37*
G36*
X5314Y18632D02*
X5329Y18620D01*
X5345Y18610D01*
X5361Y18601D01*
X5378Y18593D01*
X5395Y18587D01*
X5413Y18582D01*
X5432Y18578D01*
X5451Y18576D01*
X5471Y18575D01*
X5500Y18475D01*
X5481Y18474D01*
X5464Y18471D01*
X5449Y18466D01*
X5436Y18459D01*
X5425Y18450D01*
X5416Y18439D01*
X5409Y18426D01*
X5404Y18411D01*
X5401Y18394D01*
X5400Y18375D01*
X5300Y18404D01*
X5299Y18424D01*
X5297Y18443D01*
X5294Y18462D01*
X5289Y18480D01*
X5282Y18497D01*
X5275Y18514D01*
X5265Y18530D01*
X5255Y18546D01*
X5243Y18561D01*
X5229Y18575D01*
X5300Y18646D01*
X5314Y18632D01*
D02*
G37*
G36*
X34258Y18362D02*
X34248Y18350D01*
X34241Y18339D01*
X34237Y18330D01*
X34236Y18322D01*
X34237Y18316D01*
X34241Y18311D01*
X34248Y18308D01*
X34258Y18305D01*
X34271Y18305D01*
X33988D01*
X34002Y18305D01*
X34016Y18308D01*
X34031Y18311D01*
X34045Y18316D01*
X34059Y18322D01*
X34073Y18330D01*
X34087Y18339D01*
X34101Y18350D01*
X34115Y18362D01*
X34130Y18375D01*
X34271D01*
X34258Y18362D01*
D02*
G37*
G36*
X31295Y18140D02*
X31299Y18132D01*
X31305Y18124D01*
X31313Y18118D01*
X31323Y18112D01*
X31336Y18108D01*
X31351Y18104D01*
X31369Y18102D01*
X31389Y18100D01*
X31411Y18100D01*
Y18000D01*
X31389Y18000D01*
X31369Y17998D01*
X31351Y17996D01*
X31336Y17992D01*
X31323Y17988D01*
X31313Y17982D01*
X31305Y17976D01*
X31299Y17968D01*
X31295Y17960D01*
X31294Y17951D01*
Y18149D01*
X31295Y18140D01*
D02*
G37*
G36*
X30185Y17901D02*
X30182Y17910D01*
X30176Y17919D01*
X30169Y17926D01*
X30159Y17932D01*
X30147Y17938D01*
X30133Y17942D01*
X30117Y17946D01*
X30098Y17948D01*
X30078Y17950D01*
X30055Y17950D01*
X30035Y18050D01*
X30057Y18051D01*
X30076Y18052D01*
X30093Y18054D01*
X30108Y18058D01*
X30120Y18062D01*
X30129Y18068D01*
X30136Y18074D01*
X30140Y18082D01*
X30142Y18090D01*
X30141Y18100D01*
X30185Y17901D01*
D02*
G37*
G36*
X28095Y18090D02*
X28098Y18082D01*
X28104Y18074D01*
X28112Y18068D01*
X28123Y18062D01*
X28136Y18058D01*
X28151Y18054D01*
X28168Y18052D01*
X28188Y18050D01*
X28210Y18050D01*
Y17950D01*
X28188Y17950D01*
X28168Y17948D01*
X28151Y17946D01*
X28136Y17942D01*
X28123Y17938D01*
X28112Y17932D01*
X28104Y17926D01*
X28098Y17918D01*
X28095Y17910D01*
X28094Y17901D01*
Y18099D01*
X28095Y18090D01*
D02*
G37*
G36*
X24964Y18090D02*
X24967Y18082D01*
X24972Y18075D01*
X24980Y18068D01*
X24989Y18062D01*
X25000Y18058D01*
X25013Y18054D01*
X25028Y18052D01*
X25045Y18051D01*
X25065Y18050D01*
Y17950D01*
X25045Y17950D01*
X25028Y17948D01*
X25013Y17945D01*
X25000Y17942D01*
X24989Y17938D01*
X24980Y17932D01*
X24972Y17925D01*
X24967Y17918D01*
X24964Y17909D01*
X24963Y17900D01*
Y18100D01*
X24964Y18090D01*
D02*
G37*
G36*
X30816Y17794D02*
X30807Y17791D01*
X30800Y17786D01*
X30793Y17779D01*
X30788Y17770D01*
X30783Y17759D01*
X30780Y17746D01*
X30777Y17730D01*
X30776Y17713D01*
X30775Y17694D01*
X30675D01*
X30675Y17713D01*
X30673Y17730D01*
X30671Y17746D01*
X30667Y17759D01*
X30663Y17770D01*
X30657Y17779D01*
X30651Y17786D01*
X30643Y17791D01*
X30635Y17794D01*
X30625Y17795D01*
X30825D01*
X30816Y17794D01*
D02*
G37*
G36*
X29024Y17183D02*
X28992Y17165D01*
X28838Y17065D01*
X28826Y17054D01*
X28816Y17045D01*
X28694Y17065D01*
X28708Y17081D01*
X28720Y17098D01*
X28728Y17116D01*
X28733Y17134D01*
X28734Y17153D01*
X28733Y17172D01*
X28728Y17192D01*
X28720Y17213D01*
X28709Y17234D01*
X28695Y17257D01*
X29024Y17183D01*
D02*
G37*
G36*
X21170Y21150D02*
X21116Y21080D01*
X21060Y20945D01*
X21041Y20800D01*
X21060Y20655D01*
X21116Y20520D01*
X21205Y20405D01*
X21301Y20330D01*
X21305Y20322D01*
Y20278D01*
X21301Y20270D01*
X21205Y20195D01*
X21116Y20080D01*
X21060Y19945D01*
X21041Y19800D01*
X21060Y19655D01*
X21116Y19520D01*
X21205Y19405D01*
X21320Y19316D01*
X21424Y19273D01*
Y19219D01*
X21371Y19197D01*
X21276Y19124D01*
X21203Y19029D01*
X21157Y18919D01*
X21148Y18850D01*
X21600D01*
Y18750D01*
X21148D01*
X21157Y18681D01*
X21203Y18571D01*
X21276Y18476D01*
X21371Y18403D01*
X21429Y18379D01*
X21439Y18330D01*
X19735Y16626D01*
X19396D01*
X19374Y16671D01*
X19397Y16700D01*
X19446Y16821D01*
X19463Y16950D01*
X19446Y17079D01*
X19397Y17200D01*
X19317Y17303D01*
X19214Y17382D01*
X19116Y17423D01*
Y17477D01*
X19214Y17518D01*
X19317Y17597D01*
X19397Y17700D01*
X19446Y17821D01*
X19463Y17950D01*
X19446Y18079D01*
X19397Y18200D01*
X19317Y18303D01*
X19214Y18382D01*
X19116Y18423D01*
Y18477D01*
X19214Y18518D01*
X19317Y18597D01*
X19397Y18700D01*
X19446Y18821D01*
X19463Y18950D01*
X19446Y19079D01*
X19397Y19200D01*
X19317Y19303D01*
X19214Y19382D01*
X19116Y19423D01*
Y19477D01*
X19214Y19518D01*
X19317Y19597D01*
X19397Y19700D01*
X19446Y19821D01*
X19463Y19950D01*
X19446Y20079D01*
X19397Y20200D01*
X19317Y20303D01*
X19214Y20382D01*
X19093Y20432D01*
X18964Y20449D01*
X18894D01*
X18765Y20432D01*
X18644Y20382D01*
X18541Y20303D01*
X18462Y20200D01*
X18454Y20181D01*
X18404D01*
X18397Y20200D01*
X18317Y20303D01*
X18214Y20382D01*
X18093Y20432D01*
X17964Y20449D01*
X17894D01*
X17765Y20432D01*
X17746Y20425D01*
X17705Y20452D01*
Y20894D01*
X18006Y21195D01*
X21148D01*
X21170Y21150D01*
D02*
G37*
G36*
X18260Y16210D02*
X18245Y16194D01*
X18232Y16180D01*
X18222Y16166D01*
X18214Y16153D01*
X18209Y16141D01*
X18206Y16131D01*
X18205Y16121D01*
X18207Y16112D01*
X18211Y16104D01*
X18217Y16097D01*
X18064Y16225D01*
X18072Y16220D01*
X18081Y16217D01*
X18091Y16217D01*
X18101Y16218D01*
X18113Y16222D01*
X18125Y16228D01*
X18138Y16236D01*
X18152Y16247D01*
X18167Y16260D01*
X18183Y16275D01*
X18260Y16210D01*
D02*
G37*
G36*
X19241Y16040D02*
X19244Y16032D01*
X19250Y16024D01*
X19258Y16018D01*
X19268Y16012D01*
X19281Y16008D01*
X19296Y16004D01*
X19313Y16002D01*
X19333Y16000D01*
X19354Y16000D01*
Y15900D01*
X19333Y15899D01*
X19313Y15898D01*
X19296Y15896D01*
X19281Y15892D01*
X19268Y15888D01*
X19258Y15882D01*
X19250Y15876D01*
X19244Y15868D01*
X19241Y15860D01*
X19240Y15850D01*
Y16050D01*
X19241Y16040D01*
D02*
G37*
G36*
X18260Y15210D02*
X18245Y15194D01*
X18232Y15180D01*
X18222Y15166D01*
X18214Y15153D01*
X18209Y15141D01*
X18206Y15131D01*
X18205Y15121D01*
X18207Y15112D01*
X18211Y15104D01*
X18217Y15097D01*
X18064Y15225D01*
X18072Y15220D01*
X18081Y15217D01*
X18091Y15217D01*
X18101Y15218D01*
X18113Y15222D01*
X18125Y15228D01*
X18138Y15236D01*
X18152Y15247D01*
X18167Y15260D01*
X18183Y15275D01*
X18260Y15210D01*
D02*
G37*
G36*
X2260D02*
X2245Y15194D01*
X2232Y15180D01*
X2222Y15166D01*
X2214Y15153D01*
X2209Y15141D01*
X2206Y15131D01*
X2205Y15121D01*
X2207Y15112D01*
X2211Y15104D01*
X2217Y15097D01*
X2064Y15225D01*
X2072Y15220D01*
X2081Y15217D01*
X2091Y15217D01*
X2101Y15218D01*
X2113Y15222D01*
X2125Y15228D01*
X2138Y15236D01*
X2152Y15247D01*
X2167Y15260D01*
X2183Y15275D01*
X2260Y15210D01*
D02*
G37*
G36*
X2069Y14677D02*
X2061Y14673D01*
X2053Y14667D01*
X2047Y14658D01*
X2041Y14648D01*
X2037Y14635D01*
X2034Y14620D01*
X2031Y14603D01*
X2030Y14584D01*
X2029Y14563D01*
X1929Y14555D01*
X1929Y14575D01*
X1927Y14593D01*
X1925Y14609D01*
X1921Y14623D01*
X1917Y14635D01*
X1911Y14644D01*
X1905Y14651D01*
X1897Y14655D01*
X1889Y14657D01*
X1879Y14657D01*
X2079Y14679D01*
X2069Y14677D01*
D02*
G37*
G36*
X21891Y14710D02*
X21962Y14647D01*
X21996Y14621D01*
X22028Y14600D01*
X22058Y14582D01*
X22087Y14568D01*
X22114Y14558D01*
X22139Y14552D01*
X22163Y14550D01*
Y14450D01*
X22139Y14448D01*
X22114Y14442D01*
X22087Y14432D01*
X22058Y14418D01*
X22028Y14400D01*
X21996Y14379D01*
X21962Y14353D01*
X21891Y14290D01*
X21853Y14252D01*
Y14748D01*
X21891Y14710D01*
D02*
G37*
G36*
X2029Y14337D02*
X2030Y14316D01*
X2031Y14297D01*
X2034Y14280D01*
X2037Y14265D01*
X2041Y14253D01*
X2047Y14242D01*
X2053Y14233D01*
X2061Y14227D01*
X2069Y14223D01*
X2079Y14221D01*
X1879Y14243D01*
X1889Y14243D01*
X1897Y14245D01*
X1905Y14249D01*
X1911Y14256D01*
X1917Y14265D01*
X1921Y14277D01*
X1925Y14291D01*
X1927Y14306D01*
X1929Y14325D01*
X1929Y14345D01*
X2029Y14337D01*
D02*
G37*
G36*
X18260Y14210D02*
X18245Y14194D01*
X18232Y14180D01*
X18222Y14166D01*
X18214Y14153D01*
X18209Y14141D01*
X18206Y14131D01*
X18205Y14121D01*
X18207Y14112D01*
X18211Y14104D01*
X18217Y14097D01*
X18064Y14225D01*
X18072Y14220D01*
X18081Y14217D01*
X18091Y14217D01*
X18101Y14218D01*
X18113Y14222D01*
X18125Y14228D01*
X18138Y14236D01*
X18152Y14247D01*
X18167Y14260D01*
X18183Y14275D01*
X18260Y14210D01*
D02*
G37*
G36*
X38190Y14170D02*
X38171Y14146D01*
X38154Y14116D01*
X38138Y14080D01*
X38125Y14038D01*
X38115Y13990D01*
X38106Y13935D01*
X38095Y13807D01*
X38092Y13734D01*
X38092Y13655D01*
X37605Y14142D01*
X37684Y14142D01*
X37885Y14156D01*
X37940Y14165D01*
X37988Y14175D01*
X38030Y14188D01*
X38066Y14204D01*
X38096Y14221D01*
X38120Y14240D01*
X38190Y14170D01*
D02*
G37*
G36*
X2211Y13796D02*
X2207Y13788D01*
X2205Y13779D01*
X2206Y13769D01*
X2209Y13759D01*
X2214Y13747D01*
X2222Y13734D01*
X2232Y13720D01*
X2245Y13706D01*
X2260Y13690D01*
X2183Y13625D01*
X2167Y13640D01*
X2152Y13653D01*
X2138Y13664D01*
X2125Y13672D01*
X2113Y13678D01*
X2101Y13682D01*
X2091Y13683D01*
X2081Y13683D01*
X2072Y13680D01*
X2064Y13675D01*
X2217Y13803D01*
X2211Y13796D01*
D02*
G37*
G36*
X24501Y13684D02*
X24461Y13637D01*
X24445Y13615D01*
X24431Y13593D01*
X24420Y13571D01*
X24411Y13551D01*
X24405Y13530D01*
X24401Y13511D01*
X24400Y13492D01*
X24300D01*
X24299Y13511D01*
X24295Y13530D01*
X24289Y13551D01*
X24280Y13571D01*
X24269Y13593D01*
X24255Y13615D01*
X24239Y13637D01*
X24220Y13660D01*
X24175Y13708D01*
X24525D01*
X24501Y13684D01*
D02*
G37*
G36*
X30776Y13387D02*
X30777Y13369D01*
X30780Y13354D01*
X30783Y13341D01*
X30788Y13330D01*
X30793Y13321D01*
X30800Y13314D01*
X30807Y13309D01*
X30816Y13306D01*
X30825Y13305D01*
X30625D01*
X30635Y13306D01*
X30643Y13309D01*
X30651Y13314D01*
X30657Y13321D01*
X30663Y13330D01*
X30667Y13341D01*
X30671Y13354D01*
X30673Y13369D01*
X30675Y13387D01*
X30675Y13406D01*
X30775D01*
X30776Y13387D01*
D02*
G37*
G36*
X24400Y13385D02*
X24402Y13368D01*
X24404Y13353D01*
X24408Y13340D01*
X24413Y13329D01*
X24418Y13320D01*
X24425Y13313D01*
X24432Y13308D01*
X24441Y13305D01*
X24450Y13304D01*
X24250D01*
X24260Y13305D01*
X24268Y13308D01*
X24276Y13313D01*
X24282Y13320D01*
X24288Y13329D01*
X24292Y13340D01*
X24295Y13353D01*
X24298Y13368D01*
X24299Y13385D01*
X24300Y13405D01*
X24400D01*
X24400Y13385D01*
D02*
G37*
G36*
X18260Y13210D02*
X18245Y13194D01*
X18232Y13180D01*
X18222Y13166D01*
X18214Y13153D01*
X18209Y13141D01*
X18206Y13131D01*
X18205Y13121D01*
X18207Y13112D01*
X18211Y13104D01*
X18217Y13097D01*
X18064Y13225D01*
X18072Y13220D01*
X18081Y13217D01*
X18091Y13217D01*
X18101Y13218D01*
X18113Y13222D01*
X18125Y13228D01*
X18138Y13236D01*
X18152Y13247D01*
X18167Y13260D01*
X18183Y13275D01*
X18260Y13210D01*
D02*
G37*
G36*
X30156Y12951D02*
X30155Y12960D01*
X30152Y12968D01*
X30146Y12976D01*
X30138Y12982D01*
X30127Y12988D01*
X30114Y12992D01*
X30099Y12996D01*
X30082Y12998D01*
X30062Y13000D01*
X30040Y13000D01*
Y13100D01*
X30062Y13100D01*
X30082Y13102D01*
X30099Y13104D01*
X30114Y13108D01*
X30127Y13112D01*
X30138Y13118D01*
X30146Y13124D01*
X30152Y13132D01*
X30155Y13140D01*
X30156Y13149D01*
Y12951D01*
D02*
G37*
G36*
X28095Y13140D02*
X28098Y13132D01*
X28104Y13124D01*
X28112Y13118D01*
X28123Y13112D01*
X28136Y13108D01*
X28151Y13104D01*
X28168Y13102D01*
X28188Y13100D01*
X28210Y13100D01*
Y13000D01*
X28188Y13000D01*
X28168Y12998D01*
X28151Y12996D01*
X28136Y12992D01*
X28123Y12988D01*
X28112Y12982D01*
X28104Y12976D01*
X28098Y12968D01*
X28095Y12960D01*
X28094Y12951D01*
Y13149D01*
X28095Y13140D01*
D02*
G37*
G36*
X33287Y12900D02*
X33286Y12909D01*
X33283Y12918D01*
X33278Y12925D01*
X33270Y12932D01*
X33261Y12938D01*
X33250Y12942D01*
X33237Y12945D01*
X33222Y12948D01*
X33205Y12950D01*
X33185Y12950D01*
Y13050D01*
X33205Y13051D01*
X33222Y13052D01*
X33237Y13054D01*
X33250Y13058D01*
X33261Y13062D01*
X33270Y13068D01*
X33278Y13075D01*
X33283Y13082D01*
X33286Y13090D01*
X33287Y13100D01*
Y12900D01*
D02*
G37*
G36*
X33965Y12795D02*
X33957Y12792D01*
X33949Y12787D01*
X33943Y12780D01*
X33937Y12771D01*
X33933Y12760D01*
X33929Y12747D01*
X33927Y12732D01*
X33925Y12715D01*
X33925Y12695D01*
X33825D01*
X33824Y12715D01*
X33823Y12732D01*
X33820Y12747D01*
X33817Y12760D01*
X33812Y12771D01*
X33807Y12780D01*
X33800Y12787D01*
X33793Y12792D01*
X33784Y12795D01*
X33775Y12796D01*
X33975D01*
X33965Y12795D01*
D02*
G37*
G36*
X18290Y12166D02*
X18275Y12150D01*
X18263Y12135D01*
X18252Y12121D01*
X18244Y12108D01*
X18237Y12095D01*
X18234Y12084D01*
X18232Y12073D01*
X18233Y12063D01*
X18236Y12054D01*
X18241Y12046D01*
X18114Y12201D01*
X18121Y12195D01*
X18129Y12191D01*
X18138Y12189D01*
X18148Y12190D01*
X18158Y12193D01*
X18170Y12198D01*
X18183Y12206D01*
X18196Y12216D01*
X18211Y12228D01*
X18227Y12243D01*
X18290Y12166D01*
D02*
G37*
G36*
X38162Y12141D02*
X38142Y12120D01*
X38110Y12083D01*
X38099Y12067D01*
X38090Y12052D01*
X38085Y12039D01*
X38082Y12027D01*
X38081Y12016D01*
X38084Y12007D01*
X38090Y11999D01*
X37950Y12140D01*
X37957Y12134D01*
X37966Y12131D01*
X37977Y12132D01*
X37989Y12135D01*
X38002Y12140D01*
X38017Y12149D01*
X38033Y12160D01*
X38051Y12175D01*
X38091Y12212D01*
X38162Y12141D01*
D02*
G37*
G36*
X19244Y12033D02*
X19247Y12026D01*
X19252Y12020D01*
X19260Y12015D01*
X19269Y12010D01*
X19281Y12006D01*
X19295Y12004D01*
X19311Y12002D01*
X19330Y12000D01*
X19350Y12000D01*
Y11900D01*
X19330Y11900D01*
X19295Y11896D01*
X19281Y11894D01*
X19269Y11890D01*
X19260Y11885D01*
X19252Y11880D01*
X19247Y11874D01*
X19244Y11867D01*
X19243Y11860D01*
Y12040D01*
X19244Y12033D01*
D02*
G37*
G36*
X32915Y11494D02*
X32902Y11480D01*
X32891Y11463D01*
X32881Y11444D01*
X32872Y11423D01*
X32865Y11400D01*
X32859Y11375D01*
X32855Y11348D01*
X32852Y11318D01*
X32850Y11252D01*
X32603Y11500D01*
X32636Y11500D01*
X32698Y11505D01*
X32725Y11509D01*
X32750Y11515D01*
X32773Y11522D01*
X32794Y11531D01*
X32813Y11541D01*
X32830Y11552D01*
X32844Y11565D01*
X32915Y11494D01*
D02*
G37*
G36*
X38085Y11293D02*
X38082Y11284D01*
Y11273D01*
X38085Y11261D01*
X38091Y11247D01*
X38099Y11233D01*
X38111Y11216D01*
X38125Y11199D01*
X38162Y11159D01*
X38091Y11088D01*
X38070Y11108D01*
X38034Y11139D01*
X38017Y11151D01*
X38003Y11159D01*
X37989Y11165D01*
X37977Y11168D01*
X37966D01*
X37957Y11165D01*
X37950Y11159D01*
X38091Y11300D01*
X38085Y11293D01*
D02*
G37*
G36*
X19241Y11036D02*
X19244Y11028D01*
X19250Y11020D01*
X19258Y11014D01*
X19268Y11008D01*
X19281Y11004D01*
X19296Y11001D01*
X19313Y10998D01*
X19333Y10997D01*
X19354Y10996D01*
Y10896D01*
X19333Y10896D01*
X19313Y10894D01*
X19296Y10892D01*
X19281Y10888D01*
X19268Y10884D01*
X19258Y10878D01*
X19250Y10872D01*
X19244Y10864D01*
X19241Y10856D01*
X19240Y10846D01*
Y11046D01*
X19241Y11036D01*
D02*
G37*
G36*
X18260Y10210D02*
X18245Y10194D01*
X18232Y10180D01*
X18222Y10166D01*
X18214Y10153D01*
X18209Y10141D01*
X18206Y10131D01*
X18205Y10121D01*
X18207Y10112D01*
X18211Y10104D01*
X18217Y10097D01*
X18064Y10225D01*
X18072Y10220D01*
X18081Y10217D01*
X18091Y10217D01*
X18101Y10218D01*
X18113Y10222D01*
X18125Y10228D01*
X18138Y10236D01*
X18152Y10247D01*
X18167Y10260D01*
X18183Y10275D01*
X18260Y10210D01*
D02*
G37*
G36*
X19241Y10040D02*
X19244Y10032D01*
X19250Y10024D01*
X19258Y10018D01*
X19268Y10012D01*
X19281Y10008D01*
X19296Y10004D01*
X19313Y10002D01*
X19333Y10000D01*
X19354Y10000D01*
Y9900D01*
X19333Y9900D01*
X19313Y9898D01*
X19296Y9896D01*
X19281Y9892D01*
X19268Y9888D01*
X19258Y9882D01*
X19250Y9876D01*
X19244Y9868D01*
X19241Y9860D01*
X19240Y9850D01*
Y10050D01*
X19241Y10040D01*
D02*
G37*
G36*
X18211Y8796D02*
X18207Y8788D01*
X18205Y8779D01*
X18206Y8769D01*
X18209Y8759D01*
X18214Y8747D01*
X18222Y8734D01*
X18232Y8720D01*
X18245Y8706D01*
X18260Y8690D01*
X18183Y8625D01*
X18167Y8640D01*
X18152Y8653D01*
X18138Y8664D01*
X18125Y8672D01*
X18113Y8678D01*
X18101Y8682D01*
X18091Y8683D01*
X18081Y8683D01*
X18072Y8680D01*
X18064Y8675D01*
X18217Y8803D01*
X18211Y8796D01*
D02*
G37*
G36*
X30938Y7814D02*
X30940Y7797D01*
X30942Y7781D01*
X30946Y7768D01*
X30950Y7757D01*
X30956Y7748D01*
X30962Y7741D01*
X30970Y7736D01*
X30978Y7733D01*
X30988Y7732D01*
X30788D01*
X30797Y7733D01*
X30806Y7736D01*
X30813Y7741D01*
X30820Y7748D01*
X30825Y7757D01*
X30830Y7768D01*
X30833Y7781D01*
X30836Y7797D01*
X30837Y7814D01*
X30838Y7833D01*
X30938D01*
X30938Y7814D01*
D02*
G37*
G36*
X38199Y7478D02*
X38187Y7464D01*
X38176Y7449D01*
X38166Y7431D01*
X38158Y7411D01*
X38151Y7390D01*
X38145Y7366D01*
X38141Y7341D01*
X38138Y7313D01*
X38136Y7252D01*
X37902Y7486D01*
X37934Y7487D01*
X37991Y7491D01*
X38016Y7495D01*
X38040Y7501D01*
X38061Y7508D01*
X38081Y7516D01*
X38099Y7526D01*
X38114Y7537D01*
X38128Y7549D01*
X38199Y7478D01*
D02*
G37*
G36*
X22034Y7513D02*
X22018Y7495D01*
X22004Y7472D01*
X21992Y7446D01*
X21982Y7416D01*
X21973Y7382D01*
X21966Y7344D01*
X21960Y7302D01*
X21955Y7207D01*
X21954Y7154D01*
X21604Y7504D01*
X21657Y7505D01*
X21752Y7510D01*
X21794Y7516D01*
X21832Y7523D01*
X21866Y7532D01*
X21896Y7542D01*
X21922Y7554D01*
X21945Y7568D01*
X21963Y7584D01*
X22034Y7513D01*
D02*
G37*
G36*
X38137Y7216D02*
X38141Y7159D01*
X38145Y7134D01*
X38151Y7110D01*
X38158Y7089D01*
X38166Y7069D01*
X38176Y7051D01*
X38187Y7036D01*
X38199Y7022D01*
X38128Y6951D01*
X38114Y6963D01*
X38099Y6974D01*
X38081Y6984D01*
X38061Y6992D01*
X38040Y6999D01*
X38016Y7005D01*
X37991Y7009D01*
X37963Y7012D01*
X37902Y7014D01*
X38136Y7248D01*
X38137Y7216D01*
D02*
G37*
G36*
X30298Y6650D02*
X30297Y6660D01*
X30294Y6668D01*
X30289Y6676D01*
X30282Y6682D01*
X30273Y6687D01*
X30262Y6692D01*
X30249Y6696D01*
X30234Y6698D01*
X30217Y6700D01*
X30198Y6700D01*
Y6800D01*
X30217Y6801D01*
X30234Y6802D01*
X30249Y6805D01*
X30262Y6808D01*
X30273Y6812D01*
X30282Y6818D01*
X30289Y6824D01*
X30294Y6832D01*
X30297Y6841D01*
X30298Y6850D01*
Y6650D01*
D02*
G37*
G36*
X18691Y6260D02*
X18706Y6247D01*
X18720Y6236D01*
X18733Y6228D01*
X18745Y6222D01*
X18757Y6218D01*
X18768Y6217D01*
X18777Y6217D01*
X18786Y6220D01*
X18794Y6225D01*
X18641Y6097D01*
X18647Y6104D01*
X18652Y6112D01*
X18653Y6121D01*
X18653Y6131D01*
X18650Y6141D01*
X18644Y6153D01*
X18636Y6166D01*
X18626Y6180D01*
X18614Y6194D01*
X18599Y6210D01*
X18675Y6275D01*
X18691Y6260D01*
D02*
G37*
G36*
X17691D02*
X17706Y6247D01*
X17720Y6236D01*
X17733Y6228D01*
X17745Y6222D01*
X17757Y6218D01*
X17768Y6217D01*
X17777Y6217D01*
X17786Y6220D01*
X17794Y6225D01*
X17641Y6097D01*
X17647Y6104D01*
X17652Y6112D01*
X17653Y6121D01*
X17653Y6131D01*
X17650Y6141D01*
X17644Y6153D01*
X17636Y6166D01*
X17626Y6180D01*
X17614Y6194D01*
X17599Y6210D01*
X17675Y6275D01*
X17691Y6260D01*
D02*
G37*
G36*
X21891Y6360D02*
X21962Y6297D01*
X21996Y6271D01*
X22028Y6250D01*
X22058Y6232D01*
X22087Y6218D01*
X22114Y6208D01*
X22139Y6202D01*
X22163Y6200D01*
Y6100D01*
X22139Y6098D01*
X22114Y6092D01*
X22087Y6082D01*
X22058Y6068D01*
X22028Y6050D01*
X21996Y6029D01*
X21962Y6003D01*
X21891Y5940D01*
X21853Y5902D01*
Y6398D01*
X21891Y6360D01*
D02*
G37*
G36*
X15199Y5807D02*
X15196Y5798D01*
X15196Y5788D01*
X15197Y5778D01*
X15201Y5766D01*
X15207Y5754D01*
X15215Y5741D01*
X15226Y5727D01*
X15239Y5712D01*
X15254Y5696D01*
X15189Y5619D01*
X15173Y5634D01*
X15159Y5647D01*
X15145Y5657D01*
X15132Y5665D01*
X15120Y5670D01*
X15110Y5673D01*
X15100Y5674D01*
X15091Y5672D01*
X15083Y5668D01*
X15076Y5662D01*
X15205Y5815D01*
X15199Y5807D01*
D02*
G37*
G36*
X14199D02*
X14196Y5798D01*
X14196Y5788D01*
X14197Y5778D01*
X14201Y5766D01*
X14207Y5754D01*
X14215Y5741D01*
X14226Y5727D01*
X14239Y5712D01*
X14254Y5696D01*
X14189Y5619D01*
X14173Y5634D01*
X14159Y5647D01*
X14145Y5657D01*
X14132Y5665D01*
X14120Y5670D01*
X14110Y5673D01*
X14100Y5674D01*
X14091Y5672D01*
X14083Y5668D01*
X14076Y5662D01*
X14205Y5815D01*
X14199Y5807D01*
D02*
G37*
G36*
X19260Y5210D02*
X19245Y5194D01*
X19232Y5180D01*
X19222Y5166D01*
X19214Y5153D01*
X19209Y5141D01*
X19206Y5131D01*
X19205Y5121D01*
X19207Y5112D01*
X19211Y5104D01*
X19217Y5097D01*
X19064Y5225D01*
X19072Y5220D01*
X19081Y5217D01*
X19091Y5217D01*
X19101Y5218D01*
X19113Y5222D01*
X19125Y5228D01*
X19138Y5236D01*
X19152Y5247D01*
X19167Y5260D01*
X19183Y5275D01*
X19260Y5210D01*
D02*
G37*
G36*
X21180Y6787D02*
X21205Y6755D01*
X21320Y6666D01*
X21424Y6623D01*
Y6569D01*
X21371Y6547D01*
X21276Y6474D01*
X21203Y6379D01*
X21157Y6269D01*
X21148Y6200D01*
X21600D01*
Y6150D01*
X21650D01*
Y5698D01*
X21719Y5707D01*
X21759Y5724D01*
X21774Y5714D01*
X21775Y5714D01*
X21775Y5714D01*
X21813Y5706D01*
X21852Y5698D01*
X21852Y5698D01*
X21853Y5698D01*
X21892Y5706D01*
X21930Y5713D01*
X21931Y5713D01*
X21931Y5714D01*
X21964Y5735D01*
X21996Y5757D01*
X22031Y5791D01*
X22093Y5846D01*
X22116Y5864D01*
X22137Y5878D01*
X22154Y5888D01*
X22166Y5894D01*
X22169Y5895D01*
X24700D01*
X24798Y5915D01*
X24880Y5970D01*
X25255Y6345D01*
X25316Y6354D01*
X26900Y4770D01*
X26903Y4768D01*
X26908Y4718D01*
X25844Y3655D01*
X24922D01*
X24900Y3700D01*
X24937Y3748D01*
X24987Y3869D01*
X25004Y4000D01*
X24987Y4131D01*
X24937Y4252D01*
X24857Y4357D01*
X24752Y4437D01*
X24631Y4487D01*
X24500Y4504D01*
X24369Y4487D01*
X24248Y4437D01*
X24143Y4357D01*
X24063Y4252D01*
X24027Y4165D01*
X23973D01*
X23937Y4252D01*
X23857Y4357D01*
X23752Y4437D01*
X23631Y4487D01*
X23500Y4504D01*
X23369Y4487D01*
X23248Y4437D01*
X23143Y4357D01*
X23063Y4252D01*
X23027Y4165D01*
X22973D01*
X22937Y4252D01*
X22857Y4357D01*
X22752Y4437D01*
X22631Y4487D01*
X22500Y4504D01*
X22369Y4487D01*
X22248Y4437D01*
X22143Y4357D01*
X22063Y4252D01*
X22050Y4220D01*
X22000Y4230D01*
Y4500D01*
X21000D01*
Y3655D01*
X16356D01*
X15755Y4256D01*
Y4406D01*
X15789Y4429D01*
X15805Y4432D01*
X15929Y4416D01*
X16058Y4433D01*
X16179Y4483D01*
X16282Y4562D01*
X16362Y4665D01*
X16402Y4763D01*
X16456D01*
X16497Y4665D01*
X16576Y4562D01*
X16680Y4483D01*
X16800Y4433D01*
X16929Y4416D01*
X17058Y4433D01*
X17179Y4483D01*
X17282Y4562D01*
X17362Y4665D01*
X17392Y4739D01*
X17446D01*
X17462Y4700D01*
X17541Y4597D01*
X17644Y4518D01*
X17765Y4468D01*
X17894Y4451D01*
X17964D01*
X18093Y4468D01*
X18214Y4518D01*
X18317Y4597D01*
X18397Y4700D01*
X18404Y4719D01*
X18454D01*
X18462Y4700D01*
X18541Y4597D01*
X18644Y4518D01*
X18765Y4468D01*
X18894Y4451D01*
X18964D01*
X19093Y4468D01*
X19214Y4518D01*
X19317Y4597D01*
X19397Y4700D01*
X19446Y4821D01*
X19463Y4950D01*
X19446Y5079D01*
X19438Y5099D01*
X21130Y6790D01*
X21180Y6787D01*
D02*
G37*
G36*
X3497Y4665D02*
X3576Y4562D01*
X3679Y4483D01*
X3800Y4433D01*
X3929Y4416D01*
X4058Y4433D01*
X4159Y4474D01*
X4211Y4454D01*
X4217Y4449D01*
X4270Y4370D01*
X4670Y3970D01*
X4752Y3914D01*
X4850Y3895D01*
X10194D01*
X10695Y3394D01*
Y2893D01*
X10654Y2866D01*
X10595Y2890D01*
X10450Y2909D01*
X10305Y2890D01*
X10170Y2834D01*
X10055Y2745D01*
X9980Y2649D01*
X9972Y2645D01*
X9928D01*
X9920Y2649D01*
X9845Y2745D01*
X9730Y2834D01*
X9595Y2890D01*
X9450Y2909D01*
X9305Y2890D01*
X9170Y2834D01*
X9055Y2745D01*
X8980Y2649D01*
X8972Y2645D01*
X8928D01*
X8920Y2649D01*
X8845Y2745D01*
X8730Y2834D01*
X8595Y2890D01*
X8450Y2909D01*
X8305Y2890D01*
X8170Y2834D01*
X8055Y2745D01*
X7980Y2649D01*
X7972Y2645D01*
X7928D01*
X7920Y2649D01*
X7845Y2745D01*
X7730Y2834D01*
X7595Y2890D01*
X7450Y2909D01*
X7305Y2890D01*
X7170Y2834D01*
X7055Y2745D01*
X7051Y2740D01*
X7019Y2709D01*
X6957Y2654D01*
X6934Y2636D01*
X6913Y2622D01*
X6896Y2612D01*
X6884Y2606D01*
X6881Y2605D01*
X5750D01*
X5652Y2585D01*
X5570Y2530D01*
X5230Y2190D01*
X5187Y2218D01*
X5193Y2231D01*
X5202Y2300D01*
X4750D01*
Y2350D01*
X4700D01*
Y2802D01*
X4631Y2793D01*
X4521Y2747D01*
X4426Y2674D01*
X4353Y2579D01*
X4331Y2526D01*
X4277D01*
X4234Y2630D01*
X4145Y2745D01*
X4030Y2834D01*
X3895Y2890D01*
X3750Y2909D01*
X3605Y2890D01*
X3470Y2834D01*
X3355Y2745D01*
X3280Y2649D01*
X3272Y2645D01*
X3228D01*
X3220Y2649D01*
X3145Y2745D01*
X3030Y2834D01*
X2895Y2890D01*
X2750Y2909D01*
X2605Y2890D01*
X2470Y2834D01*
X2450Y2818D01*
X2405Y2840D01*
Y4188D01*
X2637Y4420D01*
X2678Y4482D01*
X2679Y4483D01*
X2800Y4433D01*
X2929Y4416D01*
X3058Y4433D01*
X3179Y4483D01*
X3282Y4562D01*
X3362Y4665D01*
X3402Y4763D01*
X3456D01*
X3497Y4665D01*
D02*
G37*
G36*
X36300Y3971D02*
X36315Y3959D01*
X36329Y3948D01*
X36343Y3939D01*
X36357Y3931D01*
X36371Y3924D01*
X36385Y3919D01*
X36399Y3916D01*
X36413Y3914D01*
X36427Y3913D01*
X36163Y3914D01*
X36163Y3924D01*
X36161Y3942D01*
X36160Y3950D01*
X36158Y3958D01*
X36156Y3965D01*
X36154Y3971D01*
X36151Y3976D01*
X36148Y3981D01*
X36145Y3985D01*
X36286D01*
X36300Y3971D01*
D02*
G37*
G36*
X36979Y3914D02*
X36959Y3893D01*
X36928Y3856D01*
X36917Y3840D01*
X36908Y3825D01*
X36902Y3812D01*
X36899Y3800D01*
X36899Y3789D01*
X36902Y3780D01*
X36907Y3773D01*
X36767Y3913D01*
X36775Y3907D01*
X36784Y3905D01*
X36795Y3905D01*
X36807Y3908D01*
X36820Y3913D01*
X36835Y3922D01*
X36851Y3933D01*
X36869Y3948D01*
X36909Y3985D01*
X36979Y3914D01*
D02*
G37*
G36*
X34398Y3981D02*
X34421Y3967D01*
X34449Y3954D01*
X34481Y3943D01*
X34517Y3934D01*
X34557Y3927D01*
X34602Y3921D01*
X34703Y3915D01*
X34760Y3915D01*
X34390Y3545D01*
X34390Y3602D01*
X34384Y3704D01*
X34378Y3748D01*
X34371Y3789D01*
X34362Y3825D01*
X34351Y3857D01*
X34339Y3884D01*
X34324Y3907D01*
X34308Y3927D01*
X34379Y3997D01*
X34398Y3981D01*
D02*
G37*
G36*
X30873D02*
X30896Y3967D01*
X30924Y3954D01*
X30956Y3943D01*
X30992Y3934D01*
X31032Y3927D01*
X31077Y3921D01*
X31178Y3915D01*
X31235Y3915D01*
X30865Y3545D01*
X30865Y3602D01*
X30859Y3704D01*
X30853Y3748D01*
X30846Y3789D01*
X30837Y3825D01*
X30826Y3857D01*
X30814Y3884D01*
X30799Y3907D01*
X30783Y3927D01*
X30854Y3997D01*
X30873Y3981D01*
D02*
G37*
G36*
X27710Y3167D02*
X27653Y3167D01*
X27552Y3161D01*
X27507Y3155D01*
X27467Y3148D01*
X27431Y3139D01*
X27399Y3128D01*
X27371Y3116D01*
X27348Y3101D01*
X27329Y3085D01*
X27258Y3156D01*
X27274Y3175D01*
X27289Y3198D01*
X27301Y3226D01*
X27312Y3258D01*
X27321Y3294D01*
X27328Y3334D01*
X27334Y3379D01*
X27340Y3480D01*
X27340Y3537D01*
X27710Y3167D01*
D02*
G37*
G36*
X7197Y2102D02*
X7159Y2140D01*
X7088Y2203D01*
X7054Y2229D01*
X7022Y2250D01*
X6992Y2268D01*
X6963Y2282D01*
X6936Y2292D01*
X6911Y2298D01*
X6887Y2300D01*
Y2400D01*
X6911Y2402D01*
X6936Y2408D01*
X6963Y2418D01*
X6992Y2432D01*
X7022Y2450D01*
X7054Y2471D01*
X7088Y2497D01*
X7159Y2560D01*
X7197Y2598D01*
Y2102D01*
D02*
G37*
G36*
X16505Y2293D02*
X16510Y2198D01*
X16516Y2156D01*
X16523Y2118D01*
X16532Y2084D01*
X16542Y2054D01*
X16554Y2028D01*
X16568Y2005D01*
X16584Y1987D01*
X16513Y1916D01*
X16495Y1932D01*
X16472Y1946D01*
X16446Y1958D01*
X16416Y1968D01*
X16382Y1977D01*
X16344Y1984D01*
X16302Y1990D01*
X16207Y1995D01*
X16154Y1996D01*
X16504Y2346D01*
X16505Y2293D01*
D02*
G37*
G36*
X11105Y1768D02*
X11128Y1754D01*
X11154Y1742D01*
X11184Y1732D01*
X11218Y1723D01*
X11256Y1716D01*
X11298Y1710D01*
X11393Y1705D01*
X11446Y1704D01*
X11096Y1354D01*
X11095Y1407D01*
X11090Y1502D01*
X11084Y1544D01*
X11077Y1582D01*
X11068Y1616D01*
X11058Y1646D01*
X11046Y1672D01*
X11032Y1695D01*
X11016Y1713D01*
X11087Y1784D01*
X11105Y1768D01*
D02*
G37*
G36*
X5184Y1713D02*
X5168Y1695D01*
X5154Y1672D01*
X5142Y1646D01*
X5132Y1616D01*
X5123Y1582D01*
X5116Y1544D01*
X5110Y1502D01*
X5105Y1407D01*
X5104Y1354D01*
X4754Y1704D01*
X4807Y1705D01*
X4902Y1710D01*
X4944Y1716D01*
X4982Y1723D01*
X5016Y1732D01*
X5046Y1742D01*
X5072Y1754D01*
X5095Y1768D01*
X5113Y1784D01*
X5184Y1713D01*
D02*
G37*
G36*
X16146Y996D02*
X16093Y995D01*
X15998Y990D01*
X15956Y984D01*
X15918Y977D01*
X15884Y968D01*
X15854Y958D01*
X15828Y946D01*
X15805Y932D01*
X15787Y916D01*
X15716Y987D01*
X15732Y1005D01*
X15746Y1028D01*
X15758Y1054D01*
X15768Y1084D01*
X15777Y1118D01*
X15784Y1156D01*
X15790Y1198D01*
X15795Y1293D01*
X15796Y1346D01*
X16146Y996D01*
D02*
G37*
G36*
X7805Y1293D02*
X7810Y1198D01*
X7816Y1156D01*
X7823Y1118D01*
X7832Y1084D01*
X7842Y1054D01*
X7854Y1028D01*
X7868Y1005D01*
X7884Y987D01*
X7813Y916D01*
X7795Y932D01*
X7772Y946D01*
X7746Y958D01*
X7716Y968D01*
X7682Y977D01*
X7644Y984D01*
X7602Y990D01*
X7507Y995D01*
X7454Y996D01*
X7804Y1346D01*
X7805Y1293D01*
D02*
G37*
G36*
X7446Y996D02*
X7393Y995D01*
X7298Y990D01*
X7256Y984D01*
X7218Y977D01*
X7184Y968D01*
X7154Y958D01*
X7128Y946D01*
X7105Y932D01*
X7087Y916D01*
X7016Y987D01*
X7032Y1005D01*
X7046Y1028D01*
X7058Y1054D01*
X7068Y1084D01*
X7077Y1118D01*
X7084Y1156D01*
X7090Y1198D01*
X7095Y1293D01*
X7096Y1346D01*
X7446Y996D01*
D02*
G37*
G36*
X22286Y790D02*
X22255Y820D01*
X22196Y872D01*
X22169Y892D01*
X22142Y910D01*
X22116Y924D01*
X22092Y936D01*
X22068Y944D01*
X22046Y948D01*
X22024Y950D01*
Y1050D01*
X22046Y1052D01*
X22068Y1056D01*
X22092Y1064D01*
X22116Y1076D01*
X22142Y1090D01*
X22169Y1108D01*
X22196Y1128D01*
X22255Y1180D01*
X22286Y1210D01*
Y790D01*
D02*
G37*
G36*
X21745Y1180D02*
X21804Y1128D01*
X21831Y1108D01*
X21858Y1090D01*
X21884Y1076D01*
X21908Y1064D01*
X21932Y1056D01*
X21954Y1052D01*
X21976Y1050D01*
Y950D01*
X21954Y948D01*
X21932Y944D01*
X21908Y936D01*
X21884Y924D01*
X21858Y910D01*
X21831Y892D01*
X21804Y872D01*
X21745Y820D01*
X21714Y790D01*
Y1210D01*
X21745Y1180D01*
D02*
G37*
G36*
X21286Y911D02*
X21497Y700D01*
X21454Y700D01*
X21376Y694D01*
X21342Y690D01*
X21310Y683D01*
X21282Y675D01*
X21257Y666D01*
X21235Y655D01*
X21215Y642D01*
X21199Y628D01*
X21128Y699D01*
X21142Y715D01*
X21155Y735D01*
X21166Y757D01*
X21175Y782D01*
X21183Y810D01*
X21190Y842D01*
X21194Y873D01*
X21169Y892D01*
X21142Y910D01*
X21116Y924D01*
X21092Y936D01*
X21068Y944D01*
X21046Y948D01*
X21024Y950D01*
Y1050D01*
X21046Y1052D01*
X21068Y1056D01*
X21092Y1064D01*
X21116Y1076D01*
X21142Y1090D01*
X21169Y1108D01*
X21196Y1128D01*
X21255Y1180D01*
X21286Y1210D01*
Y911D01*
D02*
G37*
%LPC*%
G36*
X21550Y6100D02*
X21148D01*
X21157Y6031D01*
X21203Y5921D01*
X21276Y5826D01*
X21371Y5753D01*
X21481Y5707D01*
X21550Y5698D01*
Y6100D01*
D02*
G37*
G36*
X4800Y2802D02*
Y2400D01*
X5202D01*
X5193Y2469D01*
X5147Y2579D01*
X5074Y2674D01*
X4979Y2747D01*
X4869Y2793D01*
X4800Y2802D01*
D02*
G37*
%LPD*%
G36*
X35763Y8659D02*
X35723Y8613D01*
X35707Y8590D01*
X35693Y8568D01*
X35682Y8547D01*
X35673Y8526D01*
X35667Y8506D01*
X35663Y8486D01*
X35662Y8467D01*
X35562D01*
X35561Y8486D01*
X35557Y8506D01*
X35551Y8526D01*
X35542Y8547D01*
X35531Y8568D01*
X35517Y8590D01*
X35501Y8613D01*
X35482Y8636D01*
X35437Y8684D01*
X35787D01*
X35763Y8659D01*
D02*
G37*
G36*
X35663Y7814D02*
X35664Y7797D01*
X35667Y7781D01*
X35670Y7768D01*
X35675Y7757D01*
X35680Y7748D01*
X35687Y7741D01*
X35694Y7736D01*
X35703Y7733D01*
X35712Y7732D01*
X35512D01*
X35522Y7733D01*
X35530Y7736D01*
X35538Y7741D01*
X35544Y7748D01*
X35550Y7757D01*
X35554Y7768D01*
X35558Y7781D01*
X35560Y7797D01*
X35562Y7814D01*
X35562Y7833D01*
X35662D01*
X35663Y7814D01*
D02*
G37*
G36*
X36304Y3168D02*
X36297Y3174D01*
X36287Y3177D01*
X36277D01*
X36265Y3174D01*
X36251Y3168D01*
X36237Y3160D01*
X36220Y3149D01*
X36203Y3134D01*
X36163Y3098D01*
X36092Y3168D01*
X36112Y3189D01*
X36143Y3226D01*
X36155Y3242D01*
X36163Y3257D01*
X36169Y3270D01*
X36172Y3282D01*
Y3293D01*
X36169Y3302D01*
X36163Y3310D01*
X36304Y3168D01*
D02*
G37*
G36*
X29254D02*
X29247Y3174D01*
X29237Y3177D01*
X29227D01*
X29215Y3174D01*
X29201Y3168D01*
X29187Y3160D01*
X29170Y3149D01*
X29153Y3134D01*
X29113Y3098D01*
X29042Y3168D01*
X29062Y3189D01*
X29093Y3226D01*
X29105Y3242D01*
X29113Y3257D01*
X29119Y3270D01*
X29121Y3282D01*
Y3293D01*
X29119Y3302D01*
X29113Y3310D01*
X29254Y3168D01*
D02*
G37*
G36*
X33383Y3421D02*
X33385Y3407D01*
X33389Y3393D01*
X33394Y3379D01*
X33401Y3365D01*
X33408Y3350D01*
X33418Y3336D01*
X33429Y3322D01*
X33441Y3308D01*
X33454Y3293D01*
Y3152D01*
X33451Y3155D01*
X33446Y3158D01*
X33441Y3160D01*
X33435Y3162D01*
X33428Y3164D01*
X33421Y3166D01*
X33413Y3167D01*
X33394Y3168D01*
X33384Y3168D01*
X33382Y3435D01*
X33383Y3421D01*
D02*
G37*
G36*
X32890Y3168D02*
X32876Y3166D01*
X32862Y3162D01*
X32848Y3157D01*
X32834Y3151D01*
X32820Y3143D01*
X32805Y3134D01*
X32791Y3123D01*
X32777Y3111D01*
X32763Y3098D01*
X32622D01*
X32634Y3111D01*
X32653Y3134D01*
X32658Y3143D01*
X32661Y3151D01*
X32661Y3157D01*
X32659Y3162D01*
X32655Y3166D01*
X32648Y3168D01*
X32638Y3168D01*
X32904D01*
X32890Y3168D01*
D02*
G37*
G36*
X29853Y3302D02*
X29850Y3293D01*
Y3282D01*
X29853Y3270D01*
X29859Y3257D01*
X29867Y3242D01*
X29878Y3226D01*
X29893Y3208D01*
X29929Y3168D01*
X29859Y3098D01*
X29838Y3117D01*
X29801Y3149D01*
X29785Y3160D01*
X29770Y3168D01*
X29757Y3174D01*
X29745Y3177D01*
X29734D01*
X29725Y3174D01*
X29717Y3168D01*
X29859Y3310D01*
X29853Y3302D01*
D02*
G37*
G36*
X36626Y3167D02*
X36618Y3164D01*
X36610Y3159D01*
X36604Y3152D01*
X36598Y3143D01*
X36594Y3132D01*
X36590Y3119D01*
X36588Y3104D01*
X36586Y3087D01*
X36586Y3068D01*
X36486D01*
X36485Y3087D01*
X36484Y3104D01*
X36481Y3119D01*
X36478Y3132D01*
X36473Y3143D01*
X36468Y3152D01*
X36461Y3159D01*
X36454Y3164D01*
X36445Y3167D01*
X36436Y3168D01*
X36636D01*
X36626Y3167D01*
D02*
G37*
G36*
X33101D02*
X33093Y3164D01*
X33085Y3159D01*
X33079Y3152D01*
X33073Y3143D01*
X33069Y3132D01*
X33065Y3119D01*
X33063Y3104D01*
X33061Y3087D01*
X33061Y3068D01*
X32961D01*
X32960Y3087D01*
X32959Y3104D01*
X32956Y3119D01*
X32953Y3132D01*
X32948Y3143D01*
X32943Y3152D01*
X32936Y3159D01*
X32929Y3164D01*
X32920Y3167D01*
X32911Y3168D01*
X33111D01*
X33101Y3167D01*
D02*
G37*
G36*
X29576D02*
X29568Y3164D01*
X29560Y3159D01*
X29554Y3152D01*
X29548Y3143D01*
X29544Y3132D01*
X29540Y3119D01*
X29538Y3104D01*
X29536Y3087D01*
X29536Y3068D01*
X29436D01*
X29435Y3087D01*
X29434Y3104D01*
X29431Y3119D01*
X29428Y3132D01*
X29423Y3143D01*
X29418Y3152D01*
X29411Y3159D01*
X29404Y3164D01*
X29395Y3167D01*
X29386Y3168D01*
X29586D01*
X29576Y3167D01*
D02*
G37*
G36*
X36588Y1434D02*
X36594Y1407D01*
X36605Y1379D01*
X36620Y1349D01*
X36639Y1317D01*
X36662Y1283D01*
X36690Y1248D01*
X36757Y1172D01*
X36798Y1131D01*
X36274D01*
X36314Y1172D01*
X36382Y1248D01*
X36410Y1283D01*
X36433Y1317D01*
X36452Y1349D01*
X36467Y1379D01*
X36477Y1407D01*
X36484Y1434D01*
X36486Y1459D01*
X36586D01*
X36588Y1434D01*
D02*
G37*
G36*
X33063D02*
X33069Y1407D01*
X33080Y1379D01*
X33095Y1349D01*
X33114Y1317D01*
X33137Y1283D01*
X33165Y1248D01*
X33232Y1172D01*
X33273Y1131D01*
X32749D01*
X32789Y1172D01*
X32857Y1248D01*
X32885Y1283D01*
X32908Y1317D01*
X32927Y1349D01*
X32942Y1379D01*
X32952Y1407D01*
X32959Y1434D01*
X32961Y1459D01*
X33061D01*
X33063Y1434D01*
D02*
G37*
G36*
X29538D02*
X29544Y1407D01*
X29555Y1379D01*
X29570Y1349D01*
X29589Y1317D01*
X29612Y1283D01*
X29640Y1248D01*
X29707Y1172D01*
X29748Y1131D01*
X29224D01*
X29264Y1172D01*
X29332Y1248D01*
X29360Y1283D01*
X29383Y1317D01*
X29402Y1349D01*
X29417Y1379D01*
X29427Y1407D01*
X29434Y1434D01*
X29436Y1459D01*
X29536D01*
X29538Y1434D01*
D02*
G37*
G36*
X24745Y1180D02*
X24804Y1128D01*
X24831Y1108D01*
X24858Y1090D01*
X24884Y1076D01*
X24908Y1064D01*
X24932Y1056D01*
X24954Y1052D01*
X24976Y1050D01*
Y950D01*
X24954Y948D01*
X24932Y944D01*
X24908Y936D01*
X24884Y924D01*
X24858Y910D01*
X24831Y892D01*
X24804Y872D01*
X24745Y820D01*
X24714Y790D01*
Y1210D01*
X24745Y1180D01*
D02*
G37*
G36*
X24286Y790D02*
X24255Y820D01*
X24196Y872D01*
X24169Y892D01*
X24142Y910D01*
X24116Y924D01*
X24092Y936D01*
X24068Y944D01*
X24046Y948D01*
X24024Y950D01*
Y1050D01*
X24046Y1052D01*
X24068Y1056D01*
X24092Y1064D01*
X24116Y1076D01*
X24142Y1090D01*
X24169Y1108D01*
X24196Y1128D01*
X24255Y1180D01*
X24286Y1210D01*
Y790D01*
D02*
G37*
G36*
X23745Y1180D02*
X23804Y1128D01*
X23831Y1108D01*
X23858Y1090D01*
X23884Y1076D01*
X23908Y1064D01*
X23932Y1056D01*
X23954Y1052D01*
X23976Y1050D01*
Y950D01*
X23954Y948D01*
X23932Y944D01*
X23908Y936D01*
X23884Y924D01*
X23858Y910D01*
X23831Y892D01*
X23804Y872D01*
X23745Y820D01*
X23714Y790D01*
Y1210D01*
X23745Y1180D01*
D02*
G37*
G36*
X23286Y790D02*
X23255Y820D01*
X23196Y872D01*
X23169Y892D01*
X23142Y910D01*
X23116Y924D01*
X23092Y936D01*
X23068Y944D01*
X23046Y948D01*
X23024Y950D01*
Y1050D01*
X23046Y1052D01*
X23068Y1056D01*
X23092Y1064D01*
X23116Y1076D01*
X23142Y1090D01*
X23169Y1108D01*
X23196Y1128D01*
X23255Y1180D01*
X23286Y1210D01*
Y790D01*
D02*
G37*
G36*
X22745Y1180D02*
X22804Y1128D01*
X22831Y1108D01*
X22858Y1090D01*
X22884Y1076D01*
X22908Y1064D01*
X22932Y1056D01*
X22954Y1052D01*
X22976Y1050D01*
Y950D01*
X22954Y948D01*
X22932Y944D01*
X22908Y936D01*
X22884Y924D01*
X22858Y910D01*
X22831Y892D01*
X22804Y872D01*
X22745Y820D01*
X22714Y790D01*
Y1210D01*
X22745Y1180D01*
D02*
G37*
D11*
X13929Y5950D02*
X14400Y5479D01*
Y4830D02*
Y5479D01*
Y4830D02*
X16130Y3100D01*
X26452D01*
X27641Y4288D01*
X30492D01*
X31239Y3541D01*
X29486D02*
X30677Y2350D01*
X29486Y864D02*
Y3541D01*
X30677Y2350D02*
X31945D01*
X33011Y3416D02*
X33136Y3541D01*
X31945Y2350D02*
X33011Y3416D01*
Y3541D01*
Y864D02*
Y3416D01*
X26200Y14500D02*
X29000Y17300D01*
X35495Y21554D02*
X35896D01*
X35495Y21300D02*
Y21554D01*
X32245Y18050D02*
X35495Y21300D01*
X35896Y21554D02*
X36746D01*
X37650Y11600D02*
Y11700D01*
X35250Y4950D02*
X36597Y3603D01*
X13650Y23200D02*
X13900Y23450D01*
X1979Y13900D02*
Y14900D01*
X37650Y11700D02*
X39000Y13050D01*
X37650Y11600D02*
X38900Y10350D01*
X3200Y22129D02*
Y23450D01*
Y22129D02*
X3929Y21400D01*
Y19950D02*
Y21400D01*
X26568Y22118D02*
X26900Y22450D01*
X26448Y22118D02*
X26568D01*
X19703Y15373D02*
X26448Y22118D01*
X19703Y14953D02*
Y15373D01*
X11089Y2350D02*
Y3558D01*
X5350Y4623D02*
Y18525D01*
Y4623D02*
X5684Y4289D01*
X4925Y18950D02*
X5350Y18525D01*
X4450Y19429D02*
X4450Y4550D01*
X3929Y19950D02*
X4450Y19429D01*
X4450Y4550D02*
X4850Y4150D01*
X9125Y18525D02*
X9400Y18800D01*
X5350Y18525D02*
X9125D01*
X9400Y18800D02*
Y20700D01*
X11089Y2350D02*
X11450D01*
X10358Y4289D02*
X11089Y3558D01*
X5684Y4289D02*
X10358D01*
X7650Y22450D02*
X9400Y20700D01*
X4650Y22200D02*
X4800D01*
X5650Y21350D01*
X6450D01*
X5873Y21600D02*
X7250D01*
X5200Y22273D02*
Y23000D01*
Y22273D02*
X5873Y21600D01*
X4650Y23450D02*
X4750D01*
X5200Y23000D01*
X13650Y22200D02*
X13900Y22450D01*
X2545Y22345D02*
X2650Y22450D01*
X2545Y19756D02*
Y22345D01*
Y19756D02*
X2553Y19748D01*
X2550Y19745D02*
X2553Y19748D01*
X7150Y22950D02*
X8050D01*
X6650Y23450D02*
X7150Y22950D01*
X7650Y23200D02*
Y23450D01*
X7100Y24000D02*
X7650Y23450D01*
X3573Y24000D02*
X7100D01*
X15650Y23450D02*
X20900D01*
X14650Y22450D02*
X15650Y23450D01*
X15300Y24100D02*
X21250D01*
X14650Y23450D02*
X15300Y24100D01*
X13900Y23450D02*
X14650D01*
X2650Y22450D02*
Y23450D01*
X13900Y22450D02*
X14650D01*
X13150Y23700D02*
X13788Y24338D01*
X13150Y22950D02*
Y23700D01*
Y22950D02*
X13650Y22450D01*
X12650Y23077D02*
X13094Y22634D01*
X12650Y23077D02*
Y23450D01*
X11650D02*
X12150Y22950D01*
X11200Y20550D02*
Y22900D01*
X10650Y23450D02*
X11200Y22900D01*
X3206Y23634D02*
X3573Y24000D01*
X8050Y22950D02*
X10450Y20550D01*
X13094Y20656D02*
Y22634D01*
Y20656D02*
X13450Y20300D01*
X12650Y20229D02*
Y22450D01*
Y20229D02*
X12929Y19950D01*
X3206Y23456D02*
Y23634D01*
X3200Y23450D02*
X3206Y23456D01*
X3650Y22450D02*
Y23450D01*
Y22200D02*
Y22450D01*
X25088Y6538D02*
Y6943D01*
X24700Y6150D02*
X25088Y6538D01*
X21600Y6150D02*
X24700D01*
X5750Y2350D02*
X7450D01*
X4750Y1350D02*
X5750Y2350D01*
X10950Y1850D02*
X11450Y1350D01*
X10950Y1850D02*
Y3500D01*
X7450Y1350D02*
X8250Y550D01*
X8500D01*
X2800Y550D02*
X6650D01*
X7450Y1350D01*
X2150Y4294D02*
X2456Y4600D01*
X2150Y1200D02*
Y4294D01*
Y1200D02*
X2800Y550D01*
X2456Y4600D02*
Y13423D01*
X1979Y13900D02*
X2456Y13423D01*
X24900Y21431D02*
Y22450D01*
X19840Y16371D02*
X24900Y21431D01*
X25400Y21734D02*
Y22950D01*
X19616Y15950D02*
X25400Y21734D01*
X19314Y15450D02*
X25900Y22036D01*
X18429Y15450D02*
X19314D01*
X25900Y22036D02*
Y22450D01*
X19843Y15316D02*
X26506Y21979D01*
X19843Y14258D02*
Y15316D01*
X19982Y15258D02*
X26563Y21839D01*
X19982Y14200D02*
Y15258D01*
X19564Y15461D02*
X26350Y22247D01*
X19564Y15214D02*
Y15461D01*
X19300Y14950D02*
X19564Y15214D01*
X18929Y14950D02*
X19300D01*
X26350Y22247D02*
Y23000D01*
X17929Y14950D02*
X18429Y15450D01*
X25900Y23450D02*
X26350Y23000D01*
X18350Y16371D02*
X19840D01*
X17929Y15950D02*
X18350Y16371D01*
X19200Y14450D02*
X19703Y14953D01*
X18429Y14450D02*
X19200D01*
X17929Y13950D02*
X18429Y14450D01*
X24900Y23450D02*
X25400Y22950D01*
X18929Y15950D02*
X19616D01*
X27344Y22091D02*
Y23006D01*
X27232Y21979D02*
X27344Y22091D01*
X26900Y23450D02*
X27344Y23006D01*
X26506Y21979D02*
X27232D01*
X19535Y13950D02*
X19843Y14258D01*
X18929Y13950D02*
X19535D01*
X27289Y21839D02*
X27900Y22450D01*
X26563Y21839D02*
X27289D01*
X19182Y13400D02*
X19982Y14200D01*
X17929Y12950D02*
X18379Y13400D01*
X19182D01*
X27900Y23450D02*
X28350Y23000D01*
Y22100D02*
Y23000D01*
X26621Y21700D02*
X27937D01*
X27943Y21693D02*
X28350Y22100D01*
X27937Y21700D02*
X27943Y21693D01*
X20121Y15200D02*
X26621Y21700D01*
X20121Y14142D02*
Y15200D01*
X18929Y12950D02*
X20121Y14142D01*
X20261Y15142D02*
X26672Y21554D01*
X20261Y13058D02*
Y15142D01*
X20400Y15085D02*
X26500Y21185D01*
X20400Y13000D02*
Y15085D01*
X20539Y14681D02*
X23427Y17568D01*
X20539Y11989D02*
Y14681D01*
X20679Y14623D02*
X23485Y17429D01*
X20679Y11868D02*
Y14623D01*
X20818Y14565D02*
X23542Y17289D01*
X20818Y11468D02*
Y14565D01*
X20957Y14507D02*
X23600Y17150D01*
X20957Y10907D02*
Y14507D01*
X19350Y11950D02*
X20400Y13000D01*
X26672Y21554D02*
X34905D01*
X19603Y12400D02*
X20261Y13058D01*
X18454Y12400D02*
X19603D01*
X18004Y11950D02*
X18454Y12400D01*
X17929Y11950D02*
X18004D01*
X35102Y21302D02*
Y21554D01*
X34985Y21185D02*
X35102Y21302D01*
X26500Y21185D02*
X34985D01*
X18929Y11950D02*
X19350D01*
X25100Y18000D02*
X27900Y20800D01*
X24375Y18000D02*
X25100D01*
X23427Y17568D02*
X25668D01*
X23485Y17429D02*
X25726D01*
X23542Y17289D02*
X25784D01*
X23600Y17150D02*
X25841D01*
X25668Y17568D02*
X28900Y20800D01*
X25726Y17429D02*
X28336Y20039D01*
X25784Y17289D02*
X28394Y19900D01*
X25841Y17150D02*
X28452Y19761D01*
X20661Y11850D02*
X20679Y11868D01*
X20661Y11161D02*
Y11850D01*
X20800Y11450D02*
X20818Y11468D01*
X20950Y10900D02*
X20957Y10907D01*
X21600Y14500D02*
X26200D01*
X28900Y17400D02*
X29000Y17300D01*
X30675Y18000D02*
X30725Y18050D01*
X27525Y18000D02*
X30675D01*
X29400Y24100D02*
X31050Y22450D01*
X22550Y24100D02*
X29400D01*
X21900Y23450D02*
X22550Y24100D01*
X24350Y13075D02*
X24375Y13050D01*
X24350Y13075D02*
Y13887D01*
X32600Y11250D02*
X33875Y12525D01*
Y13050D01*
X35612Y6750D02*
Y8862D01*
X39000Y13050D02*
Y19300D01*
X36746Y21554D02*
X39000Y19300D01*
X37990Y17760D02*
Y17800D01*
Y17760D02*
X38700Y17050D01*
Y14750D02*
Y17050D01*
X34412Y18587D02*
X37990D01*
X33875Y18050D02*
X34412Y18587D01*
X30861Y19761D02*
X31900Y20800D01*
X28394Y19900D02*
X30000D01*
X29139Y20039D02*
X29900Y20800D01*
X28336Y20039D02*
X29139D01*
X20950Y9150D02*
Y10900D01*
X20300Y8500D02*
X20950Y9150D01*
X18379Y8500D02*
X20300D01*
X17929Y8950D02*
X18379Y8500D01*
X30000Y19900D02*
X30900Y20800D01*
X20800Y10200D02*
Y11450D01*
X20550Y9950D02*
X20800Y10200D01*
X18929Y9950D02*
X20550D01*
X20000Y10500D02*
X20661Y11161D01*
X18479Y10500D02*
X20000D01*
X17929Y9950D02*
X18479Y10500D01*
X17929Y9950D02*
Y10029D01*
X20521Y11971D02*
X20539Y11989D01*
X20521Y11571D02*
Y11971D01*
X19896Y10946D02*
X20521Y11571D01*
X18929Y10946D02*
X19896D01*
X28452Y19761D02*
X30861D01*
X21100Y10000D02*
X21600Y10500D01*
X21100Y7121D02*
Y10000D01*
X18929Y4950D02*
X21100Y7121D01*
X17450Y21000D02*
X17900Y21450D01*
X17450Y19600D02*
Y21000D01*
X17900Y21450D02*
X22900D01*
X23900Y22450D01*
X16929Y19079D02*
X17450Y19600D01*
X16929Y18950D02*
Y19079D01*
X22100Y21650D02*
X22900Y22450D01*
X17250Y21650D02*
X22100D01*
X16500Y20900D02*
X17250Y21650D01*
X16500Y20900D02*
X16500Y8600D01*
X17650Y7450D01*
X16350Y21150D02*
X17050Y21850D01*
X16350Y7529D02*
Y21150D01*
Y7529D02*
X17929Y5950D01*
X18450Y6429D02*
X18929Y5950D01*
X18450Y6429D02*
Y7250D01*
X18250Y7450D02*
X18450Y7250D01*
X17650Y7450D02*
X18250D01*
X21300Y21850D02*
X21900Y22450D01*
X17050Y21850D02*
X21300D01*
X30725Y18050D02*
X32245D01*
X32050Y23450D02*
X33050D01*
X31050D02*
X32050D01*
X31050Y22450D02*
X32050D01*
X33050D01*
X33691Y21809D01*
X33050Y23450D02*
X33250Y23650D01*
X33888D01*
X33950Y23588D01*
X21250Y24100D02*
X21900Y23450D01*
X33825Y13000D02*
X33875Y13050D01*
X31850Y13000D02*
X33825D01*
X30888Y12038D02*
X31850Y13000D01*
X30888Y6750D02*
Y12038D01*
X30725Y13050D02*
Y18050D01*
X26238Y6750D02*
X30888D01*
X25088Y7900D02*
X26238Y6750D01*
X24812Y6943D02*
Y7900D01*
X24950Y8150D02*
X25088Y8012D01*
Y7900D02*
Y8012D01*
X22600Y8150D02*
X24950D01*
X21600Y7150D02*
X22600Y8150D01*
X36597Y3603D02*
X38900Y5905D01*
X36536Y3541D02*
X36597Y3603D01*
X27081Y4950D02*
X35250D01*
X25088Y6943D02*
X27081Y4950D01*
X12929D02*
X13050D01*
X15600Y800D02*
X16150Y1350D01*
X10100Y800D02*
X15600D01*
X21050Y550D02*
X21500Y1000D01*
X8500Y550D02*
X21050Y550D01*
X10300Y4150D02*
X10950Y3500D01*
X4850Y4150D02*
X10300D01*
X6450Y21350D02*
X7426Y20374D01*
Y19429D02*
Y20374D01*
X10450Y18550D02*
Y20550D01*
Y18550D02*
X11000Y18000D01*
X14979D01*
X7426Y19429D02*
X7906Y18950D01*
X14979Y18000D02*
X15929Y18950D01*
X8350Y19561D02*
Y20500D01*
Y19561D02*
X8961Y18950D01*
X7250Y21600D02*
X8350Y20500D01*
X13450Y19429D02*
X13929Y18950D01*
X13450Y19429D02*
Y20300D01*
X12450Y19429D02*
X12929Y18950D01*
X12450Y19429D02*
Y20150D01*
X12150Y20450D02*
X12450Y20150D01*
X12150Y20450D02*
Y22950D01*
X11921Y18950D02*
Y19004D01*
X11400Y19525D02*
X11921Y19004D01*
X11400Y19525D02*
Y20350D01*
X11200Y20550D02*
X11400Y20350D01*
X11650Y20229D02*
X11929Y19950D01*
X11650Y20229D02*
Y22450D01*
X10650Y20229D02*
X10929Y19950D01*
X10650Y20229D02*
Y22450D01*
X14929Y5950D02*
X15500Y5379D01*
Y4150D02*
Y5379D01*
Y4150D02*
X16250Y3400D01*
X25950D01*
X27200Y4650D01*
X33655D01*
X34764Y3541D01*
X13929Y4950D02*
X16079Y2800D01*
X26973D02*
X27714Y3541D01*
X16079Y2800D02*
X26973D01*
X13788Y24338D02*
X35850D01*
X36600Y23588D01*
X33950D02*
X35300D01*
X35495Y22046D02*
Y22207D01*
X36600Y23312D01*
X34905Y22046D02*
Y22357D01*
X33950Y23312D02*
X34905Y22357D01*
X35102Y22046D02*
Y23114D01*
X35300Y23312D01*
X16150Y2350D02*
X17500Y1000D01*
X21500D01*
X20900Y22450D02*
X21900Y23450D01*
X1929Y14950D02*
X2541Y15562D01*
Y19144D01*
X2550Y19153D01*
Y19745D01*
X1929Y14950D02*
X1979Y14900D01*
X34327Y2350D02*
X35345D01*
X33136Y3541D02*
X34327Y2350D01*
X35345D02*
X36536Y3541D01*
X27525Y13050D02*
X30725D01*
X21500Y1000D02*
X22500D01*
X23500D01*
X24500D01*
X26945D01*
X29486Y3541D01*
X36536Y864D02*
Y3541D01*
X38900Y5905D02*
Y6250D01*
X37900Y7250D02*
X38900Y6250D01*
X37900Y7250D02*
X38900Y8250D01*
Y10350D01*
X27525Y18000D02*
X27575Y18050D01*
X37600Y13650D02*
X38700Y14750D01*
D16*
X30725Y13050D02*
D03*
X27525D02*
D03*
X30725Y18050D02*
D03*
X27525Y18000D02*
D03*
D17*
X33875Y13050D02*
D03*
X24375D02*
D03*
X33875Y18050D02*
D03*
X24375Y18000D02*
D03*
D18*
X30888Y6750D02*
D03*
X35612D02*
D03*
D19*
X35495Y21554D02*
D03*
X35298D02*
D03*
X35102D02*
D03*
X34905D02*
D03*
Y22046D02*
D03*
X35102D02*
D03*
X35298D02*
D03*
X35495D02*
D03*
D20*
X25088Y6943D02*
D03*
X24812D02*
D03*
Y7900D02*
D03*
X25088D02*
D03*
D21*
X35300Y23588D02*
D03*
Y23312D02*
D03*
X33950Y23588D02*
D03*
Y23312D02*
D03*
X36600Y23588D02*
D03*
Y23312D02*
D03*
D45*
X33011Y3541D02*
D03*
X36536D02*
D03*
X29486D02*
D03*
D46*
X31239D02*
D03*
Y864D02*
D03*
X33011D02*
D03*
X36536D02*
D03*
X34764D02*
D03*
Y3541D02*
D03*
X27714D02*
D03*
Y864D02*
D03*
X29486D02*
D03*
D47*
X20900Y22450D02*
D03*
Y23450D02*
D03*
X21900Y22450D02*
D03*
X23900Y23450D02*
D03*
X27900D02*
D03*
X24900Y22450D02*
D03*
Y23450D02*
D03*
X25900Y22450D02*
D03*
X22900D02*
D03*
Y23450D02*
D03*
X23900Y22450D02*
D03*
X27900D02*
D03*
X26900Y23450D02*
D03*
Y22450D02*
D03*
X21900Y23450D02*
D03*
X25900D02*
D03*
X7650Y22450D02*
D03*
Y23450D02*
D03*
X4650D02*
D03*
Y22450D02*
D03*
X5650D02*
D03*
Y23450D02*
D03*
X6650Y22450D02*
D03*
X2650D02*
D03*
Y23450D02*
D03*
X3650Y22450D02*
D03*
X6650Y23450D02*
D03*
X3650D02*
D03*
X21600Y12500D02*
D03*
Y11500D02*
D03*
Y10500D02*
D03*
Y13500D02*
D03*
Y14500D02*
D03*
Y19800D02*
D03*
Y18800D02*
D03*
Y20800D02*
D03*
X13650Y23450D02*
D03*
X11650Y22450D02*
D03*
X14650D02*
D03*
Y23450D02*
D03*
X11650D02*
D03*
X12650Y22450D02*
D03*
X13650D02*
D03*
X10650Y23450D02*
D03*
X12650D02*
D03*
X10650Y22450D02*
D03*
X32050D02*
D03*
X31050D02*
D03*
Y23450D02*
D03*
X33050D02*
D03*
Y22450D02*
D03*
X32050Y23450D02*
D03*
X21600Y7150D02*
D03*
Y6150D02*
D03*
Y8150D02*
D03*
X15150Y2350D02*
D03*
X16150Y1350D02*
D03*
Y2350D02*
D03*
X14150D02*
D03*
Y1350D02*
D03*
X15150D02*
D03*
X3750Y2350D02*
D03*
X4750Y1350D02*
D03*
Y2350D02*
D03*
X2750D02*
D03*
Y1350D02*
D03*
X3750D02*
D03*
X10450Y2350D02*
D03*
X8450Y1350D02*
D03*
X11450D02*
D03*
Y2350D02*
D03*
X8450D02*
D03*
X9450Y1350D02*
D03*
X10450D02*
D03*
X7450Y2350D02*
D03*
X9450D02*
D03*
X7450Y1350D02*
D03*
D48*
X32900Y20800D02*
D03*
X31900D02*
D03*
X30900D02*
D03*
X29900D02*
D03*
X27900D02*
D03*
X28900D02*
D03*
D49*
X26900D02*
D03*
D50*
X37600Y11650D02*
D03*
D51*
Y13650D02*
D03*
D52*
X37900Y6250D02*
D03*
D53*
Y7250D02*
D03*
Y8250D02*
D03*
D54*
X23500Y1000D02*
D03*
X24500D02*
D03*
X21500D02*
D03*
X22500D02*
D03*
X24500Y4000D02*
D03*
X23500D02*
D03*
X22500D02*
D03*
D55*
X21500D02*
D03*
D56*
X37990Y19375D02*
D03*
Y16225D02*
D03*
D57*
Y18587D02*
D03*
Y17800D02*
D03*
Y17013D02*
D03*
D58*
X18929Y19950D02*
D03*
X17929D02*
D03*
X18929Y18950D02*
D03*
X17929D02*
D03*
X18929Y17950D02*
D03*
X17929D02*
D03*
Y16950D02*
D03*
X18929Y15950D02*
D03*
X17929D02*
D03*
X18929Y14950D02*
D03*
X17929D02*
D03*
X18929Y13950D02*
D03*
X17929D02*
D03*
X18929Y12950D02*
D03*
X17929D02*
D03*
X18929Y11950D02*
D03*
X17929D02*
D03*
X18929Y10946D02*
D03*
X17929Y10954D02*
D03*
Y9950D02*
D03*
X18929Y8950D02*
D03*
X17929D02*
D03*
X18929Y7950D02*
D03*
X17929D02*
D03*
X18929Y7009D02*
D03*
X17929Y6950D02*
D03*
X18929Y5950D02*
D03*
Y4950D02*
D03*
X17929D02*
D03*
X929Y12950D02*
D03*
X1929D02*
D03*
X929Y13950D02*
D03*
X1929D02*
D03*
X929Y4950D02*
D03*
X1929D02*
D03*
X929Y5950D02*
D03*
X1929D02*
D03*
X929Y6950D02*
D03*
X1929D02*
D03*
X929Y7950D02*
D03*
X1929D02*
D03*
X929Y8950D02*
D03*
X1929D02*
D03*
Y9950D02*
D03*
X929Y10950D02*
D03*
X1929D02*
D03*
X929Y11950D02*
D03*
X1929D02*
D03*
Y19950D02*
D03*
X929D02*
D03*
X1929Y18950D02*
D03*
X929D02*
D03*
X1929Y17950D02*
D03*
X929D02*
D03*
Y16950D02*
D03*
Y15950D02*
D03*
Y14946D02*
D03*
X1929Y15942D02*
D03*
Y14950D02*
D03*
Y16950D02*
D03*
X929Y9950D02*
D03*
X17929Y5950D02*
D03*
X18929Y9950D02*
D03*
Y16950D02*
D03*
D59*
X16929Y5950D02*
D03*
Y4950D02*
D03*
X15929Y5950D02*
D03*
Y4950D02*
D03*
X14929Y5950D02*
D03*
X13929D02*
D03*
Y4950D02*
D03*
X12929D02*
D03*
X11929Y5950D02*
D03*
Y4950D02*
D03*
X10929Y5950D02*
D03*
Y4950D02*
D03*
X9929Y5950D02*
D03*
Y4950D02*
D03*
X8929Y5950D02*
D03*
Y4950D02*
D03*
X7929Y5950D02*
D03*
Y4950D02*
D03*
X6929Y5950D02*
D03*
X5929D02*
D03*
Y4950D02*
D03*
X4929Y5950D02*
D03*
X3929D02*
D03*
Y4950D02*
D03*
X2929Y5950D02*
D03*
Y4950D02*
D03*
X16929Y19950D02*
D03*
Y18950D02*
D03*
X15929Y19950D02*
D03*
Y18950D02*
D03*
X14929Y19950D02*
D03*
Y18950D02*
D03*
X13929Y19950D02*
D03*
Y18950D02*
D03*
X12929D02*
D03*
X11929Y19950D02*
D03*
X11921Y18950D02*
D03*
X10929Y19950D02*
D03*
X9929D02*
D03*
Y18950D02*
D03*
X8929Y19950D02*
D03*
X8961Y18950D02*
D03*
X7929Y19950D02*
D03*
X7906Y18950D02*
D03*
X6929Y19950D02*
D03*
X6941Y18950D02*
D03*
X5929Y19950D02*
D03*
X5953Y18950D02*
D03*
X4929Y19950D02*
D03*
X4925Y18950D02*
D03*
X3929Y19950D02*
D03*
Y18950D02*
D03*
X2929Y19950D02*
D03*
X10929Y18950D02*
D03*
X14980Y4926D02*
D03*
X4929Y4930D02*
D03*
X6929Y4950D02*
D03*
X12929Y5950D02*
D03*
Y19950D02*
D03*
X2925Y18950D02*
D03*
D60*
X35896Y21554D02*
D03*
X28900Y17400D02*
D03*
X24350Y13887D02*
D03*
X32600Y11250D02*
D03*
X35612Y8862D02*
D03*
D61*
X38189Y1181D02*
D03*
Y23622D02*
D03*
X1181Y1181D02*
D03*
Y23622D02*
D03*
M02*
