G04*
G04 #@! TF.GenerationSoftware,Altium Limited,Altium Designer,18.1.4 (159)*
G04*
G04 Layer_Color=128*
%FSLAX24Y24*%
%MOIN*%
G70*
G01*
G75*
%ADD18R,0.0197X0.0400*%
%ADD19R,0.0300X0.0300*%
%ADD45R,0.0925X0.0610*%
%ADD46R,0.4134X0.4724*%
%ADD47R,0.0413X0.0827*%
%ADD48O,0.0236X0.0866*%
D18*
X14930Y7600D02*
D03*
Y6900D02*
D03*
X14615Y7600D02*
D03*
Y6900D02*
D03*
X14300Y7600D02*
D03*
Y6900D02*
D03*
X13985Y7600D02*
D03*
Y6900D02*
D03*
D19*
X22900Y15850D02*
D03*
X23450D02*
D03*
X29100D02*
D03*
X29650D02*
D03*
X34650Y12200D02*
D03*
X34100D02*
D03*
X33125D02*
D03*
X32575D02*
D03*
X31050D02*
D03*
X31600D02*
D03*
X27950Y10400D02*
D03*
X27400D02*
D03*
X26400D02*
D03*
X25850D02*
D03*
X27400Y8700D02*
D03*
X27950D02*
D03*
D45*
X34096Y7400D02*
D03*
X32404D02*
D03*
D46*
X32400Y17550D02*
D03*
X26150D02*
D03*
D47*
X32359Y13887D02*
D03*
X33359D02*
D03*
X31359D02*
D03*
X25109D02*
D03*
X27109D02*
D03*
X26109D02*
D03*
D48*
X31950Y10995D02*
D03*
X32450D02*
D03*
X32950D02*
D03*
X33450D02*
D03*
X31950Y8905D02*
D03*
X32450D02*
D03*
X32950D02*
D03*
X33450D02*
D03*
M02*
