G04*
G04 #@! TF.GenerationSoftware,Altium Limited,Altium Designer,18.1.4 (159)*
G04*
G04 Layer_Physical_Order=2*
G04 Layer_Color=16711680*
%FSLAX24Y24*%
%MOIN*%
G70*
G01*
G75*
%ADD11C,0.0100*%
%ADD19R,0.0110X0.0295*%
%ADD20R,0.0197X0.0118*%
%ADD21R,0.0118X0.0197*%
%ADD44C,0.0709*%
%ADD45C,0.0591*%
%ADD46R,0.0591X0.0591*%
%ADD47C,0.0984*%
%ADD48C,0.0472*%
%ADD49R,0.0472X0.0472*%
%ADD50C,0.0600*%
%ADD51R,0.0600X0.0600*%
%ADD52O,0.0827X0.0472*%
G04:AMPARAMS|DCode=53|XSize=59.1mil|YSize=39.4mil|CornerRadius=9.8mil|HoleSize=0mil|Usage=FLASHONLY|Rotation=90.000|XOffset=0mil|YOffset=0mil|HoleType=Round|Shape=RoundedRectangle|*
%AMROUNDEDRECTD53*
21,1,0.0591,0.0197,0,0,90.0*
21,1,0.0394,0.0394,0,0,90.0*
1,1,0.0197,0.0098,0.0197*
1,1,0.0197,0.0098,-0.0197*
1,1,0.0197,-0.0098,-0.0197*
1,1,0.0197,-0.0098,0.0197*
%
%ADD53ROUNDEDRECTD53*%
%ADD54C,0.0748*%
%ADD55R,0.0748X0.0748*%
%ADD56O,0.0660X0.0590*%
%ADD57O,0.0590X0.0660*%
%ADD58C,0.0500*%
%ADD59C,0.1575*%
%ADD60R,0.0945X0.1299*%
%ADD61R,0.0413X0.0827*%
%ADD62R,0.4134X0.4724*%
%ADD63O,0.0236X0.0866*%
D11*
X17313Y7913D02*
X17966Y8566D01*
X18216D01*
X18510Y8860D01*
X17313Y5334D02*
Y7913D01*
X17929Y7950D02*
X18329Y8350D01*
X18510Y8860D02*
Y9109D01*
X18400Y6480D02*
X18929Y7009D01*
X18400Y4400D02*
Y6480D01*
X17510Y6531D02*
X17929Y6950D01*
X17510Y2640D02*
Y6531D01*
X14770Y11420D02*
X20070D01*
X13944Y10594D02*
X14770Y11420D01*
X13944Y7242D02*
Y10594D01*
X13353Y7242D02*
Y10597D01*
X11000Y12950D02*
X13353Y10597D01*
X1929Y12950D02*
X11000D01*
X14929Y5950D02*
Y6371D01*
X14300Y7000D02*
X14929Y6371D01*
X13200Y7000D02*
X14300D01*
X13545Y5334D02*
X13929Y4950D01*
X13545Y5334D02*
Y6745D01*
X13550Y6750D01*
X13929Y5950D02*
X13944Y5965D01*
Y6750D01*
X23344Y14893D02*
Y22644D01*
X16150Y1389D02*
X24989D01*
X3106Y23894D02*
X3650Y23350D01*
X13463Y22387D02*
X13650Y22200D01*
X3650D02*
X4400Y22950D01*
X7400Y20700D02*
X14179D01*
X5650Y22450D02*
X7400Y20700D01*
X8150Y20950D02*
X14800D01*
X6650Y22450D02*
X8150Y20950D01*
X13650Y22450D02*
Y22550D01*
X13250Y22950D02*
X13650Y22550D01*
X4400Y22950D02*
X13250D01*
X1453Y23894D02*
X3106D01*
X1181Y23622D02*
X1453Y23894D01*
X3650Y23200D02*
Y23350D01*
X4150Y23200D02*
Y23700D01*
X3900Y22950D02*
X4150Y23200D01*
X2337Y22950D02*
X3900D01*
X250Y20863D02*
X2337Y22950D01*
X19550Y17450D02*
X20900Y18800D01*
X21600D01*
X19300Y18450D02*
X20650Y19800D01*
X21600D01*
X22550Y15450D02*
Y19850D01*
X21600Y20800D02*
X22550Y19850D01*
X7950Y1850D02*
X8450Y1350D01*
X7050Y1850D02*
X7950D01*
X5929Y2971D02*
X7050Y1850D01*
X5929Y2971D02*
Y4950D01*
X7906Y2194D02*
Y3974D01*
Y2194D02*
X8250Y1850D01*
X6929Y4950D02*
X7906Y3974D01*
X8250Y1850D02*
X8950D01*
X9450Y1350D01*
X5750D02*
X7450D01*
X4750Y2350D02*
X5750Y1350D01*
X8450Y2350D02*
Y3750D01*
X7450Y4750D02*
X8450Y3750D01*
X7450Y4750D02*
Y5200D01*
X9450Y2350D02*
Y5150D01*
X9150Y5450D02*
X9450Y5150D01*
X10450Y1350D02*
X10929Y1829D01*
Y4950D01*
X3250Y1850D02*
X3750Y1350D01*
X2300Y1850D02*
X3250D01*
X3150Y2950D02*
X3750Y2350D01*
X1650Y2950D02*
X3150D01*
X2850Y400D02*
X25300D01*
X2058Y1192D02*
X2850Y400D01*
X2058Y1192D02*
Y1544D01*
X200Y3402D02*
X2058Y1544D01*
X200Y3402D02*
Y9100D01*
X2160Y12450D02*
X2700Y11910D01*
X1850Y12450D02*
X2160D01*
X1400Y12900D02*
X1850Y12450D01*
X2700Y6550D02*
Y11910D01*
X1400Y12900D02*
Y18050D01*
X1929Y5950D02*
X2100D01*
X2700Y6550D01*
X28900Y17400D02*
Y19800D01*
X27900Y20800D02*
X28900Y19800D01*
X21600Y14500D02*
X22550Y15450D01*
X29502Y19302D02*
X29512Y19291D01*
Y15850D02*
Y19291D01*
Y15733D02*
X31359Y13887D01*
X29512Y15733D02*
Y15850D01*
X30700D02*
X32400Y17550D01*
X29788Y15850D02*
X30700D01*
X23344Y14893D02*
X24350Y13887D01*
X24450Y15850D02*
X26150Y17550D01*
X23588Y15850D02*
X24450D01*
X23094Y22894D02*
X23344Y22644D01*
X21456Y22894D02*
X23094D01*
X24350Y13887D02*
X25109D01*
X32600Y10750D02*
X32600Y10750D01*
X32600Y10750D02*
Y11250D01*
X31800Y11223D02*
X32577Y12000D01*
X31800Y10850D02*
Y11223D01*
X32577Y12000D02*
X33350D01*
X31950Y11673D02*
Y12123D01*
X31500Y11223D02*
X31950Y11673D01*
X31500Y10550D02*
Y11223D01*
X35612Y8862D02*
X35650Y8900D01*
X34850Y8100D02*
X35612Y8862D01*
X34618Y8100D02*
Y8615D01*
Y8100D02*
X34850D01*
X34450Y6600D02*
X35850D01*
X33950Y7100D02*
X34450Y6600D01*
X35850D02*
X37500Y8250D01*
X38200Y19900D02*
X38800Y19300D01*
Y12850D02*
Y19300D01*
X37600Y11650D02*
X38800Y12850D01*
X32400Y17550D02*
X33900D01*
X36250Y19900D01*
X38200D01*
X36400Y16997D02*
X37990Y18587D01*
X36400Y15963D02*
Y16997D01*
X34324Y13887D02*
X36400Y15963D01*
X29502Y19302D02*
X30450Y20250D01*
X36000D01*
X33150Y11345D02*
X33650D01*
X31800Y10850D02*
X32650Y10000D01*
X33800D01*
X33650Y10897D02*
Y11345D01*
X34150Y9255D02*
Y9650D01*
X33800Y10000D02*
X34150Y9650D01*
X33350Y12000D02*
X33538Y12188D01*
Y12210D01*
X37500Y8250D02*
X37900D01*
X33950Y7100D02*
Y8500D01*
X34183Y8733D01*
X34539D01*
X34650Y8844D01*
Y9255D01*
X33650Y10897D02*
X34857Y9690D01*
Y8854D02*
Y9690D01*
X34618Y8615D02*
X34857Y8854D01*
X33874Y10474D02*
X33875Y10475D01*
X32600Y10474D02*
X33874D01*
X33875Y10475D02*
X34650Y9700D01*
Y9255D02*
Y9700D01*
X26900Y18300D02*
Y20800D01*
X27900D02*
X30550Y23450D01*
X31050D01*
X19500Y10400D02*
X20850Y11750D01*
X17526Y10400D02*
X19500D01*
X20850Y11750D02*
Y12750D01*
X1929Y14950D02*
X4429Y17450D01*
X19550D01*
X1800Y18450D02*
X19300D01*
X1400Y18050D02*
X1800Y18450D01*
X17938Y24300D02*
X23050D01*
X16929Y23291D02*
X17938Y24300D01*
X16929Y19950D02*
Y23291D01*
X33050Y23450D02*
X34900D01*
X26150Y17550D02*
X26900Y18300D01*
X23350Y23000D02*
X24300D01*
X24400Y23100D01*
X22900Y23450D02*
X23350Y23000D01*
X24400Y23100D02*
Y23750D01*
X23700Y24450D02*
X24400Y23750D01*
X4900Y24450D02*
X23700D01*
X23050Y24300D02*
X23900Y23450D01*
X36000Y20250D02*
X36400Y20650D01*
Y21950D01*
X34900Y23450D02*
X36400Y21950D01*
X20550Y13450D02*
X21600Y14500D01*
X20550Y11900D02*
Y13450D01*
X20070Y11420D02*
X20550Y11900D01*
X16450Y9324D02*
X17526Y10400D01*
X16450Y5471D02*
Y9324D01*
X20850Y12750D02*
X21600Y13500D01*
X21050Y11950D02*
X21600Y12500D01*
X21050Y11400D02*
Y11950D01*
X19150Y9500D02*
X21050Y11400D01*
X17550Y9500D02*
X19150D01*
X19450Y9350D02*
X21600Y11500D01*
X18751Y9350D02*
X19450D01*
X18510Y9109D02*
X18751Y9350D01*
X16929Y8879D02*
X17550Y9500D01*
X16929Y5950D02*
Y8879D01*
X19050Y8350D02*
X19450Y8750D01*
X18329Y8350D02*
X19050D01*
X17839Y1611D02*
X21911D01*
X21600Y8150D02*
X24000Y5750D01*
Y3700D02*
Y5750D01*
X21911Y1611D02*
X24000Y3700D01*
X16350Y3100D02*
X17839Y1611D01*
X14779Y3100D02*
X16350D01*
X12929Y4950D02*
X14779Y3100D01*
X20250Y1750D02*
X22500Y4000D01*
X18400Y1750D02*
X20250D01*
X17510Y2640D02*
X18400Y1750D01*
X21494Y6600D02*
X22600D01*
X21494D02*
X21500Y6594D01*
X20144Y7950D02*
X21494Y6600D01*
X18929Y7950D02*
X20144D01*
X18400Y4400D02*
X18800Y4000D01*
X21500D01*
X19450Y8750D02*
X24050D01*
X16929Y4950D02*
X17313Y5334D01*
X22600Y6600D02*
X23500Y5700D01*
X24050Y8750D02*
X24500Y8300D01*
Y4000D02*
Y8300D01*
X23500Y4000D02*
Y5700D01*
X16389Y5410D02*
X16450Y5471D01*
X15929Y4950D02*
X16389Y5410D01*
X31472Y13000D02*
X32359Y13887D01*
X30700Y13000D02*
X31472D01*
X26150Y17550D02*
X30700Y13000D01*
X32359Y13887D02*
X32400Y13928D01*
Y17550D01*
X26109Y13887D02*
X26150Y13928D01*
Y17550D01*
X33350Y12298D02*
Y13878D01*
X33262Y12210D02*
X33350Y12298D01*
X32038Y12210D02*
X33262D01*
X33650Y8800D02*
Y9255D01*
X33400Y8550D02*
X33650Y8800D01*
X20900Y23450D02*
X21456Y22894D01*
X929Y4950D02*
X1450Y5471D01*
Y6171D01*
X1679Y6400D01*
X2200D01*
X2500Y6700D01*
Y10250D01*
X2300Y10450D02*
X2500Y10250D01*
X850Y10450D02*
X2300D01*
X250Y11050D02*
X850Y10450D01*
X250Y11050D02*
Y20863D01*
X600Y9500D02*
X1400D01*
X1850Y9950D01*
X4150Y23700D02*
X4900Y24450D01*
X33350Y13878D02*
X33359Y13887D01*
X32038Y12210D02*
Y12219D01*
X31684Y12573D02*
X32038Y12219D01*
X28423Y12573D02*
X31684D01*
X27538Y13458D02*
X28423Y12573D01*
X27109Y13887D02*
X27538Y13458D01*
Y10400D02*
Y13458D01*
X27262Y10400D02*
X27350Y10312D01*
Y9150D02*
Y10312D01*
X25988Y10400D02*
X27262D01*
X15450Y19471D02*
Y20300D01*
X14929Y18950D02*
X15450Y19471D01*
X14800Y20950D02*
X15450Y20300D01*
X30482Y9150D02*
X31882Y7750D01*
X27626Y9150D02*
X30482D01*
X25109Y13887D02*
X25250Y13746D01*
Y1650D02*
Y13746D01*
X24989Y1389D02*
X25250Y1650D01*
X16150Y1350D02*
Y1389D01*
X14450Y3050D02*
X15150Y2350D01*
X13700Y3050D02*
X14450D01*
X12450Y4300D02*
X13700Y3050D01*
X12450Y4300D02*
Y5350D01*
X11929Y5871D02*
X12450Y5350D01*
X11929Y5871D02*
Y5950D01*
X14650Y850D02*
X15150Y1350D01*
X12900Y850D02*
X14650D01*
X11929Y1821D02*
X12900Y850D01*
X11929Y1821D02*
Y4950D01*
X10800Y4821D02*
X10929Y4950D01*
X10314Y5334D02*
X10929Y5950D01*
X10314Y2363D02*
Y5334D01*
X10300Y2350D02*
X10314Y2363D01*
X9300Y2350D02*
X9313D01*
X7550Y5450D02*
X9150D01*
X7050Y5950D02*
X7550Y5450D01*
X6929Y5950D02*
X7050D01*
X7200Y5450D02*
X7450Y5200D01*
X6350Y5450D02*
X7200D01*
X5929Y5871D02*
X6350Y5450D01*
X5929Y5871D02*
Y5950D01*
X370Y3780D02*
X2300Y1850D01*
X370Y3780D02*
Y7391D01*
X510Y4090D02*
X1650Y2950D01*
X510Y4090D02*
Y7260D01*
X370Y7391D02*
X929Y7950D01*
X510Y7260D02*
X750Y7500D01*
X1479D01*
X1929Y7950D01*
X3750Y1350D02*
X3900D01*
X200Y9100D02*
X600Y9500D01*
X25712Y812D02*
Y10400D01*
X25300Y400D02*
X25712Y812D01*
X1850Y9950D02*
X1929D01*
X14179Y20700D02*
X14929Y19950D01*
X15929D02*
Y22821D01*
X14650Y24100D02*
X15929Y22821D01*
X6300Y24100D02*
X14650D01*
X5650Y23450D02*
X6300Y24100D01*
X5650Y23200D02*
Y23450D01*
X13353Y7242D02*
X13550D01*
X13250Y6750D02*
X13353D01*
X13150Y6850D02*
X13250Y6750D01*
X13150Y6850D02*
Y6950D01*
X13200Y7000D01*
X34764Y864D02*
Y3541D01*
X31364Y864D02*
Y3541D01*
X27714Y864D02*
Y3541D01*
X31882Y7750D02*
X33182Y6450D01*
X35900D01*
X37200Y7750D01*
X37950D01*
X38350Y8150D01*
Y8600D01*
X37600Y9350D02*
X38350Y8600D01*
X37600Y9350D02*
Y11650D01*
X37295Y11345D02*
X37600Y11650D01*
X34650Y11345D02*
X37295D01*
X34150D02*
X34650D01*
X32795Y9255D02*
X33150D01*
X31500Y10550D02*
X32795Y9255D01*
X31950Y12123D02*
X32038Y12210D01*
X31200Y11648D02*
X31762Y12210D01*
X31200Y10200D02*
Y11648D01*
X32850Y8550D02*
X33400D01*
X31200Y10200D02*
X32850Y8550D01*
X13747Y7242D02*
X13944D01*
X13550D02*
X13747D01*
X33359Y13887D02*
X34324D01*
D19*
X13944Y6750D02*
D03*
X13747D02*
D03*
X13550D02*
D03*
X13353D02*
D03*
Y7242D02*
D03*
X13550D02*
D03*
X13747D02*
D03*
X13944D02*
D03*
D20*
X27626Y9150D02*
D03*
X27350D02*
D03*
X27262Y10400D02*
D03*
X27538D02*
D03*
X25712D02*
D03*
X25988D02*
D03*
X23312Y15850D02*
D03*
X23588D02*
D03*
X29512D02*
D03*
X29788D02*
D03*
X33538Y12210D02*
D03*
X33262D02*
D03*
X31762Y12210D02*
D03*
X32038D02*
D03*
D21*
X32600Y10750D02*
D03*
Y10474D02*
D03*
D44*
X20900Y22450D02*
D03*
Y23450D02*
D03*
X21900Y22450D02*
D03*
X23900Y23450D02*
D03*
X27900D02*
D03*
X24900Y22450D02*
D03*
Y23450D02*
D03*
X25900Y22450D02*
D03*
X22900D02*
D03*
Y23450D02*
D03*
X23900Y22450D02*
D03*
X27900D02*
D03*
X26900Y23450D02*
D03*
Y22450D02*
D03*
X21900Y23450D02*
D03*
X25900D02*
D03*
X7650Y22450D02*
D03*
Y23450D02*
D03*
X4650D02*
D03*
Y22450D02*
D03*
X5650D02*
D03*
Y23450D02*
D03*
X6650Y22450D02*
D03*
X2650D02*
D03*
Y23450D02*
D03*
X3650Y22450D02*
D03*
X6650Y23450D02*
D03*
X3650D02*
D03*
X21600Y12500D02*
D03*
Y11500D02*
D03*
Y10500D02*
D03*
Y13500D02*
D03*
Y14500D02*
D03*
Y19800D02*
D03*
Y18800D02*
D03*
Y20800D02*
D03*
X13650Y23450D02*
D03*
X11650Y22450D02*
D03*
X14650D02*
D03*
Y23450D02*
D03*
X11650D02*
D03*
X12650Y22450D02*
D03*
X13650D02*
D03*
X10650Y23450D02*
D03*
X12650D02*
D03*
X10650Y22450D02*
D03*
X32050D02*
D03*
X31050D02*
D03*
Y23450D02*
D03*
X33050D02*
D03*
Y22450D02*
D03*
X32050Y23450D02*
D03*
X21600Y7150D02*
D03*
Y6150D02*
D03*
Y8150D02*
D03*
X15150Y2350D02*
D03*
X16150Y1350D02*
D03*
Y2350D02*
D03*
X14150D02*
D03*
Y1350D02*
D03*
X15150D02*
D03*
X3750Y2350D02*
D03*
X4750Y1350D02*
D03*
Y2350D02*
D03*
X2750D02*
D03*
Y1350D02*
D03*
X3750D02*
D03*
X10450Y2350D02*
D03*
X8450Y1350D02*
D03*
X11450D02*
D03*
Y2350D02*
D03*
X8450D02*
D03*
X9450Y1350D02*
D03*
X10450D02*
D03*
X7450Y2350D02*
D03*
X9450D02*
D03*
X7450Y1350D02*
D03*
D45*
X32900Y20800D02*
D03*
X31900D02*
D03*
X30900D02*
D03*
X29900D02*
D03*
X27900D02*
D03*
X28900D02*
D03*
D46*
X26900D02*
D03*
D47*
X37600Y13650D02*
D03*
Y11650D02*
D03*
D48*
X37900Y8250D02*
D03*
Y7250D02*
D03*
D49*
Y6250D02*
D03*
D50*
X23500Y1000D02*
D03*
X24500D02*
D03*
X21500D02*
D03*
X22500D02*
D03*
X24500Y4000D02*
D03*
X23500D02*
D03*
X22500D02*
D03*
D51*
X21500D02*
D03*
D52*
X37990Y19375D02*
D03*
Y16225D02*
D03*
D53*
Y18587D02*
D03*
Y17800D02*
D03*
Y17013D02*
D03*
D54*
X36536Y864D02*
D03*
X34764D02*
D03*
Y3541D02*
D03*
X31364D02*
D03*
Y864D02*
D03*
X33136D02*
D03*
X27714Y3541D02*
D03*
Y864D02*
D03*
X29486D02*
D03*
D55*
X36536Y3541D02*
D03*
X33136D02*
D03*
X29486D02*
D03*
D56*
X18929Y19950D02*
D03*
X17929D02*
D03*
X18929Y18950D02*
D03*
X17929D02*
D03*
X18929Y17950D02*
D03*
X17929D02*
D03*
Y16950D02*
D03*
X18929Y15950D02*
D03*
X17929D02*
D03*
X18929Y14950D02*
D03*
X17929D02*
D03*
X18929Y13950D02*
D03*
X17929D02*
D03*
X18929Y12950D02*
D03*
X17929D02*
D03*
X18929Y11950D02*
D03*
X17929D02*
D03*
X18929Y10946D02*
D03*
X17929Y10954D02*
D03*
Y9950D02*
D03*
X18929Y8950D02*
D03*
X17929D02*
D03*
X18929Y7950D02*
D03*
X17929D02*
D03*
X18929Y7009D02*
D03*
X17929Y6950D02*
D03*
X18929Y5950D02*
D03*
Y4950D02*
D03*
X17929D02*
D03*
X929Y12950D02*
D03*
X1929D02*
D03*
X929Y13950D02*
D03*
X1929D02*
D03*
X929Y4950D02*
D03*
X1929D02*
D03*
X929Y5950D02*
D03*
X1929D02*
D03*
X929Y6950D02*
D03*
X1929D02*
D03*
X929Y7950D02*
D03*
X1929D02*
D03*
X929Y8950D02*
D03*
X1929D02*
D03*
Y9950D02*
D03*
X929Y10950D02*
D03*
X1929D02*
D03*
X929Y11950D02*
D03*
X1929D02*
D03*
Y19950D02*
D03*
X929D02*
D03*
X1929Y18950D02*
D03*
X929D02*
D03*
X1929Y17950D02*
D03*
X929D02*
D03*
Y16950D02*
D03*
Y15950D02*
D03*
Y14946D02*
D03*
X1929Y15942D02*
D03*
Y14950D02*
D03*
Y16950D02*
D03*
X929Y9950D02*
D03*
X17929Y5950D02*
D03*
X18929Y9950D02*
D03*
Y16950D02*
D03*
D57*
X16929Y5950D02*
D03*
Y4950D02*
D03*
X15929Y5950D02*
D03*
Y4950D02*
D03*
X14929Y5950D02*
D03*
X13929D02*
D03*
Y4950D02*
D03*
X12929D02*
D03*
X11929Y5950D02*
D03*
Y4950D02*
D03*
X10929Y5950D02*
D03*
Y4950D02*
D03*
X9929Y5950D02*
D03*
Y4950D02*
D03*
X8929Y5950D02*
D03*
Y4950D02*
D03*
X7929Y5950D02*
D03*
Y4950D02*
D03*
X6929Y5950D02*
D03*
X5929D02*
D03*
Y4950D02*
D03*
X4929Y5950D02*
D03*
X3929D02*
D03*
Y4950D02*
D03*
X2929Y5950D02*
D03*
Y4950D02*
D03*
X16929Y19950D02*
D03*
Y18950D02*
D03*
X15929Y19950D02*
D03*
Y18950D02*
D03*
X14929Y19950D02*
D03*
Y18950D02*
D03*
X13929Y19950D02*
D03*
Y18950D02*
D03*
X12929D02*
D03*
X11929Y19950D02*
D03*
X11921Y18950D02*
D03*
X10929Y19950D02*
D03*
X9929D02*
D03*
Y18950D02*
D03*
X8929Y19950D02*
D03*
X8961Y18950D02*
D03*
X7929Y19950D02*
D03*
X7906Y18950D02*
D03*
X6929Y19950D02*
D03*
X6941Y18950D02*
D03*
X5929Y19950D02*
D03*
X5953Y18950D02*
D03*
X4929Y19950D02*
D03*
X4925Y18950D02*
D03*
X3929Y19950D02*
D03*
Y18950D02*
D03*
X2929Y19950D02*
D03*
X10929Y18950D02*
D03*
X14980Y4926D02*
D03*
X4929Y4930D02*
D03*
X6929Y4950D02*
D03*
X12929Y5950D02*
D03*
Y19950D02*
D03*
X2925Y18950D02*
D03*
D58*
X28900Y17400D02*
D03*
X24350Y13887D02*
D03*
X32600Y11250D02*
D03*
X35612Y8862D02*
D03*
D59*
X38189Y1181D02*
D03*
Y23622D02*
D03*
X1181Y1181D02*
D03*
Y23622D02*
D03*
D60*
X34618Y7750D02*
D03*
X31882D02*
D03*
D61*
X31359Y13887D02*
D03*
X33359D02*
D03*
X32359D02*
D03*
X26109D02*
D03*
X27109D02*
D03*
X25109D02*
D03*
D62*
X32400Y17550D02*
D03*
X26150D02*
D03*
D63*
X33150Y11345D02*
D03*
X33650D02*
D03*
X34150D02*
D03*
X34650D02*
D03*
X33150Y9255D02*
D03*
X33650D02*
D03*
X34150D02*
D03*
X34650D02*
D03*
M02*
