G04*
G04 #@! TF.GenerationSoftware,Altium Limited,Altium Designer,18.1.4 (159)*
G04*
G04 Layer_Color=16711935*
%FSLAX24Y24*%
%MOIN*%
G70*
G01*
G75*
%ADD69C,0.0039*%
%ADD71C,0.0010*%
D69*
X34707Y9887D02*
G03*
X34707Y9887I-197J0D01*
G01*
X32935Y9532D02*
Y11068D01*
X34865Y9532D02*
Y11068D01*
X32935D02*
X34865D01*
X32935Y9532D02*
X34865D01*
X24822Y6874D02*
X25078D01*
X24822Y7012D02*
X25078D01*
Y6874D02*
Y7012D01*
X24822Y6874D02*
Y7012D01*
X27616Y9081D02*
Y9219D01*
X27360Y9081D02*
Y9219D01*
X27616D01*
X27360Y9081D02*
X27616D01*
X27272Y10331D02*
Y10469D01*
X27528Y10331D02*
Y10469D01*
X27272Y10331D02*
X27528D01*
X27272Y10469D02*
X27528D01*
X24822Y7831D02*
Y7969D01*
X25078Y7831D02*
Y7969D01*
X24822D02*
X25078D01*
X24822Y7831D02*
X25078D01*
X25722Y10331D02*
Y10469D01*
X25978Y10331D02*
Y10469D01*
X25722Y10331D02*
X25978D01*
X25722Y10469D02*
X25978D01*
X35231Y23578D02*
X35369D01*
X35231Y23322D02*
X35369D01*
Y23578D01*
X35231Y23322D02*
Y23578D01*
X33881D02*
X34019D01*
X33881Y23322D02*
X34019D01*
Y23578D01*
X33881Y23322D02*
Y23578D01*
X36531D02*
X36669D01*
X36531Y23322D02*
X36669D01*
Y23578D01*
X36531Y23322D02*
Y23578D01*
X23322Y15781D02*
X23578D01*
X23322Y15919D02*
X23578D01*
X23322Y15781D02*
Y15919D01*
X23578Y15781D02*
Y15919D01*
X29522Y15781D02*
X29778D01*
X29522Y15919D02*
X29778D01*
X29522Y15781D02*
Y15919D01*
X29778Y15781D02*
Y15919D01*
X33272Y12279D02*
X33528D01*
X33272Y12141D02*
X33528D01*
Y12279D01*
X33272Y12141D02*
Y12279D01*
X32531Y10484D02*
Y10740D01*
X32669Y10484D02*
Y10740D01*
X32531D02*
X32669D01*
X32531Y10484D02*
X32669D01*
X31772Y12141D02*
X32028D01*
X31772Y12279D02*
X32028D01*
X31772Y12141D02*
Y12279D01*
X32028Y12141D02*
Y12279D01*
D71*
X21200Y700D02*
Y4300D01*
X24800D01*
Y700D02*
Y4300D01*
X21200Y700D02*
X24800D01*
M02*
