G04*
G04 #@! TF.GenerationSoftware,Altium Limited,Altium Designer,18.1.4 (159)*
G04*
G04 Layer_Color=255*
%FSLAX24Y24*%
%MOIN*%
G70*
G01*
G75*
%ADD19R,0.0110X0.0295*%
%ADD20R,0.0197X0.0118*%
%ADD21R,0.0118X0.0197*%
%ADD44C,0.0709*%
%ADD45C,0.0591*%
%ADD46R,0.0591X0.0591*%
%ADD47C,0.0984*%
%ADD48C,0.0472*%
%ADD49R,0.0472X0.0472*%
%ADD50C,0.0600*%
%ADD51R,0.0600X0.0600*%
%ADD52O,0.0827X0.0472*%
G04:AMPARAMS|DCode=53|XSize=59.1mil|YSize=39.4mil|CornerRadius=9.8mil|HoleSize=0mil|Usage=FLASHONLY|Rotation=90.000|XOffset=0mil|YOffset=0mil|HoleType=Round|Shape=RoundedRectangle|*
%AMROUNDEDRECTD53*
21,1,0.0591,0.0197,0,0,90.0*
21,1,0.0394,0.0394,0,0,90.0*
1,1,0.0197,0.0098,0.0197*
1,1,0.0197,0.0098,-0.0197*
1,1,0.0197,-0.0098,-0.0197*
1,1,0.0197,-0.0098,0.0197*
%
%ADD53ROUNDEDRECTD53*%
%ADD54C,0.0748*%
%ADD55R,0.0748X0.0748*%
%ADD56O,0.0660X0.0590*%
%ADD57O,0.0590X0.0660*%
%ADD60R,0.0945X0.1299*%
%ADD61R,0.0413X0.0827*%
%ADD62R,0.4134X0.4724*%
%ADD63O,0.0236X0.0866*%
D19*
X13944Y6750D02*
D03*
X13747D02*
D03*
X13550D02*
D03*
X13353D02*
D03*
Y7242D02*
D03*
X13550D02*
D03*
X13747D02*
D03*
X13944D02*
D03*
D20*
X27626Y9150D02*
D03*
X27350D02*
D03*
X27262Y10400D02*
D03*
X27538D02*
D03*
X25712D02*
D03*
X25988D02*
D03*
X23312Y15850D02*
D03*
X23588D02*
D03*
X29512D02*
D03*
X29788D02*
D03*
X33538Y12210D02*
D03*
X33262D02*
D03*
X31762Y12210D02*
D03*
X32038D02*
D03*
D21*
X32600Y10750D02*
D03*
Y10474D02*
D03*
D44*
X20900Y22450D02*
D03*
Y23450D02*
D03*
X21900Y22450D02*
D03*
X23900Y23450D02*
D03*
X27900D02*
D03*
X24900Y22450D02*
D03*
Y23450D02*
D03*
X25900Y22450D02*
D03*
X22900D02*
D03*
Y23450D02*
D03*
X23900Y22450D02*
D03*
X27900D02*
D03*
X26900Y23450D02*
D03*
Y22450D02*
D03*
X21900Y23450D02*
D03*
X25900D02*
D03*
X7650Y22450D02*
D03*
Y23450D02*
D03*
X4650D02*
D03*
Y22450D02*
D03*
X5650D02*
D03*
Y23450D02*
D03*
X6650Y22450D02*
D03*
X2650D02*
D03*
Y23450D02*
D03*
X3650Y22450D02*
D03*
X6650Y23450D02*
D03*
X3650D02*
D03*
X21600Y12500D02*
D03*
Y11500D02*
D03*
Y10500D02*
D03*
Y13500D02*
D03*
Y14500D02*
D03*
Y19800D02*
D03*
Y18800D02*
D03*
Y20800D02*
D03*
X13650Y23450D02*
D03*
X11650Y22450D02*
D03*
X14650D02*
D03*
Y23450D02*
D03*
X11650D02*
D03*
X12650Y22450D02*
D03*
X13650D02*
D03*
X10650Y23450D02*
D03*
X12650D02*
D03*
X10650Y22450D02*
D03*
X32050D02*
D03*
X31050D02*
D03*
Y23450D02*
D03*
X33050D02*
D03*
Y22450D02*
D03*
X32050Y23450D02*
D03*
X21600Y7150D02*
D03*
Y6150D02*
D03*
Y8150D02*
D03*
X15150Y2350D02*
D03*
X16150Y1350D02*
D03*
Y2350D02*
D03*
X14150D02*
D03*
Y1350D02*
D03*
X15150D02*
D03*
X3750Y2350D02*
D03*
X4750Y1350D02*
D03*
Y2350D02*
D03*
X2750D02*
D03*
Y1350D02*
D03*
X3750D02*
D03*
X10450Y2350D02*
D03*
X8450Y1350D02*
D03*
X11450D02*
D03*
Y2350D02*
D03*
X8450D02*
D03*
X9450Y1350D02*
D03*
X10450D02*
D03*
X7450Y2350D02*
D03*
X9450D02*
D03*
X7450Y1350D02*
D03*
D45*
X32900Y20800D02*
D03*
X31900D02*
D03*
X30900D02*
D03*
X29900D02*
D03*
X27900D02*
D03*
X28900D02*
D03*
D46*
X26900D02*
D03*
D47*
X37600Y13650D02*
D03*
Y11650D02*
D03*
D48*
X37900Y8250D02*
D03*
Y7250D02*
D03*
D49*
Y6250D02*
D03*
D50*
X23500Y1000D02*
D03*
X24500D02*
D03*
X21500D02*
D03*
X22500D02*
D03*
X24500Y4000D02*
D03*
X23500D02*
D03*
X22500D02*
D03*
D51*
X21500D02*
D03*
D52*
X37990Y19375D02*
D03*
Y16225D02*
D03*
D53*
Y18587D02*
D03*
Y17800D02*
D03*
Y17013D02*
D03*
D54*
X36536Y864D02*
D03*
X34764D02*
D03*
Y3541D02*
D03*
X31364D02*
D03*
Y864D02*
D03*
X33136D02*
D03*
X27714Y3541D02*
D03*
Y864D02*
D03*
X29486D02*
D03*
D55*
X36536Y3541D02*
D03*
X33136D02*
D03*
X29486D02*
D03*
D56*
X18929Y19950D02*
D03*
X17929D02*
D03*
X18929Y18950D02*
D03*
X17929D02*
D03*
X18929Y17950D02*
D03*
X17929D02*
D03*
Y16950D02*
D03*
X18929Y15950D02*
D03*
X17929D02*
D03*
X18929Y14950D02*
D03*
X17929D02*
D03*
X18929Y13950D02*
D03*
X17929D02*
D03*
X18929Y12950D02*
D03*
X17929D02*
D03*
X18929Y11950D02*
D03*
X17929D02*
D03*
X18929Y10946D02*
D03*
X17929Y10954D02*
D03*
Y9950D02*
D03*
X18929Y8950D02*
D03*
X17929D02*
D03*
X18929Y7950D02*
D03*
X17929D02*
D03*
X18929Y7009D02*
D03*
X17929Y6950D02*
D03*
X18929Y5950D02*
D03*
Y4950D02*
D03*
X17929D02*
D03*
X929Y12950D02*
D03*
X1929D02*
D03*
X929Y13950D02*
D03*
X1929D02*
D03*
X929Y4950D02*
D03*
X1929D02*
D03*
X929Y5950D02*
D03*
X1929D02*
D03*
X929Y6950D02*
D03*
X1929D02*
D03*
X929Y7950D02*
D03*
X1929D02*
D03*
X929Y8950D02*
D03*
X1929D02*
D03*
Y9950D02*
D03*
X929Y10950D02*
D03*
X1929D02*
D03*
X929Y11950D02*
D03*
X1929D02*
D03*
Y19950D02*
D03*
X929D02*
D03*
X1929Y18950D02*
D03*
X929D02*
D03*
X1929Y17950D02*
D03*
X929D02*
D03*
Y16950D02*
D03*
Y15950D02*
D03*
Y14946D02*
D03*
X1929Y15942D02*
D03*
Y14950D02*
D03*
Y16950D02*
D03*
X929Y9950D02*
D03*
X17929Y5950D02*
D03*
X18929Y9950D02*
D03*
Y16950D02*
D03*
D57*
X16929Y5950D02*
D03*
Y4950D02*
D03*
X15929Y5950D02*
D03*
Y4950D02*
D03*
X14929Y5950D02*
D03*
X13929D02*
D03*
Y4950D02*
D03*
X12929D02*
D03*
X11929Y5950D02*
D03*
Y4950D02*
D03*
X10929Y5950D02*
D03*
Y4950D02*
D03*
X9929Y5950D02*
D03*
Y4950D02*
D03*
X8929Y5950D02*
D03*
Y4950D02*
D03*
X7929Y5950D02*
D03*
Y4950D02*
D03*
X6929Y5950D02*
D03*
X5929D02*
D03*
Y4950D02*
D03*
X4929Y5950D02*
D03*
X3929D02*
D03*
Y4950D02*
D03*
X2929Y5950D02*
D03*
Y4950D02*
D03*
X16929Y19950D02*
D03*
Y18950D02*
D03*
X15929Y19950D02*
D03*
Y18950D02*
D03*
X14929Y19950D02*
D03*
Y18950D02*
D03*
X13929Y19950D02*
D03*
Y18950D02*
D03*
X12929D02*
D03*
X11929Y19950D02*
D03*
X11921Y18950D02*
D03*
X10929Y19950D02*
D03*
X9929D02*
D03*
Y18950D02*
D03*
X8929Y19950D02*
D03*
X8961Y18950D02*
D03*
X7929Y19950D02*
D03*
X7906Y18950D02*
D03*
X6929Y19950D02*
D03*
X6941Y18950D02*
D03*
X5929Y19950D02*
D03*
X5953Y18950D02*
D03*
X4929Y19950D02*
D03*
X4925Y18950D02*
D03*
X3929Y19950D02*
D03*
Y18950D02*
D03*
X2929Y19950D02*
D03*
X10929Y18950D02*
D03*
X14980Y4926D02*
D03*
X4929Y4930D02*
D03*
X6929Y4950D02*
D03*
X12929Y5950D02*
D03*
Y19950D02*
D03*
X2925Y18950D02*
D03*
D60*
X34618Y7750D02*
D03*
X31882D02*
D03*
D61*
X31359Y13887D02*
D03*
X33359D02*
D03*
X32359D02*
D03*
X26109D02*
D03*
X27109D02*
D03*
X25109D02*
D03*
D62*
X32400Y17550D02*
D03*
X26150D02*
D03*
D63*
X33150Y11345D02*
D03*
X33650D02*
D03*
X34150D02*
D03*
X34650D02*
D03*
X33150Y9255D02*
D03*
X33650D02*
D03*
X34150D02*
D03*
X34650D02*
D03*
M02*
