G04*
G04 #@! TF.GenerationSoftware,Altium Limited,Altium Designer,18.1.4 (159)*
G04*
G04 Layer_Color=32768*
%FSLAX24Y24*%
%MOIN*%
G70*
G01*
G75*
%ADD12C,0.0020*%
%ADD69C,0.0039*%
D12*
X32438Y13050D02*
G03*
X32438Y13050I-138J0D01*
G01*
X35788Y2203D02*
G03*
X35788Y2203I-138J0D01*
G01*
X32388D02*
G03*
X32388Y2203I-138J0D01*
G01*
X28738D02*
G03*
X28738Y2203I-138J0D01*
G01*
X26088Y13050D02*
G03*
X26088Y13050I-138J0D01*
G01*
X32438Y18050D02*
G03*
X32438Y18050I-138J0D01*
G01*
X26088Y18000D02*
G03*
X26088Y18000I-138J0D01*
G01*
X32103Y13050D02*
X32497D01*
X32300Y12853D02*
Y13247D01*
X35453Y2203D02*
X35847D01*
X35650Y2006D02*
Y2399D01*
X32250Y2006D02*
Y2399D01*
X32053Y2203D02*
X32447D01*
X28600Y2006D02*
Y2399D01*
X28403Y2203D02*
X28797D01*
X25753Y13050D02*
X26147D01*
X25950Y12853D02*
Y13247D01*
X32103Y18050D02*
X32497D01*
X32300Y17853D02*
Y18247D01*
X25753Y18000D02*
X26147D01*
X25950Y17803D02*
Y18197D01*
D69*
X33703Y10300D02*
X34097D01*
X33900Y10103D02*
Y10497D01*
X32817Y8700D02*
Y11900D01*
X34983Y8700D02*
Y11900D01*
X32817D02*
X34983D01*
X32817Y8700D02*
X34983D01*
X24950Y6874D02*
Y7012D01*
X24881Y6943D02*
X25019D01*
X24674Y6844D02*
X25226D01*
X24674Y7041D02*
X25226D01*
Y6844D02*
Y7041D01*
X24674Y6844D02*
Y7041D01*
X27763Y9052D02*
Y9248D01*
X27212Y9052D02*
Y9248D01*
X27763D01*
X27212Y9052D02*
X27763D01*
X27419Y9150D02*
X27557D01*
X27488Y9081D02*
Y9219D01*
X27124Y10302D02*
Y10498D01*
X27676Y10302D02*
Y10498D01*
X27124Y10302D02*
X27676D01*
X27124Y10498D02*
X27676D01*
X27331Y10400D02*
X27469D01*
X27400Y10331D02*
Y10469D01*
X24674Y7802D02*
Y7998D01*
X25226Y7802D02*
Y7998D01*
X24674D02*
X25226D01*
X24674Y7802D02*
X25226D01*
X24881Y7900D02*
X25019D01*
X24950Y7831D02*
Y7969D01*
X25574Y10302D02*
Y10498D01*
X26126Y10302D02*
Y10498D01*
X25574Y10302D02*
X26126D01*
X25574Y10498D02*
X26126D01*
X25781Y10400D02*
X25919D01*
X25850Y10331D02*
Y10469D01*
X35202Y23726D02*
X35398D01*
X35202Y23174D02*
X35398D01*
Y23726D01*
X35202Y23174D02*
Y23726D01*
X35300Y23381D02*
Y23519D01*
X35231Y23450D02*
X35369D01*
X33852Y23726D02*
X34048D01*
X33852Y23174D02*
X34048D01*
Y23726D01*
X33852Y23174D02*
Y23726D01*
X33950Y23381D02*
Y23519D01*
X33881Y23450D02*
X34019D01*
X36502Y23726D02*
X36698D01*
X36502Y23174D02*
X36698D01*
Y23726D01*
X36502Y23174D02*
Y23726D01*
X36600Y23381D02*
Y23519D01*
X36531Y23450D02*
X36669D01*
X23450Y15781D02*
Y15919D01*
X23381Y15850D02*
X23519D01*
X23174Y15752D02*
X23726D01*
X23174Y15948D02*
X23726D01*
X23174Y15752D02*
Y15948D01*
X23726Y15752D02*
Y15948D01*
X29650Y15781D02*
Y15919D01*
X29581Y15850D02*
X29719D01*
X29374Y15752D02*
X29926D01*
X29374Y15948D02*
X29926D01*
X29374Y15752D02*
Y15948D01*
X29926Y15752D02*
Y15948D01*
X33400Y12141D02*
Y12279D01*
X33331Y12210D02*
X33469D01*
X33124Y12309D02*
X33676D01*
X33124Y12112D02*
X33676D01*
Y12309D01*
X33124Y12112D02*
Y12309D01*
X32531Y10612D02*
X32669D01*
X32600Y10543D02*
Y10681D01*
X32502Y10337D02*
Y10888D01*
X32698Y10337D02*
Y10888D01*
X32502D02*
X32698D01*
X32502Y10337D02*
X32698D01*
X31900Y12141D02*
Y12279D01*
X31831Y12210D02*
X31969D01*
X31624Y12112D02*
X32176D01*
X31624Y12309D02*
X32176D01*
X31624Y12112D02*
Y12309D01*
X32176Y12112D02*
Y12309D01*
M02*
