G04*
G04 #@! TF.GenerationSoftware,Altium Limited,Altium Designer,18.1.4 (159)*
G04*
G04 Layer_Physical_Order=1*
G04 Layer_Color=255*
%FSLAX24Y24*%
%MOIN*%
G70*
G01*
G75*
%ADD11C,0.0100*%
%ADD15R,0.1181X0.0512*%
%ADD16O,0.1181X0.0512*%
%ADD17R,0.0197X0.0400*%
%ADD18R,0.1181X0.1969*%
%ADD19R,0.0300X0.0300*%
%ADD20R,0.0300X0.0300*%
%ADD36O,0.0827X0.0472*%
G04:AMPARAMS|DCode=37|XSize=59.1mil|YSize=39.4mil|CornerRadius=9.8mil|HoleSize=0mil|Usage=FLASHONLY|Rotation=90.000|XOffset=0mil|YOffset=0mil|HoleType=Round|Shape=RoundedRectangle|*
%AMROUNDEDRECTD37*
21,1,0.0591,0.0197,0,0,90.0*
21,1,0.0394,0.0394,0,0,90.0*
1,1,0.0197,0.0098,0.0197*
1,1,0.0197,0.0098,-0.0197*
1,1,0.0197,-0.0098,-0.0197*
1,1,0.0197,-0.0098,0.0197*
%
%ADD37ROUNDEDRECTD37*%
%ADD38C,0.0700*%
%ADD39R,0.0700X0.0700*%
%ADD40C,0.0900*%
%ADD41R,0.0900X0.0900*%
%ADD42R,0.0700X0.0700*%
%ADD43C,0.0500*%
%ADD44C,0.1600*%
G36*
X20705Y24754D02*
X19754Y23803D01*
X15237D01*
X15234Y23804D01*
X15219Y23815D01*
X15201Y23829D01*
X15144Y23879D01*
X15113Y23910D01*
X15082Y23934D01*
X15051Y23957D01*
X15050Y23957D01*
X15050Y23958D01*
X15014Y23972D01*
X14978Y23987D01*
X14977Y23987D01*
X14977Y23988D01*
X14938Y23993D01*
X14900Y23998D01*
X14899Y23997D01*
X14898Y23998D01*
X14860Y23992D01*
X14822Y23987D01*
X14821Y23987D01*
X14820Y23987D01*
X14784Y23972D01*
X14749Y23957D01*
X14748Y23957D01*
X14747Y23956D01*
X14717Y23933D01*
X14700Y23920D01*
Y23450D01*
X14600D01*
Y23920D01*
X14583Y23932D01*
X14553Y23956D01*
X14552Y23957D01*
X14551Y23957D01*
X14516Y23972D01*
X14480Y23987D01*
X14479Y23987D01*
X14478Y23987D01*
X14440Y23992D01*
X14402Y23998D01*
X14401Y23997D01*
X14400Y23998D01*
X14362Y23993D01*
X14323Y23988D01*
X14323Y23987D01*
X14322Y23987D01*
X14286Y23973D01*
X14250Y23958D01*
X14250Y23957D01*
X14249Y23957D01*
X14218Y23934D01*
X14187Y23910D01*
X14156Y23879D01*
X14150Y23874D01*
X14144Y23879D01*
X14113Y23910D01*
X14082Y23934D01*
X14051Y23957D01*
X14050Y23957D01*
X14050Y23958D01*
X14014Y23972D01*
X13978Y23987D01*
X13977Y23987D01*
X13977Y23988D01*
X13938Y23993D01*
X13900Y23998D01*
X13899Y23997D01*
X13898Y23998D01*
X13876Y23994D01*
X13862Y24013D01*
X13861Y24013D01*
X13860Y24014D01*
X13830Y24037D01*
X13799Y24061D01*
X13798Y24062D01*
X13798Y24062D01*
X13762Y24077D01*
X13726Y24092D01*
X13726Y24092D01*
X13725Y24092D01*
X13687Y24097D01*
X13648Y24103D01*
X13604Y24103D01*
X13529Y24107D01*
X13506Y24110D01*
X13487Y24114D01*
X13485Y24114D01*
X12845Y24754D01*
X12865Y24800D01*
X20685D01*
X20705Y24754D01*
D02*
G37*
G36*
X20951Y23881D02*
X20953Y23864D01*
X20956Y23849D01*
X20961Y23835D01*
X20967Y23822D01*
X20974Y23811D01*
X20983Y23801D01*
X20993Y23792D01*
X21004Y23785D01*
X21017Y23780D01*
X20783D01*
X20796Y23785D01*
X20807Y23792D01*
X20817Y23801D01*
X20826Y23811D01*
X20833Y23822D01*
X20839Y23835D01*
X20844Y23849D01*
X20847Y23864D01*
X20849Y23881D01*
X20850Y23900D01*
X20950D01*
X20951Y23881D01*
D02*
G37*
G36*
X32800Y23205D02*
X32763Y23242D01*
X32692Y23304D01*
X32659Y23330D01*
X32628Y23351D01*
X32598Y23369D01*
X32570Y23382D01*
X32550Y23390D01*
X32530Y23382D01*
X32502Y23369D01*
X32472Y23351D01*
X32441Y23330D01*
X32408Y23304D01*
X32337Y23242D01*
X32300Y23205D01*
Y23695D01*
X32337Y23658D01*
X32408Y23596D01*
X32441Y23570D01*
X32472Y23549D01*
X32502Y23531D01*
X32530Y23518D01*
X32550Y23510D01*
X32570Y23518D01*
X32598Y23531D01*
X32628Y23549D01*
X32659Y23570D01*
X32692Y23596D01*
X32763Y23658D01*
X32800Y23695D01*
Y23205D01*
D02*
G37*
G36*
X31800D02*
X31763Y23242D01*
X31692Y23304D01*
X31659Y23330D01*
X31628Y23351D01*
X31598Y23369D01*
X31570Y23382D01*
X31550Y23390D01*
X31530Y23382D01*
X31502Y23369D01*
X31472Y23351D01*
X31441Y23330D01*
X31408Y23304D01*
X31337Y23242D01*
X31300Y23205D01*
Y23695D01*
X31337Y23658D01*
X31408Y23596D01*
X31441Y23570D01*
X31472Y23549D01*
X31502Y23531D01*
X31530Y23518D01*
X31550Y23510D01*
X31570Y23518D01*
X31598Y23531D01*
X31628Y23549D01*
X31659Y23570D01*
X31692Y23596D01*
X31763Y23658D01*
X31800Y23695D01*
Y23205D01*
D02*
G37*
G36*
X14400D02*
X14363Y23242D01*
X14292Y23304D01*
X14259Y23330D01*
X14228Y23351D01*
X14198Y23369D01*
X14170Y23382D01*
X14150Y23390D01*
X14130Y23382D01*
X14102Y23369D01*
X14072Y23351D01*
X14041Y23330D01*
X14008Y23304D01*
X13937Y23242D01*
X13900Y23205D01*
Y23695D01*
X13937Y23658D01*
X14008Y23596D01*
X14041Y23570D01*
X14072Y23549D01*
X14102Y23531D01*
X14130Y23518D01*
X14150Y23510D01*
X14170Y23518D01*
X14198Y23531D01*
X14228Y23549D01*
X14259Y23570D01*
X14292Y23596D01*
X14363Y23658D01*
X14400Y23695D01*
Y23205D01*
D02*
G37*
G36*
X36472Y23650D02*
X36508Y23619D01*
X36525Y23607D01*
X36540Y23599D01*
X36553Y23593D01*
X36565Y23590D01*
X36576D01*
X36585Y23593D01*
X36593Y23599D01*
X36451Y23457D01*
X36457Y23465D01*
X36460Y23474D01*
Y23485D01*
X36457Y23497D01*
X36451Y23510D01*
X36443Y23525D01*
X36431Y23542D01*
X36417Y23559D01*
X36380Y23599D01*
X36451Y23670D01*
X36472Y23650D01*
D02*
G37*
G36*
X22560Y23863D02*
X22582Y23850D01*
X22608Y23837D01*
X22638Y23827D01*
X22671Y23818D01*
X22709Y23811D01*
X22750Y23806D01*
X22844Y23800D01*
X22896Y23800D01*
X22550Y23454D01*
X22550Y23506D01*
X22544Y23600D01*
X22539Y23641D01*
X22532Y23679D01*
X22523Y23712D01*
X22513Y23742D01*
X22500Y23768D01*
X22487Y23790D01*
X22471Y23808D01*
X22542Y23879D01*
X22560Y23863D01*
D02*
G37*
G36*
X13310D02*
X13332Y23850D01*
X13358Y23837D01*
X13388Y23827D01*
X13421Y23818D01*
X13459Y23811D01*
X13500Y23806D01*
X13594Y23800D01*
X13647Y23800D01*
X13300Y23454D01*
X13300Y23506D01*
X13294Y23600D01*
X13289Y23641D01*
X13282Y23679D01*
X13273Y23712D01*
X13263Y23742D01*
X13250Y23768D01*
X13237Y23790D01*
X13221Y23808D01*
X13292Y23879D01*
X13310Y23863D01*
D02*
G37*
G36*
X3079Y23808D02*
X3063Y23790D01*
X3050Y23768D01*
X3037Y23742D01*
X3027Y23712D01*
X3018Y23679D01*
X3011Y23641D01*
X3006Y23600D01*
X3000Y23506D01*
X3000Y23454D01*
X2654Y23800D01*
X2706Y23800D01*
X2800Y23806D01*
X2841Y23811D01*
X2879Y23818D01*
X2912Y23827D01*
X2942Y23837D01*
X2968Y23850D01*
X2990Y23863D01*
X3008Y23879D01*
X3079Y23808D01*
D02*
G37*
G36*
X35151Y23350D02*
X35150Y23359D01*
X35147Y23368D01*
X35142Y23375D01*
X35135Y23382D01*
X35126Y23387D01*
X35115Y23392D01*
X35102Y23396D01*
X35087Y23398D01*
X35070Y23400D01*
X35051Y23400D01*
Y23500D01*
X35070Y23500D01*
X35087Y23502D01*
X35102Y23505D01*
X35115Y23508D01*
X35126Y23512D01*
X35135Y23518D01*
X35142Y23524D01*
X35147Y23532D01*
X35150Y23540D01*
X35151Y23550D01*
Y23350D01*
D02*
G37*
G36*
X34234Y23540D02*
X34237Y23532D01*
X34242Y23524D01*
X34249Y23518D01*
X34258Y23512D01*
X34269Y23508D01*
X34282Y23505D01*
X34297Y23502D01*
X34315Y23500D01*
X34334Y23500D01*
Y23400D01*
X34315Y23400D01*
X34297Y23398D01*
X34282Y23396D01*
X34269Y23392D01*
X34258Y23387D01*
X34249Y23382D01*
X34242Y23375D01*
X34237Y23368D01*
X34234Y23359D01*
X34233Y23350D01*
Y23550D01*
X34234Y23540D01*
D02*
G37*
G36*
X33936Y23350D02*
X33935Y23359D01*
X33932Y23368D01*
X33927Y23375D01*
X33920Y23382D01*
X33911Y23387D01*
X33900Y23392D01*
X33887Y23396D01*
X33872Y23398D01*
X33855Y23400D01*
X33836Y23400D01*
Y23500D01*
X33855Y23500D01*
X33872Y23502D01*
X33887Y23505D01*
X33900Y23508D01*
X33911Y23512D01*
X33920Y23518D01*
X33927Y23524D01*
X33932Y23532D01*
X33935Y23540D01*
X33936Y23550D01*
Y23350D01*
D02*
G37*
G36*
X20041Y23521D02*
X20029Y23507D01*
X20019Y23492D01*
X20012Y23478D01*
X20007Y23464D01*
X20006Y23450D01*
X20007Y23436D01*
X20012Y23422D01*
X20019Y23408D01*
X20029Y23393D01*
X20041Y23379D01*
X19950Y23329D01*
X19936Y23343D01*
X19921Y23355D01*
X19905Y23365D01*
X19889Y23375D01*
X19872Y23382D01*
X19855Y23389D01*
X19837Y23394D01*
X19818Y23397D01*
X19799Y23399D01*
X19779Y23400D01*
Y23500D01*
X19799Y23501D01*
X19818Y23503D01*
X19837Y23506D01*
X19855Y23511D01*
X19872Y23518D01*
X19889Y23525D01*
X19905Y23535D01*
X19921Y23545D01*
X19936Y23557D01*
X19950Y23571D01*
X20041Y23521D01*
D02*
G37*
G36*
X33337Y23658D02*
X33408Y23596D01*
X33441Y23570D01*
X33472Y23549D01*
X33502Y23531D01*
X33530Y23518D01*
X33557Y23508D01*
X33583Y23502D01*
X33606Y23500D01*
Y23400D01*
X33583Y23398D01*
X33557Y23392D01*
X33530Y23382D01*
X33502Y23369D01*
X33472Y23351D01*
X33441Y23330D01*
X33408Y23304D01*
X33337Y23242D01*
X33300Y23205D01*
Y23695D01*
X33337Y23658D01*
D02*
G37*
G36*
X14937D02*
X15008Y23596D01*
X15041Y23570D01*
X15072Y23549D01*
X15102Y23531D01*
X15130Y23518D01*
X15157Y23508D01*
X15183Y23502D01*
X15206Y23500D01*
Y23400D01*
X15183Y23398D01*
X15157Y23392D01*
X15130Y23382D01*
X15102Y23369D01*
X15072Y23351D01*
X15041Y23330D01*
X15008Y23304D01*
X14937Y23242D01*
X14900Y23205D01*
Y23695D01*
X14937Y23658D01*
D02*
G37*
G36*
X26250Y23394D02*
X26256Y23300D01*
X26261Y23259D01*
X26268Y23221D01*
X26277Y23188D01*
X26287Y23158D01*
X26300Y23132D01*
X26313Y23110D01*
X26329Y23092D01*
X26258Y23021D01*
X26240Y23037D01*
X26218Y23050D01*
X26192Y23063D01*
X26162Y23073D01*
X26129Y23082D01*
X26091Y23089D01*
X26050Y23094D01*
X25956Y23100D01*
X25903Y23100D01*
X26250Y23447D01*
X26250Y23394D01*
D02*
G37*
G36*
X25250D02*
X25256Y23300D01*
X25261Y23259D01*
X25268Y23221D01*
X25277Y23188D01*
X25287Y23158D01*
X25300Y23132D01*
X25313Y23110D01*
X25329Y23092D01*
X25258Y23021D01*
X25240Y23037D01*
X25218Y23050D01*
X25192Y23063D01*
X25162Y23073D01*
X25129Y23082D01*
X25091Y23089D01*
X25050Y23094D01*
X24956Y23100D01*
X24904Y23100D01*
X25250Y23447D01*
X25250Y23394D01*
D02*
G37*
G36*
X22250D02*
X22256Y23300D01*
X22261Y23259D01*
X22268Y23221D01*
X22277Y23188D01*
X22287Y23158D01*
X22300Y23132D01*
X22313Y23110D01*
X22329Y23092D01*
X22258Y23021D01*
X22240Y23037D01*
X22218Y23050D01*
X22192Y23063D01*
X22162Y23073D01*
X22129Y23082D01*
X22091Y23089D01*
X22050Y23094D01*
X21956Y23100D01*
X21904Y23100D01*
X22250Y23447D01*
X22250Y23394D01*
D02*
G37*
G36*
X13000D02*
X13006Y23300D01*
X13011Y23259D01*
X13018Y23221D01*
X13027Y23188D01*
X13037Y23158D01*
X13050Y23132D01*
X13063Y23110D01*
X13079Y23092D01*
X13008Y23021D01*
X12990Y23037D01*
X12968Y23050D01*
X12942Y23063D01*
X12912Y23073D01*
X12879Y23082D01*
X12841Y23089D01*
X12800Y23094D01*
X12706Y23100D01*
X12653Y23100D01*
X13000Y23447D01*
X13000Y23394D01*
D02*
G37*
G36*
X12000D02*
X12006Y23300D01*
X12011Y23259D01*
X12018Y23221D01*
X12027Y23188D01*
X12037Y23158D01*
X12050Y23132D01*
X12063Y23110D01*
X12079Y23092D01*
X12008Y23021D01*
X11990Y23037D01*
X11968Y23050D01*
X11942Y23063D01*
X11912Y23073D01*
X11879Y23082D01*
X11841Y23089D01*
X11800Y23094D01*
X11706Y23100D01*
X11653Y23100D01*
X12000Y23447D01*
X12000Y23394D01*
D02*
G37*
G36*
X11000D02*
X11006Y23300D01*
X11011Y23259D01*
X11018Y23221D01*
X11027Y23188D01*
X11037Y23158D01*
X11050Y23132D01*
X11063Y23110D01*
X11079Y23092D01*
X11008Y23021D01*
X10990Y23037D01*
X10968Y23050D01*
X10942Y23063D01*
X10912Y23073D01*
X10879Y23082D01*
X10841Y23089D01*
X10800Y23094D01*
X10706Y23100D01*
X10654Y23100D01*
X11000Y23447D01*
X11000Y23394D01*
D02*
G37*
G36*
X36593Y22751D02*
X36585Y22757D01*
X36576Y22760D01*
X36565D01*
X36553Y22757D01*
X36540Y22751D01*
X36525Y22743D01*
X36508Y22731D01*
X36491Y22717D01*
X36451Y22680D01*
X36380Y22751D01*
X36400Y22772D01*
X36431Y22808D01*
X36443Y22825D01*
X36451Y22840D01*
X36457Y22853D01*
X36460Y22865D01*
Y22876D01*
X36457Y22885D01*
X36451Y22893D01*
X36593Y22751D01*
D02*
G37*
G36*
X35293D02*
X35285Y22757D01*
X35276Y22760D01*
X35265D01*
X35253Y22757D01*
X35240Y22751D01*
X35225Y22743D01*
X35208Y22731D01*
X35191Y22717D01*
X35151Y22680D01*
X35080Y22751D01*
X35100Y22772D01*
X35131Y22808D01*
X35143Y22825D01*
X35151Y22840D01*
X35157Y22853D01*
X35160Y22865D01*
Y22876D01*
X35157Y22885D01*
X35151Y22893D01*
X35293Y22751D01*
D02*
G37*
G36*
X3858Y23163D02*
X3796Y23092D01*
X3770Y23059D01*
X3749Y23028D01*
X3731Y22998D01*
X3718Y22970D01*
X3710Y22950D01*
X3718Y22930D01*
X3731Y22902D01*
X3749Y22872D01*
X3770Y22841D01*
X3796Y22808D01*
X3858Y22737D01*
X3895Y22700D01*
X3405D01*
X3442Y22737D01*
X3504Y22808D01*
X3530Y22841D01*
X3551Y22872D01*
X3569Y22902D01*
X3582Y22930D01*
X3590Y22950D01*
X3582Y22970D01*
X3569Y22998D01*
X3551Y23028D01*
X3530Y23059D01*
X3504Y23092D01*
X3442Y23163D01*
X3405Y23200D01*
X3895D01*
X3858Y23163D01*
D02*
G37*
G36*
X2858D02*
X2796Y23092D01*
X2770Y23059D01*
X2749Y23028D01*
X2731Y22998D01*
X2718Y22970D01*
X2710Y22950D01*
X2718Y22930D01*
X2731Y22902D01*
X2749Y22872D01*
X2770Y22841D01*
X2796Y22808D01*
X2858Y22737D01*
X2895Y22700D01*
X2405D01*
X2442Y22737D01*
X2504Y22808D01*
X2530Y22841D01*
X2551Y22872D01*
X2569Y22902D01*
X2582Y22930D01*
X2590Y22950D01*
X2582Y22970D01*
X2569Y22998D01*
X2551Y23028D01*
X2530Y23059D01*
X2504Y23092D01*
X2442Y23163D01*
X2405Y23200D01*
X2895D01*
X2858Y23163D01*
D02*
G37*
G36*
X34176Y22751D02*
X34167Y22748D01*
X34160Y22743D01*
X34153Y22736D01*
X34148Y22727D01*
X34143Y22716D01*
X34140Y22703D01*
X34137Y22688D01*
X34136Y22670D01*
X34135Y22651D01*
X34035D01*
X34035Y22670D01*
X34033Y22688D01*
X34031Y22703D01*
X34027Y22716D01*
X34023Y22727D01*
X34017Y22736D01*
X34011Y22743D01*
X34003Y22748D01*
X33995Y22751D01*
X33985Y22752D01*
X34185D01*
X34176Y22751D01*
D02*
G37*
G36*
X39081Y24783D02*
X39163Y24749D01*
X39237Y24700D01*
X39300Y24637D01*
X39349Y24563D01*
X39383Y24481D01*
X39400Y24394D01*
Y24350D01*
Y450D01*
Y406D01*
X39383Y319D01*
X39349Y237D01*
X39300Y163D01*
X39237Y100D01*
X39163Y51D01*
X39081Y17D01*
X38994Y0D01*
X36358D01*
X36342Y47D01*
X36345Y50D01*
X36471Y176D01*
X36473Y176D01*
X36492Y180D01*
X36514Y183D01*
X36590Y187D01*
X36634Y187D01*
X36672Y193D01*
X36711Y198D01*
X36711Y198D01*
X36712Y198D01*
X36748Y213D01*
X36784Y228D01*
X36784Y228D01*
X36785Y229D01*
X36816Y253D01*
X36846Y276D01*
X36847Y277D01*
X36847Y277D01*
X36871Y308D01*
X36894Y339D01*
X36895Y340D01*
X36895Y340D01*
X36910Y376D01*
X36925Y412D01*
X36925Y413D01*
X36925Y413D01*
X36930Y452D01*
X36935Y490D01*
X36935Y491D01*
X36935Y492D01*
X36934Y501D01*
X36957Y519D01*
X37029Y613D01*
X37074Y723D01*
X37090Y840D01*
X37139Y844D01*
X37140Y840D01*
X37206Y680D01*
X37296Y533D01*
X37409Y401D01*
X37540Y288D01*
X37688Y198D01*
X37848Y132D01*
X38016Y91D01*
X38189Y78D01*
X38362Y91D01*
X38530Y132D01*
X38690Y198D01*
X38838Y288D01*
X38969Y401D01*
X39082Y533D01*
X39172Y680D01*
X39238Y840D01*
X39279Y1008D01*
X39292Y1181D01*
X39279Y1354D01*
X39238Y1522D01*
X39172Y1682D01*
X39082Y1830D01*
X38969Y1961D01*
X38838Y2074D01*
X38690Y2164D01*
X38530Y2230D01*
X38362Y2271D01*
X38189Y2285D01*
X38016Y2271D01*
X37848Y2230D01*
X37688Y2164D01*
X37540Y2074D01*
X37409Y1961D01*
X37296Y1830D01*
X37206Y1682D01*
X37140Y1522D01*
X37099Y1354D01*
X37086Y1181D01*
X37097Y1033D01*
X37048Y1021D01*
X37029Y1067D01*
X36957Y1161D01*
X36863Y1233D01*
X36753Y1278D01*
X36686Y1287D01*
Y840D01*
X36586D01*
Y1287D01*
X36518Y1278D01*
X36409Y1233D01*
X36315Y1161D01*
X36297Y1138D01*
X36288Y1139D01*
X36287Y1139D01*
X36286Y1139D01*
X36248Y1134D01*
X36209Y1129D01*
X36208Y1129D01*
X36208Y1129D01*
X36172Y1114D01*
X36136Y1099D01*
X36135Y1099D01*
X36135Y1099D01*
X36104Y1075D01*
X36073Y1052D01*
X36073Y1051D01*
X36072Y1050D01*
X36048Y1020D01*
X36025Y989D01*
X36024Y988D01*
X36024Y988D01*
X36009Y952D01*
X35994Y916D01*
X35994Y916D01*
X35994Y915D01*
X35989Y877D01*
X35983Y838D01*
X35983Y794D01*
X35978Y719D01*
X35976Y696D01*
X35972Y677D01*
X35971Y675D01*
X35950Y653D01*
X35529D01*
X35499Y693D01*
X35505Y713D01*
X35517Y840D01*
X35505Y967D01*
X35468Y1090D01*
X35407Y1203D01*
X35326Y1302D01*
X35227Y1383D01*
X35114Y1443D01*
X34992Y1481D01*
X34864Y1493D01*
X34859Y1493D01*
X34818Y1493D01*
X34743Y1497D01*
X34720Y1500D01*
X34702Y1504D01*
X34699Y1504D01*
X33454Y2750D01*
X33381Y2806D01*
X33296Y2841D01*
X33204Y2853D01*
X30586D01*
X30579Y2903D01*
X30614Y2914D01*
X30727Y2974D01*
X30826Y3055D01*
X30907Y3154D01*
X30968Y3267D01*
X31005Y3390D01*
X31017Y3517D01*
X31005Y3645D01*
X30968Y3767D01*
X30907Y3880D01*
X30826Y3979D01*
X30727Y4060D01*
X30614Y4121D01*
X30492Y4158D01*
X30364Y4170D01*
X30237Y4158D01*
X30114Y4121D01*
X30001Y4060D01*
X29902Y3979D01*
X29821Y3880D01*
X29761Y3767D01*
X29724Y3645D01*
X29711Y3517D01*
X29724Y3390D01*
X29761Y3267D01*
X29821Y3154D01*
X29902Y3055D01*
X30001Y2974D01*
X30114Y2914D01*
X30150Y2903D01*
X30142Y2853D01*
X26086D01*
X26079Y2903D01*
X26114Y2914D01*
X26227Y2974D01*
X26326Y3055D01*
X26407Y3154D01*
X26468Y3267D01*
X26505Y3390D01*
X26517Y3517D01*
X26505Y3645D01*
X26468Y3767D01*
X26407Y3880D01*
X26326Y3979D01*
X26227Y4060D01*
X26114Y4121D01*
X25992Y4158D01*
X25864Y4170D01*
X25737Y4158D01*
X25614Y4121D01*
X25501Y4060D01*
X25402Y3979D01*
X25321Y3880D01*
X25261Y3767D01*
X25224Y3645D01*
X25211Y3517D01*
X25224Y3390D01*
X25261Y3267D01*
X25321Y3154D01*
X25402Y3055D01*
X25501Y2974D01*
X25614Y2914D01*
X25650Y2903D01*
X25642Y2853D01*
X24168D01*
X24148Y2899D01*
X24508Y3259D01*
X24806Y3423D01*
X24806Y3424D01*
X24806Y3424D01*
X24820Y3434D01*
X24863Y3457D01*
X24962Y3538D01*
X25043Y3637D01*
X25103Y3750D01*
X25141Y3873D01*
X25153Y4000D01*
X25141Y4127D01*
X25103Y4250D01*
X25043Y4363D01*
X24962Y4462D01*
X24863Y4543D01*
X24750Y4603D01*
X24627Y4641D01*
X24500Y4653D01*
X24373Y4641D01*
X24250Y4603D01*
X24137Y4543D01*
X24038Y4462D01*
X24025Y4446D01*
X23975D01*
X23962Y4462D01*
X23863Y4543D01*
X23750Y4603D01*
X23627Y4641D01*
X23500Y4653D01*
X23494Y4653D01*
X23454Y4653D01*
X23379Y4657D01*
X23356Y4660D01*
X23337Y4664D01*
X23335Y4664D01*
X22450Y5550D01*
X22377Y5606D01*
X22291Y5641D01*
X22200Y5653D01*
X22095D01*
X22076Y5703D01*
X22094Y5721D01*
X22151Y5771D01*
X22169Y5785D01*
X22184Y5796D01*
X22187Y5797D01*
X28247D01*
X29393Y4650D01*
X29466Y4594D01*
X29552Y4559D01*
X29643Y4547D01*
X35107D01*
X35994Y3660D01*
X35996Y3646D01*
X36005Y3624D01*
X36012Y3601D01*
X36020Y3587D01*
X36026Y3573D01*
X36041Y3554D01*
X36054Y3533D01*
X36065Y3523D01*
X36074Y3511D01*
X36093Y3496D01*
X36111Y3479D01*
X36125Y3472D01*
X36137Y3462D01*
X36159Y3453D01*
X36181Y3442D01*
X36186Y3440D01*
Y3067D01*
X36586D01*
Y3517D01*
X36686D01*
Y3067D01*
X37086D01*
Y3440D01*
X37091Y3442D01*
X37112Y3453D01*
X37135Y3462D01*
X37147Y3472D01*
X37161Y3479D01*
X37178Y3496D01*
X37197Y3511D01*
X37207Y3523D01*
X37218Y3533D01*
X37231Y3554D01*
X37245Y3573D01*
X37251Y3587D01*
X37259Y3601D01*
X37266Y3624D01*
X37276Y3646D01*
X37277Y3660D01*
X38750Y5132D01*
X38806Y5205D01*
X38841Y5290D01*
X38853Y5381D01*
Y6650D01*
X38841Y6741D01*
X38806Y6827D01*
X38750Y6900D01*
X38564Y7085D01*
X38564Y7087D01*
X38560Y7106D01*
X38557Y7129D01*
X38553Y7204D01*
X38553Y7248D01*
X38552Y7250D01*
X38553Y7252D01*
X38553Y7296D01*
X38557Y7371D01*
X38560Y7394D01*
X38564Y7413D01*
X38564Y7415D01*
X39150Y8000D01*
X39206Y8073D01*
X39241Y8159D01*
X39253Y8250D01*
X39253Y8250D01*
Y10350D01*
X39241Y10441D01*
X39206Y10527D01*
X39150Y10600D01*
X38404Y11345D01*
X38403Y11348D01*
X38401Y11350D01*
X38400Y11352D01*
X38378Y11382D01*
X38356Y11411D01*
X38354Y11413D01*
X38352Y11415D01*
X38323Y11438D01*
X38294Y11461D01*
X38292Y11462D01*
X38289Y11463D01*
X38284Y11466D01*
X38239Y11510D01*
Y11673D01*
X38245Y11675D01*
X38266Y11686D01*
X38288Y11695D01*
X38300Y11705D01*
X38314Y11712D01*
X38332Y11729D01*
X38351Y11743D01*
X38360Y11756D01*
X38372Y11766D01*
X38384Y11787D01*
X38399Y11806D01*
X38405Y11820D01*
X38413Y11833D01*
X38420Y11857D01*
X38429Y11879D01*
X38431Y11892D01*
X38950Y12411D01*
X39006Y12484D01*
X39041Y12569D01*
X39053Y12661D01*
Y20950D01*
X39041Y21041D01*
X39006Y21127D01*
X38950Y21200D01*
X37503Y22646D01*
Y22702D01*
X37553Y22722D01*
X37688Y22639D01*
X37848Y22573D01*
X38016Y22532D01*
X38189Y22519D01*
X38362Y22532D01*
X38530Y22573D01*
X38690Y22639D01*
X38838Y22729D01*
X38969Y22842D01*
X39082Y22973D01*
X39172Y23121D01*
X39238Y23281D01*
X39279Y23449D01*
X39292Y23622D01*
X39279Y23795D01*
X39238Y23963D01*
X39172Y24123D01*
X39082Y24271D01*
X38969Y24402D01*
X38838Y24515D01*
X38690Y24605D01*
X38530Y24671D01*
X38362Y24712D01*
X38189Y24725D01*
X38016Y24712D01*
X37848Y24671D01*
X37688Y24605D01*
X37540Y24515D01*
X37409Y24402D01*
X37296Y24271D01*
X37221Y24148D01*
X37161Y24138D01*
X36545Y24754D01*
X36565Y24800D01*
X38994D01*
X39081Y24783D01*
D02*
G37*
G36*
X32800Y22205D02*
X32763Y22242D01*
X32692Y22304D01*
X32659Y22330D01*
X32628Y22351D01*
X32598Y22369D01*
X32570Y22382D01*
X32550Y22390D01*
X32530Y22382D01*
X32502Y22369D01*
X32472Y22351D01*
X32441Y22330D01*
X32408Y22304D01*
X32337Y22242D01*
X32300Y22205D01*
Y22695D01*
X32337Y22658D01*
X32408Y22596D01*
X32441Y22570D01*
X32472Y22549D01*
X32502Y22531D01*
X32530Y22518D01*
X32550Y22510D01*
X32570Y22518D01*
X32598Y22531D01*
X32628Y22549D01*
X32659Y22570D01*
X32692Y22596D01*
X32763Y22658D01*
X32800Y22695D01*
Y22205D01*
D02*
G37*
G36*
X31800D02*
X31763Y22242D01*
X31692Y22304D01*
X31659Y22330D01*
X31628Y22351D01*
X31598Y22369D01*
X31570Y22382D01*
X31550Y22390D01*
X31530Y22382D01*
X31502Y22369D01*
X31472Y22351D01*
X31441Y22330D01*
X31408Y22304D01*
X31337Y22242D01*
X31300Y22205D01*
Y22695D01*
X31337Y22658D01*
X31408Y22596D01*
X31441Y22570D01*
X31472Y22549D01*
X31502Y22531D01*
X31530Y22518D01*
X31550Y22510D01*
X31570Y22518D01*
X31598Y22531D01*
X31628Y22549D01*
X31659Y22570D01*
X31692Y22596D01*
X31763Y22658D01*
X31800Y22695D01*
Y22205D01*
D02*
G37*
G36*
X14400D02*
X14363Y22242D01*
X14292Y22304D01*
X14259Y22330D01*
X14228Y22351D01*
X14198Y22369D01*
X14170Y22382D01*
X14150Y22390D01*
X14130Y22382D01*
X14102Y22369D01*
X14072Y22351D01*
X14041Y22330D01*
X14008Y22304D01*
X13937Y22242D01*
X13900Y22205D01*
Y22695D01*
X13937Y22658D01*
X14008Y22596D01*
X14041Y22570D01*
X14072Y22549D01*
X14102Y22531D01*
X14130Y22518D01*
X14150Y22510D01*
X14170Y22518D01*
X14198Y22531D01*
X14228Y22549D01*
X14259Y22570D01*
X14292Y22596D01*
X14363Y22658D01*
X14400Y22695D01*
Y22205D01*
D02*
G37*
G36*
X20560Y22863D02*
X20582Y22850D01*
X20608Y22837D01*
X20638Y22827D01*
X20671Y22818D01*
X20709Y22811D01*
X20750Y22806D01*
X20844Y22800D01*
X20896Y22800D01*
X20550Y22453D01*
X20550Y22506D01*
X20544Y22600D01*
X20539Y22641D01*
X20532Y22679D01*
X20523Y22712D01*
X20513Y22742D01*
X20500Y22768D01*
X20487Y22790D01*
X20471Y22808D01*
X20542Y22879D01*
X20560Y22863D01*
D02*
G37*
G36*
X7310D02*
X7332Y22850D01*
X7358Y22837D01*
X7388Y22827D01*
X7421Y22818D01*
X7459Y22811D01*
X7500Y22806D01*
X7594Y22800D01*
X7646Y22800D01*
X7300Y22453D01*
X7300Y22506D01*
X7294Y22600D01*
X7289Y22641D01*
X7282Y22679D01*
X7273Y22712D01*
X7263Y22742D01*
X7250Y22768D01*
X7237Y22790D01*
X7221Y22808D01*
X7292Y22879D01*
X7310Y22863D01*
D02*
G37*
G36*
X37201Y22601D02*
X37203Y22582D01*
X37206Y22563D01*
X37211Y22545D01*
X37218Y22528D01*
X37225Y22511D01*
X37235Y22495D01*
X37245Y22479D01*
X37257Y22464D01*
X37271Y22450D01*
X37221Y22359D01*
X37207Y22371D01*
X37192Y22381D01*
X37178Y22388D01*
X37164Y22393D01*
X37150Y22394D01*
X37136Y22393D01*
X37122Y22388D01*
X37108Y22381D01*
X37093Y22371D01*
X37079Y22359D01*
X37029Y22450D01*
X37043Y22464D01*
X37055Y22479D01*
X37065Y22495D01*
X37075Y22511D01*
X37082Y22528D01*
X37089Y22545D01*
X37094Y22563D01*
X37097Y22582D01*
X37099Y22601D01*
X37100Y22621D01*
X37200D01*
X37201Y22601D01*
D02*
G37*
G36*
X23897Y22100D02*
X23844Y22100D01*
X23750Y22094D01*
X23709Y22089D01*
X23671Y22082D01*
X23638Y22073D01*
X23608Y22063D01*
X23582Y22050D01*
X23560Y22037D01*
X23542Y22021D01*
X23471Y22092D01*
X23487Y22110D01*
X23500Y22132D01*
X23513Y22158D01*
X23523Y22188D01*
X23532Y22221D01*
X23539Y22259D01*
X23544Y22300D01*
X23550Y22394D01*
X23550Y22446D01*
X23897Y22100D01*
D02*
G37*
G36*
X2646D02*
X2594Y22100D01*
X2500Y22094D01*
X2459Y22089D01*
X2421Y22082D01*
X2388Y22073D01*
X2358Y22063D01*
X2332Y22050D01*
X2310Y22037D01*
X2292Y22021D01*
X2221Y22092D01*
X2237Y22110D01*
X2250Y22132D01*
X2263Y22158D01*
X2273Y22188D01*
X2282Y22221D01*
X2289Y22259D01*
X2294Y22300D01*
X2300Y22394D01*
X2300Y22446D01*
X2646Y22100D01*
D02*
G37*
G36*
X34136Y22080D02*
X34137Y22063D01*
X34139Y22048D01*
X34143Y22035D01*
X34147Y22024D01*
X34152Y22015D01*
X34158Y22008D01*
X34165Y22003D01*
X34173Y22000D01*
X34182Y21999D01*
X33988D01*
X33997Y22000D01*
X34005Y22003D01*
X34012Y22008D01*
X34018Y22015D01*
X34023Y22024D01*
X34027Y22035D01*
X34031Y22048D01*
X34033Y22063D01*
X34035Y22080D01*
X34035Y22099D01*
X34135D01*
X34136Y22080D01*
D02*
G37*
G36*
X26108Y22163D02*
X26046Y22092D01*
X26020Y22059D01*
X25999Y22028D01*
X25981Y21998D01*
X25968Y21970D01*
X25958Y21943D01*
X25952Y21917D01*
X25950Y21894D01*
X25850D01*
X25848Y21917D01*
X25842Y21943D01*
X25832Y21970D01*
X25819Y21998D01*
X25801Y22028D01*
X25780Y22059D01*
X25754Y22092D01*
X25692Y22163D01*
X25655Y22200D01*
X26145D01*
X26108Y22163D01*
D02*
G37*
G36*
X25108D02*
X25046Y22092D01*
X25020Y22059D01*
X24999Y22028D01*
X24981Y21998D01*
X24968Y21970D01*
X24958Y21943D01*
X24952Y21917D01*
X24950Y21894D01*
X24850D01*
X24848Y21917D01*
X24842Y21943D01*
X24832Y21970D01*
X24819Y21998D01*
X24801Y22028D01*
X24780Y22059D01*
X24754Y22092D01*
X24692Y22163D01*
X24655Y22200D01*
X25145D01*
X25108Y22163D01*
D02*
G37*
G36*
X12858D02*
X12796Y22092D01*
X12770Y22059D01*
X12749Y22028D01*
X12731Y21998D01*
X12718Y21970D01*
X12708Y21943D01*
X12702Y21917D01*
X12700Y21894D01*
X12600D01*
X12598Y21917D01*
X12592Y21943D01*
X12582Y21970D01*
X12569Y21998D01*
X12551Y22028D01*
X12530Y22059D01*
X12504Y22092D01*
X12442Y22163D01*
X12405Y22200D01*
X12895D01*
X12858Y22163D01*
D02*
G37*
G36*
X11858D02*
X11796Y22092D01*
X11770Y22059D01*
X11749Y22028D01*
X11731Y21998D01*
X11718Y21970D01*
X11708Y21943D01*
X11702Y21917D01*
X11700Y21894D01*
X11600D01*
X11598Y21917D01*
X11592Y21943D01*
X11582Y21970D01*
X11569Y21998D01*
X11551Y22028D01*
X11530Y22059D01*
X11504Y22092D01*
X11442Y22163D01*
X11405Y22200D01*
X11895D01*
X11858Y22163D01*
D02*
G37*
G36*
X10858D02*
X10796Y22092D01*
X10770Y22059D01*
X10749Y22028D01*
X10731Y21998D01*
X10718Y21970D01*
X10708Y21943D01*
X10702Y21917D01*
X10700Y21894D01*
X10600D01*
X10598Y21917D01*
X10592Y21943D01*
X10582Y21970D01*
X10569Y21998D01*
X10551Y22028D01*
X10530Y22059D01*
X10504Y22092D01*
X10442Y22163D01*
X10405Y22200D01*
X10895D01*
X10858Y22163D01*
D02*
G37*
G36*
X33632Y23037D02*
X33635Y23034D01*
Y22450D01*
X33732D01*
Y22300D01*
X33687D01*
Y22009D01*
X33685Y21999D01*
X33687Y21988D01*
Y21854D01*
X33685Y21853D01*
X32810D01*
X32806Y21903D01*
X32840Y21908D01*
X32878Y21913D01*
X32879Y21913D01*
X32880Y21913D01*
X32916Y21928D01*
X32951Y21943D01*
X32952Y21943D01*
X32953Y21944D01*
X32983Y21967D01*
X33000Y21980D01*
Y22450D01*
X33050D01*
Y22500D01*
X33497D01*
X33488Y22567D01*
X33443Y22677D01*
X33371Y22771D01*
X33327Y22804D01*
X33332Y22864D01*
X33413Y22907D01*
X33512Y22988D01*
X33515Y22993D01*
X33544Y23021D01*
X33585Y23057D01*
X33632Y23037D01*
D02*
G37*
G36*
X30697Y23998D02*
X30687Y23993D01*
X30588Y23912D01*
X30507Y23813D01*
X30447Y23700D01*
X30409Y23577D01*
X30397Y23450D01*
X30409Y23323D01*
X30447Y23200D01*
X30507Y23087D01*
X30588Y22988D01*
X30687Y22907D01*
X30768Y22864D01*
X30773Y22804D01*
X30729Y22771D01*
X30657Y22677D01*
X30612Y22567D01*
X30603Y22500D01*
X31050D01*
Y22450D01*
X31100D01*
Y21980D01*
X31117Y21968D01*
X31147Y21944D01*
X31148Y21943D01*
X31149Y21943D01*
X31184Y21928D01*
X31220Y21913D01*
X31221Y21913D01*
X31222Y21913D01*
X31260Y21908D01*
X31294Y21903D01*
X31290Y21853D01*
X28265D01*
X28253Y21902D01*
X28263Y21907D01*
X28362Y21988D01*
X28443Y22087D01*
X28503Y22200D01*
X28541Y22323D01*
X28553Y22450D01*
X28541Y22577D01*
X28503Y22700D01*
X28443Y22813D01*
X28362Y22912D01*
X28346Y22925D01*
Y22975D01*
X28362Y22988D01*
X28443Y23087D01*
X28503Y23200D01*
X28541Y23323D01*
X28553Y23450D01*
X28541Y23577D01*
X28503Y23700D01*
X28443Y23813D01*
X28362Y23912D01*
X28263Y23993D01*
X28253Y23998D01*
X28265Y24047D01*
X30685D01*
X30697Y23998D01*
D02*
G37*
G36*
X35127Y21890D02*
X35130Y21882D01*
X35135Y21874D01*
X35142Y21868D01*
X35151Y21862D01*
X35162Y21858D01*
X35176Y21855D01*
X35191Y21852D01*
X35208Y21851D01*
X35227Y21850D01*
Y21750D01*
X35208Y21749D01*
X35191Y21748D01*
X35176Y21746D01*
X35162Y21742D01*
X35151Y21737D01*
X35142Y21732D01*
X35135Y21725D01*
X35130Y21718D01*
X35127Y21709D01*
X35126Y21700D01*
Y21900D01*
X35127Y21890D01*
D02*
G37*
G36*
X33931Y21326D02*
X33962Y21298D01*
X33970Y21293D01*
X33977Y21290D01*
X33981Y21289D01*
X33985Y21291D01*
X33987Y21294D01*
X33988Y21299D01*
Y21056D01*
X33987Y21070D01*
X33985Y21084D01*
X33981Y21098D01*
X33977Y21112D01*
X33970Y21127D01*
X33962Y21141D01*
X33953Y21155D01*
X33943Y21169D01*
X33931Y21183D01*
X33917Y21197D01*
Y21339D01*
X33931Y21326D01*
D02*
G37*
G36*
X35127Y21191D02*
X35130Y21182D01*
X35135Y21174D01*
X35142Y21168D01*
X35151Y21163D01*
X35162Y21158D01*
X35176Y21154D01*
X35191Y21152D01*
X35208Y21151D01*
X35227Y21150D01*
Y21050D01*
X35208Y21049D01*
X35191Y21048D01*
X35176Y21045D01*
X35162Y21042D01*
X35151Y21037D01*
X35142Y21032D01*
X35135Y21026D01*
X35130Y21018D01*
X35127Y21010D01*
X35126Y21000D01*
Y21200D01*
X35127Y21191D01*
D02*
G37*
G36*
X34488Y20900D02*
X34480Y20897D01*
X34473Y20892D01*
X34467Y20885D01*
X34462Y20876D01*
X34458Y20865D01*
X34454Y20852D01*
X34452Y20837D01*
X34450Y20820D01*
X34450Y20801D01*
X34350D01*
X34350Y20820D01*
X34348Y20837D01*
X34346Y20852D01*
X34342Y20865D01*
X34338Y20876D01*
X34333Y20885D01*
X34327Y20892D01*
X34320Y20897D01*
X34312Y20900D01*
X34303Y20901D01*
X34497D01*
X34488Y20900D01*
D02*
G37*
G36*
X31897Y20450D02*
X31844Y20450D01*
X31750Y20444D01*
X31709Y20439D01*
X31671Y20432D01*
X31638Y20423D01*
X31608Y20413D01*
X31582Y20400D01*
X31560Y20387D01*
X31542Y20371D01*
X31471Y20442D01*
X31487Y20460D01*
X31500Y20482D01*
X31513Y20508D01*
X31523Y20538D01*
X31532Y20571D01*
X31539Y20609D01*
X31544Y20650D01*
X31550Y20744D01*
X31550Y20796D01*
X31897Y20450D01*
D02*
G37*
G36*
X29897D02*
X29844Y20450D01*
X29750Y20444D01*
X29709Y20439D01*
X29671Y20432D01*
X29638Y20423D01*
X29608Y20413D01*
X29582Y20400D01*
X29560Y20387D01*
X29542Y20371D01*
X29471Y20442D01*
X29487Y20460D01*
X29500Y20482D01*
X29513Y20508D01*
X29523Y20538D01*
X29532Y20571D01*
X29539Y20609D01*
X29544Y20650D01*
X29550Y20744D01*
X29550Y20796D01*
X29897Y20450D01*
D02*
G37*
G36*
X28897D02*
X28844Y20450D01*
X28750Y20444D01*
X28709Y20439D01*
X28671Y20432D01*
X28638Y20423D01*
X28608Y20413D01*
X28582Y20400D01*
X28560Y20387D01*
X28542Y20371D01*
X28471Y20442D01*
X28487Y20460D01*
X28500Y20482D01*
X28513Y20508D01*
X28523Y20538D01*
X28532Y20571D01*
X28539Y20609D01*
X28544Y20650D01*
X28550Y20744D01*
X28550Y20796D01*
X28897Y20450D01*
D02*
G37*
G36*
X27896D02*
X27844Y20450D01*
X27750Y20444D01*
X27709Y20439D01*
X27671Y20432D01*
X27638Y20423D01*
X27608Y20413D01*
X27582Y20400D01*
X27560Y20387D01*
X27542Y20371D01*
X27471Y20442D01*
X27487Y20460D01*
X27500Y20482D01*
X27513Y20508D01*
X27523Y20538D01*
X27532Y20571D01*
X27539Y20609D01*
X27544Y20650D01*
X27550Y20744D01*
X27550Y20796D01*
X27896Y20450D01*
D02*
G37*
G36*
X31059Y20488D02*
X30723Y20303D01*
X30610Y20331D01*
X30629Y20352D01*
X30643Y20375D01*
X30652Y20400D01*
X30657Y20426D01*
X30659Y20454D01*
X30655Y20484D01*
X30648Y20515D01*
X30636Y20549D01*
X30620Y20584D01*
X30600Y20620D01*
X31059Y20488D01*
D02*
G37*
G36*
X38347Y20804D02*
Y19928D01*
X38297Y19899D01*
X38167Y19916D01*
X37813D01*
X37673Y19897D01*
X37543Y19843D01*
X37431Y19757D01*
X37345Y19645D01*
X37291Y19515D01*
X37272Y19375D01*
X37291Y19235D01*
X37345Y19104D01*
X37431Y18992D01*
X37437Y18988D01*
X37420Y18940D01*
X34412D01*
X34321Y18928D01*
X34236Y18893D01*
X34163Y18837D01*
X33931Y18606D01*
X32984D01*
Y17494D01*
X34765D01*
Y18234D01*
X37517D01*
X37541Y18191D01*
X37504Y18101D01*
X37490Y17997D01*
Y17799D01*
X36350Y16659D01*
X36294Y16586D01*
X36259Y16501D01*
X36247Y16410D01*
Y14750D01*
X36259Y14659D01*
X36294Y14573D01*
X36350Y14500D01*
X36919Y13932D01*
X36920Y13928D01*
X36925Y13906D01*
X36929Y13881D01*
X36938Y13726D01*
X36937Y13666D01*
X36937Y13664D01*
X36936Y13650D01*
X36950Y13503D01*
X36993Y13362D01*
X37063Y13231D01*
X37156Y13117D01*
X37271Y13023D01*
X37401Y12954D01*
X37542Y12911D01*
X37689Y12896D01*
X37836Y12911D01*
X37978Y12954D01*
X38108Y13023D01*
X38222Y13117D01*
X38297Y13208D01*
X38347Y13190D01*
Y12807D01*
X37932Y12392D01*
X37918Y12390D01*
X37896Y12381D01*
X37873Y12374D01*
X37860Y12366D01*
X37845Y12360D01*
X37826Y12345D01*
X37806Y12332D01*
X37795Y12321D01*
X37783Y12312D01*
X37768Y12292D01*
X37751Y12275D01*
X37744Y12261D01*
X37735Y12249D01*
X37725Y12227D01*
X37714Y12205D01*
X37713Y12202D01*
X37666D01*
X37665Y12205D01*
X37653Y12227D01*
X37644Y12249D01*
X37635Y12261D01*
X37627Y12275D01*
X37611Y12292D01*
X37596Y12312D01*
X37584Y12321D01*
X37573Y12332D01*
X37553Y12345D01*
X37533Y12360D01*
X37519Y12366D01*
X37506Y12374D01*
X37483Y12381D01*
X37460Y12390D01*
X37447Y12392D01*
X35839Y14000D01*
X35766Y14056D01*
X35681Y14091D01*
X35589Y14103D01*
X31425D01*
X31334Y14091D01*
X31249Y14056D01*
X31176Y14000D01*
X31176Y14000D01*
X31124Y13948D01*
X31078Y13968D01*
Y17632D01*
X31087Y17644D01*
X31093Y17659D01*
X31102Y17673D01*
X31108Y17695D01*
X31109Y17698D01*
X31153Y17703D01*
X31239Y17739D01*
X31314Y17796D01*
X31371Y17871D01*
X31407Y17957D01*
X31412Y18000D01*
X30725D01*
Y18050D01*
X30675D01*
Y18409D01*
X30391D01*
X30345Y18403D01*
X30319D01*
X30308Y18411D01*
X30288Y18420D01*
X30270Y18430D01*
X30252Y18435D01*
X30235Y18442D01*
X30214Y18444D01*
X30194Y18450D01*
X30175Y18450D01*
X30156Y18452D01*
X30135Y18449D01*
X30119Y18449D01*
X30110Y18460D01*
X30095Y18496D01*
X31735Y20136D01*
X31737Y20136D01*
X31756Y20140D01*
X31779Y20143D01*
X31854Y20147D01*
X31894Y20147D01*
X31900Y20147D01*
X32027Y20159D01*
X32150Y20197D01*
X32263Y20257D01*
X32362Y20338D01*
X32375Y20354D01*
X32425D01*
X32438Y20338D01*
X32537Y20257D01*
X32650Y20197D01*
X32773Y20159D01*
X32900Y20147D01*
X33027Y20159D01*
X33150Y20197D01*
X33263Y20257D01*
X33362Y20338D01*
X33443Y20437D01*
X33465Y20479D01*
X33515Y20486D01*
X33600Y20400D01*
X33673Y20344D01*
X33759Y20309D01*
X33850Y20297D01*
X34250D01*
X34341Y20309D01*
X34427Y20344D01*
X34500Y20400D01*
X34650Y20550D01*
X34688Y20600D01*
X35113D01*
Y20686D01*
X35126Y20697D01*
X35149Y20700D01*
X35173Y20701D01*
X35188Y20706D01*
X35204Y20708D01*
X35226Y20717D01*
X35249Y20723D01*
X35262Y20732D01*
X35277Y20738D01*
X35289Y20747D01*
X35750D01*
X35841Y20759D01*
X35927Y20794D01*
X36000Y20850D01*
X37150Y22001D01*
X38347Y20804D01*
D02*
G37*
G36*
X12721Y20232D02*
X12647Y20158D01*
X12647Y20158D01*
X12647Y20160D01*
X12645Y20162D01*
X12640Y20168D01*
X12615Y20194D01*
X12685Y20264D01*
X12721Y20232D01*
D02*
G37*
G36*
X11721D02*
X11647Y20158D01*
X11647Y20158D01*
X11647Y20160D01*
X11645Y20162D01*
X11640Y20168D01*
X11615Y20194D01*
X11685Y20264D01*
X11721Y20232D01*
D02*
G37*
G36*
X10721D02*
X10647Y20158D01*
X10647Y20158D01*
X10647Y20160D01*
X10645Y20162D01*
X10640Y20168D01*
X10615Y20194D01*
X10685Y20264D01*
X10721Y20232D01*
D02*
G37*
G36*
X4200Y20382D02*
X4201Y20372D01*
X4203Y20356D01*
X4235Y20193D01*
X4271Y20025D01*
X3897Y20299D01*
X3935Y20304D01*
X3970Y20311D01*
X4000Y20321D01*
X4027Y20334D01*
X4049Y20350D01*
X4067Y20368D01*
X4082Y20388D01*
X4092Y20411D01*
X4098Y20437D01*
X4100Y20465D01*
X4200Y20382D01*
D02*
G37*
G36*
X21597Y19450D02*
X21544Y19450D01*
X21450Y19444D01*
X21409Y19439D01*
X21371Y19432D01*
X21338Y19423D01*
X21308Y19413D01*
X21282Y19400D01*
X21260Y19387D01*
X21242Y19371D01*
X21171Y19442D01*
X21187Y19460D01*
X21200Y19482D01*
X21213Y19508D01*
X21223Y19538D01*
X21232Y19571D01*
X21239Y19609D01*
X21244Y19650D01*
X21250Y19744D01*
X21250Y19797D01*
X21597Y19450D01*
D02*
G37*
G36*
X17358Y19308D02*
X17342Y19290D01*
X17329Y19268D01*
X17317Y19242D01*
X17306Y19212D01*
X17297Y19179D01*
X17290Y19141D01*
X17285Y19100D01*
X17279Y19006D01*
X17279Y18953D01*
X16933Y19300D01*
X16985Y19300D01*
X17079Y19306D01*
X17120Y19311D01*
X17158Y19318D01*
X17191Y19327D01*
X17221Y19337D01*
X17247Y19350D01*
X17269Y19363D01*
X17287Y19379D01*
X17358Y19308D01*
D02*
G37*
G36*
X13589Y19363D02*
X13611Y19350D01*
X13637Y19337D01*
X13667Y19327D01*
X13700Y19318D01*
X13738Y19311D01*
X13779Y19306D01*
X13873Y19300D01*
X13926Y19300D01*
X13579Y18953D01*
X13579Y19006D01*
X13573Y19100D01*
X13568Y19141D01*
X13561Y19179D01*
X13552Y19212D01*
X13542Y19242D01*
X13530Y19268D01*
X13516Y19290D01*
X13500Y19308D01*
X13571Y19379D01*
X13589Y19363D01*
D02*
G37*
G36*
X12589D02*
X12611Y19350D01*
X12637Y19337D01*
X12667Y19327D01*
X12700Y19318D01*
X12738Y19311D01*
X12779Y19306D01*
X12873Y19300D01*
X12926Y19300D01*
X12579Y18953D01*
X12579Y19006D01*
X12573Y19100D01*
X12568Y19141D01*
X12561Y19179D01*
X12552Y19212D01*
X12542Y19242D01*
X12530Y19268D01*
X12516Y19290D01*
X12500Y19308D01*
X12571Y19379D01*
X12589Y19363D01*
D02*
G37*
G36*
X4587Y19362D02*
X4609Y19348D01*
X4635Y19336D01*
X4665Y19325D01*
X4698Y19317D01*
X4736Y19310D01*
X4777Y19305D01*
X4870Y19300D01*
X4923Y19300D01*
X4579Y18951D01*
X4578Y19004D01*
X4572Y19098D01*
X4567Y19139D01*
X4559Y19177D01*
X4550Y19210D01*
X4540Y19240D01*
X4528Y19266D01*
X4514Y19288D01*
X4499Y19306D01*
X4569Y19377D01*
X4587Y19362D01*
D02*
G37*
G36*
X11585Y19360D02*
X11607Y19346D01*
X11633Y19334D01*
X11663Y19324D01*
X11696Y19315D01*
X11733Y19309D01*
X11774Y19304D01*
X11868Y19299D01*
X11920Y19300D01*
X11579Y18948D01*
X11578Y19001D01*
X11571Y19095D01*
X11565Y19137D01*
X11558Y19174D01*
X11549Y19208D01*
X11538Y19238D01*
X11526Y19264D01*
X11512Y19286D01*
X11497Y19304D01*
X11567Y19375D01*
X11585Y19360D01*
D02*
G37*
G36*
X22029Y19158D02*
X22013Y19140D01*
X22000Y19118D01*
X21987Y19092D01*
X21977Y19062D01*
X21968Y19029D01*
X21961Y18991D01*
X21956Y18950D01*
X21950Y18856D01*
X21950Y18803D01*
X21604Y19150D01*
X21656Y19150D01*
X21750Y19156D01*
X21791Y19161D01*
X21829Y19168D01*
X21862Y19177D01*
X21892Y19187D01*
X21918Y19200D01*
X21940Y19213D01*
X21958Y19229D01*
X22029Y19158D01*
D02*
G37*
G36*
X37794Y18487D02*
X37793Y18497D01*
X37790Y18505D01*
X37785Y18513D01*
X37778Y18519D01*
X37769Y18525D01*
X37757Y18529D01*
X37744Y18533D01*
X37729Y18535D01*
X37712Y18537D01*
X37693Y18537D01*
Y18637D01*
X37712Y18638D01*
X37729Y18639D01*
X37744Y18642D01*
X37757Y18645D01*
X37769Y18650D01*
X37778Y18655D01*
X37785Y18662D01*
X37790Y18669D01*
X37793Y18678D01*
X37794Y18687D01*
Y18487D01*
D02*
G37*
G36*
X34258Y18362D02*
X34248Y18350D01*
X34241Y18339D01*
X34237Y18330D01*
X34236Y18322D01*
X34237Y18316D01*
X34241Y18311D01*
X34248Y18308D01*
X34258Y18305D01*
X34271Y18305D01*
X33988D01*
X34002Y18305D01*
X34016Y18308D01*
X34031Y18311D01*
X34045Y18316D01*
X34059Y18322D01*
X34073Y18330D01*
X34087Y18339D01*
X34101Y18350D01*
X34115Y18362D01*
X34130Y18375D01*
X34271D01*
X34258Y18362D01*
D02*
G37*
G36*
X15467Y18488D02*
X15566Y18407D01*
X15679Y18347D01*
X15802Y18309D01*
X15929Y18297D01*
X16026Y18306D01*
X16076Y18267D01*
Y8508D01*
X14771Y7203D01*
X2536D01*
X2531Y7202D01*
X2472Y7313D01*
X2391Y7412D01*
X2375Y7425D01*
Y7475D01*
X2391Y7488D01*
X2472Y7587D01*
X2533Y7700D01*
X2570Y7823D01*
X2582Y7950D01*
X2570Y8077D01*
X2533Y8200D01*
X2472Y8313D01*
X2391Y8412D01*
X2375Y8425D01*
Y8475D01*
X2391Y8488D01*
X2472Y8587D01*
X2533Y8700D01*
X2570Y8823D01*
X2582Y8950D01*
X2570Y9077D01*
X2533Y9200D01*
X2472Y9313D01*
X2391Y9412D01*
X2375Y9425D01*
Y9475D01*
X2391Y9488D01*
X2472Y9587D01*
X2533Y9700D01*
X2570Y9823D01*
X2582Y9950D01*
X2570Y10077D01*
X2533Y10200D01*
X2472Y10313D01*
X2391Y10412D01*
X2375Y10425D01*
Y10475D01*
X2391Y10488D01*
X2472Y10587D01*
X2533Y10700D01*
X2570Y10823D01*
X2582Y10950D01*
X2570Y11077D01*
X2533Y11200D01*
X2472Y11313D01*
X2391Y11412D01*
X2375Y11425D01*
Y11475D01*
X2391Y11488D01*
X2472Y11587D01*
X2533Y11700D01*
X2570Y11823D01*
X2582Y11950D01*
X2570Y12077D01*
X2533Y12200D01*
X2472Y12313D01*
X2391Y12412D01*
X2375Y12425D01*
Y12475D01*
X2391Y12488D01*
X2472Y12587D01*
X2533Y12700D01*
X2570Y12823D01*
X2582Y12950D01*
X2570Y13077D01*
X2533Y13200D01*
X2472Y13313D01*
X2391Y13412D01*
X2292Y13493D01*
X2211Y13536D01*
X2206Y13596D01*
X2250Y13629D01*
X2322Y13723D01*
X2368Y13833D01*
X2376Y13900D01*
X1929D01*
Y14000D01*
X2399D01*
X2412Y14017D01*
X2435Y14047D01*
X2436Y14048D01*
X2436Y14049D01*
X2451Y14084D01*
X2466Y14120D01*
X2466Y14121D01*
X2466Y14122D01*
X2471Y14160D01*
X2477Y14198D01*
X2477Y14199D01*
X2477Y14200D01*
X2472Y14238D01*
X2467Y14277D01*
X2467Y14277D01*
X2466Y14278D01*
X2452Y14314D01*
X2437Y14350D01*
X2437Y14350D01*
X2436Y14351D01*
X2413Y14382D01*
X2389Y14413D01*
X2358Y14444D01*
X2353Y14450D01*
X2358Y14456D01*
X2389Y14487D01*
X2413Y14518D01*
X2436Y14549D01*
X2437Y14550D01*
X2437Y14550D01*
X2452Y14586D01*
X2466Y14622D01*
X2467Y14623D01*
X2467Y14623D01*
X2472Y14662D01*
X2477Y14700D01*
X2477Y14701D01*
X2477Y14702D01*
X2471Y14740D01*
X2466Y14778D01*
X2466Y14779D01*
X2466Y14780D01*
X2451Y14816D01*
X2436Y14851D01*
X2436Y14852D01*
X2435Y14853D01*
X2412Y14883D01*
X2399Y14900D01*
X1929D01*
Y15000D01*
X2376D01*
X2368Y15067D01*
X2322Y15177D01*
X2250Y15271D01*
X2227Y15289D01*
X2228Y15298D01*
X2228Y15299D01*
X2228Y15300D01*
X2223Y15338D01*
X2219Y15368D01*
X2292Y15407D01*
X2391Y15488D01*
X2472Y15587D01*
X2533Y15700D01*
X2570Y15823D01*
X2582Y15950D01*
X2570Y16077D01*
X2533Y16200D01*
X2472Y16313D01*
X2391Y16412D01*
X2375Y16425D01*
Y16475D01*
X2391Y16488D01*
X2472Y16587D01*
X2533Y16700D01*
X2570Y16823D01*
X2582Y16950D01*
X2570Y17077D01*
X2533Y17200D01*
X2472Y17313D01*
X2391Y17412D01*
X2375Y17425D01*
Y17475D01*
X2391Y17488D01*
X2472Y17587D01*
X2533Y17700D01*
X2570Y17823D01*
X2582Y17950D01*
X2570Y18077D01*
X2533Y18200D01*
X2472Y18313D01*
X2391Y18412D01*
X2375Y18425D01*
Y18475D01*
X2391Y18488D01*
X2404Y18504D01*
X2454D01*
X2467Y18488D01*
X2566Y18407D01*
X2679Y18347D01*
X2802Y18309D01*
X2929Y18297D01*
X3057Y18309D01*
X3179Y18347D01*
X3292Y18407D01*
X3391Y18488D01*
X3404Y18504D01*
X3454D01*
X3467Y18488D01*
X3566Y18407D01*
X3679Y18347D01*
X3802Y18309D01*
X3929Y18297D01*
X4057Y18309D01*
X4179Y18347D01*
X4292Y18407D01*
X4391Y18488D01*
X4404Y18504D01*
X4454D01*
X4467Y18488D01*
X4566Y18407D01*
X4679Y18347D01*
X4802Y18309D01*
X4929Y18297D01*
X5057Y18309D01*
X5179Y18347D01*
X5292Y18407D01*
X5391Y18488D01*
X5404Y18504D01*
X5454D01*
X5467Y18488D01*
X5566Y18407D01*
X5679Y18347D01*
X5802Y18309D01*
X5929Y18297D01*
X6057Y18309D01*
X6179Y18347D01*
X6292Y18407D01*
X6391Y18488D01*
X6404Y18504D01*
X6454D01*
X6467Y18488D01*
X6566Y18407D01*
X6679Y18347D01*
X6802Y18309D01*
X6929Y18297D01*
X7057Y18309D01*
X7179Y18347D01*
X7292Y18407D01*
X7391Y18488D01*
X7404Y18504D01*
X7454D01*
X7467Y18488D01*
X7566Y18407D01*
X7679Y18347D01*
X7802Y18309D01*
X7929Y18297D01*
X8057Y18309D01*
X8179Y18347D01*
X8292Y18407D01*
X8391Y18488D01*
X8404Y18504D01*
X8454D01*
X8467Y18488D01*
X8566Y18407D01*
X8679Y18347D01*
X8802Y18309D01*
X8929Y18297D01*
X9057Y18309D01*
X9179Y18347D01*
X9292Y18407D01*
X9391Y18488D01*
X9404Y18504D01*
X9454D01*
X9467Y18488D01*
X9566Y18407D01*
X9679Y18347D01*
X9802Y18309D01*
X9929Y18297D01*
X10057Y18309D01*
X10179Y18347D01*
X10292Y18407D01*
X10391Y18488D01*
X10404Y18504D01*
X10454D01*
X10467Y18488D01*
X10566Y18407D01*
X10679Y18347D01*
X10802Y18309D01*
X10929Y18297D01*
X11057Y18309D01*
X11179Y18347D01*
X11292Y18407D01*
X11391Y18488D01*
X11404Y18504D01*
X11454D01*
X11467Y18488D01*
X11566Y18407D01*
X11679Y18347D01*
X11802Y18309D01*
X11929Y18297D01*
X12057Y18309D01*
X12179Y18347D01*
X12292Y18407D01*
X12391Y18488D01*
X12404Y18504D01*
X12454D01*
X12467Y18488D01*
X12566Y18407D01*
X12679Y18347D01*
X12802Y18309D01*
X12929Y18297D01*
X13057Y18309D01*
X13179Y18347D01*
X13292Y18407D01*
X13391Y18488D01*
X13404Y18504D01*
X13454D01*
X13467Y18488D01*
X13566Y18407D01*
X13679Y18347D01*
X13802Y18309D01*
X13929Y18297D01*
X14057Y18309D01*
X14179Y18347D01*
X14292Y18407D01*
X14391Y18488D01*
X14404Y18504D01*
X14454D01*
X14467Y18488D01*
X14566Y18407D01*
X14679Y18347D01*
X14802Y18309D01*
X14929Y18297D01*
X15057Y18309D01*
X15179Y18347D01*
X15292Y18407D01*
X15391Y18488D01*
X15404Y18504D01*
X15454D01*
X15467Y18488D01*
D02*
G37*
G36*
X24758Y18312D02*
X24748Y18300D01*
X24741Y18289D01*
X24737Y18279D01*
X24735Y18271D01*
X24737Y18265D01*
X24741Y18260D01*
X24748Y18256D01*
X24758Y18254D01*
X24771Y18254D01*
X24488D01*
X24502Y18254D01*
X24516Y18256D01*
X24530Y18260D01*
X24544Y18265D01*
X24559Y18271D01*
X24573Y18279D01*
X24587Y18289D01*
X24601Y18300D01*
X24616Y18312D01*
X24630Y18325D01*
X24771D01*
X24758Y18312D01*
D02*
G37*
G36*
X30156Y17951D02*
X30155Y17960D01*
X30152Y17968D01*
X30146Y17976D01*
X30138Y17982D01*
X30127Y17988D01*
X30114Y17992D01*
X30099Y17996D01*
X30082Y17998D01*
X30062Y18000D01*
X30040Y18000D01*
Y18100D01*
X30062Y18100D01*
X30082Y18102D01*
X30099Y18104D01*
X30114Y18108D01*
X30127Y18112D01*
X30138Y18118D01*
X30146Y18124D01*
X30152Y18132D01*
X30155Y18140D01*
X30156Y18149D01*
Y17951D01*
D02*
G37*
G36*
X28068Y18140D02*
X28074Y18131D01*
X28081Y18124D01*
X28091Y18118D01*
X28103Y18112D01*
X28117Y18108D01*
X28133Y18104D01*
X28152Y18102D01*
X28172Y18100D01*
X28195Y18100D01*
X28215Y18000D01*
X28193Y18000D01*
X28174Y17998D01*
X28157Y17996D01*
X28142Y17992D01*
X28130Y17988D01*
X28121Y17982D01*
X28114Y17976D01*
X28110Y17968D01*
X28108Y17960D01*
X28109Y17950D01*
X28065Y18149D01*
X28068Y18140D01*
D02*
G37*
G36*
X30816Y17794D02*
X30807Y17791D01*
X30800Y17786D01*
X30793Y17779D01*
X30788Y17770D01*
X30783Y17759D01*
X30780Y17746D01*
X30777Y17730D01*
X30776Y17713D01*
X30775Y17694D01*
X30675D01*
X30675Y17713D01*
X30673Y17730D01*
X30671Y17746D01*
X30667Y17759D01*
X30663Y17770D01*
X30657Y17779D01*
X30651Y17786D01*
X30643Y17791D01*
X30635Y17794D01*
X30625Y17795D01*
X30825D01*
X30816Y17794D01*
D02*
G37*
G36*
X24466Y17744D02*
X24457Y17741D01*
X24450Y17736D01*
X24443Y17729D01*
X24438Y17720D01*
X24433Y17709D01*
X24430Y17696D01*
X24427Y17681D01*
X24426Y17664D01*
X24425Y17645D01*
X24325D01*
X24325Y17664D01*
X24323Y17681D01*
X24321Y17696D01*
X24317Y17709D01*
X24313Y17720D01*
X24307Y17729D01*
X24301Y17736D01*
X24293Y17741D01*
X24285Y17744D01*
X24275Y17745D01*
X24475D01*
X24466Y17744D01*
D02*
G37*
G36*
X27575Y17641D02*
X27859D01*
X27952Y17653D01*
X27996Y17671D01*
X28002Y17669D01*
X28019Y17662D01*
X28040Y17658D01*
X28060Y17652D01*
X28078Y17651D01*
X28096Y17648D01*
X28118Y17650D01*
X28139Y17649D01*
X28157Y17653D01*
X28175Y17655D01*
X28195Y17662D01*
X28216Y17667D01*
X28232Y17676D01*
X28249Y17682D01*
X28267Y17694D01*
X28272Y17697D01*
X29994D01*
X30005Y17689D01*
X30022Y17681D01*
X30038Y17672D01*
X30059Y17666D01*
X30078Y17658D01*
X30096Y17656D01*
X30115Y17651D01*
X30135Y17651D01*
X30156Y17648D01*
X30175Y17650D01*
X30194Y17650D01*
X30214Y17656D01*
X30235Y17658D01*
X30252Y17665D01*
X30270Y17670D01*
X30288Y17680D01*
X30294Y17683D01*
X30332Y17676D01*
X30353Y17665D01*
X30357Y17659D01*
X30363Y17644D01*
X30372Y17632D01*
Y13468D01*
X30363Y13456D01*
X30357Y13441D01*
X30353Y13435D01*
X30332Y13424D01*
X30294Y13417D01*
X30288Y13420D01*
X30270Y13430D01*
X30252Y13435D01*
X30235Y13442D01*
X30214Y13444D01*
X30194Y13450D01*
X30175Y13450D01*
X30156Y13452D01*
X30135Y13449D01*
X30115Y13449D01*
X30096Y13444D01*
X30078Y13442D01*
X30059Y13434D01*
X30038Y13428D01*
X30022Y13419D01*
X30005Y13411D01*
X29994Y13403D01*
X28256D01*
X28245Y13411D01*
X28228Y13419D01*
X28212Y13428D01*
X28191Y13434D01*
X28172Y13442D01*
X28154Y13444D01*
X28135Y13449D01*
X28115Y13449D01*
X28094Y13452D01*
X28075Y13450D01*
X28056Y13450D01*
X28036Y13444D01*
X28015Y13442D01*
X27998Y13435D01*
X27980Y13430D01*
X27962Y13420D01*
X27942Y13411D01*
X27931Y13403D01*
X27905D01*
X27859Y13409D01*
X27575D01*
Y13050D01*
Y12691D01*
X27859D01*
X27905Y12697D01*
X27931D01*
X27942Y12689D01*
X27962Y12680D01*
X27980Y12670D01*
X27998Y12665D01*
X28015Y12658D01*
X28036Y12656D01*
X28056Y12650D01*
X28075Y12650D01*
X28094Y12648D01*
X28115Y12651D01*
X28135Y12651D01*
X28154Y12656D01*
X28172Y12658D01*
X28191Y12666D01*
X28212Y12672D01*
X28228Y12681D01*
X28245Y12689D01*
X28256Y12697D01*
X29994D01*
X30005Y12689D01*
X30022Y12681D01*
X30038Y12672D01*
X30059Y12666D01*
X30078Y12658D01*
X30096Y12656D01*
X30115Y12651D01*
X30135Y12651D01*
X30156Y12648D01*
X30175Y12650D01*
X30194Y12650D01*
X30214Y12656D01*
X30235Y12658D01*
X30252Y12665D01*
X30270Y12670D01*
X30288Y12680D01*
X30308Y12689D01*
X30319Y12697D01*
X30345D01*
X30391Y12691D01*
X30675D01*
Y13050D01*
X30725D01*
Y13100D01*
X31412D01*
X31407Y13143D01*
X31392Y13179D01*
X31400Y13195D01*
X31402Y13204D01*
X31406Y13213D01*
X31409Y13235D01*
X31571Y13397D01*
X32984D01*
Y12494D01*
X33522D01*
Y9883D01*
X31673Y8034D01*
X30103D01*
X29737Y8400D01*
X29664Y8456D01*
X29579Y8491D01*
X29488Y8503D01*
X25550D01*
X25550Y8503D01*
X25459Y8491D01*
X25373Y8456D01*
X25300Y8400D01*
X24404Y7503D01*
X22187D01*
X22184Y7504D01*
X22169Y7515D01*
X22151Y7529D01*
X22094Y7579D01*
X22065Y7607D01*
X22062Y7612D01*
X22046Y7625D01*
Y7675D01*
X22062Y7688D01*
X22143Y7787D01*
X22203Y7900D01*
X22241Y8023D01*
X22253Y8150D01*
X22241Y8277D01*
X22217Y8357D01*
X22246Y8397D01*
X24109D01*
X24200Y8409D01*
X24286Y8444D01*
X24359Y8500D01*
X26800Y10941D01*
X26800Y10941D01*
X26856Y11014D01*
X26891Y11100D01*
X26903Y11191D01*
X26903Y11191D01*
Y12761D01*
X26953Y12783D01*
X27011Y12739D01*
X27097Y12703D01*
X27190Y12691D01*
X27475D01*
Y13050D01*
Y13409D01*
X27190D01*
X27097Y13397D01*
X27011Y13361D01*
X26953Y13317D01*
X26903Y13339D01*
Y17711D01*
X26953Y17733D01*
X27011Y17689D01*
X27097Y17653D01*
X27190Y17641D01*
X27475D01*
Y18000D01*
X27575D01*
Y17641D01*
D02*
G37*
G36*
X37848Y17517D02*
X37845Y17527D01*
X37839Y17533D01*
X37833Y17537D01*
X37824Y17538D01*
X37814Y17536D01*
X37803Y17530D01*
X37789Y17522D01*
X37774Y17511D01*
X37758Y17496D01*
X37740Y17479D01*
X37722Y17602D01*
X37738Y17619D01*
X37764Y17651D01*
X37774Y17666D01*
X37783Y17680D01*
X37789Y17694D01*
X37793Y17708D01*
X37795Y17720D01*
X37796Y17732D01*
X37794Y17744D01*
X37848Y17517D01*
D02*
G37*
G36*
X18358Y16308D02*
X18342Y16290D01*
X18329Y16268D01*
X18317Y16242D01*
X18306Y16212D01*
X18297Y16179D01*
X18290Y16141D01*
X18285Y16100D01*
X18279Y16006D01*
X18279Y15954D01*
X17933Y16300D01*
X17985Y16300D01*
X18079Y16306D01*
X18120Y16311D01*
X18158Y16318D01*
X18191Y16327D01*
X18221Y16337D01*
X18247Y16350D01*
X18269Y16363D01*
X18287Y16379D01*
X18358Y16308D01*
D02*
G37*
G36*
X19217Y16158D02*
X19287Y16096D01*
X19320Y16070D01*
X19351Y16049D01*
X19381Y16031D01*
X19410Y16018D01*
X19436Y16008D01*
X19462Y16002D01*
X19486Y16000D01*
Y15900D01*
X19462Y15898D01*
X19436Y15892D01*
X19410Y15882D01*
X19381Y15869D01*
X19351Y15851D01*
X19320Y15830D01*
X19287Y15804D01*
X19217Y15742D01*
X19179Y15705D01*
Y16195D01*
X19217Y16158D01*
D02*
G37*
G36*
X18358Y15308D02*
X18342Y15290D01*
X18329Y15268D01*
X18317Y15242D01*
X18306Y15212D01*
X18297Y15179D01*
X18290Y15141D01*
X18285Y15100D01*
X18279Y15006D01*
X18279Y14954D01*
X17933Y15300D01*
X17985Y15300D01*
X18079Y15306D01*
X18120Y15311D01*
X18158Y15318D01*
X18191Y15327D01*
X18221Y15337D01*
X18247Y15350D01*
X18269Y15363D01*
X18287Y15379D01*
X18358Y15308D01*
D02*
G37*
G36*
X1589Y15363D02*
X1611Y15350D01*
X1637Y15337D01*
X1667Y15327D01*
X1700Y15318D01*
X1738Y15311D01*
X1779Y15306D01*
X1873Y15300D01*
X1926Y15300D01*
X1579Y14954D01*
X1579Y15006D01*
X1573Y15100D01*
X1568Y15141D01*
X1561Y15179D01*
X1552Y15212D01*
X1542Y15242D01*
X1530Y15268D01*
X1516Y15290D01*
X1500Y15308D01*
X1571Y15379D01*
X1589Y15363D01*
D02*
G37*
G36*
X19238Y15121D02*
X19259Y15096D01*
X19281Y15073D01*
X19304Y15054D01*
X19327Y15037D01*
X19350Y15024D01*
X19375Y15013D01*
X19399Y15006D01*
X19424Y15001D01*
X19450Y15000D01*
Y14900D01*
X19424Y14899D01*
X19399Y14894D01*
X19375Y14887D01*
X19350Y14876D01*
X19327Y14863D01*
X19304Y14846D01*
X19281Y14827D01*
X19259Y14804D01*
X19238Y14779D01*
X19217Y14751D01*
Y15149D01*
X19238Y15121D01*
D02*
G37*
G36*
X22029Y14858D02*
X22013Y14840D01*
X22000Y14818D01*
X21987Y14792D01*
X21977Y14762D01*
X21968Y14729D01*
X21961Y14691D01*
X21956Y14650D01*
X21950Y14556D01*
X21950Y14504D01*
X21604Y14850D01*
X21656Y14850D01*
X21750Y14856D01*
X21791Y14861D01*
X21829Y14868D01*
X21862Y14877D01*
X21892Y14887D01*
X21918Y14900D01*
X21940Y14913D01*
X21958Y14929D01*
X22029Y14858D01*
D02*
G37*
G36*
X2137Y14663D02*
X2075Y14592D01*
X2049Y14559D01*
X2028Y14528D01*
X2010Y14498D01*
X1997Y14470D01*
X1990Y14450D01*
X1997Y14430D01*
X2010Y14402D01*
X2028Y14372D01*
X2049Y14341D01*
X2075Y14308D01*
X2137Y14237D01*
X2174Y14200D01*
X1684D01*
X1721Y14237D01*
X1784Y14308D01*
X1809Y14341D01*
X1830Y14372D01*
X1848Y14402D01*
X1862Y14430D01*
X1869Y14450D01*
X1862Y14470D01*
X1848Y14498D01*
X1830Y14528D01*
X1809Y14559D01*
X1784Y14592D01*
X1721Y14663D01*
X1684Y14700D01*
X2174D01*
X2137Y14663D01*
D02*
G37*
G36*
X37245Y14179D02*
X37273Y14163D01*
X37306Y14149D01*
X37344Y14136D01*
X37388Y14126D01*
X37438Y14117D01*
X37554Y14105D01*
X37620Y14101D01*
X37692Y14100D01*
X37240Y13662D01*
X37240Y13733D01*
X37230Y13913D01*
X37222Y13962D01*
X37213Y14006D01*
X37201Y14045D01*
X37186Y14078D01*
X37170Y14105D01*
X37152Y14128D01*
X37224Y14197D01*
X37245Y14179D01*
D02*
G37*
G36*
X30776Y13387D02*
X30777Y13369D01*
X30780Y13354D01*
X30783Y13341D01*
X30788Y13330D01*
X30793Y13321D01*
X30800Y13314D01*
X30807Y13309D01*
X30816Y13306D01*
X30825Y13305D01*
X30625D01*
X30635Y13306D01*
X30643Y13309D01*
X30651Y13314D01*
X30657Y13321D01*
X30663Y13330D01*
X30667Y13341D01*
X30671Y13354D01*
X30673Y13369D01*
X30675Y13387D01*
X30675Y13406D01*
X30775D01*
X30776Y13387D01*
D02*
G37*
G36*
X31109Y13362D02*
X31098Y13349D01*
X31090Y13337D01*
X31084Y13327D01*
X31082Y13319D01*
X31083Y13311D01*
X31087Y13306D01*
X31093Y13302D01*
X31103Y13299D01*
X31115Y13298D01*
X30840Y13305D01*
X30853Y13305D01*
X30867Y13307D01*
X30881Y13311D01*
X30895Y13315D01*
X30909Y13322D01*
X30923Y13330D01*
X30938Y13339D01*
X30952Y13350D01*
X30966Y13363D01*
X30981Y13377D01*
X31123D01*
X31109Y13362D01*
D02*
G37*
G36*
X21350Y13255D02*
X21313Y13292D01*
X21242Y13354D01*
X21209Y13380D01*
X21178Y13401D01*
X21148Y13419D01*
X21120Y13432D01*
X21093Y13442D01*
X21067Y13448D01*
X21044Y13450D01*
Y13550D01*
X21067Y13552D01*
X21093Y13558D01*
X21120Y13568D01*
X21148Y13581D01*
X21178Y13599D01*
X21209Y13620D01*
X21242Y13646D01*
X21313Y13708D01*
X21350Y13745D01*
Y13255D01*
D02*
G37*
G36*
X30156Y12951D02*
X30155Y12960D01*
X30152Y12968D01*
X30146Y12976D01*
X30138Y12982D01*
X30127Y12988D01*
X30114Y12992D01*
X30099Y12996D01*
X30082Y12998D01*
X30062Y13000D01*
X30040Y13000D01*
Y13100D01*
X30062Y13100D01*
X30082Y13102D01*
X30099Y13104D01*
X30114Y13108D01*
X30127Y13112D01*
X30138Y13118D01*
X30146Y13124D01*
X30152Y13132D01*
X30155Y13140D01*
X30156Y13149D01*
Y12951D01*
D02*
G37*
G36*
X28095Y13140D02*
X28098Y13132D01*
X28104Y13124D01*
X28112Y13118D01*
X28123Y13112D01*
X28136Y13108D01*
X28151Y13104D01*
X28168Y13102D01*
X28188Y13100D01*
X28210Y13100D01*
Y13000D01*
X28188Y13000D01*
X28168Y12998D01*
X28151Y12996D01*
X28136Y12992D01*
X28123Y12988D01*
X28112Y12982D01*
X28104Y12976D01*
X28098Y12968D01*
X28095Y12960D01*
X28094Y12951D01*
Y13149D01*
X28095Y13140D01*
D02*
G37*
G36*
X23787Y12950D02*
X23786Y12960D01*
X23783Y12968D01*
X23778Y12975D01*
X23771Y12982D01*
X23762Y12988D01*
X23751Y12992D01*
X23737Y12996D01*
X23722Y12998D01*
X23705Y13000D01*
X23686Y13000D01*
Y13100D01*
X23705Y13101D01*
X23722Y13102D01*
X23737Y13104D01*
X23751Y13108D01*
X23762Y13112D01*
X23771Y13118D01*
X23778Y13125D01*
X23783Y13132D01*
X23786Y13140D01*
X23787Y13150D01*
Y12950D01*
D02*
G37*
G36*
X23103Y13201D02*
X23149Y13161D01*
X23172Y13145D01*
X23194Y13131D01*
X23215Y13120D01*
X23236Y13111D01*
X23256Y13105D01*
X23276Y13101D01*
X23295Y13100D01*
Y13000D01*
X23276Y12999D01*
X23256Y12995D01*
X23236Y12989D01*
X23215Y12980D01*
X23194Y12969D01*
X23172Y12955D01*
X23149Y12939D01*
X23126Y12920D01*
X23079Y12875D01*
Y13225D01*
X23103Y13201D01*
D02*
G37*
G36*
X33965Y12795D02*
X33957Y12792D01*
X33949Y12787D01*
X33943Y12780D01*
X33937Y12771D01*
X33933Y12760D01*
X33929Y12747D01*
X33927Y12732D01*
X33925Y12715D01*
X33925Y12695D01*
X33825D01*
X33824Y12715D01*
X33823Y12732D01*
X33820Y12747D01*
X33817Y12760D01*
X33812Y12771D01*
X33807Y12780D01*
X33800Y12787D01*
X33793Y12792D01*
X33784Y12795D01*
X33775Y12796D01*
X33975D01*
X33965Y12795D01*
D02*
G37*
G36*
X38209Y12099D02*
X38189Y12078D01*
X38158Y12041D01*
X38146Y12025D01*
X38138Y12010D01*
X38132Y11997D01*
X38129Y11985D01*
X38129Y11974D01*
X38131Y11965D01*
X38137Y11957D01*
X37997Y12098D01*
X38004Y12092D01*
X38014Y12089D01*
X38024Y12089D01*
X38036Y12092D01*
X38049Y12098D01*
X38064Y12107D01*
X38081Y12118D01*
X38098Y12133D01*
X38138Y12170D01*
X38209Y12099D01*
D02*
G37*
G36*
X21597Y12150D02*
X21544Y12150D01*
X21450Y12144D01*
X21409Y12139D01*
X21371Y12132D01*
X21338Y12123D01*
X21308Y12113D01*
X21282Y12100D01*
X21260Y12087D01*
X21242Y12071D01*
X21171Y12142D01*
X21187Y12160D01*
X21200Y12182D01*
X21213Y12208D01*
X21223Y12238D01*
X21232Y12271D01*
X21239Y12309D01*
X21244Y12350D01*
X21250Y12444D01*
X21250Y12497D01*
X21597Y12150D01*
D02*
G37*
G36*
X37261Y12150D02*
X37298Y12118D01*
X37314Y12107D01*
X37329Y12098D01*
X37343Y12092D01*
X37355Y12089D01*
X37365Y12089D01*
X37374Y12092D01*
X37382Y12098D01*
X37242Y11957D01*
X37247Y11965D01*
X37250Y11974D01*
X37250Y11985D01*
X37247Y11997D01*
X37241Y12010D01*
X37233Y12025D01*
X37221Y12041D01*
X37207Y12059D01*
X37170Y12099D01*
X37241Y12170D01*
X37261Y12150D01*
D02*
G37*
G36*
X19217Y12158D02*
X19287Y12096D01*
X19320Y12070D01*
X19351Y12049D01*
X19381Y12031D01*
X19410Y12018D01*
X19436Y12008D01*
X19462Y12002D01*
X19486Y12000D01*
Y11900D01*
X19462Y11898D01*
X19436Y11892D01*
X19410Y11882D01*
X19381Y11869D01*
X19351Y11851D01*
X19320Y11830D01*
X19287Y11804D01*
X19217Y11742D01*
X19179Y11705D01*
Y12195D01*
X19217Y12158D01*
D02*
G37*
G36*
X38135Y11200D02*
X38134Y11198D01*
X38135Y11195D01*
X38138Y11190D01*
X38142Y11184D01*
X38148Y11176D01*
X38166Y11156D01*
X38190Y11130D01*
X38049D01*
X38035Y11144D01*
X38021Y11156D01*
X38006Y11167D01*
X37992Y11176D01*
X37978Y11184D01*
X37964Y11190D01*
X37950Y11195D01*
X37936Y11198D01*
X37922Y11200D01*
X37907Y11201D01*
X38138D01*
X38135Y11200D01*
D02*
G37*
G36*
X19217Y11158D02*
X19287Y11096D01*
X19320Y11070D01*
X19351Y11049D01*
X19381Y11031D01*
X19410Y11018D01*
X19436Y11008D01*
X19462Y11002D01*
X19486Y11000D01*
Y10900D01*
X19462Y10898D01*
X19436Y10892D01*
X19410Y10882D01*
X19381Y10869D01*
X19351Y10851D01*
X19320Y10830D01*
X19287Y10804D01*
X19217Y10742D01*
X19179Y10705D01*
Y11195D01*
X19217Y11158D01*
D02*
G37*
G36*
Y10158D02*
X19287Y10096D01*
X19320Y10070D01*
X19351Y10049D01*
X19381Y10031D01*
X19410Y10018D01*
X19436Y10008D01*
X19462Y10002D01*
X19486Y10000D01*
Y9900D01*
X19462Y9898D01*
X19436Y9892D01*
X19410Y9882D01*
X19381Y9869D01*
X19351Y9851D01*
X19320Y9830D01*
X19287Y9804D01*
X19217Y9742D01*
X19179Y9705D01*
Y10195D01*
X19217Y10158D01*
D02*
G37*
G36*
X18358Y9308D02*
X18342Y9290D01*
X18329Y9268D01*
X18317Y9242D01*
X18306Y9212D01*
X18297Y9179D01*
X18290Y9141D01*
X18285Y9100D01*
X18279Y9006D01*
X18279Y8953D01*
X17933Y9300D01*
X17985Y9300D01*
X18079Y9306D01*
X18120Y9311D01*
X18158Y9318D01*
X18191Y9327D01*
X18221Y9337D01*
X18247Y9350D01*
X18269Y9363D01*
X18287Y9379D01*
X18358Y9308D01*
D02*
G37*
G36*
X36948Y11892D02*
X36949Y11879D01*
X36959Y11857D01*
X36966Y11833D01*
X36974Y11820D01*
X36980Y11806D01*
X36994Y11787D01*
X37007Y11766D01*
X37018Y11756D01*
X37028Y11743D01*
X37047Y11729D01*
X37065Y11712D01*
X37078Y11705D01*
X37090Y11695D01*
X37113Y11686D01*
X37134Y11675D01*
X37139Y11673D01*
Y11100D01*
X37625D01*
X37627Y11093D01*
X37638Y11063D01*
X37642Y11057D01*
X37645Y11050D01*
X37665Y11025D01*
X37683Y10998D01*
X37689Y10993D01*
X37693Y10987D01*
X37719Y10968D01*
X37743Y10947D01*
X37750Y10944D01*
X37756Y10939D01*
X37786Y10927D01*
X37815Y10913D01*
X37822Y10912D01*
X37829Y10909D01*
X37844Y10907D01*
X38547Y10204D01*
Y8525D01*
X38497Y8512D01*
X38443Y8613D01*
X38362Y8712D01*
X38263Y8793D01*
X38150Y8853D01*
X38027Y8891D01*
X37900Y8903D01*
X37773Y8891D01*
X37650Y8853D01*
X37537Y8793D01*
X37438Y8712D01*
X37357Y8613D01*
X37297Y8500D01*
X37259Y8377D01*
X37247Y8250D01*
X37259Y8123D01*
X37297Y8000D01*
X37357Y7887D01*
X37438Y7788D01*
X37537Y7707D01*
X37610Y7668D01*
X37606Y7638D01*
X37601Y7600D01*
X37601Y7599D01*
X37601Y7598D01*
X37602Y7589D01*
X37579Y7571D01*
X37507Y7477D01*
X37462Y7367D01*
X37453Y7300D01*
X37900D01*
Y7200D01*
X37453D01*
X37462Y7133D01*
X37507Y7023D01*
X37563Y6950D01*
X37538Y6900D01*
X37250D01*
Y5600D01*
X38147D01*
Y5528D01*
X36778Y4159D01*
X36765Y4157D01*
X36743Y4148D01*
X36719Y4141D01*
X36706Y4133D01*
X36692Y4127D01*
X36673Y4112D01*
X36652Y4099D01*
X36620D01*
X36599Y4112D01*
X36580Y4127D01*
X36565Y4133D01*
X36552Y4141D01*
X36529Y4148D01*
X36507Y4157D01*
X36493Y4159D01*
X35503Y5150D01*
X35429Y5206D01*
X35344Y5241D01*
X35253Y5253D01*
X29789D01*
X28643Y6400D01*
X28393Y6649D01*
X28391Y6664D01*
X28382Y6686D01*
X28375Y6708D01*
X28367Y6722D01*
X28361Y6737D01*
X28346Y6756D01*
X28334Y6776D01*
X28322Y6787D01*
X28313Y6799D01*
X28294Y6814D01*
X28277Y6830D01*
X28263Y6838D01*
X28250Y6848D01*
X28228Y6857D01*
X28207Y6868D01*
X28192Y6872D01*
X28177Y6878D01*
X28154Y6881D01*
X28148Y6882D01*
X28127Y6899D01*
X28041Y6934D01*
X27950Y6946D01*
X27900Y6939D01*
X27850Y6982D01*
Y7043D01*
X27753D01*
Y7100D01*
X28400D01*
Y7797D01*
X29342D01*
X29997Y7141D01*
Y5466D01*
X31778D01*
Y7141D01*
X34124Y9487D01*
X34181Y9560D01*
X34216Y9646D01*
X34228Y9737D01*
Y12494D01*
X34765D01*
Y13397D01*
X35443D01*
X36948Y11892D01*
D02*
G37*
G36*
X21346Y8475D02*
X21356Y8467D01*
X21366Y8460D01*
X21375Y8454D01*
X21384Y8450D01*
X21392Y8447D01*
X21400Y8446D01*
X21408Y8446D01*
X21415Y8448D01*
X21421Y8451D01*
X21299Y8329D01*
X21302Y8335D01*
X21304Y8342D01*
X21304Y8350D01*
X21303Y8358D01*
X21300Y8366D01*
X21296Y8375D01*
X21290Y8384D01*
X21283Y8394D01*
X21275Y8404D01*
X21265Y8415D01*
X21335Y8485D01*
X21346Y8475D01*
D02*
G37*
G36*
X28100Y8100D02*
X28081Y8099D01*
X28064Y8096D01*
X28049Y8091D01*
X28036Y8084D01*
X28025Y8075D01*
X28016Y8064D01*
X28009Y8051D01*
X28004Y8036D01*
X28001Y8019D01*
X28000Y8000D01*
X27900D01*
X27899Y8019D01*
X27896Y8036D01*
X27891Y8051D01*
X27884Y8064D01*
X27875Y8075D01*
X27864Y8084D01*
X27851Y8091D01*
X27836Y8096D01*
X27819Y8099D01*
X27800Y8100D01*
X27950Y8200D01*
X28100Y8100D01*
D02*
G37*
G36*
X28001Y7780D02*
X28002Y7762D01*
X28005Y7747D01*
X28008Y7734D01*
X28012Y7723D01*
X28018Y7714D01*
X28024Y7707D01*
X28032Y7702D01*
X28040Y7699D01*
X28050Y7698D01*
X27850D01*
X27859Y7699D01*
X27868Y7702D01*
X27875Y7707D01*
X27882Y7714D01*
X27887Y7723D01*
X27892Y7734D01*
X27896Y7747D01*
X27898Y7762D01*
X27899Y7780D01*
X27900Y7799D01*
X28000D01*
X28001Y7780D01*
D02*
G37*
G36*
X19279Y7894D02*
X19285Y7800D01*
X19290Y7759D01*
X19297Y7721D01*
X19306Y7688D01*
X19317Y7658D01*
X19329Y7632D01*
X19342Y7610D01*
X19358Y7592D01*
X19287Y7521D01*
X19269Y7537D01*
X19247Y7550D01*
X19221Y7563D01*
X19191Y7573D01*
X19158Y7582D01*
X19120Y7589D01*
X19079Y7594D01*
X18985Y7600D01*
X18933Y7600D01*
X19279Y7947D01*
X19279Y7894D01*
D02*
G37*
G36*
X17926Y7600D02*
X17873Y7600D01*
X17779Y7594D01*
X17738Y7589D01*
X17700Y7582D01*
X17667Y7573D01*
X17637Y7563D01*
X17611Y7550D01*
X17589Y7537D01*
X17571Y7521D01*
X17500Y7592D01*
X17516Y7610D01*
X17530Y7632D01*
X17542Y7658D01*
X17552Y7688D01*
X17561Y7721D01*
X17568Y7759D01*
X17573Y7800D01*
X17579Y7894D01*
X17579Y7947D01*
X17926Y7600D01*
D02*
G37*
G36*
X1926D02*
X1873Y7600D01*
X1779Y7594D01*
X1738Y7589D01*
X1700Y7582D01*
X1667Y7573D01*
X1637Y7563D01*
X1611Y7550D01*
X1589Y7537D01*
X1571Y7521D01*
X1500Y7592D01*
X1516Y7610D01*
X1530Y7632D01*
X1542Y7658D01*
X1552Y7688D01*
X1561Y7721D01*
X1568Y7759D01*
X1573Y7800D01*
X1579Y7894D01*
X1579Y7947D01*
X1926Y7600D01*
D02*
G37*
G36*
X30298Y7198D02*
X30298Y7212D01*
X30296Y7226D01*
X30292Y7240D01*
X30287Y7254D01*
X30281Y7269D01*
X30273Y7283D01*
X30264Y7297D01*
X30253Y7311D01*
X30241Y7325D01*
X30228Y7339D01*
Y7481D01*
X30241Y7468D01*
X30253Y7458D01*
X30264Y7451D01*
X30273Y7447D01*
X30281Y7445D01*
X30287Y7447D01*
X30292Y7451D01*
X30296Y7458D01*
X30298Y7468D01*
X30298Y7481D01*
Y7198D01*
D02*
G37*
G36*
X31548Y7339D02*
X31534Y7325D01*
X31522Y7311D01*
X31511Y7296D01*
X31502Y7282D01*
X31494Y7268D01*
X31487Y7254D01*
X31482Y7240D01*
X31479Y7226D01*
X31477Y7212D01*
X31476Y7198D01*
Y7481D01*
X31477Y7468D01*
X31479Y7458D01*
X31482Y7451D01*
X31487Y7446D01*
X31494Y7445D01*
X31502Y7446D01*
X31511Y7451D01*
X31522Y7458D01*
X31534Y7468D01*
X31548Y7481D01*
Y7339D01*
D02*
G37*
G36*
X27490Y7400D02*
X27482Y7397D01*
X27475Y7392D01*
X27468Y7385D01*
X27462Y7376D01*
X27458Y7365D01*
X27455Y7352D01*
X27452Y7337D01*
X27450Y7320D01*
X27450Y7301D01*
X27350D01*
X27350Y7320D01*
X27348Y7337D01*
X27345Y7352D01*
X27342Y7365D01*
X27338Y7376D01*
X27332Y7385D01*
X27325Y7392D01*
X27318Y7397D01*
X27310Y7400D01*
X27300Y7401D01*
X27500D01*
X27490Y7400D01*
D02*
G37*
G36*
X38329Y7608D02*
X38313Y7590D01*
X38300Y7568D01*
X38287Y7542D01*
X38277Y7512D01*
X38268Y7479D01*
X38261Y7441D01*
X38256Y7400D01*
X38250Y7306D01*
X38250Y7254D01*
X37903Y7600D01*
X37956Y7600D01*
X38050Y7606D01*
X38091Y7611D01*
X38129Y7618D01*
X38162Y7627D01*
X38192Y7637D01*
X38218Y7650D01*
X38240Y7663D01*
X38258Y7679D01*
X38329Y7608D01*
D02*
G37*
G36*
X21887Y7358D02*
X21958Y7296D01*
X21991Y7270D01*
X22022Y7249D01*
X22052Y7231D01*
X22080Y7218D01*
X22107Y7208D01*
X22133Y7202D01*
X22156Y7200D01*
Y7100D01*
X22133Y7098D01*
X22107Y7092D01*
X22080Y7082D01*
X22052Y7069D01*
X22022Y7051D01*
X21991Y7030D01*
X21958Y7004D01*
X21887Y6942D01*
X21850Y6905D01*
Y7395D01*
X21887Y7358D01*
D02*
G37*
G36*
X38250Y7194D02*
X38256Y7100D01*
X38261Y7059D01*
X38268Y7021D01*
X38277Y6988D01*
X38287Y6958D01*
X38300Y6932D01*
X38313Y6910D01*
X38329Y6892D01*
X38258Y6821D01*
X38240Y6837D01*
X38218Y6850D01*
X38192Y6863D01*
X38162Y6873D01*
X38129Y6882D01*
X38091Y6889D01*
X38050Y6894D01*
X37956Y6900D01*
X37903Y6900D01*
X38250Y7247D01*
X38250Y7194D01*
D02*
G37*
G36*
X19181Y7200D02*
X19339Y7103D01*
X19372Y7087D01*
X19401Y7075D01*
X19427Y7066D01*
X19451Y7061D01*
X19472Y7059D01*
X19489Y6959D01*
X19463Y6957D01*
X19437Y6951D01*
X19411Y6940D01*
X19384Y6926D01*
X19357Y6907D01*
X19330Y6884D01*
X19302Y6857D01*
X19274Y6826D01*
X19246Y6790D01*
X19217Y6751D01*
X19134Y7234D01*
X19181Y7200D01*
D02*
G37*
G36*
X27450Y6822D02*
X27452Y6805D01*
X27455Y6790D01*
X27458Y6777D01*
X27462Y6766D01*
X27468Y6757D01*
X27475Y6750D01*
X27482Y6745D01*
X27490Y6742D01*
X27500Y6741D01*
X27300D01*
X27310Y6742D01*
X27318Y6745D01*
X27325Y6750D01*
X27332Y6757D01*
X27338Y6766D01*
X27342Y6777D01*
X27345Y6790D01*
X27348Y6805D01*
X27350Y6822D01*
X27350Y6842D01*
X27450D01*
X27450Y6822D01*
D02*
G37*
G36*
X28093Y6578D02*
X28090Y6569D01*
Y6558D01*
X28093Y6546D01*
X28099Y6532D01*
X28107Y6518D01*
X28119Y6501D01*
X28133Y6484D01*
X28170Y6444D01*
X28099Y6373D01*
X28078Y6393D01*
X28042Y6424D01*
X28025Y6436D01*
X28010Y6444D01*
X27997Y6450D01*
X27985Y6453D01*
X27974D01*
X27965Y6450D01*
X27957Y6444D01*
X28099Y6586D01*
X28093Y6578D01*
D02*
G37*
G36*
X28428Y6185D02*
X28499Y6115D01*
X28443Y6029D01*
X28428Y6043D01*
X28413Y6055D01*
X28398Y6065D01*
X28382Y6075D01*
X28365Y6082D01*
X28348Y6089D01*
X28330Y6094D01*
X28311Y6097D01*
X28292Y6099D01*
X28272Y6100D01*
X28172Y6200D01*
X28191Y6201D01*
X28205Y6203D01*
X28217Y6206D01*
X28225Y6211D01*
X28230Y6218D01*
X28231Y6225D01*
X28229Y6235D01*
X28223Y6245D01*
X28214Y6257D01*
X28201Y6271D01*
X28428Y6185D01*
D02*
G37*
G36*
X21887Y6358D02*
X21958Y6296D01*
X21991Y6270D01*
X22022Y6249D01*
X22052Y6231D01*
X22080Y6218D01*
X22107Y6208D01*
X22133Y6202D01*
X22156Y6200D01*
Y6100D01*
X22133Y6098D01*
X22107Y6092D01*
X22080Y6082D01*
X22052Y6069D01*
X22022Y6051D01*
X21991Y6030D01*
X21958Y6004D01*
X21887Y5942D01*
X21850Y5905D01*
Y6395D01*
X21887Y6358D01*
D02*
G37*
G36*
X14926Y5600D02*
X14873Y5600D01*
X14779Y5594D01*
X14738Y5589D01*
X14700Y5582D01*
X14667Y5573D01*
X14637Y5563D01*
X14611Y5550D01*
X14589Y5537D01*
X14571Y5521D01*
X14500Y5592D01*
X14516Y5610D01*
X14530Y5632D01*
X14542Y5658D01*
X14552Y5688D01*
X14561Y5721D01*
X14568Y5759D01*
X14573Y5800D01*
X14579Y5894D01*
X14579Y5946D01*
X14926Y5600D01*
D02*
G37*
G36*
X13926D02*
X13873Y5600D01*
X13779Y5594D01*
X13738Y5589D01*
X13700Y5582D01*
X13667Y5573D01*
X13637Y5563D01*
X13611Y5550D01*
X13589Y5537D01*
X13571Y5521D01*
X13500Y5592D01*
X13516Y5610D01*
X13530Y5632D01*
X13542Y5658D01*
X13552Y5688D01*
X13561Y5721D01*
X13568Y5759D01*
X13573Y5800D01*
X13579Y5894D01*
X13579Y5946D01*
X13926Y5600D01*
D02*
G37*
G36*
X11926D02*
X11873Y5600D01*
X11779Y5594D01*
X11738Y5589D01*
X11700Y5582D01*
X11667Y5573D01*
X11637Y5563D01*
X11611Y5550D01*
X11589Y5537D01*
X11571Y5521D01*
X11500Y5592D01*
X11516Y5610D01*
X11530Y5632D01*
X11542Y5658D01*
X11552Y5688D01*
X11561Y5721D01*
X11568Y5759D01*
X11573Y5800D01*
X11579Y5894D01*
X11579Y5946D01*
X11926Y5600D01*
D02*
G37*
G36*
X10926D02*
X10873Y5600D01*
X10779Y5594D01*
X10738Y5589D01*
X10700Y5582D01*
X10667Y5573D01*
X10637Y5563D01*
X10611Y5550D01*
X10589Y5537D01*
X10571Y5521D01*
X10500Y5592D01*
X10516Y5610D01*
X10530Y5632D01*
X10542Y5658D01*
X10552Y5688D01*
X10561Y5721D01*
X10568Y5759D01*
X10573Y5800D01*
X10579Y5894D01*
X10579Y5946D01*
X10926Y5600D01*
D02*
G37*
G36*
X7279Y5894D02*
X7285Y5800D01*
X7290Y5759D01*
X7297Y5721D01*
X7306Y5688D01*
X7317Y5658D01*
X7329Y5632D01*
X7342Y5610D01*
X7358Y5592D01*
X7287Y5521D01*
X7269Y5537D01*
X7247Y5550D01*
X7221Y5563D01*
X7191Y5573D01*
X7158Y5582D01*
X7120Y5589D01*
X7079Y5594D01*
X6985Y5600D01*
X6933Y5600D01*
X7279Y5946D01*
X7279Y5894D01*
D02*
G37*
G36*
X6254Y5810D02*
X6246Y5767D01*
X6241Y5727D01*
X6239Y5690D01*
X6240Y5656D01*
X6245Y5624D01*
X6252Y5596D01*
X6263Y5570D01*
X6277Y5547D01*
X6294Y5527D01*
X6204Y5475D01*
X6190Y5487D01*
X6172Y5499D01*
X6148Y5511D01*
X6119Y5524D01*
X6046Y5551D01*
X5954Y5580D01*
X5841Y5611D01*
X6266Y5855D01*
X6254Y5810D01*
D02*
G37*
G36*
X12589Y5363D02*
X12611Y5350D01*
X12637Y5337D01*
X12667Y5327D01*
X12700Y5318D01*
X12738Y5311D01*
X12779Y5306D01*
X12873Y5300D01*
X12926Y5300D01*
X12579Y4954D01*
X12579Y5006D01*
X12573Y5100D01*
X12568Y5141D01*
X12561Y5179D01*
X12552Y5212D01*
X12542Y5242D01*
X12530Y5268D01*
X12516Y5290D01*
X12500Y5308D01*
X12571Y5379D01*
X12589Y5363D01*
D02*
G37*
G36*
X1358Y5308D02*
X1342Y5290D01*
X1329Y5268D01*
X1317Y5242D01*
X1306Y5212D01*
X1297Y5179D01*
X1290Y5141D01*
X1285Y5100D01*
X1279Y5006D01*
X1279Y4954D01*
X933Y5300D01*
X985Y5300D01*
X1079Y5306D01*
X1120Y5311D01*
X1158Y5318D01*
X1191Y5327D01*
X1221Y5337D01*
X1247Y5350D01*
X1269Y5363D01*
X1287Y5379D01*
X1358Y5308D01*
D02*
G37*
G36*
X7194Y4716D02*
X7177Y4683D01*
X7164Y4652D01*
X7155Y4622D01*
X7151Y4594D01*
X7151Y4567D01*
X7156Y4541D01*
X7166Y4517D01*
X7180Y4494D01*
X7198Y4473D01*
X7078Y4452D01*
X7070Y4458D01*
X7056Y4468D01*
X6984Y4514D01*
X6756Y4646D01*
X7216Y4750D01*
X7194Y4716D01*
D02*
G37*
G36*
X14137Y4663D02*
X14075Y4592D01*
X14049Y4559D01*
X14028Y4528D01*
X14010Y4498D01*
X13997Y4470D01*
X13987Y4443D01*
X13981Y4417D01*
X13979Y4394D01*
X13879D01*
X13877Y4417D01*
X13871Y4443D01*
X13862Y4470D01*
X13848Y4498D01*
X13830Y4528D01*
X13809Y4559D01*
X13784Y4592D01*
X13721Y4663D01*
X13684Y4700D01*
X14174D01*
X14137Y4663D01*
D02*
G37*
G36*
X12137D02*
X12075Y4592D01*
X12049Y4559D01*
X12028Y4528D01*
X12010Y4498D01*
X11997Y4470D01*
X11987Y4443D01*
X11981Y4417D01*
X11979Y4394D01*
X11879D01*
X11877Y4417D01*
X11871Y4443D01*
X11862Y4470D01*
X11848Y4498D01*
X11830Y4528D01*
X11809Y4559D01*
X11784Y4592D01*
X11721Y4663D01*
X11684Y4700D01*
X12174D01*
X12137Y4663D01*
D02*
G37*
G36*
X6137D02*
X6075Y4592D01*
X6049Y4559D01*
X6028Y4528D01*
X6010Y4498D01*
X5997Y4470D01*
X5987Y4443D01*
X5981Y4417D01*
X5979Y4394D01*
X5879D01*
X5877Y4417D01*
X5871Y4443D01*
X5862Y4470D01*
X5848Y4498D01*
X5830Y4528D01*
X5809Y4559D01*
X5784Y4592D01*
X5721Y4663D01*
X5684Y4700D01*
X6174D01*
X6137Y4663D01*
D02*
G37*
G36*
X11153Y4674D02*
X11068Y4564D01*
X11047Y4531D01*
X11030Y4501D01*
X11017Y4472D01*
X11008Y4445D01*
X11002Y4420D01*
X11000Y4397D01*
X10900Y4391D01*
X10898Y4416D01*
X10892Y4442D01*
X10882Y4468D01*
X10868Y4496D01*
X10850Y4525D01*
X10828Y4555D01*
X10802Y4586D01*
X10772Y4618D01*
X10699Y4686D01*
X11189Y4715D01*
X11153Y4674D01*
D02*
G37*
G36*
X21551Y4430D02*
X21552Y4412D01*
X21555Y4397D01*
X21558Y4384D01*
X21562Y4373D01*
X21568Y4364D01*
X21574Y4357D01*
X21582Y4352D01*
X21590Y4349D01*
X21600Y4348D01*
X21400D01*
X21409Y4349D01*
X21418Y4352D01*
X21425Y4357D01*
X21432Y4364D01*
X21437Y4373D01*
X21442Y4384D01*
X21446Y4397D01*
X21448Y4412D01*
X21449Y4430D01*
X21450Y4449D01*
X21550D01*
X21551Y4430D01*
D02*
G37*
G36*
X5467Y4488D02*
X5472Y4485D01*
X5500Y4456D01*
X5550Y4399D01*
X5564Y4381D01*
X5575Y4366D01*
X5576Y4363D01*
Y3164D01*
X5588Y3072D01*
X5623Y2987D01*
X5680Y2914D01*
X6841Y1753D01*
X6820Y1703D01*
X5896D01*
X5414Y2185D01*
X5414Y2187D01*
X5410Y2206D01*
X5407Y2229D01*
X5403Y2304D01*
X5403Y2348D01*
X5397Y2386D01*
X5392Y2425D01*
X5392Y2426D01*
X5392Y2426D01*
X5377Y2462D01*
X5362Y2498D01*
X5362Y2498D01*
X5361Y2499D01*
X5338Y2530D01*
X5314Y2560D01*
X5313Y2561D01*
X5313Y2562D01*
X5282Y2585D01*
X5251Y2609D01*
X5250Y2609D01*
X5250Y2609D01*
X5214Y2624D01*
X5178Y2639D01*
X5177Y2639D01*
X5177Y2639D01*
X5138Y2644D01*
X5100Y2649D01*
X5099Y2649D01*
X5098Y2649D01*
X5089Y2648D01*
X5071Y2671D01*
X4977Y2743D01*
X4867Y2788D01*
X4800Y2797D01*
Y2350D01*
X4700D01*
Y2797D01*
X4633Y2788D01*
X4523Y2743D01*
X4429Y2671D01*
X4411Y2648D01*
X4402Y2649D01*
X4401Y2649D01*
X4400Y2649D01*
X4362Y2644D01*
X4332Y2640D01*
X4293Y2713D01*
X4212Y2812D01*
X4113Y2893D01*
X4000Y2953D01*
X3877Y2991D01*
X3750Y3003D01*
X3744Y3003D01*
X3704Y3003D01*
X3629Y3007D01*
X3606Y3010D01*
X3587Y3014D01*
X3585Y3014D01*
X3300Y3300D01*
X3227Y3356D01*
X3141Y3391D01*
X3050Y3403D01*
X1446D01*
X782Y4067D01*
Y4267D01*
X832Y4306D01*
X929Y4297D01*
X1057Y4309D01*
X1179Y4347D01*
X1292Y4407D01*
X1391Y4488D01*
X1404Y4504D01*
X1454D01*
X1467Y4488D01*
X1566Y4407D01*
X1679Y4347D01*
X1802Y4309D01*
X1929Y4297D01*
X2057Y4309D01*
X2179Y4347D01*
X2292Y4407D01*
X2391Y4488D01*
X2404Y4504D01*
X2454D01*
X2467Y4488D01*
X2566Y4407D01*
X2679Y4347D01*
X2802Y4309D01*
X2929Y4297D01*
X3057Y4309D01*
X3179Y4347D01*
X3292Y4407D01*
X3391Y4488D01*
X3404Y4504D01*
X3454D01*
X3467Y4488D01*
X3566Y4407D01*
X3679Y4347D01*
X3802Y4309D01*
X3929Y4297D01*
X4057Y4309D01*
X4179Y4347D01*
X4292Y4407D01*
X4391Y4488D01*
X4404Y4504D01*
X4454D01*
X4467Y4488D01*
X4566Y4407D01*
X4679Y4347D01*
X4802Y4309D01*
X4929Y4297D01*
X5057Y4309D01*
X5179Y4347D01*
X5292Y4407D01*
X5391Y4488D01*
X5404Y4504D01*
X5454D01*
X5467Y4488D01*
D02*
G37*
G36*
X23160Y4413D02*
X23182Y4400D01*
X23208Y4387D01*
X23238Y4377D01*
X23271Y4368D01*
X23309Y4361D01*
X23350Y4356D01*
X23444Y4350D01*
X23496Y4350D01*
X23150Y4004D01*
X23150Y4056D01*
X23144Y4150D01*
X23139Y4191D01*
X23132Y4229D01*
X23123Y4262D01*
X23113Y4292D01*
X23100Y4318D01*
X23087Y4340D01*
X23071Y4358D01*
X23142Y4429D01*
X23160Y4413D01*
D02*
G37*
G36*
X37055Y3866D02*
X37035Y3845D01*
X37004Y3808D01*
X36993Y3792D01*
X36984Y3777D01*
X36978Y3764D01*
X36975Y3752D01*
X36975Y3741D01*
X36978Y3732D01*
X36983Y3725D01*
X36843Y3865D01*
X36851Y3859D01*
X36860Y3857D01*
X36871Y3857D01*
X36883Y3860D01*
X36896Y3865D01*
X36911Y3874D01*
X36927Y3885D01*
X36945Y3900D01*
X36985Y3937D01*
X37055Y3866D01*
D02*
G37*
G36*
X36308Y3917D02*
X36345Y3885D01*
X36361Y3874D01*
X36376Y3865D01*
X36389Y3860D01*
X36401Y3857D01*
X36412Y3857D01*
X36421Y3859D01*
X36428Y3865D01*
X36288Y3725D01*
X36294Y3732D01*
X36296Y3741D01*
X36296Y3752D01*
X36293Y3764D01*
X36288Y3777D01*
X36279Y3792D01*
X36268Y3808D01*
X36253Y3826D01*
X36216Y3866D01*
X36287Y3937D01*
X36308Y3917D01*
D02*
G37*
G36*
X22497Y3650D02*
X22444Y3650D01*
X22350Y3644D01*
X22309Y3639D01*
X22271Y3632D01*
X22238Y3623D01*
X22208Y3613D01*
X22182Y3600D01*
X22160Y3587D01*
X22142Y3571D01*
X22071Y3642D01*
X22087Y3660D01*
X22100Y3682D01*
X22113Y3708D01*
X22123Y3738D01*
X22132Y3771D01*
X22139Y3809D01*
X22144Y3850D01*
X22150Y3944D01*
X22150Y3997D01*
X22497Y3650D01*
D02*
G37*
G36*
X24659Y3688D02*
X24323Y3503D01*
X24210Y3531D01*
X24229Y3552D01*
X24243Y3575D01*
X24252Y3600D01*
X24257Y3626D01*
X24259Y3654D01*
X24255Y3684D01*
X24248Y3715D01*
X24236Y3749D01*
X24220Y3784D01*
X24200Y3820D01*
X24659Y3688D01*
D02*
G37*
G36*
X10481Y2884D02*
X10487Y2858D01*
X10497Y2832D01*
X10511Y2804D01*
X10529Y2775D01*
X10551Y2745D01*
X10577Y2714D01*
X10607Y2682D01*
X10680Y2614D01*
X10191Y2585D01*
X10226Y2626D01*
X10311Y2736D01*
X10332Y2769D01*
X10349Y2799D01*
X10362Y2828D01*
X10372Y2855D01*
X10377Y2880D01*
X10379Y2903D01*
X10479Y2909D01*
X10481Y2884D01*
D02*
G37*
G36*
X9282Y2840D02*
X9296Y2831D01*
X9341Y2804D01*
X9609Y2662D01*
X9150Y2530D01*
X9170Y2566D01*
X9186Y2601D01*
X9198Y2635D01*
X9205Y2666D01*
X9209Y2696D01*
X9207Y2724D01*
X9202Y2750D01*
X9193Y2775D01*
X9179Y2798D01*
X9160Y2819D01*
X9273Y2847D01*
X9282Y2840D01*
D02*
G37*
G36*
X8110Y2763D02*
X8132Y2750D01*
X8158Y2737D01*
X8188Y2727D01*
X8221Y2718D01*
X8259Y2711D01*
X8300Y2706D01*
X8394Y2700D01*
X8446Y2700D01*
X8100Y2353D01*
X8100Y2406D01*
X8094Y2500D01*
X8089Y2541D01*
X8082Y2579D01*
X8073Y2612D01*
X8063Y2642D01*
X8050Y2668D01*
X8037Y2690D01*
X8021Y2708D01*
X8092Y2779D01*
X8110Y2763D01*
D02*
G37*
G36*
X3410D02*
X3432Y2750D01*
X3458Y2737D01*
X3488Y2727D01*
X3521Y2718D01*
X3559Y2711D01*
X3600Y2706D01*
X3694Y2700D01*
X3747Y2700D01*
X3400Y2353D01*
X3400Y2406D01*
X3394Y2500D01*
X3389Y2541D01*
X3382Y2579D01*
X3373Y2612D01*
X3363Y2642D01*
X3350Y2668D01*
X3337Y2690D01*
X3321Y2708D01*
X3392Y2779D01*
X3410Y2763D01*
D02*
G37*
G36*
X16500Y2294D02*
X16506Y2200D01*
X16511Y2159D01*
X16518Y2121D01*
X16527Y2088D01*
X16537Y2058D01*
X16550Y2032D01*
X16563Y2010D01*
X16579Y1992D01*
X16508Y1921D01*
X16490Y1937D01*
X16468Y1950D01*
X16442Y1963D01*
X16412Y1973D01*
X16379Y1982D01*
X16341Y1989D01*
X16300Y1994D01*
X16206Y2000D01*
X16154Y2000D01*
X16500Y2347D01*
X16500Y2294D01*
D02*
G37*
G36*
X15500D02*
X15506Y2200D01*
X15511Y2159D01*
X15518Y2121D01*
X15527Y2088D01*
X15537Y2058D01*
X15550Y2032D01*
X15563Y2010D01*
X15579Y1992D01*
X15508Y1921D01*
X15490Y1937D01*
X15468Y1950D01*
X15442Y1963D01*
X15412Y1973D01*
X15379Y1982D01*
X15341Y1989D01*
X15300Y1994D01*
X15206Y2000D01*
X15153Y2000D01*
X15500Y2347D01*
X15500Y2294D01*
D02*
G37*
G36*
X5100D02*
X5106Y2200D01*
X5111Y2159D01*
X5118Y2121D01*
X5127Y2088D01*
X5137Y2058D01*
X5150Y2032D01*
X5163Y2010D01*
X5179Y1992D01*
X5108Y1921D01*
X5090Y1937D01*
X5068Y1950D01*
X5042Y1963D01*
X5012Y1973D01*
X4979Y1982D01*
X4941Y1989D01*
X4900Y1994D01*
X4806Y2000D01*
X4753Y2000D01*
X5100Y2347D01*
X5100Y2294D01*
D02*
G37*
G36*
X4746Y2000D02*
X4694Y2000D01*
X4600Y1994D01*
X4559Y1989D01*
X4521Y1982D01*
X4488Y1973D01*
X4458Y1963D01*
X4432Y1950D01*
X4410Y1937D01*
X4392Y1921D01*
X4321Y1992D01*
X4337Y2010D01*
X4350Y2032D01*
X4363Y2058D01*
X4373Y2088D01*
X4382Y2121D01*
X4389Y2159D01*
X4394Y2200D01*
X4400Y2294D01*
X4400Y2347D01*
X4746Y2000D01*
D02*
G37*
G36*
X14810Y1763D02*
X14832Y1750D01*
X14858Y1737D01*
X14888Y1727D01*
X14921Y1718D01*
X14959Y1711D01*
X15000Y1706D01*
X15094Y1700D01*
X15146Y1700D01*
X14800Y1354D01*
X14800Y1406D01*
X14794Y1500D01*
X14789Y1541D01*
X14782Y1579D01*
X14773Y1612D01*
X14763Y1642D01*
X14750Y1668D01*
X14737Y1690D01*
X14721Y1708D01*
X14792Y1779D01*
X14810Y1763D01*
D02*
G37*
G36*
X10879Y1708D02*
X10863Y1690D01*
X10850Y1668D01*
X10837Y1642D01*
X10827Y1612D01*
X10818Y1579D01*
X10811Y1541D01*
X10806Y1500D01*
X10800Y1406D01*
X10800Y1354D01*
X10453Y1700D01*
X10506Y1700D01*
X10600Y1706D01*
X10641Y1711D01*
X10679Y1718D01*
X10712Y1727D01*
X10742Y1737D01*
X10768Y1750D01*
X10790Y1763D01*
X10808Y1779D01*
X10879Y1708D01*
D02*
G37*
G36*
X9110Y1763D02*
X9132Y1750D01*
X9158Y1737D01*
X9188Y1727D01*
X9221Y1718D01*
X9259Y1711D01*
X9300Y1706D01*
X9394Y1700D01*
X9446Y1700D01*
X9100Y1354D01*
X9100Y1406D01*
X9094Y1500D01*
X9089Y1541D01*
X9082Y1579D01*
X9073Y1612D01*
X9063Y1642D01*
X9050Y1668D01*
X9037Y1690D01*
X9021Y1708D01*
X9092Y1779D01*
X9110Y1763D01*
D02*
G37*
G36*
X8110D02*
X8132Y1750D01*
X8158Y1737D01*
X8188Y1727D01*
X8221Y1718D01*
X8259Y1711D01*
X8300Y1706D01*
X8394Y1700D01*
X8446Y1700D01*
X8100Y1354D01*
X8100Y1406D01*
X8094Y1500D01*
X8089Y1541D01*
X8082Y1579D01*
X8073Y1612D01*
X8063Y1642D01*
X8050Y1668D01*
X8037Y1690D01*
X8021Y1708D01*
X8092Y1779D01*
X8110Y1763D01*
D02*
G37*
G36*
X3410D02*
X3432Y1750D01*
X3458Y1737D01*
X3488Y1727D01*
X3521Y1718D01*
X3559Y1711D01*
X3600Y1706D01*
X3694Y1700D01*
X3747Y1700D01*
X3400Y1354D01*
X3400Y1406D01*
X3394Y1500D01*
X3389Y1541D01*
X3382Y1579D01*
X3373Y1612D01*
X3363Y1642D01*
X3350Y1668D01*
X3337Y1690D01*
X3321Y1708D01*
X3392Y1779D01*
X3410Y1763D01*
D02*
G37*
G36*
X7200Y1105D02*
X7163Y1142D01*
X7092Y1204D01*
X7059Y1230D01*
X7028Y1251D01*
X6998Y1269D01*
X6970Y1282D01*
X6943Y1292D01*
X6917Y1298D01*
X6894Y1300D01*
Y1400D01*
X6917Y1402D01*
X6943Y1408D01*
X6970Y1418D01*
X6998Y1431D01*
X7028Y1449D01*
X7059Y1470D01*
X7092Y1496D01*
X7163Y1558D01*
X7200Y1595D01*
Y1105D01*
D02*
G37*
G36*
X24250Y755D02*
X24213Y792D01*
X24142Y854D01*
X24109Y880D01*
X24078Y901D01*
X24048Y919D01*
X24020Y932D01*
X24000Y940D01*
X23980Y932D01*
X23952Y919D01*
X23922Y901D01*
X23891Y880D01*
X23858Y854D01*
X23787Y792D01*
X23750Y755D01*
Y1245D01*
X23787Y1208D01*
X23858Y1146D01*
X23891Y1120D01*
X23922Y1099D01*
X23952Y1081D01*
X23980Y1068D01*
X24000Y1060D01*
X24020Y1068D01*
X24048Y1081D01*
X24078Y1099D01*
X24109Y1120D01*
X24142Y1146D01*
X24213Y1208D01*
X24250Y1245D01*
Y755D01*
D02*
G37*
G36*
X23250D02*
X23213Y792D01*
X23142Y854D01*
X23109Y880D01*
X23078Y901D01*
X23048Y919D01*
X23020Y932D01*
X23000Y940D01*
X22980Y932D01*
X22952Y919D01*
X22922Y901D01*
X22891Y880D01*
X22858Y854D01*
X22787Y792D01*
X22750Y755D01*
Y1245D01*
X22787Y1208D01*
X22858Y1146D01*
X22891Y1120D01*
X22922Y1099D01*
X22952Y1081D01*
X22980Y1068D01*
X23000Y1060D01*
X23020Y1068D01*
X23048Y1081D01*
X23078Y1099D01*
X23109Y1120D01*
X23142Y1146D01*
X23213Y1208D01*
X23250Y1245D01*
Y755D01*
D02*
G37*
G36*
X22250D02*
X22213Y792D01*
X22142Y854D01*
X22109Y880D01*
X22078Y901D01*
X22048Y919D01*
X22020Y932D01*
X22000Y940D01*
X21980Y932D01*
X21952Y919D01*
X21922Y901D01*
X21891Y880D01*
X21858Y854D01*
X21787Y792D01*
X21750Y755D01*
Y1245D01*
X21787Y1208D01*
X21858Y1146D01*
X21891Y1120D01*
X21922Y1099D01*
X21952Y1081D01*
X21980Y1068D01*
X22000Y1060D01*
X22020Y1068D01*
X22048Y1081D01*
X22078Y1099D01*
X22109Y1120D01*
X22142Y1146D01*
X22213Y1208D01*
X22250Y1245D01*
Y755D01*
D02*
G37*
G36*
X5100Y1294D02*
X5106Y1200D01*
X5111Y1159D01*
X5118Y1121D01*
X5127Y1088D01*
X5137Y1058D01*
X5150Y1032D01*
X5163Y1010D01*
X5179Y992D01*
X5108Y921D01*
X5090Y937D01*
X5068Y950D01*
X5042Y963D01*
X5012Y973D01*
X4979Y982D01*
X4941Y989D01*
X4900Y994D01*
X4806Y1000D01*
X4753Y1000D01*
X5100Y1347D01*
X5100Y1294D01*
D02*
G37*
G36*
X16301Y1032D02*
X16280Y1016D01*
X16261Y999D01*
X16245Y981D01*
X16231Y962D01*
X16220Y941D01*
X16211Y920D01*
X16205Y898D01*
X16201Y874D01*
X16200Y850D01*
X16100D01*
X16099Y874D01*
X16095Y898D01*
X16089Y920D01*
X16080Y941D01*
X16069Y962D01*
X16055Y981D01*
X16039Y999D01*
X16020Y1016D01*
X15999Y1032D01*
X15975Y1047D01*
X16325D01*
X16301Y1032D01*
D02*
G37*
G36*
X34524Y1253D02*
X34546Y1240D01*
X34572Y1227D01*
X34602Y1217D01*
X34636Y1208D01*
X34673Y1201D01*
X34714Y1196D01*
X34808Y1190D01*
X34861Y1190D01*
X34514Y843D01*
X34514Y896D01*
X34508Y990D01*
X34503Y1031D01*
X34496Y1069D01*
X34487Y1102D01*
X34477Y1132D01*
X34465Y1158D01*
X34451Y1180D01*
X34435Y1198D01*
X34506Y1269D01*
X34524Y1253D01*
D02*
G37*
G36*
X30024D02*
X30046Y1240D01*
X30072Y1227D01*
X30102Y1217D01*
X30136Y1208D01*
X30173Y1201D01*
X30214Y1196D01*
X30308Y1190D01*
X30361Y1190D01*
X30014Y843D01*
X30014Y896D01*
X30008Y990D01*
X30003Y1031D01*
X29996Y1069D01*
X29987Y1102D01*
X29977Y1132D01*
X29965Y1158D01*
X29951Y1180D01*
X29935Y1198D01*
X30006Y1269D01*
X30024Y1253D01*
D02*
G37*
G36*
X25524D02*
X25546Y1240D01*
X25572Y1227D01*
X25602Y1217D01*
X25636Y1208D01*
X25673Y1201D01*
X25714Y1196D01*
X25808Y1190D01*
X25861Y1190D01*
X25514Y843D01*
X25514Y896D01*
X25508Y990D01*
X25503Y1031D01*
X25496Y1069D01*
X25487Y1102D01*
X25477Y1132D01*
X25465Y1158D01*
X25451Y1180D01*
X25435Y1198D01*
X25506Y1269D01*
X25524Y1253D01*
D02*
G37*
G36*
X34200Y1005D02*
X34200Y1003D01*
X34204Y984D01*
X34207Y961D01*
X34211Y886D01*
X34212Y846D01*
X34211Y840D01*
X34224Y713D01*
X34229Y693D01*
X34200Y653D01*
X32590D01*
X32563Y695D01*
X32574Y723D01*
X32583Y790D01*
X32136D01*
Y840D01*
X32086D01*
Y1287D01*
X32018Y1278D01*
X31909Y1233D01*
X31815Y1161D01*
X31797Y1138D01*
X31788Y1139D01*
X31787Y1139D01*
X31786Y1139D01*
X31748Y1134D01*
X31709Y1129D01*
X31708Y1129D01*
X31708Y1129D01*
X31672Y1114D01*
X31636Y1099D01*
X31635Y1099D01*
X31635Y1099D01*
X31604Y1075D01*
X31573Y1052D01*
X31573Y1051D01*
X31572Y1050D01*
X31548Y1020D01*
X31525Y989D01*
X31524Y988D01*
X31524Y988D01*
X31509Y952D01*
X31494Y916D01*
X31494Y916D01*
X31494Y915D01*
X31489Y877D01*
X31483Y838D01*
X31483Y794D01*
X31478Y719D01*
X31476Y696D01*
X31472Y677D01*
X31471Y675D01*
X31450Y653D01*
X31029D01*
X30999Y693D01*
X31005Y713D01*
X31017Y840D01*
X31005Y967D01*
X30968Y1090D01*
X30907Y1203D01*
X30826Y1302D01*
X30727Y1383D01*
X30614Y1443D01*
X30492Y1481D01*
X30364Y1493D01*
X30359Y1493D01*
X30318Y1493D01*
X30243Y1497D01*
X30220Y1500D01*
X30202Y1504D01*
X30199Y1504D01*
X29603Y2101D01*
X29622Y2147D01*
X33058D01*
X34200Y1005D01*
D02*
G37*
G36*
X29700Y1005D02*
X29700Y1003D01*
X29704Y984D01*
X29707Y961D01*
X29711Y886D01*
X29712Y846D01*
X29711Y840D01*
X29724Y713D01*
X29729Y693D01*
X29700Y653D01*
X28090D01*
X28063Y695D01*
X28074Y723D01*
X28083Y790D01*
X27636D01*
Y840D01*
X27586D01*
Y1287D01*
X27518Y1278D01*
X27409Y1233D01*
X27315Y1161D01*
X27297Y1138D01*
X27288Y1139D01*
X27287Y1139D01*
X27286Y1139D01*
X27248Y1134D01*
X27209Y1129D01*
X27208Y1129D01*
X27208Y1129D01*
X27172Y1114D01*
X27136Y1099D01*
X27135Y1099D01*
X27135Y1099D01*
X27104Y1075D01*
X27073Y1052D01*
X27073Y1051D01*
X27072Y1050D01*
X27048Y1020D01*
X27025Y989D01*
X27024Y988D01*
X27024Y988D01*
X27009Y952D01*
X26994Y916D01*
X26994Y916D01*
X26994Y915D01*
X26989Y877D01*
X26983Y838D01*
X26983Y794D01*
X26978Y719D01*
X26976Y696D01*
X26972Y677D01*
X26971Y675D01*
X26950Y653D01*
X26529D01*
X26499Y693D01*
X26505Y713D01*
X26517Y840D01*
X26505Y967D01*
X26468Y1090D01*
X26407Y1203D01*
X26326Y1302D01*
X26227Y1383D01*
X26114Y1443D01*
X25992Y1481D01*
X25864Y1493D01*
X25859Y1493D01*
X25818Y1493D01*
X25743Y1497D01*
X25720Y1500D01*
X25702Y1504D01*
X25699Y1504D01*
X25553Y1651D01*
X25572Y1697D01*
X29008D01*
X29700Y1005D01*
D02*
G37*
G36*
X24850Y944D02*
X24856Y850D01*
X24861Y809D01*
X24868Y771D01*
X24877Y738D01*
X24887Y708D01*
X24900Y682D01*
X24913Y660D01*
X24929Y642D01*
X24858Y571D01*
X24840Y587D01*
X24818Y600D01*
X24792Y613D01*
X24762Y623D01*
X24729Y632D01*
X24691Y639D01*
X24650Y644D01*
X24556Y650D01*
X24504Y650D01*
X24850Y997D01*
X24850Y944D01*
D02*
G37*
G36*
X21250Y896D02*
X21497Y650D01*
X21444Y650D01*
X21350Y644D01*
X21309Y639D01*
X21271Y632D01*
X21238Y623D01*
X21208Y613D01*
X21182Y600D01*
X21160Y587D01*
X21142Y571D01*
X21071Y642D01*
X21087Y660D01*
X21100Y682D01*
X21113Y708D01*
X21123Y738D01*
X21132Y771D01*
X21139Y809D01*
X21144Y850D01*
X21144Y853D01*
X21142Y854D01*
X21109Y880D01*
X21078Y901D01*
X21048Y919D01*
X21020Y932D01*
X20993Y942D01*
X20967Y948D01*
X20944Y950D01*
Y1050D01*
X20967Y1052D01*
X20993Y1058D01*
X21020Y1068D01*
X21048Y1081D01*
X21078Y1099D01*
X21109Y1120D01*
X21142Y1146D01*
X21213Y1208D01*
X21250Y1245D01*
Y896D01*
D02*
G37*
G36*
X23550Y530D02*
X23567Y518D01*
X23597Y494D01*
X23598Y493D01*
X23599Y493D01*
X23634Y478D01*
X23670Y463D01*
X23671Y463D01*
X23672Y463D01*
X23710Y458D01*
X23748Y452D01*
X23749Y453D01*
X23750Y452D01*
X23788Y457D01*
X23827Y462D01*
X23827Y463D01*
X23828Y463D01*
X23864Y477D01*
X23900Y492D01*
X23900Y493D01*
X23901Y493D01*
X23932Y516D01*
X23963Y540D01*
X23994Y571D01*
X24000Y576D01*
X24006Y571D01*
X24037Y540D01*
X24068Y516D01*
X24099Y493D01*
X24100Y493D01*
X24100Y492D01*
X24136Y477D01*
X24172Y463D01*
X24173Y463D01*
X24173Y462D01*
X24212Y457D01*
X24250Y452D01*
X24251Y453D01*
X24252Y452D01*
X24274Y456D01*
X24288Y437D01*
X24289Y437D01*
X24290Y436D01*
X24320Y413D01*
X24351Y389D01*
X24352Y388D01*
X24352Y388D01*
X24388Y373D01*
X24424Y358D01*
X24424Y358D01*
X24425Y358D01*
X24463Y353D01*
X24502Y347D01*
X24546Y347D01*
X24621Y343D01*
X24644Y340D01*
X24663Y336D01*
X24665Y336D01*
X24950Y50D01*
X24950Y50D01*
X24954Y47D01*
X24938Y0D01*
X21065D01*
X21045Y46D01*
X21335Y336D01*
X21337Y336D01*
X21356Y340D01*
X21379Y343D01*
X21454Y347D01*
X21498Y347D01*
X21536Y353D01*
X21575Y358D01*
X21576Y358D01*
X21576Y358D01*
X21612Y373D01*
X21648Y388D01*
X21648Y388D01*
X21649Y389D01*
X21680Y412D01*
X21710Y436D01*
X21711Y437D01*
X21712Y437D01*
X21726Y456D01*
X21748Y452D01*
X21749Y453D01*
X21750Y452D01*
X21788Y457D01*
X21827Y462D01*
X21827Y463D01*
X21828Y463D01*
X21864Y477D01*
X21900Y492D01*
X21900Y493D01*
X21901Y493D01*
X21932Y516D01*
X21963Y540D01*
X21994Y571D01*
X22000Y576D01*
X22006Y571D01*
X22037Y540D01*
X22068Y516D01*
X22099Y493D01*
X22100Y493D01*
X22100Y492D01*
X22136Y477D01*
X22172Y463D01*
X22173Y463D01*
X22173Y462D01*
X22212Y457D01*
X22250Y452D01*
X22251Y453D01*
X22252Y452D01*
X22290Y458D01*
X22328Y463D01*
X22329Y463D01*
X22330Y463D01*
X22366Y478D01*
X22401Y493D01*
X22402Y493D01*
X22403Y494D01*
X22433Y517D01*
X22450Y530D01*
Y1000D01*
X22550D01*
Y530D01*
X22567Y518D01*
X22597Y494D01*
X22598Y493D01*
X22599Y493D01*
X22634Y478D01*
X22670Y463D01*
X22671Y463D01*
X22672Y463D01*
X22710Y458D01*
X22748Y452D01*
X22749Y453D01*
X22750Y452D01*
X22788Y457D01*
X22827Y462D01*
X22827Y463D01*
X22828Y463D01*
X22864Y477D01*
X22900Y492D01*
X22900Y493D01*
X22901Y493D01*
X22932Y516D01*
X22963Y540D01*
X22994Y571D01*
X23000Y576D01*
X23006Y571D01*
X23037Y540D01*
X23068Y516D01*
X23099Y493D01*
X23100Y493D01*
X23100Y492D01*
X23136Y477D01*
X23172Y463D01*
X23173Y463D01*
X23173Y462D01*
X23212Y457D01*
X23250Y452D01*
X23251Y453D01*
X23252Y452D01*
X23290Y458D01*
X23328Y463D01*
X23329Y463D01*
X23330Y463D01*
X23366Y478D01*
X23401Y493D01*
X23402Y493D01*
X23403Y494D01*
X23433Y517D01*
X23450Y530D01*
Y1000D01*
X23550D01*
Y530D01*
D02*
G37*
G36*
X36632Y490D02*
X36580Y490D01*
X36486Y484D01*
X36445Y479D01*
X36407Y472D01*
X36374Y463D01*
X36344Y453D01*
X36318Y440D01*
X36296Y427D01*
X36278Y411D01*
X36207Y482D01*
X36223Y500D01*
X36236Y522D01*
X36248Y548D01*
X36259Y578D01*
X36268Y611D01*
X36275Y649D01*
X36280Y690D01*
X36286Y784D01*
X36286Y837D01*
X36632Y490D01*
D02*
G37*
G36*
X32132D02*
X32080Y490D01*
X31986Y484D01*
X31945Y479D01*
X31907Y472D01*
X31874Y463D01*
X31844Y453D01*
X31818Y440D01*
X31796Y427D01*
X31781Y414D01*
X31775Y407D01*
X31766Y395D01*
X31760Y385D01*
X31758Y375D01*
X31759Y368D01*
X31764Y361D01*
X31772Y356D01*
X31783Y353D01*
X31798Y351D01*
X31817Y350D01*
X31596Y250D01*
X31475Y350D01*
X31495Y351D01*
X31514Y353D01*
X31532Y356D01*
X31550Y361D01*
X31568Y368D01*
X31585Y375D01*
X31601Y385D01*
X31616Y395D01*
X31631Y407D01*
X31646Y421D01*
X31768D01*
X31707Y482D01*
X31723Y500D01*
X31736Y522D01*
X31748Y548D01*
X31759Y578D01*
X31768Y611D01*
X31775Y649D01*
X31780Y690D01*
X31786Y784D01*
X31786Y837D01*
X32132Y490D01*
D02*
G37*
G36*
X27632D02*
X27580Y490D01*
X27486Y484D01*
X27445Y479D01*
X27407Y472D01*
X27374Y463D01*
X27344Y453D01*
X27318Y440D01*
X27296Y427D01*
X27281Y414D01*
X27275Y407D01*
X27266Y395D01*
X27260Y385D01*
X27258Y375D01*
X27259Y368D01*
X27264Y361D01*
X27272Y356D01*
X27283Y353D01*
X27298Y351D01*
X27317Y350D01*
X27096Y250D01*
X26975Y350D01*
X26995Y351D01*
X27014Y353D01*
X27032Y356D01*
X27050Y361D01*
X27068Y368D01*
X27085Y375D01*
X27101Y385D01*
X27116Y395D01*
X27131Y407D01*
X27146Y421D01*
X27268D01*
X27207Y482D01*
X27222Y500D01*
X27236Y522D01*
X27248Y548D01*
X27259Y578D01*
X27268Y611D01*
X27275Y649D01*
X27280Y690D01*
X27286Y784D01*
X27286Y837D01*
X27632Y490D01*
D02*
G37*
%LPC*%
G36*
X32586Y3967D02*
X32186D01*
Y3567D01*
X32586D01*
Y3967D01*
D02*
G37*
G36*
X28086D02*
X27686D01*
Y3567D01*
X28086D01*
Y3967D01*
D02*
G37*
G36*
X32086D02*
X31686D01*
Y3567D01*
X32086D01*
Y3967D01*
D02*
G37*
G36*
X27586D02*
X27186D01*
Y3567D01*
X27586D01*
Y3967D01*
D02*
G37*
G36*
X32586Y3467D02*
X32186D01*
Y3067D01*
X32586D01*
Y3467D01*
D02*
G37*
G36*
X32086D02*
X31686D01*
Y3067D01*
X32086D01*
Y3467D01*
D02*
G37*
G36*
X28086D02*
X27686D01*
Y3067D01*
X28086D01*
Y3467D01*
D02*
G37*
G36*
X27586D02*
X27186D01*
Y3067D01*
X27586D01*
Y3467D01*
D02*
G37*
G36*
X34864Y4170D02*
X34737Y4158D01*
X34614Y4121D01*
X34501Y4060D01*
X34402Y3979D01*
X34321Y3880D01*
X34261Y3767D01*
X34224Y3645D01*
X34211Y3517D01*
X34224Y3390D01*
X34261Y3267D01*
X34321Y3154D01*
X34402Y3055D01*
X34501Y2974D01*
X34614Y2914D01*
X34737Y2877D01*
X34864Y2864D01*
X34992Y2877D01*
X35114Y2914D01*
X35227Y2974D01*
X35326Y3055D01*
X35407Y3154D01*
X35468Y3267D01*
X35505Y3390D01*
X35517Y3517D01*
X35505Y3645D01*
X35468Y3767D01*
X35407Y3880D01*
X35326Y3979D01*
X35227Y4060D01*
X35114Y4121D01*
X34992Y4158D01*
X34864Y4170D01*
D02*
G37*
G36*
X33497Y22400D02*
X33100D01*
Y22003D01*
X33167Y22012D01*
X33277Y22057D01*
X33371Y22129D01*
X33443Y22223D01*
X33488Y22333D01*
X33497Y22400D01*
D02*
G37*
G36*
X31000D02*
X30603D01*
X30612Y22333D01*
X30657Y22223D01*
X30729Y22129D01*
X30823Y22057D01*
X30933Y22012D01*
X31000Y22003D01*
Y22400D01*
D02*
G37*
G36*
X31060Y18409D02*
X30775D01*
Y18100D01*
X31412D01*
X31407Y18143D01*
X31371Y18229D01*
X31314Y18304D01*
X31239Y18361D01*
X31153Y18397D01*
X31060Y18409D01*
D02*
G37*
G36*
X31412Y13000D02*
X30775D01*
Y12691D01*
X31060D01*
X31153Y12703D01*
X31239Y12739D01*
X31314Y12796D01*
X31371Y12871D01*
X31407Y12957D01*
X31412Y13000D01*
D02*
G37*
G36*
X36536Y9355D02*
X36392Y9336D01*
X36258Y9280D01*
X36144Y9192D01*
X36055Y9077D01*
X36000Y8944D01*
X35981Y8800D01*
X35983Y8787D01*
X35982Y8752D01*
X35981Y8744D01*
X35363Y8126D01*
X35306Y8053D01*
X35299Y8034D01*
X34722D01*
Y5466D01*
X36503D01*
Y8034D01*
X36335D01*
X36316Y8080D01*
X36480Y8245D01*
X36513Y8247D01*
X36520Y8247D01*
X36536Y8245D01*
X36679Y8264D01*
X36813Y8320D01*
X36928Y8408D01*
X37016Y8523D01*
X37072Y8656D01*
X37091Y8800D01*
X37072Y8944D01*
X37016Y9077D01*
X36928Y9192D01*
X36813Y9280D01*
X36679Y9336D01*
X36536Y9355D01*
D02*
G37*
%LPD*%
G36*
X36533Y8550D02*
X36499Y8550D01*
X36438Y8545D01*
X36411Y8541D01*
X36385Y8535D01*
X36362Y8528D01*
X36342Y8519D01*
X36323Y8509D01*
X36306Y8498D01*
X36292Y8485D01*
X36221Y8556D01*
X36234Y8570D01*
X36245Y8587D01*
X36255Y8606D01*
X36263Y8627D01*
X36271Y8650D01*
X36276Y8675D01*
X36281Y8702D01*
X36284Y8732D01*
X36286Y8798D01*
X36533Y8550D01*
D02*
G37*
G36*
X35663Y7814D02*
X35664Y7797D01*
X35667Y7781D01*
X35670Y7768D01*
X35675Y7757D01*
X35680Y7748D01*
X35687Y7741D01*
X35694Y7736D01*
X35703Y7733D01*
X35712Y7732D01*
X35512D01*
X35522Y7733D01*
X35530Y7736D01*
X35538Y7741D01*
X35544Y7748D01*
X35550Y7757D01*
X35554Y7768D01*
X35558Y7781D01*
X35560Y7797D01*
X35562Y7814D01*
X35562Y7833D01*
X35662D01*
X35663Y7814D01*
D02*
G37*
%LPC*%
G36*
X32186Y1287D02*
Y890D01*
X32583D01*
X32574Y957D01*
X32529Y1067D01*
X32457Y1161D01*
X32363Y1233D01*
X32253Y1278D01*
X32186Y1287D01*
D02*
G37*
G36*
X27686D02*
Y890D01*
X28083D01*
X28074Y957D01*
X28029Y1067D01*
X27957Y1161D01*
X27863Y1233D01*
X27753Y1278D01*
X27686Y1287D01*
D02*
G37*
%LPD*%
D11*
X14917Y6850D02*
X16429Y8362D01*
X2536Y6850D02*
X14917D01*
X2136Y6450D02*
X2536Y6850D01*
X15000Y6650D02*
X16950Y8600D01*
X2629Y6650D02*
X15000D01*
X1929Y5950D02*
X2629Y6650D01*
X15136Y6450D02*
X15429Y6157D01*
X12700Y6450D02*
X15136D01*
X12429Y6179D02*
X12700Y6450D01*
X16950Y16678D02*
X17722Y17450D01*
X16950Y8600D02*
Y16678D01*
X17200Y10928D02*
X17722Y11450D01*
X17200Y8516D02*
Y10928D01*
X16429Y7745D02*
X17200Y8516D01*
X16429Y5450D02*
Y7745D01*
X16950Y5929D02*
Y7983D01*
X16929Y5950D02*
X16950Y5929D01*
X17229Y7979D02*
X17700Y8450D01*
X17229Y6471D02*
Y7979D01*
Y6471D02*
X17429Y6271D01*
X17400Y10128D02*
X17722Y10450D01*
X17400Y8433D02*
Y10128D01*
X16950Y7983D02*
X17400Y8433D01*
X15929Y4950D02*
X16429Y5450D01*
X17722Y10450D02*
X18136D01*
X16429Y8362D02*
Y19450D01*
Y19479D02*
Y20157D01*
X18222Y21950D02*
X21107D01*
X16429Y20157D02*
X18222Y21950D01*
X17722Y11450D02*
X18136D01*
X18429Y11157D02*
X18722Y11450D01*
X18429Y10743D02*
Y11157D01*
X18136Y10450D02*
X18429Y10743D01*
Y10450D02*
X19500D01*
X17929Y9950D02*
X18429Y10450D01*
X17722Y17450D02*
X19250D01*
X18429Y15450D02*
X19633D01*
X18429Y16450D02*
X20050D01*
X18929Y14950D02*
X19450D01*
X26400Y21900D01*
X19633Y15450D02*
X25900Y21717D01*
X19686Y14781D02*
X26405Y21500D01*
X19686Y14000D02*
Y14781D01*
X18429Y13157D02*
X18722Y13450D01*
X18429Y12450D02*
Y13157D01*
X18722Y12450D02*
X19429D01*
X18429Y12157D02*
X18722Y12450D01*
X1929Y13950D02*
Y14950D01*
X13429Y19450D02*
X13929Y18950D01*
X1722Y6450D02*
X2136D01*
X1429Y6157D02*
X1722Y6450D01*
X22200Y24150D02*
X22900Y23450D01*
X21400Y24400D02*
X35650D01*
X21050Y24600D02*
X36200D01*
X21650Y24150D02*
X22200D01*
X20900Y23900D02*
X21400Y24400D01*
X35650D02*
X36600Y23450D01*
X19900D02*
X21050Y24600D01*
X36200D02*
X37150Y23650D01*
X22400Y22950D02*
X24107D01*
X21900Y23450D02*
X22400Y22950D01*
X22950Y21500D02*
X23900Y22450D01*
X21450Y21500D02*
X22950D01*
X21600Y18800D02*
X24400Y21600D01*
X19400Y19450D02*
X21450Y21500D01*
X17429Y19450D02*
X19400D01*
X16929Y18950D02*
X17429Y19450D01*
X24400Y21600D02*
Y22657D01*
X24107Y22950D02*
X24400Y22657D01*
X25900Y23450D02*
X26400Y22950D01*
Y21900D02*
Y22950D01*
X25900Y21717D02*
Y22450D01*
X17929Y14950D02*
X18429Y15450D01*
X25400Y21500D02*
Y22950D01*
X24900Y23450D02*
X25400Y22950D01*
X19850Y15950D02*
X25400Y21500D01*
X18929Y15950D02*
X19850D01*
X24900Y21300D02*
Y22450D01*
X20050Y16450D02*
X24900Y21300D01*
X17929Y15950D02*
X18429Y16450D01*
X26405Y21500D02*
X33685D01*
X26488Y21300D02*
X33200D01*
X20050Y14400D02*
Y14862D01*
X26488Y21300D01*
X24375Y17275D02*
Y18000D01*
X27350Y20250D02*
X27900Y20800D01*
X26625Y20250D02*
X27350D01*
X24375Y18000D02*
X26625Y20250D01*
X27100Y19950D02*
X28050D01*
X25400Y18250D02*
X27100Y19950D01*
X21600Y14500D02*
X24375Y17275D01*
X28050Y19950D02*
X28900Y20800D01*
X11429Y3171D02*
Y5450D01*
X929Y4950D02*
X1429Y5450D01*
Y6157D01*
X13150Y20436D02*
X13429Y20157D01*
Y19450D02*
Y20157D01*
X6429Y4371D02*
Y5321D01*
X5929Y5821D02*
X6429Y5321D01*
X5929Y5821D02*
Y5950D01*
X7429Y4621D02*
X9450Y2600D01*
X7429Y4621D02*
Y5450D01*
X18429Y11743D02*
Y12157D01*
X18136Y11450D02*
X18429Y11743D01*
X18722Y11450D02*
X20550D01*
X18722Y13450D02*
X19136D01*
X17929Y11950D02*
X18429Y12450D01*
X19250Y17450D02*
X21600Y19800D01*
X21900Y23200D02*
Y23450D01*
X21400Y22243D02*
Y23900D01*
X21107Y21950D02*
X21400Y22243D01*
Y23900D02*
X21650Y24150D01*
X20900Y23450D02*
Y23900D01*
X19136Y13450D02*
X19686Y14000D01*
X28700Y19600D02*
X29900Y20800D01*
X27250Y19600D02*
X28700D01*
X25850Y18200D02*
X27250Y19600D01*
X29687Y18587D02*
X31900Y20800D01*
X27204Y18587D02*
X29687D01*
X26550Y17934D02*
X27204Y18587D01*
X29500Y19150D02*
X30900Y20550D01*
X27250Y19150D02*
X29500D01*
X26250Y18150D02*
X27250Y19150D01*
X25400Y11450D02*
Y18250D01*
X25850Y11450D02*
Y18200D01*
X26250Y11450D02*
Y18150D01*
X26550Y11191D02*
Y17934D01*
X22900Y13050D02*
X24375D01*
X24109Y8750D02*
X26550Y11191D01*
X20100Y8750D02*
X24109D01*
X23850Y9900D02*
X25400Y11450D01*
X18929Y10950D02*
X19500D01*
X20550Y9900D02*
X23850D01*
X19500Y10950D02*
X20550Y9900D01*
X23850Y9450D02*
X25850Y11450D01*
X20500Y9450D02*
X23850D01*
X19500Y10450D02*
X20500Y9450D01*
X30900Y20550D02*
Y20800D01*
X18929Y9950D02*
X19550D01*
X23850Y9050D02*
X26250Y11450D01*
X20450Y9050D02*
X23850D01*
X19550Y9950D02*
X20450Y9050D01*
X18429Y9450D02*
X19400D01*
X17929Y8950D02*
X18429Y9450D01*
X19400D02*
X20100Y8750D01*
X20550Y11450D02*
X21600Y12500D01*
X21900Y14000D02*
X22200Y13700D01*
Y13300D02*
Y13700D01*
X21900Y13000D02*
X22200Y13300D01*
X21393Y13000D02*
X21900D01*
X20450Y14000D02*
X21900D01*
X20050Y14400D02*
X20450Y14000D01*
X19429Y12450D02*
X20479Y13500D01*
X33685Y21500D02*
X34085Y21100D01*
X33200Y21300D02*
X33850Y20650D01*
X34250D01*
X34400Y20800D01*
Y21100D01*
X20343Y11950D02*
X21393Y13000D01*
X18929Y11950D02*
X20343D01*
X21300Y12500D02*
X21600D01*
X20479Y13500D02*
X21600D01*
X17700Y8450D02*
X21300D01*
X18429Y6450D02*
X19350D01*
X17429Y4743D02*
Y6271D01*
X17086Y4400D02*
X17429Y4743D01*
X15772Y4400D02*
X17086D01*
X15429Y4743D02*
X15772Y4400D01*
X14429Y5450D02*
X14929Y5950D01*
X14429Y4521D02*
X14850Y4100D01*
X14429Y4521D02*
Y5450D01*
X14850Y4100D02*
X17800D01*
X14450Y3700D02*
X17150D01*
X13429Y5450D02*
X13929Y5950D01*
X13429Y3938D02*
Y5450D01*
X15429Y4743D02*
Y6157D01*
X12429Y5450D02*
Y6179D01*
Y5450D02*
X12929Y4950D01*
X19400Y2500D02*
X33204D01*
X17800Y4100D02*
X19400Y2500D01*
X18200Y1600D02*
X25104D01*
X16600Y3200D02*
X18200Y1600D01*
X14167Y3200D02*
X16600D01*
X18800Y2050D02*
X29154D01*
X17150Y3700D02*
X18800Y2050D01*
X20150Y2900D02*
X23650D01*
X18429Y4621D02*
X20150Y2900D01*
X18429Y4621D02*
Y6167D01*
X18146Y6450D02*
X18429Y6167D01*
X17650Y6450D02*
X18146D01*
X17429Y6671D02*
X17650Y6450D01*
X17429Y6671D02*
Y7450D01*
X17929Y7950D01*
Y6950D02*
X18429Y6450D01*
X20900Y3300D02*
X21800D01*
X20375Y3825D02*
X20900Y3300D01*
X20375Y3825D02*
Y5425D01*
X19350Y6450D02*
X20375Y5425D01*
X25550Y8150D02*
X27950D01*
X24550Y7150D02*
X25550Y8150D01*
X21600Y7150D02*
X24550D01*
X13429Y3938D02*
X14167Y3200D01*
X13929Y4221D02*
X14450Y3700D01*
X13929Y4221D02*
Y4950D01*
X33204Y2500D02*
X34864Y840D01*
X25104Y1600D02*
X25864Y840D01*
X29154Y2050D02*
X30364Y840D01*
X38500Y5381D02*
Y6650D01*
X36636Y3517D02*
X38500Y5381D01*
X35253Y4900D02*
X36636Y3517D01*
X29643Y4900D02*
X35253D01*
X36096Y300D02*
X36636Y840D01*
X31596Y300D02*
X36096D01*
X27096D02*
X31596D01*
X32136Y840D01*
X27096Y300D02*
X27636Y840D01*
X25200Y300D02*
X27096D01*
X24500Y1000D02*
X25200Y300D01*
X12850Y4950D02*
X12929D01*
X15150Y2350D02*
X15650Y1850D01*
Y971D02*
Y1850D01*
X15429Y750D02*
X15650Y971D01*
X13850Y750D02*
X15429D01*
X11429Y3171D02*
X13850Y750D01*
X11429Y5450D02*
X11929Y5950D01*
X7243Y1850D02*
X7950D01*
X5929Y3164D02*
Y4950D01*
Y3164D02*
X7243Y1850D01*
X6429Y4371D02*
X8450Y2350D01*
X5750Y1350D02*
X7450D01*
X4750Y2350D02*
X5750Y1350D01*
X10429Y2350D02*
Y5450D01*
X16150Y850D02*
Y1350D01*
X15800Y500D02*
X16150Y850D01*
X5600Y500D02*
X15800D01*
X10429Y2350D02*
X10450D01*
X10429Y5450D02*
X10929Y5950D01*
X8950Y1850D02*
Y2650D01*
X6929Y4671D02*
X8950Y2650D01*
X21300Y8450D02*
X21600Y8150D01*
X23650Y2900D02*
X24500Y3750D01*
Y4000D01*
X22200Y5300D02*
X23500Y4000D01*
X21579Y5300D02*
X22200D01*
X18929Y7950D02*
X21579Y5300D01*
X21500Y4000D02*
Y5000D01*
X19491Y7009D02*
X21500Y5000D01*
X18929Y7009D02*
X19491D01*
X21800Y3300D02*
X22500Y4000D01*
X17500Y1000D02*
X21500D01*
X16150Y2350D02*
X17500Y1000D01*
X14650Y1850D02*
X15150Y1350D01*
X13800Y1850D02*
X14650D01*
X11929Y3721D02*
X13800Y1850D01*
X11929Y3721D02*
Y4950D01*
X15150Y2350D02*
Y2500D01*
X13150Y20436D02*
Y22950D01*
X12650Y23450D02*
X13150Y22950D01*
X12650Y20229D02*
Y22450D01*
X12150Y20436D02*
Y22950D01*
X13650Y22450D02*
X14650D01*
X12650Y20229D02*
X12929Y19950D01*
X12429Y19450D02*
X12929Y18950D01*
X12429Y19450D02*
Y20157D01*
X12150Y20436D02*
X12429Y20157D01*
X11650Y23450D02*
X12150Y22950D01*
X11650Y20229D02*
Y22450D01*
X11150Y20436D02*
Y22950D01*
X11650Y20229D02*
X11929Y19950D01*
X11429Y19442D02*
X11921Y18950D01*
X11429Y19442D02*
Y20157D01*
X11150Y20436D02*
X11429Y20157D01*
X10650Y23450D02*
X11150Y22950D01*
X10650Y20229D02*
X10929Y19950D01*
X10650Y20229D02*
Y22450D01*
X4429Y19446D02*
X4925Y18950D01*
X4429Y19446D02*
Y21229D01*
X5150Y21950D01*
Y23700D01*
X5450Y24000D01*
X6817D01*
X7150Y23667D01*
Y22950D02*
Y23667D01*
Y22950D02*
X7650Y22450D01*
X6900Y24200D02*
X7650Y23450D01*
X4683Y24200D02*
X6900D01*
X4150Y23667D02*
X4683Y24200D01*
X4150Y20171D02*
Y23667D01*
X3929Y19950D02*
X4150Y20171D01*
X35612Y6750D02*
Y7876D01*
X36536Y8800D01*
X10450Y1350D02*
X10950Y1850D01*
Y4929D01*
X10929Y4950D02*
X10950Y4929D01*
X9450Y2350D02*
Y2600D01*
X6929Y5950D02*
X7429Y5450D01*
X8950Y1850D02*
X9450Y1350D01*
X6929Y4671D02*
Y4950D01*
X7950Y1850D02*
X8450Y1350D01*
X1429Y7450D02*
X1929Y7950D01*
X712Y7450D02*
X1429D01*
X429Y7167D02*
X712Y7450D01*
X429Y3921D02*
Y7167D01*
Y3921D02*
X1300Y3050D01*
X3050D01*
X3750Y2350D01*
X3250Y1850D02*
X3750Y1350D01*
X2050Y1850D02*
X3250D01*
X150Y3750D02*
X2050Y1850D01*
X150Y3750D02*
Y7171D01*
X929Y7950D01*
X37150Y22500D02*
X38700Y20950D01*
Y12661D02*
Y20950D01*
X37689Y11650D02*
X38700Y12661D01*
X27950Y6593D02*
X28393Y6150D01*
X29643Y4900D01*
X21600Y6150D02*
X28393D01*
X30725Y13050D02*
Y18050D01*
X27525Y18000D02*
X27575Y18050D01*
X30725D01*
X4250Y1850D02*
X4750Y2350D01*
X4250Y1143D02*
Y1850D01*
Y1143D02*
X5193Y200D01*
X20700D01*
X21500Y1000D01*
X4750Y1350D02*
X5600Y500D01*
X27950Y8150D02*
X29488D01*
X27950Y7550D02*
Y8150D01*
X29488D02*
X30888Y6750D01*
X27400Y6593D02*
Y7550D01*
X27525Y13050D02*
X30725D01*
X33875Y9737D02*
Y13050D01*
X30888Y6750D02*
X33875Y9737D01*
X35589Y13750D02*
X37689Y11650D01*
X31425Y13750D02*
X35589D01*
X30725Y13050D02*
X31425Y13750D01*
X37689Y11561D02*
Y11650D01*
Y11561D02*
X38900Y10350D01*
X36600Y14750D02*
Y16410D01*
X37689Y13650D02*
Y13661D01*
X36600Y14750D02*
X37689Y13661D01*
X35030Y21100D02*
X35750D01*
X37150Y22500D01*
Y23650D01*
X37900Y7250D02*
X38900Y8250D01*
Y10350D01*
X36600Y16410D02*
X37990Y17800D01*
X34412Y18587D02*
X37990D01*
X33875Y18050D02*
X34412Y18587D01*
X35500Y21800D02*
X36600Y22900D01*
X35030Y21800D02*
X35500D01*
X34400D02*
Y22000D01*
X35300Y22900D01*
X34085Y21800D02*
Y22900D01*
X32050Y22450D02*
X33050D01*
X31050D02*
X32050D01*
X34085Y23450D02*
X35300D01*
X33050D02*
X34085D01*
X32050D02*
X33050D01*
X31050D02*
X32050D01*
X19900D02*
X20900Y22450D01*
X14650Y23450D02*
X19900D01*
X2650Y22450D02*
Y23450D01*
X3650Y22450D02*
Y23450D01*
X13650D02*
X14650D01*
X12500Y24600D02*
X13650Y23450D01*
X3800Y24600D02*
X12500D01*
X2650Y23450D02*
X3800Y24600D01*
X1429Y21229D02*
X2650Y22450D01*
X1429Y15450D02*
Y21229D01*
Y15450D02*
X1929Y14950D01*
X23500Y1000D02*
X24500D01*
X22500D02*
X23500D01*
X21500D02*
X22500D01*
X37900Y7250D02*
X38500Y6650D01*
D15*
X24375Y13050D02*
D03*
Y18000D02*
D03*
X33875Y18050D02*
D03*
Y13050D02*
D03*
D16*
X27525D02*
D03*
Y18000D02*
D03*
X30725Y18050D02*
D03*
Y13050D02*
D03*
D17*
X35030Y21100D02*
D03*
Y21800D02*
D03*
X34715Y21100D02*
D03*
Y21800D02*
D03*
X34400Y21100D02*
D03*
Y21800D02*
D03*
X34085Y21100D02*
D03*
Y21800D02*
D03*
D18*
X30888Y6750D02*
D03*
X35612D02*
D03*
D19*
X36600Y22900D02*
D03*
Y23450D02*
D03*
X35300Y22900D02*
D03*
Y23450D02*
D03*
X34085Y22900D02*
D03*
Y23450D02*
D03*
D20*
X27950Y6593D02*
D03*
X27400D02*
D03*
X27950Y7550D02*
D03*
X27400D02*
D03*
D36*
X37990Y19375D02*
D03*
Y16225D02*
D03*
D37*
Y18587D02*
D03*
Y17800D02*
D03*
Y17013D02*
D03*
D38*
X18929Y19950D02*
D03*
X17929D02*
D03*
X18929Y18950D02*
D03*
X17929D02*
D03*
X18929Y17950D02*
D03*
X17929D02*
D03*
Y16950D02*
D03*
X18929Y15950D02*
D03*
X17929D02*
D03*
X18929Y14950D02*
D03*
X17929D02*
D03*
X18929Y13950D02*
D03*
X17929D02*
D03*
X18929Y12950D02*
D03*
X17929D02*
D03*
X18929Y11950D02*
D03*
X17929D02*
D03*
X18929Y10950D02*
D03*
X17929D02*
D03*
Y9950D02*
D03*
X18929Y8950D02*
D03*
X17929D02*
D03*
X18929Y7950D02*
D03*
X17929D02*
D03*
X18929Y6950D02*
D03*
X17929D02*
D03*
X18929Y5950D02*
D03*
Y4950D02*
D03*
X17929D02*
D03*
X16929Y5950D02*
D03*
Y4950D02*
D03*
X15929Y5950D02*
D03*
Y4950D02*
D03*
X929Y12950D02*
D03*
X1929D02*
D03*
X929Y13950D02*
D03*
X1929D02*
D03*
X14929Y5950D02*
D03*
X13929D02*
D03*
Y4950D02*
D03*
X12929D02*
D03*
X11929Y5950D02*
D03*
Y4950D02*
D03*
X10929Y5950D02*
D03*
Y4950D02*
D03*
X9929Y5950D02*
D03*
Y4950D02*
D03*
X8929Y5950D02*
D03*
Y4950D02*
D03*
X7929Y5950D02*
D03*
Y4950D02*
D03*
X6929Y5950D02*
D03*
X5929D02*
D03*
Y4950D02*
D03*
X4929Y5950D02*
D03*
X3929D02*
D03*
Y4950D02*
D03*
X2929Y5950D02*
D03*
Y4950D02*
D03*
X929D02*
D03*
X1929D02*
D03*
X929Y5950D02*
D03*
X1929D02*
D03*
X929Y6950D02*
D03*
X1929D02*
D03*
X929Y7950D02*
D03*
X1929D02*
D03*
X929Y8950D02*
D03*
X1929D02*
D03*
Y9950D02*
D03*
X929Y10950D02*
D03*
X1929D02*
D03*
X929Y11950D02*
D03*
X1929D02*
D03*
X16929Y19950D02*
D03*
Y18950D02*
D03*
X15929Y19950D02*
D03*
Y18950D02*
D03*
X14929Y19950D02*
D03*
Y18950D02*
D03*
X13929Y19950D02*
D03*
Y18950D02*
D03*
X12929D02*
D03*
X11929Y19950D02*
D03*
Y18950D02*
D03*
X10929Y19950D02*
D03*
X9929D02*
D03*
Y18950D02*
D03*
X8929Y19950D02*
D03*
Y18950D02*
D03*
X7929Y19950D02*
D03*
Y18950D02*
D03*
X6929Y19950D02*
D03*
Y18950D02*
D03*
X5929Y19950D02*
D03*
Y18950D02*
D03*
X4929Y19950D02*
D03*
Y18950D02*
D03*
X3929Y19950D02*
D03*
Y18950D02*
D03*
X2929Y19950D02*
D03*
X1929D02*
D03*
X929D02*
D03*
X1929Y18950D02*
D03*
X929D02*
D03*
X1929Y17950D02*
D03*
X929D02*
D03*
Y16950D02*
D03*
Y15950D02*
D03*
Y14950D02*
D03*
X1929Y15950D02*
D03*
Y14950D02*
D03*
X10929Y18950D02*
D03*
X14929Y4926D02*
D03*
X4929Y4950D02*
D03*
X6929D02*
D03*
X12929Y5950D02*
D03*
X1929Y16950D02*
D03*
X929Y9950D02*
D03*
X17929Y5950D02*
D03*
X18929Y9950D02*
D03*
Y16950D02*
D03*
X12929Y19950D02*
D03*
X2929Y18950D02*
D03*
X32136Y840D02*
D03*
X30364D02*
D03*
Y3517D02*
D03*
X36636Y840D02*
D03*
X34864D02*
D03*
Y3517D02*
D03*
X27636Y840D02*
D03*
X25864D02*
D03*
Y3517D02*
D03*
X25900Y23450D02*
D03*
X21900D02*
D03*
X26900Y22450D02*
D03*
Y23450D02*
D03*
X27900Y22450D02*
D03*
X23900D02*
D03*
X22900Y23450D02*
D03*
Y22450D02*
D03*
X25900D02*
D03*
X24900Y23450D02*
D03*
Y22450D02*
D03*
X27900Y23450D02*
D03*
X23900D02*
D03*
X21900Y22450D02*
D03*
X20900Y23450D02*
D03*
Y22450D02*
D03*
X7650D02*
D03*
Y23450D02*
D03*
X4650D02*
D03*
Y22450D02*
D03*
X5650D02*
D03*
Y23450D02*
D03*
X6650Y22450D02*
D03*
X2650D02*
D03*
Y23450D02*
D03*
X3650Y22450D02*
D03*
X6650Y23450D02*
D03*
X3650D02*
D03*
X7450Y1350D02*
D03*
X9450Y2350D02*
D03*
X7450D02*
D03*
X10450Y1350D02*
D03*
X9450D02*
D03*
X8450Y2350D02*
D03*
X11450D02*
D03*
Y1350D02*
D03*
X8450D02*
D03*
X10450Y2350D02*
D03*
X10650Y22450D02*
D03*
X12650Y23450D02*
D03*
X10650D02*
D03*
X13650Y22450D02*
D03*
X12650D02*
D03*
X11650Y23450D02*
D03*
X14650D02*
D03*
Y22450D02*
D03*
X11650D02*
D03*
X13650Y23450D02*
D03*
X3750Y2350D02*
D03*
X4750Y1350D02*
D03*
Y2350D02*
D03*
X2750D02*
D03*
Y1350D02*
D03*
X3750D02*
D03*
X15150Y2350D02*
D03*
X16150Y1350D02*
D03*
Y2350D02*
D03*
X14150D02*
D03*
Y1350D02*
D03*
X15150D02*
D03*
X32050Y23450D02*
D03*
X33050Y22450D02*
D03*
Y23450D02*
D03*
X31050D02*
D03*
Y22450D02*
D03*
X32050D02*
D03*
X21600Y14500D02*
D03*
Y13500D02*
D03*
Y10500D02*
D03*
Y11500D02*
D03*
Y12500D02*
D03*
Y8150D02*
D03*
Y6150D02*
D03*
Y7150D02*
D03*
Y20800D02*
D03*
Y18800D02*
D03*
Y19800D02*
D03*
X32900Y20800D02*
D03*
X31900D02*
D03*
X30900D02*
D03*
X29900D02*
D03*
X27900D02*
D03*
X28900D02*
D03*
X37900Y8250D02*
D03*
Y7250D02*
D03*
X23500Y1000D02*
D03*
X24500D02*
D03*
X21500D02*
D03*
X22500D02*
D03*
X24500Y4000D02*
D03*
X23500D02*
D03*
X22500D02*
D03*
D39*
X32136Y3517D02*
D03*
X36636D02*
D03*
X27636D02*
D03*
X37900Y6250D02*
D03*
D40*
X37689Y13650D02*
D03*
D41*
Y11650D02*
D03*
D42*
X26900Y20800D02*
D03*
X21500Y4000D02*
D03*
D43*
X22900Y13050D02*
D03*
X36536Y8800D02*
D03*
D44*
X1181Y23622D02*
D03*
Y1181D02*
D03*
X38189D02*
D03*
Y23622D02*
D03*
M02*
